M48
; DRILL file {KiCad 7.0.10} date Wed Jan  8 07:23:31 2025
; FORMAT={-:-/ absolute / metric / decimal}
; #@! TF.CreationDate,2025-01-08T07:23:31-05:00
; #@! TF.GenerationSoftware,Kicad,Pcbnew,7.0.10
; #@! TF.FileFunction,MixedPlating,1,2
FMAT,2
METRIC
; #@! TA.AperFunction,Plated,PTH,ViaDrill
T1C0.400
; #@! TA.AperFunction,Plated,PTH,ComponentDrill
T2C0.400
; #@! TA.AperFunction,Plated,PTH,ComponentDrill
T3C0.500
; #@! TA.AperFunction,Plated,PTH,ComponentDrill
T4C1.000
; #@! TA.AperFunction,Plated,PTH,ComponentDrill
T5C1.100
; #@! TA.AperFunction,Plated,PTH,ComponentDrill
T6C1.300
; #@! TA.AperFunction,Plated,PTH,ViaDrill
T7C2.540
; #@! TA.AperFunction,Plated,PTH,ViaDrill
T8C5.080
%
G90
G05
T1
X3.913Y17.42
X8.104Y14.753
X9.044Y25.421
X10.34Y40.305
X11.66Y46.122
X13.845Y37.235
X13.921Y43.506
X15.026Y25.992
X16.359Y20.214
X17.909Y39.061
X17.96Y40.559
X17.985Y42.21
X18.01Y35.073
X18.137Y20.468
X19.153Y44.623
X19.23Y28.977
X19.28Y21.103
X19.534Y27.834
X19.939Y25.548
X20.96Y22.373
X21.185Y50.694
X21.439Y46.122
X21.795Y43.934
X21.846Y23.77
X21.947Y37.232
X23.09Y35.962
X23.217Y42.312
X23.217Y40.661
X23.217Y39.01
X24.516Y31.644
X25.376Y34.946
X25.605Y8.543
X25.63Y48.535
X25.63Y33.041
X27.281Y25.802
X29.186Y45.741
X29.313Y28.342
X29.948Y57.044
X30.076Y17.09
X33.123Y47.392
X34.393Y48.154
X35.917Y55.393
X37.568Y56.536
X40.108Y43.201
X41.378Y38.248
X42.14Y55.52
X42.267Y49.17
X42.267Y43.328
X43.029Y46.376
X43.283Y28.85
X43.283Y23.262
X43.664Y53.869
X44.426Y51.202
X44.934Y43.328
X45.188Y26.056
X46.839Y46.376
X47.474Y51.202
X49.887Y27.58
X50.014Y42.566
X50.014Y39.391
X50.014Y35.708
X50.014Y31.771
X51.919Y47.265
X53.697Y24.659
X55.348Y47.265
X55.729Y50.44
X56.618Y24.659
X58.777Y47.265
X59.285Y24.659
X61.825Y24.659
X62.206Y47.265
T2
X57.253Y43.01
X57.253Y41.01
X57.253Y39.01
X57.253Y37.01
X57.253Y35.01
X57.253Y33.01
X57.253Y31.01
X57.253Y29.01
X57.253Y27.01
X62.253Y45.01
X62.253Y43.01
X62.253Y41.01
X62.253Y39.01
X62.253Y37.01
X62.253Y35.01
X62.253Y33.01
X62.253Y31.01
X62.253Y29.01
X62.253Y27.01
T4
X11.44Y8.89
X17.629Y60.727
X19.04Y8.89
X22.129Y60.727
X27.789Y21.611
X30.329Y21.611
X32.869Y21.611
X35.409Y21.611
X41.632Y60.67
X46.132Y60.67
T5
X29.462Y12.391
X29.462Y5.891
X33.962Y12.391
X33.962Y5.891
T6
X16.379Y58.227
X23.379Y58.227
X40.382Y58.17
X47.382Y58.17
T7
X12.93Y22.119
X13.04Y55.18
X50.268Y55.266
X50.268Y22.246
T8
X3.81Y59.69
X3.81Y3.81
X59.69Y59.69
X59.69Y3.81
T3
G00X28.934Y61.712
M15
G01X28.934Y61.012
M16
G05
G00X35.534Y61.712
M15
G01X35.534Y61.012
M16
G05
M30
