999
dxfrw 0.6.3
  0
SECTION
  2
HEADER
  9
$ACADVER
  1
AC1021
  9
$DWGCODEPAGE
  3
ANSI_1252
  9
$INSBASE
 10
0
 20
0
 30
0
  9
$EXTMIN
 10
-5
 20
-5
 30
0
  9
$EXTMAX
 10
264.4
 20
200.9
 30
0
  9
$LIMMIN
 10
0
 20
0
  9
$LIMMAX
 10
420
 20
297
  9
$ORTHOMODE
 70
    0
  9
$REGENMODE
 70
    1
  9
$FILLMODE
 70
    1
  9
$QTEXTMODE
 70
    0
  9
$MIRRTEXT
 70
    0
  9
$LTSCALE
 40
1
  9
$ATTMODE
 70
    0
  9
$TEXTSIZE
 40
2.5
  9
$TRACEWID
 40
15.68
  9
$TEXTSTYLE
  7
STANDARD
  9
$CLAYER
  8
0
  9
$CELTYPE
  6
BYLAYER
  9
$CECOLOR
 62
  256
  9
$CELTSCALE
 40
1
  9
$DISPSILH
 70
    0
  9
$DIMSCALE
 40
1
  9
$DIMASZ
 40
2
  9
$DIMEXO
 40
2
  9
$DIMDLI
 40
3.75
  9
$DIMRND
 40
0
  9
$DIMDLE
 40
0
  9
$DIMEXE
 40
2
  9
$DIMTP
 40
0
  9
$DIMTM
 40
0
  9
$DIMTXT
 40
2
  9
$DIMCEN
 40
2.5
  9
$DIMTSZ
 40
0
  9
$DIMTOL
 70
    0
  9
$DIMLIM
 70
    0
  9
$DIMTIH
 70
    0
  9
$DIMTOH
 70
    0
  9
$DIMSE1
 70
    0
  9
$DIMSE2
 70
    0
  9
$DIMTAD
 70
    1
  9
$DIMZIN
 70
    1
  9
$DIMBLK
  1

  9
$DIMASO
 70
    1
  9
$DIMSHO
 70
    1
  9
$DIMPOST
  1

  9
$DIMAPOST
  1

  9
$DIMALT
 70
    0
  9
$DIMALTD
 70
    3
  9
$DIMALTF
 40
0.03937
  9
$DIMLFAC
 40
1
  9
$DIMTOFL
 70
    1
  9
$DIMTVP
 40
0
  9
$DIMTIX
 70
    0
  9
$DIMSOXD
 70
    0
  9
$DIMSAH
 70
    0
  9
$DIMBLK1
  1

  9
$DIMBLK2
  1

  9
$DIMSTYLE
  2
STANDARD
  9
$DIMCLRD
 70
    0
  9
$DIMCLRE
 70
    0
  9
$DIMCLRT
 70
    0
  9
$DIMTFAC
 40
1
  9
$DIMGAP
 40
1
  9
$DIMJUST
 70
    0
  9
$DIMSD1
 70
    0
  9
$DIMSD2
 70
    0
  9
$DIMTOLJ
 70
    0
  9
$DIMTZIN
 70
    8
  9
$DIMALTZ
 70
    0
  9
$DIMALTTZ
 70
    0
  9
$DIMUPT
 70
    0
  9
$DIMDEC
 70
    1
  9
$DIMTDEC
 70
    2
  9
$DIMALTU
 70
    2
  9
$DIMALTTD
 70
    3
  9
$DIMTXSTY
  7
standard
  9
$DIMAUNIT
 70
    0
  9
$DIMADEC
 70
    1
  9
$DIMALTRND
 40
0
  9
$DIMAZIN
 70
    0
  9
$DIMDSEP
 70
    0
  9
$DIMATFIT
 70
    3
  9
$DIMFRAC
 70
    0
  9
$DIMLDRBLK
  1
STANDARD
  9
$DIMLUNIT
 70
    2
  9
$DIMLWD
 70
   -2
  9
$DIMLWE
 70
   -2
  9
$DIMTMOVE
 70
    0
  9
$DIMFXL
 40
0.04
  9
$DIMFXLON
 70
    0
  9
$DIMJOGANG
 40
0.7854
  9
$DIMTFILL
 70
    0
  9
$DIMTFILLCLR
 70
    0
  9
$DIMARCSYM
 70
    0
  9
$DIMLTYPE
  6

  9
$DIMLTEX1
  6

  9
$DIMLTEX2
  6

  9
$LUNITS
 70
    2
  9
$LUPREC
 70
    2
  9
$SKETCHINC
 40
1
  9
$FILLETRAD
 40
0
  9
$AUNITS
 70
    0
  9
$AUPREC
 70
    2
  9
$MENU
  1
.
  9
$ELEVATION
 40
0
  9
$PELEVATION
 40
0
  9
$THICKNESS
 40
0
  9
$LIMCHECK
 70
    0
  9
$CHAMFERA
 40
0
  9
$CHAMFERB
 40
0
  9
$CHAMFERC
 40
0
  9
$CHAMFERD
 40
0
  9
$SKPOLY
 70
    0
  9
$USRTIMER
 70
    1
  9
$ANGBASE
 50
0
  9
$ANGDIR
 70
    0
  9
$PDMODE
 70
   34
  9
$PDSIZE
 40
0
  9
$PLINEWID
 40
0
  9
$SPLFRAME
 70
    0
  9
$SPLINETYPE
 70
    2
  9
$SPLINESEGS
 70
    8
  9
$HANDSEED
  5
20000
  9
$SURFTAB1
 70
    6
  9
$SURFTAB2
 70
    6
  9
$SURFTYPE
 70
    6
  9
$SURFU
 70
    6
  9
$SURFV
 70
    6
  9
$UCSBASE
  2

  9
$UCSNAME
  2

  9
$UCSORG
 10
0
 20
0
 30
0
  9
$UCSXDIR
 10
1
 20
0
 30
0
  9
$UCSYDIR
 10
0
 20
1
 30
0
  9
$UCSORTHOREF
  2

  9
$UCSORTHOVIEW
 70
    0
  9
$UCSORGTOP
 10
0
 20
0
 30
0
  9
$UCSORGBOTTOM
 10
0
 20
0
 30
0
  9
$UCSORGLEFT
 10
0
 20
0
 30
0
  9
$UCSORGRIGHT
 10
0
 20
0
 30
0
  9
$UCSORGFRONT
 10
0
 20
0
 30
0
  9
$UCSORGBACK
 10
0
 20
0
 30
0
  9
$PUCSBASE
  2

  9
$PUCSNAME
  2

  9
$PUCSORG
 10
0
 20
0
 30
0
  9
$PUCSXDIR
 10
1
 20
0
 30
0
  9
$PUCSYDIR
 10
0
 20
1
 30
0
  9
$PUCSORTHOREF
  2

  9
$PUCSORTHOVIEW
 70
    0
  9
$PUCSORGTOP
 10
0
 20
0
 30
0
  9
$PUCSORGBOTTOM
 10
0
 20
0
 30
0
  9
$PUCSORGLEFT
 10
0
 20
0
 30
0
  9
$PUCSORGRIGHT
 10
0
 20
0
 30
0
  9
$PUCSORGFRONT
 10
0
 20
0
 30
0
  9
$PUCSORGBACK
 10
0
 20
0
 30
0
  9
$USERI1
 70
    0
  9
$USERI2
 70
    0
  9
$USERI3
 70
    0
  9
$USERI4
 70
    0
  9
$USERI5
 70
    0
  9
$USERR1
 40
0
  9
$USERR2
 40
0
  9
$USERR3
 40
0
  9
$USERR4
 40
0
  9
$USERR5
 40
0
  9
$WORLDVIEW
 70
    1
  9
$SHADEDGE
 70
    3
  9
$SHADEDIF
 70
   70
  9
$TILEMODE
 70
    1
  9
$MAXACTVP
 70
   64
  9
$PINSBASE
 10
19.44876153472559
 20
17.13574550752793
 30
0
  9
$PLIMCHECK
 70
    0
  9
$PEXTMIN
 10
0
 20
0
 30
0
  9
$PEXTMAX
 10
0
 20
0
 30
0
  9
$GRIDMODE
 70
    0
  9
$SNAPSTYLE
 70
    0
  9
$GRIDUNIT
 10
0
 20
0
  9
$PLIMMIN
 10
0
 20
0
  9
$PLIMMAX
 10
279.4
 20
215.9
  9
$UNITMODE
 70
    0
  9
$VISRETAIN
 70
    1
  9
$PLINEGEN
 70
    0
  9
$PSLTSCALE
 70
    1
  9
$TREEDEPTH
 70
 3020
  9
$CMLSTYLE
  2
Standard
  9
$CMLJUST
 70
    0
  9
$CMLSCALE
 40
20
  9
$PROXYGRAPHICS
 70
    1
  9
$MEASUREMENT
 70
    1
  9
$CELWEIGHT
370
   -1
  9
$ENDCAPS
280
    0
  9
$JOINSTYLE
280
    0
  9
$LWDISPLAY
290
    0
  9
$INSUNITS
 70
    4
  9
$HYPERLINKBASE
  1

  9
$STYLESHEET
  1

  9
$XEDIT
290
    1
  9
$CEPSNTYPE
380
    0
  9
$PSTYLEMODE
290
    1
  9
$EXTNAMES
290
    1
  9
$PSVPSCALE
 40
0.9271449498414581
  9
$OLESTARTUP
290
    0
  9
$SORTENTS
280
  127
  9
$INDEXCTL
280
    0
  9
$HIDETEXT
280
    1
  9
$XCLIPFRAME
290
    0
  9
$HALOGAP
280
    0
  9
$OBSCOLOR
 70
  257
  9
$OBSLTYPE
280
    0
  9
$INTERSECTIONDISPLAY
280
    0
  9
$INTERSECTIONCOLOR
 70
  257
  9
$DIMASSOC
280
    1
  9
$PROJECTNAME
  1

  9
$CAMERADISPLAY
290
    0
  9
$LENSLENGTH
 40
50
  9
$CAMERAHEIGHT
 40
0
  9
$STEPSPERSEC
 40
2
  9
$STEPSIZE
 40
50
  9
$3DDWFPREC
 40
2
  9
$PSOLWIDTH
 40
5
  9
$PSOLHEIGHT
 40
80
  9
$LOFTANG1
 40
1.570796326794897
  9
$LOFTANG2
 40
1.570796326794897
  9
$LOFTMAG1
 40
0
  9
$LOFTMAG2
 40
0
  9
$LOFTPARAM
 70
    7
  9
$LOFTNORMALS
280
    1
  9
$LATITUDE
 40
1
  9
$LONGITUDE
 40
1
  9
$NORTHDIRECTION
 40
0
  9
$TIMEZONE
 70
-8000
  9
$LIGHTGLYPHDISPLAY
280
    1
  9
$TILEMODELIGHTSYNCH
280
    1
  9
$SOLIDHIST
280
    1
  9
$SHOWHIST
280
    1
  9
$DWFFRAME
280
    2
  9
$DGNFRAME
280
    0
  9
$REALWORLDSCALE
290
    1
  9
$INTERFERECOLOR
 62
    1
  9
$CSHADOW
280
    0
  9
$SHADOWPLANELOCATION
 40
0
  0
ENDSEC
  0
SECTION
  2
CLASSES
  0
ENDSEC
  0
SECTION
  2
TABLES
  0
TABLE
  2
VPORT
  5
8
330
0
100
AcDbSymbolTable
 70
    1
  0
VPORT
  5
31
330
2
100
AcDbSymbolTableRecord
100
AcDbViewportTableRecord
  2
*ACTIVE
 70
    0
 10
0
 20
0
 11
1
 21
1
 12
142.651358086384
 22
105.0116427598215
 13
0
 23
0
 14
10
 24
10
 15
10
 25
10
 16
0
 26
0
 36
1
 17
0
 27
0
 37
0
 40
229.0012932473216
 41
1.430939226519337
 42
50
 43
0
 44
0
 50
0
 51
0
 71
    0
 72
  100
 73
    1
 74
    3
 75
    0
 76
    0
 77
    0
 78
    0
281
    0
 65
    1
110
0
120
0
130
0
111
1
121
0
131
0
112
0
122
1
132
0
 79
    0
146
0
348
10020
 60
    7
 61
    5
292
1
282
    1
141
0
142
0
 63
  250
421
3358443
  0
ENDTAB
  0
TABLE
  2
LTYPE
  5
5
330
0
100
AcDbSymbolTable
 70
    4
  0
LTYPE
  5
14
330
5
100
AcDbSymbolTableRecord
100
AcDbLinetypeTableRecord
  2
ByBlock
 70
    0
  3

 72
   65
 73
    0
 40
0
  0
LTYPE
  5
15
330
5
100
AcDbSymbolTableRecord
100
AcDbLinetypeTableRecord
  2
ByLayer
 70
    0
  3

 72
   65
 73
    0
 40
0
  0
LTYPE
  5
16
330
5
100
AcDbSymbolTableRecord
100
AcDbLinetypeTableRecord
  2
Continuous
 70
    0
  3
Solid line
 72
   65
 73
    0
 40
0
  0
LTYPE
  5
32
330
5
100
AcDbSymbolTableRecord
100
AcDbLinetypeTableRecord
  2
DOT
 70
    0
  3
Dot . . . . . . . . . . . . . . . . . . . . . .
 72
   65
 73
    2
 40
6.35
 49
0
 74
    0
 49
-6.35
 74
    0
  0
LTYPE
  5
33
330
5
100
AcDbSymbolTableRecord
100
AcDbLinetypeTableRecord
  2
DOTTINY
 70
    0
  3
Dot (.15x) .....................................
 72
   65
 73
    2
 40
0.9525
 49
0
 74
    0
 49
-0.9525
 74
    0
  0
LTYPE
  5
34
330
5
100
AcDbSymbolTableRecord
100
AcDbLinetypeTableRecord
  2
DOT2
 70
    0
  3
Dot (.5x) .....................................
 72
   65
 73
    2
 40
3.175
 49
0
 74
    0
 49
-3.175
 74
    0
  0
LTYPE
  5
35
330
5
100
AcDbSymbolTableRecord
100
AcDbLinetypeTableRecord
  2
DOTX2
 70
    0
  3
Dot (2x) .  .  .  .  .  .  .  .  .  .  .  .  .
 72
   65
 73
    2
 40
12.7
 49
0
 74
    0
 49
-12.7
 74
    0
  0
LTYPE
  5
36
330
5
100
AcDbSymbolTableRecord
100
AcDbLinetypeTableRecord
  2
DASHED
 70
    0
  3
Dashed _ _ _ _ _ _ _ _ _ _ _ _ _ _ _ _ _
 72
   65
 73
    2
 40
19.05
 49
12.7
 74
    0
 49
-6.35
 74
    0
  0
LTYPE
  5
37
330
5
100
AcDbSymbolTableRecord
100
AcDbLinetypeTableRecord
  2
DASHEDTINY
 70
    0
  3
Dashed (.15x) _ _ _ _ _ _ _ _ _ _ _ _ _ _ _ _ _
 72
   65
 73
    2
 40
2.8575
 49
1.905
 74
    0
 49
-0.9525
 74
    0
  0
LTYPE
  5
38
330
5
100
AcDbSymbolTableRecord
100
AcDbLinetypeTableRecord
  2
DASHED2
 70
    0
  3
Dashed (.5x) _ _ _ _ _ _ _ _ _ _ _ _ _ _ _ _ _
 72
   65
 73
    2
 40
9.524999999999999
 49
6.35
 74
    0
 49
-3.175
 74
    0
  0
LTYPE
  5
39
330
5
100
AcDbSymbolTableRecord
100
AcDbLinetypeTableRecord
  2
DASHEDX2
 70
    0
  3
Dashed (2x) ____  ____  ____  ____  ____  ___
 72
   65
 73
    2
 40
38.09999999999999
 49
25.4
 74
    0
 49
-12.7
 74
    0
  0
LTYPE
  5
3A
330
5
100
AcDbSymbolTableRecord
100
AcDbLinetypeTableRecord
  2
DASHDOT
 70
    0
  3
Dash dot __ . __ . __ . __ . __ . __ . __ . __
 72
   65
 73
    4
 40
25.4
 49
12.7
 74
    0
 49
-6.35
 74
    0
 49
0
 74
    0
 49
-6.35
 74
    0
  0
LTYPE
  5
3B
330
5
100
AcDbSymbolTableRecord
100
AcDbLinetypeTableRecord
  2
DASHDOTTINY
 70
    0
  3
Dash dot (.15x) _._._._._._._._._._._._._._._.
 72
   65
 73
    4
 40
3.81
 49
1.905
 74
    0
 49
-0.9525
 74
    0
 49
0
 74
    0
 49
-0.9525
 74
    0
  0
LTYPE
  5
3C
330
5
100
AcDbSymbolTableRecord
100
AcDbLinetypeTableRecord
  2
DASHDOT2
 70
    0
  3
Dash dot (.5x) _._._._._._._._._._._._._._._.
 72
   65
 73
    4
 40
12.7
 49
6.35
 74
    0
 49
-3.175
 74
    0
 49
0
 74
    0
 49
-3.175
 74
    0
  0
LTYPE
  5
3D
330
5
100
AcDbSymbolTableRecord
100
AcDbLinetypeTableRecord
  2
DASHDOTX2
 70
    0
  3
Dash dot (2x) ____  .  ____  .  ____  .  ___
 72
   65
 73
    4
 40
50.8
 49
25.4
 74
    0
 49
-12.7
 74
    0
 49
0
 74
    0
 49
-12.7
 74
    0
  0
LTYPE
  5
3E
330
5
100
AcDbSymbolTableRecord
100
AcDbLinetypeTableRecord
  2
DIVIDE
 70
    0
  3
Divide ____ . . ____ . . ____ . . ____ . . ____
 72
   65
 73
    6
 40
31.75
 49
12.7
 74
    0
 49
-6.35
 74
    0
 49
0
 74
    0
 49
-6.35
 74
    0
 49
0
 74
    0
 49
-6.35
 74
    0
  0
LTYPE
  5
3F
330
5
100
AcDbSymbolTableRecord
100
AcDbLinetypeTableRecord
  2
DIVIDETINY
 70
    0
  3
Divide (.15x) __..__..__..__..__..__..__..__.._
 72
   65
 73
    6
 40
4.7625
 49
1.905
 74
    0
 49
-0.9525
 74
    0
 49
0
 74
    0
 49
-0.9525
 74
    0
 49
0
 74
    0
 49
-0.9525
 74
    0
  0
LTYPE
  5
40
330
5
100
AcDbSymbolTableRecord
100
AcDbLinetypeTableRecord
  2
DIVIDE2
 70
    0
  3
Divide (.5x) __..__..__..__..__..__..__..__.._
 72
   65
 73
    6
 40
15.875
 49
6.35
 74
    0
 49
-3.175
 74
    0
 49
0
 74
    0
 49
-3.175
 74
    0
 49
0
 74
    0
 49
-3.175
 74
    0
  0
LTYPE
  5
41
330
5
100
AcDbSymbolTableRecord
100
AcDbLinetypeTableRecord
  2
DIVIDEX2
 70
    0
  3
Divide (2x) ________  .  .  ________  .  .  _
 72
   65
 73
    6
 40
63.5
 49
25.4
 74
    0
 49
-12.7
 74
    0
 49
0
 74
    0
 49
-12.7
 74
    0
 49
0
 74
    0
 49
-12.7
 74
    0
  0
LTYPE
  5
42
330
5
100
AcDbSymbolTableRecord
100
AcDbLinetypeTableRecord
  2
BORDER
 70
    0
  3
Border __ __ . __ __ . __ __ . __ __ . __ __ .
 72
   65
 73
    6
 40
44.45
 49
12.7
 74
    0
 49
-6.35
 74
    0
 49
12.7
 74
    0
 49
-6.35
 74
    0
 49
0
 74
    0
 49
-6.35
 74
    0
  0
LTYPE
  5
43
330
5
100
AcDbSymbolTableRecord
100
AcDbLinetypeTableRecord
  2
BORDERTINY
 70
    0
  3
Border (.15x) __.__.__.__.__.__.__.__.__.__.__.
 72
   65
 73
    6
 40
6.6675
 49
1.905
 74
    0
 49
-0.9525
 74
    0
 49
1.905
 74
    0
 49
-0.9525
 74
    0
 49
0
 74
    0
 49
-0.9525
 74
    0
  0
LTYPE
  5
44
330
5
100
AcDbSymbolTableRecord
100
AcDbLinetypeTableRecord
  2
BORDER2
 70
    0
  3
Border (.5x) __.__.__.__.__.__.__.__.__.__.__.
 72
   65
 73
    6
 40
22.225
 49
6.35
 74
    0
 49
-3.175
 74
    0
 49
6.35
 74
    0
 49
-3.175
 74
    0
 49
0
 74
    0
 49
-3.175
 74
    0
  0
LTYPE
  5
45
330
5
100
AcDbSymbolTableRecord
100
AcDbLinetypeTableRecord
  2
BORDERX2
 70
    0
  3
Border (2x) ____  ____  .  ____  ____  .  ___
 72
   65
 73
    6
 40
88.89999999999999
 49
25.4
 74
    0
 49
-12.7
 74
    0
 49
25.4
 74
    0
 49
-12.7
 74
    0
 49
0
 74
    0
 49
-12.7
 74
    0
  0
LTYPE
  5
46
330
5
100
AcDbSymbolTableRecord
100
AcDbLinetypeTableRecord
  2
CENTER
 70
    0
  3
Center ____ _ ____ _ ____ _ ____ _ ____ _ ____
 72
   65
 73
    4
 40
50.8
 49
31.75
 74
    0
 49
-6.35
 74
    0
 49
6.35
 74
    0
 49
-6.35
 74
    0
  0
LTYPE
  5
47
330
5
100
AcDbSymbolTableRecord
100
AcDbLinetypeTableRecord
  2
CENTERTINY
 70
    0
  3
Center (.15x) ___ _ ___ _ ___ _ ___ _ ___ _ ___
 72
   65
 73
    4
 40
7.62
 49
4.7625
 74
    0
 49
-0.9525
 74
    0
 49
0.9525
 74
    0
 49
-0.9525
 74
    0
  0
LTYPE
  5
48
330
5
100
AcDbSymbolTableRecord
100
AcDbLinetypeTableRecord
  2
CENTER2
 70
    0
  3
Center (.5x) ___ _ ___ _ ___ _ ___ _ ___ _ ___
 72
   65
 73
    4
 40
28.575
 49
19.05
 74
    0
 49
-3.175
 74
    0
 49
3.175
 74
    0
 49
-3.175
 74
    0
  0
LTYPE
  5
49
330
5
100
AcDbSymbolTableRecord
100
AcDbLinetypeTableRecord
  2
CENTERX2
 70
    0
  3
Center (2x) ________  __  ________  __  _____
 72
   65
 73
    4
 40
101.6
 49
63.5
 74
    0
 49
-12.7
 74
    0
 49
12.7
 74
    0
 49
-12.7
 74
    0
  0
ENDTAB
  0
TABLE
  2
LAYER
  5
2
330
0
100
AcDbSymbolTable
 70
    1
  0
LAYER
  5
10
330
2
100
AcDbSymbolTableRecord
100
AcDbLayerTableRecord
  2
0
 70
    0
 62
    7
  6
CONTINUOUS
370
    0
390
F
  0
LAYER
  5
4A
330
2
100
AcDbSymbolTableRecord
100
AcDbLayerTableRecord
  2
Asize
 70
    1
 62
    6
  6
CONTINUOUS
370
   35
390
F
  0
LAYER
  5
4B
330
2
100
AcDbSymbolTableRecord
100
AcDbLayerTableRecord
  2
BoxBottom
 70
    1
 62
    6
  6
CONTINUOUS
370
    0
390
F
  0
LAYER
  5
4C
330
2
100
AcDbSymbolTableRecord
100
AcDbLayerTableRecord
  2
BoxTop
 70
    1
 62
    3
  6
CONTINUOUS
370
   15
390
F
  0
LAYER
  5
4D
330
2
100
AcDbSymbolTableRecord
100
AcDbLayerTableRecord
  2
Cutout
 70
    0
 62
    6
  6
CONTINUOUS
370
   13
390
F
  0
LAYER
  5
4E
330
2
100
AcDbSymbolTableRecord
100
AcDbLayerTableRecord
  2
Dimensions
 70
    0
 62
    7
  6
CONTINUOUS
370
   13
390
F
  0
LAYER
  5
4F
330
2
100
AcDbSymbolTableRecord
100
AcDbLayerTableRecord
  2
Drawing_Border
 70
    0
 62
    7
  6
CONTINUOUS
370
   35
390
F
  0
LAYER
  5
50
330
2
100
AcDbSymbolTableRecord
100
AcDbLayerTableRecord
  2
Inside
 70
    1
 62
    7
  6
CONTINUOUS
370
    0
390
F
  0
LAYER
  5
51
330
2
100
AcDbSymbolTableRecord
100
AcDbLayerTableRecord
  2
Overlay
 70
    1
 62
    4
  6
CONTINUOUS
370
    0
390
F
  0
LAYER
  5
52
330
2
100
AcDbSymbolTableRecord
100
AcDbLayerTableRecord
  2
OverlayDimensions
 70
    1
 62
    4
  6
CONTINUOUS
370
    0
390
F
  0
LAYER
  5
53
330
2
100
AcDbSymbolTableRecord
100
AcDbLayerTableRecord
  2
PCB
 70
    1
 62
    3
  6
CONTINUOUS
370
    0
390
F
  0
LAYER
  5
54
330
2
100
AcDbSymbolTableRecord
100
AcDbLayerTableRecord
  2
Title_Block
 70
    0
 62
    7
  6
CONTINUOUS
370
   13
390
F
  0
ENDTAB
  0
TABLE
  2
STYLE
  5
3
330
0
100
AcDbSymbolTable
 70
    3
  0
STYLE
  5
55
330
2
100
AcDbSymbolTableRecord
100
AcDbTextStyleTableRecord
  2
iso
 70
    0
 40
0
 41
1
 50
0
 71
    0
 42
1
  3
iso
  4

  0
STYLE
  5
56
330
2
100
AcDbSymbolTableRecord
100
AcDbTextStyleTableRecord
  2
Standard
 70
    0
 40
0
 41
1
 50
0
 71
    0
 42
1
  3
txt
  4

  0
ENDTAB
  0
TABLE
  2
VIEW
  5
6
330
0
100
AcDbSymbolTable
 70
    0
  0
ENDTAB
  0
TABLE
  2
UCS
  5
7
330
0
100
AcDbSymbolTable
 70
    0
  0
ENDTAB
  0
TABLE
  2
APPID
  5
9
330
0
100
AcDbSymbolTable
 70
    1
  0
APPID
  5
12
330
9
100
AcDbSymbolTableRecord
100
AcDbRegAppTableRecord
  2
ACAD
 70
    0
  0
APPID
  5
57
330
9
100
AcDbSymbolTableRecord
100
AcDbRegAppTableRecord
  2
LibreCad
 70
    0
  0
ENDTAB
  0
TABLE
  2
DIMSTYLE
  5
A
330
0
100
AcDbSymbolTable
 70
    1
100
AcDbDimStyleTable
 71
    1
  0
DIMSTYLE
105
58
330
A
100
AcDbSymbolTableRecord
100
AcDbDimStyleTableRecord
  2
Standard
 70
    0
 40
1
 41
2
 42
2
 43
0.38
 44
2
 45
0
 46
0
 47
0
 48
0
 49
0.04
140
2
141
0.09
142
0
143
25.4
144
1
145
0
146
1
147
1
148
0
 71
    0
 72
    0
 73
    0
 74
    1
 75
    0
 76
    0
 77
    0
 78
    1
 79
    0
170
    0
171
    2
172
    0
173
    0
174
    0
175
    0
176
    0
177
    0
178
    0
179
    1
271
    1
272
    4
273
    2
274
    2
275
    0
276
    0
277
    2
278
    0
279
    0
280
    0
281
    0
282
    0
283
    1
284
    0
285
    0
286
    0
288
    0
289
    3
340
standard
341

371
   -2
372
   -2
  0
ENDTAB
  0
TABLE
  2
BLOCK_RECORD
  5
1
330
0
100
AcDbSymbolTable
 70
    2
  0
BLOCK_RECORD
  5
1F
330
1
100
AcDbSymbolTableRecord
100
AcDbBlockTableRecord
  2
*Model_Space
 70
    0
280
    1
281
    0
  0
BLOCK_RECORD
  5
1E
330
1
100
AcDbSymbolTableRecord
100
AcDbBlockTableRecord
  2
*Paper_Space
 70
    0
280
    1
281
    0
  0
BLOCK_RECORD
  5
59
330
1
100
AcDbSymbolTableRecord
100
AcDbBlockTableRecord
  2
*D2
 70
    0
280
    1
281
    0
  0
BLOCK_RECORD
  5
5C
330
1
100
AcDbSymbolTableRecord
100
AcDbBlockTableRecord
  2
*D4
 70
    0
280
    1
281
    0
  0
BLOCK_RECORD
  5
5F
330
1
100
AcDbSymbolTableRecord
100
AcDbBlockTableRecord
  2
*D3
 70
    0
280
    1
281
    0
  0
BLOCK_RECORD
  5
62
330
1
100
AcDbSymbolTableRecord
100
AcDbBlockTableRecord
  2
*D5
 70
    0
280
    1
281
    0
  0
BLOCK_RECORD
  5
65
330
1
100
AcDbSymbolTableRecord
100
AcDbBlockTableRecord
  2
*D6
 70
    0
280
    1
281
    0
  0
BLOCK_RECORD
  5
68
330
1
100
AcDbSymbolTableRecord
100
AcDbBlockTableRecord
  2
*D1
 70
    0
280
    1
281
    0
  0
ENDTAB
  0
ENDSEC
  0
SECTION
  2
BLOCKS
  0
BLOCK
  5
20
330
1F
100
AcDbEntity
  8
0
100
AcDbBlockBegin
  2
*Model_Space
 70
    0
 10
0
 20
0
 30
0
  3
*Model_Space
  1

  0
ENDBLK
  5
21
330
1F
100
AcDbEntity
  8
0
100
AcDbBlockEnd
  0
BLOCK
  5
1C
330
1B
100
AcDbEntity
  8
0
100
AcDbBlockBegin
  2
*Paper_Space
 70
    0
 10
0
 20
0
 30
0
  3
*Paper_Space
  1

  0
ENDBLK
  5
1D
330
1F
100
AcDbEntity
  8
0
100
AcDbBlockEnd
  0
BLOCK
  5
5A
330
59
100
AcDbEntity
  8
0
100
AcDbBlockBegin
  2
*D2
 70
    1
 10
0
 20
0
  3
*D2
  1

  0
LINE
  5
6B
100
AcDbEntity
  8
Dimensions
  6
ByBlock
 62
    0
370
   -2
100
AcDbLine
 10
152.0358710369281
 20
112.0076493358414
 11
152.0358710369281
 21
101.4676493358414
  0
SOLID
  5
6C
100
AcDbEntity
  8
Dimensions
  6
ByBlock
 62
    0
370
   -2
100
AcDbTrace
 10
152.0358710369281
 20
108.0076493358414
 30
0
 11
151.7028433107099
 21
110.0076493358414
 31
0
 12
152.3688987631464
 22
110.0076493358414
 32
0
 13
152.3688987631464
 23
110.0076493358414
 33
0
  0
SOLID
  5
6D
100
AcDbEntity
  8
Dimensions
  6
ByBlock
 62
    0
370
   -2
100
AcDbTrace
 10
152.0358710369281
 20
105.4676493358414
 30
0
 11
152.3688987631464
 21
103.4676493358414
 31
0
 12
151.7028433107099
 22
103.4676493358414
 32
0
 13
151.7028433107099
 23
103.4676493358414
 33
0
  0
MTEXT
  5
6E
100
AcDbEntity
  8
Dimensions
  6
CONTINUOUS
 62
    0
370
   -2
100
AcDbMText
 10
150.0358710369281
 20
110.563204891397
 30
0
 40
2
 41
3.111111111111235
 71
    5
 72
    1
  1
2.5
  7
standard
210
0
220
0
230
1
 50
90
 73
    2
 44
1
  0
LINE
  5
6F
100
AcDbEntity
  8
Dimensions
  6
ByBlock
 62
    0
370
   -2
100
AcDbLine
 10
144.6561705082579
 20
108.0076493358414
 11
154.0358710369281
 21
108.0076493358414
  0
LINE
  5
70
100
AcDbEntity
  8
Dimensions
  6
ByBlock
 62
    0
370
   -2
100
AcDbLine
 10
144.6561705082579
 20
105.4676493358414
 11
154.0358710369281
 21
105.4676493358414
  0
ENDBLK
  5
5B
330
59
100
AcDbEntity
  8
0
100
AcDbBlockEnd
  0
BLOCK
  5
5D
330
5C
100
AcDbEntity
  8
0
100
AcDbBlockBegin
  2
*D4
 70
    1
 10
0
 20
0
  3
*D4
  1

  0
LINE
  5
71
100
AcDbEntity
  8
Dimensions
  6
ByBlock
 62
    0
370
   -2
100
AcDbLine
 10
102.6561705082579
 20
127.8772439784915
 11
142.6561705082579
 21
127.8772439784915
  0
SOLID
  5
72
100
AcDbEntity
  8
Dimensions
  6
ByBlock
 62
    0
370
   -2
100
AcDbTrace
 10
102.6561705082579
 20
127.8772439784915
 30
0
 11
104.6561705082579
 21
128.2102717047098
 31
0
 12
104.6561705082579
 22
127.5442162522732
 32
0
 13
104.6561705082579
 23
127.5442162522732
 33
0
  0
SOLID
  5
73
100
AcDbEntity
  8
Dimensions
  6
ByBlock
 62
    0
370
   -2
100
AcDbTrace
 10
142.6561705082579
 20
127.8772439784915
 30
0
 11
140.6561705082579
 21
127.5442162522732
 31
0
 12
140.6561705082579
 22
128.2102717047098
 32
0
 13
140.6561705082579
 23
128.2102717047098
 33
0
  0
MTEXT
  5
74
100
AcDbEntity
  8
Dimensions
  6
CONTINUOUS
 62
    0
370
   -2
100
AcDbMText
 10
122.6561705082579
 20
129.8772439784915
 30
0
 40
2
 41
4.888888888888888
 71
    5
 72
    1
  1
40.0
  7
standard
210
0
220
0
230
1
 50
0
 73
    2
 44
1
  0
LINE
  5
75
100
AcDbEntity
  8
Dimensions
  6
ByBlock
 62
    0
370
   -2
100
AcDbLine
 10
102.6561705082579
 20
121.6476493358414
 11
102.6561705082579
 21
129.8772439784915
  0
LINE
  5
76
100
AcDbEntity
  8
Dimensions
  6
ByBlock
 62
    0
370
   -2
100
AcDbLine
 10
142.6561705082579
 20
121.6476493358414
 11
142.6561705082579
 21
129.8772439784915
  0
ENDBLK
  5
5E
330
5C
100
AcDbEntity
  8
0
100
AcDbBlockEnd
  0
BLOCK
  5
60
330
5F
100
AcDbEntity
  8
0
100
AcDbBlockBegin
  2
*D3
 70
    1
 10
0
 20
0
  3
*D3
  1

  0
LINE
  5
77
100
AcDbEntity
  8
Dimensions
  6
ByBlock
 62
    0
370
   -2
100
AcDbLine
 10
159.301623535706
 20
108.0076493358414
 11
159.301623535706
 21
90.00764933584138
  0
SOLID
  5
78
100
AcDbEntity
  8
Dimensions
  6
ByBlock
 62
    0
370
   -2
100
AcDbTrace
 10
159.301623535706
 20
108.0076493358414
 30
0
 11
159.6346512619243
 21
106.0076493358414
 31
0
 12
158.9685958094877
 22
106.0076493358414
 32
0
 13
158.9685958094877
 23
106.0076493358414
 33
0
  0
SOLID
  5
79
100
AcDbEntity
  8
Dimensions
  6
ByBlock
 62
    0
370
   -2
100
AcDbTrace
 10
159.301623535706
 20
90.00764933584138
 30
0
 11
158.9685958094877
 21
92.00764933584138
 31
0
 12
159.6346512619243
 22
92.00764933584138
 32
0
 13
159.6346512619243
 23
92.00764933584138
 33
0
  0
MTEXT
  5
7A
100
AcDbEntity
  8
Dimensions
  6
CONTINUOUS
 62
    0
370
   -2
100
AcDbMText
 10
157.301623535706
 20
99.00764933584138
 30
0
 40
2
 41
4.222222222222222
 71
    5
 72
    1
  1
18.0
  7
standard
210
0
220
0
230
1
 50
90
 73
    2
 44
1
  0
LINE
  5
7B
100
AcDbEntity
  8
Dimensions
  6
ByBlock
 62
    0
370
   -2
100
AcDbLine
 10
144.6561705082579
 20
108.0076493358414
 11
161.301623535706
 21
108.0076493358414
  0
LINE
  5
7C
100
AcDbEntity
  8
Dimensions
  6
ByBlock
 62
    0
370
   -2
100
AcDbLine
 10
128.1561705082579
 20
90.00764933584138
 11
161.301623535706
 21
90.00764933584138
  0
ENDBLK
  5
61
330
5F
100
AcDbEntity
  8
0
100
AcDbBlockEnd
  0
BLOCK
  5
63
330
62
100
AcDbEntity
  8
0
100
AcDbBlockBegin
  2
*D5
 70
    1
 10
0
 20
0
  3
*D5
  1

  0
LINE
  5
7D
100
AcDbEntity
  8
Dimensions
  6
ByBlock
 62
    0
370
   -2
100
AcDbLine
 10
102.6561705082579
 20
78.65177079927105
 11
119.1561705082579
 21
78.65177079927105
  0
SOLID
  5
7E
100
AcDbEntity
  8
Dimensions
  6
ByBlock
 62
    0
370
   -2
100
AcDbTrace
 10
102.6561705082579
 20
78.65177079927105
 30
0
 11
104.6561705082579
 21
78.98479852548932
 31
0
 12
104.6561705082579
 22
78.31874307305277
 32
0
 13
104.6561705082579
 23
78.31874307305277
 33
0
  0
SOLID
  5
7F
100
AcDbEntity
  8
Dimensions
  6
ByBlock
 62
    0
370
   -2
100
AcDbTrace
 10
119.1561705082579
 20
78.65177079927105
 30
0
 11
117.1561705082579
 21
78.31874307305277
 31
0
 12
117.1561705082579
 22
78.98479852548932
 32
0
 13
117.1561705082579
 23
78.98479852548932
 33
0
  0
MTEXT
  5
80
100
AcDbEntity
  8
Dimensions
  6
CONTINUOUS
 62
    0
370
   -2
100
AcDbMText
 10
110.9061705082579
 20
80.65177079927105
 30
0
 40
2
 41
4.22222222222247
 71
    5
 72
    1
  1
16.5
  7
standard
210
0
220
0
230
1
 50
0
 73
    2
 44
1
  0
LINE
  5
81
100
AcDbEntity
  8
Dimensions
  6
ByBlock
 62
    0
370
   -2
100
AcDbLine
 10
102.6561705082579
 20
103.4676493358414
 11
102.6561705082579
 21
76.65177079927105
  0
LINE
  5
82
100
AcDbEntity
  8
Dimensions
  6
ByBlock
 62
    0
370
   -2
100
AcDbLine
 10
119.1561705082579
 20
88.00764933584138
 11
119.1561705082579
 21
76.65177079927105
  0
ENDBLK
  5
64
330
62
100
AcDbEntity
  8
0
100
AcDbBlockEnd
  0
BLOCK
  5
66
330
65
100
AcDbEntity
  8
0
100
AcDbBlockBegin
  2
*D6
 70
    1
 10
0
 20
0
  3
*D6
  1

  0
LINE
  5
83
100
AcDbEntity
  8
Dimensions
  6
ByBlock
 62
    0
370
   -2
100
AcDbLine
 10
119.1561705082579
 20
78.65255205676479
 11
126.1561705082579
 21
78.65255205676479
  0
SOLID
  5
84
100
AcDbEntity
  8
Dimensions
  6
ByBlock
 62
    0
370
   -2
100
AcDbTrace
 10
119.1561705082579
 20
78.65255205676479
 30
0
 11
121.1561705082579
 21
78.98557978298307
 31
0
 12
121.1561705082579
 22
78.31952433054651
 32
0
 13
121.1561705082579
 23
78.31952433054651
 33
0
  0
SOLID
  5
85
100
AcDbEntity
  8
Dimensions
  6
ByBlock
 62
    0
370
   -2
100
AcDbTrace
 10
126.1561705082579
 20
78.65255205676479
 30
0
 11
124.1561705082579
 21
78.31952433054651
 31
0
 12
124.1561705082579
 22
78.98557978298307
 32
0
 13
124.1561705082579
 23
78.98557978298307
 33
0
  0
MTEXT
  5
86
100
AcDbEntity
  8
Dimensions
  6
CONTINUOUS
 62
    0
370
   -2
100
AcDbMText
 10
122.6561705082579
 20
80.65255205676479
 30
0
 40
2
 41
3.111111111111111
 71
    5
 72
    1
  1
7.0
  7
standard
210
0
220
0
230
1
 50
0
 73
    2
 44
1
  0
LINE
  5
87
100
AcDbEntity
  8
Dimensions
  6
ByBlock
 62
    0
370
   -2
100
AcDbLine
 10
119.1561705082579
 20
88.00764933584138
 11
119.1561705082579
 21
76.65255205676479
  0
LINE
  5
88
100
AcDbEntity
  8
Dimensions
  6
ByBlock
 62
    0
370
   -2
100
AcDbLine
 10
126.1561705082579
 20
88.00764933584138
 11
126.1561705082579
 21
76.65255205676479
  0
ENDBLK
  5
67
330
65
100
AcDbEntity
  8
0
100
AcDbBlockEnd
  0
BLOCK
  5
69
330
68
100
AcDbEntity
  8
0
100
AcDbBlockBegin
  2
*D1
 70
    1
 10
0
 20
0
  3
*D1
  1

  0
LINE
  5
89
100
AcDbEntity
  8
Dimensions
  6
ByBlock
 62
    0
370
   -2
100
AcDbLine
 10
155.4871034738476
 20
123.6476493358414
 11
155.4871034738476
 21
113.1076493358414
  0
SOLID
  5
8A
100
AcDbEntity
  8
Dimensions
  6
ByBlock
 62
    0
370
   -2
100
AcDbTrace
 10
155.4871034738476
 20
119.6476493358414
 30
0
 11
155.1540757476293
 21
121.6476493358414
 31
0
 12
155.8201312000659
 22
121.6476493358414
 32
0
 13
155.8201312000659
 23
121.6476493358414
 33
0
  0
SOLID
  5
8B
100
AcDbEntity
  8
Dimensions
  6
ByBlock
 62
    0
370
   -2
100
AcDbTrace
 10
155.4871034738476
 20
117.1076493358414
 30
0
 11
155.8201312000659
 21
115.1076493358414
 31
0
 12
155.1540757476293
 22
115.1076493358414
 32
0
 13
155.1540757476293
 23
115.1076493358414
 33
0
  0
MTEXT
  5
8C
100
AcDbEntity
  8
Dimensions
  6
CONTINUOUS
 62
    0
370
   -2
100
AcDbMText
 10
153.4871034738476
 20
122.203204891397
 30
0
 40
2
 41
3.111111111111235
 71
    5
 72
    1
  1
2.5
  7
standard
210
0
220
0
230
1
 50
90
 73
    2
 44
1
  0
LINE
  5
8D
100
AcDbEntity
  8
Dimensions
  6
ByBlock
 62
    0
370
   -2
100
AcDbLine
 10
144.6561705082579
 20
119.6476493358414
 11
157.4871034738476
 21
119.6476493358414
  0
LINE
  5
8E
100
AcDbEntity
  8
Dimensions
  6
ByBlock
 62
    0
370
   -2
100
AcDbLine
 10
144.6561705082579
 20
117.1076493358414
 11
157.4871034738476
 21
117.1076493358414
  0
ENDBLK
  5
6A
330
68
100
AcDbEntity
  8
0
100
AcDbBlockEnd
  0
ENDSEC
  0
SECTION
  2
ENTITIES
  0
LINE
  5
8F
100
AcDbEntity
  8
BoxTop
  6
ByLayer
 62
  256
370
   -1
100
AcDbLine
 10
-10
 20
-10
 11
269.4
 21
-10
  0
LINE
  5
90
100
AcDbEntity
  8
BoxTop
  6
ByLayer
 62
  256
370
   -1
100
AcDbLine
 10
269.4
 20
-10
 11
269.4
 21
205.9
  0
LINE
  5
91
100
AcDbEntity
  8
BoxTop
  6
ByLayer
 62
  256
370
   -1
100
AcDbLine
 10
269.4
 20
205.9
 11
-10
 21
205.9
  0
LINE
  5
92
100
AcDbEntity
  8
BoxTop
  6
ByLayer
 62
  256
370
   -1
100
AcDbLine
 10
-10
 20
205.9
 11
-10
 21
-10
  0
LINE
  5
93
100
AcDbEntity
  8
Drawing_Border
  6
ByLayer
 62
    5
370
   -1
100
AcDbLine
 10
259.4
 20
195.9
 11
0
 21
195.9
  0
LINE
  5
94
100
AcDbEntity
  8
Drawing_Border
  6
ByLayer
 62
    5
370
   -1
100
AcDbLine
 10
259.4
 20
0
 11
259.4
 21
195.9
  0
LINE
  5
95
100
AcDbEntity
  8
Drawing_Border
  6
ByLayer
 62
    5
370
   -1
100
AcDbLine
 10
0
 20
195.9
 11
0
 21
0
  0
LINE
  5
96
100
AcDbEntity
  8
Drawing_Border
  6
ByLayer
 62
    5
370
   -1
100
AcDbLine
 10
0
 20
0
 11
259.4
 21
0
  0
LINE
  5
97
100
AcDbEntity
  8
Drawing_Border
  6
ByLayer
 62
    5
370
   70
100
AcDbLine
 10
264.4
 20
200.9
 11
-5
 21
200.9
  0
LINE
  5
98
100
AcDbEntity
  8
Drawing_Border
  6
ByLayer
 62
    5
370
   70
100
AcDbLine
 10
264.4
 20
-5
 11
264.4
 21
200.9
  0
LINE
  5
99
100
AcDbEntity
  8
Drawing_Border
  6
ByLayer
 62
    5
370
   70
100
AcDbLine
 10
-5
 20
-5
 11
264.4
 21
-5
  0
LINE
  5
9A
100
AcDbEntity
  8
Drawing_Border
  6
ByLayer
 62
    5
370
   70
100
AcDbLine
 10
-5
 20
200.9
 11
-5
 21
-5
  0
LINE
  5
9B
100
AcDbEntity
  8
Drawing_Border
  6
ByLayer
 62
    5
370
   -1
100
AcDbLine
 10
-5
 20
97.95
 11
-5
 21
102.95
  0
LINE
  5
9C
100
AcDbEntity
  8
Drawing_Border
  6
ByLayer
 62
    5
370
   -1
100
AcDbLine
 10
0
 20
97.95
 11
0
 21
102.95
  0
LINE
  5
9D
100
AcDbEntity
  8
Drawing_Border
  6
ByLayer
 62
    5
370
   -1
100
AcDbLine
 10
-5
 20
97.95
 11
-5
 21
102.95
  0
LINE
  5
9E
100
AcDbEntity
  8
Drawing_Border
  6
ByLayer
 62
    5
370
   -1
100
AcDbLine
 10
0
 20
97.95
 11
0
 21
102.95
  0
LINE
  5
9F
100
AcDbEntity
  8
Drawing_Border
  6
ByLayer
 62
    5
370
   -1
100
AcDbLine
 10
-5
 20
97.95
 11
-5
 21
102.95
  0
LINE
  5
A0
100
AcDbEntity
  8
Drawing_Border
  6
ByLayer
 62
    5
370
   -1
100
AcDbLine
 10
-5
 20
97.95
 11
-5
 21
102.95
  0
LINE
  5
A1
100
AcDbEntity
  8
Drawing_Border
  6
ByLayer
 62
    5
370
   -1
100
AcDbLine
 10
0
 20
97.95
 11
0
 21
102.95
  0
LINE
  5
A2
100
AcDbEntity
  8
Drawing_Border
  6
ByLayer
 62
    5
370
   -1
100
AcDbLine
 10
0
 20
97.95
 11
0
 21
102.95
  0
LINE
  5
A3
100
AcDbEntity
  8
Drawing_Border
  6
ByLayer
 62
    5
370
   -1
100
AcDbLine
 10
0
 20
97.95
 11
0
 21
102.95
  0
LINE
  5
A4
100
AcDbEntity
  8
Drawing_Border
  6
ByLayer
 62
    5
370
   -1
100
AcDbLine
 10
-5
 20
97.95
 11
-5
 21
102.95
  0
LINE
  5
A5
100
AcDbEntity
  8
Drawing_Border
  6
ByLayer
 62
    5
370
   -1
100
AcDbLine
 10
86.46666666666667
 20
195.9
 11
86.46666666666667
 21
200.9
  0
LINE
  5
A6
100
AcDbEntity
  8
Drawing_Border
  6
ByLayer
 62
    5
370
   -1
100
AcDbLine
 10
172.9333333333333
 20
195.9
 11
172.9333333333333
 21
200.9
  0
LINE
  5
A7
100
AcDbEntity
  8
Drawing_Border
  6
ByLayer
 62
    5
370
   -1
100
AcDbLine
 10
259.4
 20
48.975
 11
264.4
 21
48.975
  0
LINE
  5
A8
100
AcDbEntity
  8
Drawing_Border
  6
ByLayer
 62
    5
370
   -1
100
AcDbLine
 10
43.23333333333332
 20
195.9
 11
48.23333333333332
 21
195.9
  0
LINE
  5
A9
100
AcDbEntity
  8
Drawing_Border
  6
ByLayer
 62
    5
370
   -1
100
AcDbLine
 10
43.23333333333332
 20
195.9
 11
43.23333333333332
 21
200.9
  0
LINE
  5
AA
100
AcDbEntity
  8
Drawing_Border
  6
ByLayer
 62
    5
370
   -1
100
AcDbLine
 10
129.7
 20
195.9
 11
129.7
 21
200.9
  0
LINE
  5
AB
100
AcDbEntity
  8
Drawing_Border
  6
ByLayer
 62
    5
370
   -1
100
AcDbLine
 10
216.1666666666667
 20
195.9
 11
216.1666666666667
 21
200.9
  0
MTEXT
  5
AC
100
AcDbEntity
  8
Drawing_Border
  6
ByLayer
 62
    5
370
   -1
100
AcDbMText
 10
261.4833333333333
 20
24.4875
 30
0
 40
2
 41
1.111111111111235
 71
    5
 72
    1
  1
D
  7
iso
210
0
220
0
230
1
 50
0
 73
    2
 44
1
  0
MTEXT
  5
AD
100
AcDbEntity
  8
Drawing_Border
  6
ByLayer
 62
    5
370
   -1
100
AcDbMText
 10
21.61666666666666
 20
198.4
 30
0
 40
2
 41
0.4444444444444444
 71
    5
 72
    1
  1
1
  7
iso
210
0
220
0
230
1
 50
0
 73
    2
 44
1
  0
MTEXT
  5
AE
100
AcDbEntity
  8
Drawing_Border
  6
ByLayer
 62
    5
370
   -1
100
AcDbMText
 10
64.84999999999999
 20
198.4
 30
0
 40
2
 41
0.8888888888888888
 71
    5
 72
    1
  1
2
  7
iso
210
0
220
0
230
1
 50
0
 73
    2
 44
1
  0
MTEXT
  5
AF
100
AcDbEntity
  8
Drawing_Border
  6
ByLayer
 62
    5
370
   -1
100
AcDbMText
 10
108.0833333333333
 20
198.4
 30
0
 40
2
 41
0.8888888888890129
 71
    5
 72
    1
  1
3
  7
iso
210
0
220
0
230
1
 50
0
 73
    2
 44
1
  0
MTEXT
  5
B0
100
AcDbEntity
  8
Drawing_Border
  6
ByLayer
 62
    5
370
   -1
100
AcDbMText
 10
151.3166666666667
 20
198.4
 30
0
 40
2
 41
1.111111111111111
 71
    5
 72
    1
  1
4
  7
iso
210
0
220
0
230
1
 50
0
 73
    2
 44
1
  0
MTEXT
  5
B1
100
AcDbEntity
  8
Drawing_Border
  6
ByLayer
 62
    5
370
   -1
100
AcDbMText
 10
194.55
 20
198.4
 30
0
 40
2
 41
0.8888888888890129
 71
    5
 72
    1
  1
5
  7
iso
210
0
220
0
230
1
 50
0
 73
    2
 44
1
  0
MTEXT
  5
B2
100
AcDbEntity
  8
Drawing_Border
  6
ByLayer
 62
    5
370
   -1
100
AcDbMText
 10
237.7833333333333
 20
198.4
 30
0
 40
2
 41
0.8888888888890129
 71
    5
 72
    1
  1
6
  7
iso
210
0
220
0
230
1
 50
0
 73
    2
 44
1
  0
LINE
  5
B3
100
AcDbEntity
  8
Drawing_Border
  6
ByLayer
 62
    5
370
   -1
100
AcDbLine
 10
86.46666666666667
 20
-5
 11
86.46666666666667
 21
0
  0
LINE
  5
B4
100
AcDbEntity
  8
Drawing_Border
  6
ByLayer
 62
    5
370
   -1
100
AcDbLine
 10
172.9333333333333
 20
-5
 11
172.9333333333333
 21
0
  0
LINE
  5
B5
100
AcDbEntity
  8
Drawing_Border
  6
ByLayer
 62
    5
370
   -1
100
AcDbLine
 10
43.23333333333332
 20
-5
 11
43.23333333333332
 21
0
  0
LINE
  5
B6
100
AcDbEntity
  8
Drawing_Border
  6
ByLayer
 62
    5
370
   -1
100
AcDbLine
 10
129.7
 20
-5
 11
129.7
 21
0
  0
LINE
  5
B7
100
AcDbEntity
  8
Drawing_Border
  6
ByLayer
 62
    5
370
   -1
100
AcDbLine
 10
216.1666666666667
 20
-5
 11
216.1666666666667
 21
0
  0
MTEXT
  5
B8
100
AcDbEntity
  8
Drawing_Border
  6
ByLayer
 62
    5
370
   -1
100
AcDbMText
 10
21.61666666666666
 20
-2.5
 30
0
 40
2
 41
0.4444444444444444
 71
    5
 72
    1
  1
1
  7
iso
210
0
220
0
230
1
 50
0
 73
    2
 44
1
  0
MTEXT
  5
B9
100
AcDbEntity
  8
Drawing_Border
  6
ByLayer
 62
    5
370
   -1
100
AcDbMText
 10
64.84999999999999
 20
-2.5
 30
0
 40
2
 41
0.8888888888888888
 71
    5
 72
    1
  1
2
  7
iso
210
0
220
0
230
1
 50
0
 73
    2
 44
1
  0
MTEXT
  5
BA
100
AcDbEntity
  8
Drawing_Border
  6
ByLayer
 62
    5
370
   -1
100
AcDbMText
 10
108.0833333333333
 20
-2.5
 30
0
 40
2
 41
0.8888888888890129
 71
    5
 72
    1
  1
3
  7
iso
210
0
220
0
230
1
 50
0
 73
    2
 44
1
  0
MTEXT
  5
BB
100
AcDbEntity
  8
Drawing_Border
  6
ByLayer
 62
    5
370
   -1
100
AcDbMText
 10
151.3166666666667
 20
-2.5
 30
0
 40
2
 41
1.111111111111111
 71
    5
 72
    1
  1
4
  7
iso
210
0
220
0
230
1
 50
0
 73
    2
 44
1
  0
MTEXT
  5
BC
100
AcDbEntity
  8
Drawing_Border
  6
ByLayer
 62
    5
370
   -1
100
AcDbMText
 10
194.55
 20
-2.5
 30
0
 40
2
 41
0.8888888888890129
 71
    5
 72
    1
  1
5
  7
iso
210
0
220
0
230
1
 50
0
 73
    2
 44
1
  0
LINE
  5
BD
100
AcDbEntity
  8
Drawing_Border
  6
ByLayer
 62
    5
370
   -1
100
AcDbLine
 10
-5
 20
97.95
 11
0
 21
97.95
  0
LINE
  5
BE
100
AcDbEntity
  8
Drawing_Border
  6
ByLayer
 62
    5
370
   -1
100
AcDbLine
 10
-5
 20
48.975
 11
0
 21
48.975
  0
LINE
  5
BF
100
AcDbEntity
  8
Drawing_Border
  6
ByLayer
 62
    5
370
   -1
100
AcDbLine
 10
-5
 20
146.925
 11
0
 21
146.925
  0
MTEXT
  5
C0
100
AcDbEntity
  8
Drawing_Border
  6
ByLayer
 62
    5
370
   -1
100
AcDbMText
 10
-2.5
 20
171.4125
 30
0
 40
2
 41
1.333333333333333
 71
    5
 72
    1
  1
A
  7
iso
210
0
220
0
230
1
 50
0
 73
    2
 44
1
  0
MTEXT
  5
C1
100
AcDbEntity
  8
Drawing_Border
  6
ByLayer
 62
    5
370
   -1
100
AcDbMText
 10
-2.5
 20
122.4375
 30
0
 40
2
 41
1.111111111111111
 71
    5
 72
    1
  1
B
  7
iso
210
0
220
0
230
1
 50
0
 73
    2
 44
1
  0
MTEXT
  5
C2
100
AcDbEntity
  8
Drawing_Border
  6
ByLayer
 62
    5
370
   -1
100
AcDbMText
 10
-2.916666666666629
 20
73.46250000000001
 30
0
 40
2
 41
0.8888888888890129
 71
    5
 72
    1
  1
C
  7
iso
210
0
220
0
230
1
 50
0
 73
    2
 44
1
  0
MTEXT
  5
C3
100
AcDbEntity
  8
Drawing_Border
  6
ByLayer
 62
    5
370
   -1
100
AcDbMText
 10
-2.916666666666629
 20
24.4875
 30
0
 40
2
 41
1.111111111111235
 71
    5
 72
    1
  1
D
  7
iso
210
0
220
0
230
1
 50
0
 73
    2
 44
1
  0
LINE
  5
C4
100
AcDbEntity
  8
Drawing_Border
  6
ByLayer
 62
    5
370
   -1
100
AcDbLine
 10
259.4
 20
40
 11
259.4
 21
0
  0
LINE
  5
C5
100
AcDbEntity
  8
Drawing_Border
  6
ByLayer
 62
    5
370
   -1
100
AcDbLine
 10
259.4
 20
0
 11
150
 21
0
  0
LINE
  5
C6
100
AcDbEntity
  8
Drawing_Border
  6
ByLayer
 62
    5
370
   -1
100
AcDbLine
 10
264.4
 20
97.95
 11
264.4
 21
102.95
  0
LINE
  5
C7
100
AcDbEntity
  8
Drawing_Border
  6
ByLayer
 62
    5
370
   -1
100
AcDbLine
 10
259.4
 20
97.95
 11
259.4
 21
102.95
  0
LINE
  5
C8
100
AcDbEntity
  8
Drawing_Border
  6
ByLayer
 62
    5
370
   -1
100
AcDbLine
 10
259.4
 20
97.95
 11
264.4
 21
97.95
  0
LINE
  5
C9
100
AcDbEntity
  8
Drawing_Border
  6
ByLayer
 62
    5
370
   -1
100
AcDbLine
 10
259.4
 20
146.925
 11
264.4
 21
146.925
  0
MTEXT
  5
CA
100
AcDbEntity
  8
Drawing_Border
  6
ByLayer
 62
    5
370
   -1
100
AcDbMText
 10
261.9
 20
171.4125
 30
0
 40
2
 41
1.333333333333333
 71
    5
 72
    1
  1
A
  7
iso
210
0
220
0
230
1
 50
0
 73
    2
 44
1
  0
MTEXT
  5
CB
100
AcDbEntity
  8
Drawing_Border
  6
ByLayer
 62
    5
370
   -1
100
AcDbMText
 10
261.9
 20
122.4375
 30
0
 40
2
 41
1.111111111111111
 71
    5
 72
    1
  1
B
  7
iso
210
0
220
0
230
1
 50
0
 73
    2
 44
1
  0
MTEXT
  5
CC
100
AcDbEntity
  8
Drawing_Border
  6
ByLayer
 62
    5
370
   -1
100
AcDbMText
 10
261.4833333333333
 20
73.46250000000001
 30
0
 40
2
 41
0.8888888888890129
 71
    5
 72
    1
  1
C
  7
iso
210
0
220
0
230
1
 50
0
 73
    2
 44
1
  0
LINE
  5
CD
100
AcDbEntity
  8
Title_Block
  6
ByLayer
 62
    5
370
   -1
100
AcDbLine
 10
150
 20
5
 11
259.4
 21
5
  0
LINE
  5
CE
100
AcDbEntity
  8
Title_Block
  6
ByLayer
 62
    5
370
   -1
100
AcDbLine
 10
240.04715198614
 20
0
 11
240.04715198614
 21
10
  0
MTEXT
  5
CF
100
AcDbEntity
  8
Title_Block
  6
ByLayer
 62
    5
370
   -1
100
AcDbMText
 10
243.7208349975294
 20
2.438067617005785
 30
0
 40
2
 41
2.88888846488459
 71
    5
 72
    1
  1
SH
  7
iso
210
0
220
0
230
1
 50
0
 73
    2
 44
1
  0
MTEXT
  5
D0
100
AcDbEntity
  8
Title_Block
  6
ByLayer
 62
    5
370
   -1
100
AcDbMText
 10
244.7442203077894
 20
7.397550274419487
 30
0
 40
2
 41
5.333333333333333
 71
    5
 72
    1
  1
REV.
  7
iso
210
0
220
0
230
1
 50
0
 73
    2
 44
1
  0
MTEXT
  5
D1
100
AcDbEntity
  8
Title_Block
  6
ByLayer
 62
    5
370
   -1
100
AcDbMText
 10
250.9632541162923
 20
2.438067617005785
 30
0
 40
2
 41
2.222222222222222
 71
    5
 72
    1
  1
of
  7
iso
210
0
220
0
230
1
 50
0
 73
    2
 44
1
  0
MTEXT
  5
D2
100
AcDbEntity
  8
Title_Block
  6
ByLayer
 62
    5
370
   -1
100
AcDbMText
 10
247.2633226099678
 20
2.51678956394886
 30
0
 40
2
 41
0.4444444444444444
 71
    5
 72
    1
  1
1
  7
iso
210
0
220
0
230
1
 50
0
 73
    2
 44
1
  0
MTEXT
  5
D3
100
AcDbEntity
  8
Title_Block
  6
ByLayer
 62
    5
370
   -1
100
AcDbMText
 10
255.4504050920475
 20
2.35934567006271
 30
0
 40
2
 41
0.4444444444444444
 71
    5
 72
    1
  1
1
  7
iso
210
0
220
0
230
1
 50
0
 73
    2
 44
1
  0
MTEXT
  5
D4
100
AcDbEntity
  8
Title_Block
  6
ByLayer
 62
    5
370
   -1
100
AcDbMText
 10
251.0419760632354
 20
7.554994168305633
 30
0
 40
2
 41
2.666666666666667
 71
    5
 72
    1
  1
0.1
  7
iso
210
0
220
0
230
1
 50
0
 73
    2
 44
1
  0
MTEXT
  5
D5
100
AcDbEntity
  8
Title_Block
  6
ByLayer
 62
    5
370
   -1
100
AcDbMText
 10
160.2440575392778
 20
2.630161919451828
 30
0
 40
2
 41
11.33333333333355
 71
    5
 72
    1
  1
LibreCAD 
  7
iso
210
0
220
0
230
1
 50
0
 73
    2
 44
1
  0
MTEXT
  5
D6
100
AcDbEntity
  8
Title_Block
  6
ByLayer
 62
    5
370
   -1
100
AcDbMText
 10
172.4385896022039
 20
2.544175386533379
 30
0
 40
2
 41
4.888888888889013
 71
    5
 72
    1
  1
2.1.3
  7
iso
210
0
220
0
230
1
 50
0
 73
    2
 44
1
  0
MTEXT
  5
D7
100
AcDbEntity
  8
Title_Block
  6
ByLayer
 62
    5
370
   -1
100
AcDbMText
 10
178.0327196535191
 20
7.651440667553903
 30
0
 40
2
 41
6.444444444444568
 71
    5
 72
    1
  1
DATE
  7
iso
210
0
220
0
230
1
 50
0
 73
    2
 44
1
  0
MTEXT
  5
D8
100
AcDbEntity
  8
Title_Block
  6
ByLayer
 62
    5
370
   -1
100
AcDbMText
 10
159.1845711440972
 20
7.651440667553903
 30
0
 40
2
 41
9.055555131551257
 71
    5
 72
    1
  1
Size: A
  7
iso
210
0
220
0
230
1
 50
0
 73
    2
 44
1
  0
LINE
  5
D9
100
AcDbEntity
  8
Title_Block
  6
ByLayer
 62
    5
370
   -1
100
AcDbLine
 10
168.3094684383411
 20
5
 11
168.3094684383411
 21
10
  0
LINE
  5
DA
100
AcDbEntity
  8
Title_Block
  6
ByLayer
 62
    5
370
   -1
100
AcDbLine
 10
259.4
 20
15
 11
259.4
 21
30
  0
LINE
  5
DB
100
AcDbEntity
  8
Title_Block
  6
ByLayer
 62
    5
370
   -1
100
AcDbLine
 10
150
 20
30
 11
259.4
 21
30
  0
LINE
  5
DC
100
AcDbEntity
  8
Title_Block
  6
ByLayer
 62
    5
370
   -1
100
AcDbLine
 10
150
 20
0
 11
150
 21
30
  0
LINE
  5
DD
100
AcDbEntity
  8
Title_Block
  6
ByLayer
 62
    5
370
   -1
100
AcDbLine
 10
221.0931032535754
 20
0
 11
221.0931032535754
 21
5
  0
LINE
  5
DE
100
AcDbEntity
  8
Title_Block
  6
ByLayer
 62
    5
370
   -1
100
AcDbLine
 10
209.2967189033929
 20
5
 11
209.2967189033929
 21
10
  0
MTEXT
  5
DF
100
AcDbEntity
  8
Title_Block
  6
ByLayer
 62
    5
370
   -1
100
AcDbMText
 10
217.5264220400099
 20
7.632850173832392
 30
0
 40
2
 41
13.05555555555587
 71
    5
 72
    1
  1
Drawn By:
  7
iso
210
0
220
0
230
1
 50
0
 73
    2
 44
1
  0
MTEXT
  5
E0
100
AcDbEntity
  8
Title_Block
  6
ByLayer
 62
    5
370
   -1
100
AcDbMText
 10
225.8505594317175
 20
2.620466368072931
 30
0
 40
2
 41
7.111110687106905
 71
    5
 72
    1
  1
Scale:
  7
iso
210
0
220
0
230
1
 50
0
 73
    2
 44
1
  0
MTEXT
  5
E1
100
AcDbEntity
  8
Title_Block
  6
ByLayer
 62
  256
370
   -1
100
AcDbMText
 10
183.2786067816594
 20
7.447396311246814
 30
0
 40
2
 41
12.44444444444457
 71
    4
 72
    1
  1
2/11/2025
  7
iso
210
0
220
0
230
1
 50
0
 73
    2
 44
1
  0
MTEXT
  5
E2
100
AcDbEntity
  8
Title_Block
  6
ByLayer
 62
  256
370
   -1
100
AcDbMText
 10
228.1446284616097
 20
7.447396311246814
 30
0
 40
2
 41
4.222222222222346
 71
    4
 72
    1
  1
RJH
  7
iso
210
0
220
0
230
1
 50
0
 73
    2
 44
1
  0
MTEXT
  5
E3
100
AcDbEntity
  8
Title_Block
  6
ByLayer
 62
  256
370
   -1
100
AcDbMText
 10
233.0490113982844
 20
2.179725749633214
 30
0
 40
2
 41
2.222222222222222
 71
    4
 72
    1
  1
1:1
  7
iso
210
0
220
0
230
1
 50
0
 73
    2
 44
1
  0
LINE
  5
E4
100
AcDbEntity
  8
Title_Block
  6
ByLayer
 62
    5
370
   -1
100
AcDbLine
 10
150
 20
10
 11
259.4
 21
10
  0
LINE
  5
E5
100
AcDbEntity
  8
Title_Block
  6
ByLayer
 62
    5
370
   -1
100
AcDbLine
 10
150
 20
15
 11
259.4
 21
15
  0
MTEXT
  5
E6
100
AcDbEntity
  8
Title_Block
  6
ByLayer
 62
    5
370
   -1
100
AcDbMText
 10
173.3954767662804
 20
25.45246981534132
 30
0
 40
2
 41
38.16666769524156
 71
    5
 72
    1
  1
RJ Hegler Technologies, LLC
  7
iso
210
0
220
0
230
1
 50
0
 73
    2
 44
1
  0
MTEXT
  5
E7
100
AcDbEntity
  8
Title_Block
  6
ByLayer
 62
    5
370
   -1
100
AcDbMText
 10
165.4672873139045
 20
21.71275780950362
 30
0
 40
2
 41
22.77777777777818
 71
    5
 72
    1
  1
9192 Albion Road
  7
iso
210
0
220
0
230
1
 50
0
 73
    2
 44
1
  0
MTEXT
  5
E8
100
AcDbEntity
  8
Title_Block
  6
ByLayer
 62
    5
370
   -1
100
AcDbMText
 10
172.6475343651128
 20
17.97304580366593
 30
0
 40
2
 41
37.2777777777784
 71
    5
 72
    1
  1
North Royalton, Ohio 44133
  7
iso
210
0
220
0
230
1
 50
0
 73
    2
 44
1
  0
MTEXT
  5
E9
100
AcDbEntity
  8
Drawing_Border
  6
ByLayer
 62
    5
370
   -1
100
AcDbMText
 10
237.7833333333333
 20
-2.5
 30
0
 40
2
 41
0.8888888888890129
 71
    5
 72
    1
  1
6
  7
iso
210
0
220
0
230
1
 50
0
 73
    2
 44
1
  0
MTEXT
  5
EA
100
AcDbEntity
  8
Title_Block
  6
ByLayer
 62
  256
370
   -1
100
AcDbMText
 10
154.7189621151817
 20
12.48132202366881
 30
0
 40
2
 41
45.3333353904824
 71
    4
 72
    1
  1
TITLE: PostAlert Base Light Pipe
  7
iso
210
0
220
0
230
1
 50
0
 73
    2
 44
1
  0
LINE
  5
EB
100
AcDbEntity
  8
Cutout
  6
ByLayer
 62
  256
370
   -1
100
AcDbLine
 10
102.6561705082579
 20
105.4676493358414
 11
102.6561705082579
 21
108.0076493358414
  0
LINE
  5
EC
100
AcDbEntity
  8
Cutout
  6
ByLayer
 62
  256
370
   -1
100
AcDbLine
 10
102.6561705082579
 20
108.0076493358414
 11
142.6561705082579
 21
108.0076493358414
  0
LINE
  5
ED
100
AcDbEntity
  8
Cutout
  6
ByLayer
 62
  256
370
   -1
100
AcDbLine
 10
142.6561705082579
 20
108.0076493358414
 11
142.6561705082579
 21
105.4676493358414
  0
LINE
  5
EE
100
AcDbEntity
  8
Cutout
  6
ByLayer
 62
  256
370
   -1
100
AcDbLine
 10
122.6561705082579
 20
90.00764933584138
 11
126.1561705082579
 21
90.00764933584138
  0
LINE
  5
EF
100
AcDbEntity
  8
Cutout
  6
ByLayer
 62
  256
370
   -1
100
AcDbLine
 10
122.6561705082579
 20
90.00764933584138
 11
119.1561705082579
 21
90.00764933584138
  0
LINE
  5
F0
100
AcDbEntity
  8
Cutout
  6
ByLayer
 62
  256
370
   -1
100
AcDbLine
 10
119.1561705082579
 20
90.00764933584138
 11
102.6561705082579
 21
105.4676493358414
  0
LINE
  5
F1
100
AcDbEntity
  8
Cutout
  6
ByLayer
 62
  256
370
   -1
100
AcDbLine
 10
126.1561705082579
 20
90.00764933584138
 11
142.6561705082579
 21
105.4676493358414
  0
LWPOLYLINE
  5
F2
100
AcDbEntity
  8
Cutout
  6
ByLayer
 62
  256
370
   -1
100
AcDbPolyline
 90
    4
 70
    1
 43
0
 10
102.6561705082579
 20
117.1076493358414
 10
142.6561705082579
 20
117.1076493358414
 10
142.6561705082579
 20
119.6476493358414
 10
102.6561705082579
 20
119.6476493358414
  0
DIMENSION
  5
F3
100
AcDbEntity
  8
Dimensions
  6
ByLayer
 62
  256
370
   -1
100
AcDbDimension
  2
*D1
 10
155.4871034738476
 20
117.1076493358414
 30
0
 11
153.4871034738476
 21
118.3776493358414
 31
0
 70
   32
 71
    5
 72
    0
  3
Standard
 53
0
210
0
220
0
230
1
100
AcDbAlignedDimension
 13
142.6561705082579
 23
119.6476493358414
 33
0
 14
142.6561705082579
 24
117.1076493358414
 34
0
 50
90
100
AcDbRotatedDimension
  0
DIMENSION
  5
F4
100
AcDbEntity
  8
Dimensions
  6
ByLayer
 62
  256
370
   -1
100
AcDbDimension
  2
*D2
 10
152.0358710369281
 20
105.4676493358414
 30
0
 11
150.0358710369281
 21
106.7376493358414
 31
0
 70
   32
 71
    5
 72
    0
  3
Standard
 53
0
210
0
220
0
230
1
100
AcDbAlignedDimension
 13
142.6561705082579
 23
108.0076493358414
 33
0
 14
142.6561705082579
 24
105.4676493358414
 34
0
 50
90
100
AcDbRotatedDimension
  0
DIMENSION
  5
F5
100
AcDbEntity
  8
Dimensions
  6
ByLayer
 62
  256
370
   -1
100
AcDbDimension
  2
*D3
 10
159.301623535706
 20
90.00764933584138
 30
0
 11
157.301623535706
 21
99.00764933584138
 31
0
 70
   32
 71
    5
 72
    0
  3
Standard
 53
0
210
0
220
0
230
1
100
AcDbAlignedDimension
 13
142.6561705082579
 23
108.0076493358414
 33
0
 14
126.1561705082579
 24
90.00764933584138
 34
0
 50
90
100
AcDbRotatedDimension
  0
DIMENSION
  5
F6
100
AcDbEntity
  8
Dimensions
  6
ByLayer
 62
  256
370
   -1
100
AcDbDimension
  2
*D4
 10
142.6561705082579
 20
127.8772439784915
 30
0
 11
122.6561705082579
 21
129.8772439784915
 31
0
 70
   32
 71
    5
 72
    0
  3
Standard
 53
0
210
0
220
0
230
1
100
AcDbAlignedDimension
 13
102.6561705082579
 23
119.6476493358414
 33
0
 14
142.6561705082579
 24
119.6476493358414
 34
0
100
AcDbRotatedDimension
  0
DIMENSION
  5
F7
100
AcDbEntity
  8
Dimensions
  6
ByLayer
 62
  256
370
   -1
100
AcDbDimension
  2
*D5
 10
119.1561705082579
 20
78.65177079927105
 30
0
 11
110.9061705082579
 21
80.65177079927105
 31
0
 70
   32
 71
    5
 72
    0
  3
Standard
 53
0
210
0
220
0
230
1
100
AcDbAlignedDimension
 13
102.6561705082579
 23
105.4676493358414
 33
0
 14
119.1561705082579
 24
90.00764933584138
 34
0
100
AcDbRotatedDimension
  0
DIMENSION
  5
F8
100
AcDbEntity
  8
Dimensions
  6
ByLayer
 62
  256
370
   -1
100
AcDbDimension
  2
*D6
 10
126.1561705082579
 20
78.65255205676479
 30
0
 11
122.6561705082579
 21
80.65255205676479
 31
0
 70
   32
 71
    5
 72
    0
  3
Standard
 53
0
210
0
220
0
230
1
100
AcDbAlignedDimension
 13
119.1561705082579
 23
90.00764933584138
 33
0
 14
126.1561705082579
 24
90.00764933584138
 34
0
100
AcDbRotatedDimension
  0
MTEXT
  5
F9
100
AcDbEntity
  8
Dimensions
  6
ByLayer
 62
  256
370
   -1
100
AcDbMText
 10
18.63874607956246
 20
178.1035736491524
 30
0
 40
2
 41
55.16666666666666
 71
    4
 72
    1
  1
MATERIAL: CLEAR ACRYLIC, PC or PMMA
  7
iso
210
0
220
0
230
1
 50
0
 73
    2
 44
1
  0
ENDSEC
  0
SECTION
  2
OBJECTS
  0
DICTIONARY
  5
C
330
0
100
AcDbDictionary
281
    1
  3
ACAD_GROUP
350
D
  0
DICTIONARY
  5
D
330
C
100
AcDbDictionary
281
    1
  0
ENDSEC
  0
EOF
