%TF.GenerationSoftware,KiCad,Pcbnew,7.0.10*%
%TF.CreationDate,2025-01-08T07:23:31-05:00*%
%TF.ProjectId,PostAlertBaseStationV6,506f7374-416c-4657-9274-426173655374,5.0*%
%TF.SameCoordinates,Original*%
%TF.FileFunction,Copper,L1,Top*%
%TF.FilePolarity,Positive*%
%FSLAX46Y46*%
G04 Gerber Fmt 4.6, Leading zero omitted, Abs format (unit mm)*
G04 Created by KiCad (PCBNEW 7.0.10) date 2025-01-08 07:23:31*
%MOMM*%
%LPD*%
G01*
G04 APERTURE LIST*
G04 Aperture macros list*
%AMRoundRect*
0 Rectangle with rounded corners*
0 $1 Rounding radius*
0 $2 $3 $4 $5 $6 $7 $8 $9 X,Y pos of 4 corners*
0 Add a 4 corners polygon primitive as box body*
4,1,4,$2,$3,$4,$5,$6,$7,$8,$9,$2,$3,0*
0 Add four circle primitives for the rounded corners*
1,1,$1+$1,$2,$3*
1,1,$1+$1,$4,$5*
1,1,$1+$1,$6,$7*
1,1,$1+$1,$8,$9*
0 Add four rect primitives between the rounded corners*
20,1,$1+$1,$2,$3,$4,$5,0*
20,1,$1+$1,$4,$5,$6,$7,0*
20,1,$1+$1,$6,$7,$8,$9,0*
20,1,$1+$1,$8,$9,$2,$3,0*%
%AMOutline4P*
0 Free polygon, 4 corners , with rotation*
0 The origin of the aperture is its center*
0 number of corners: always 4*
0 $1 to $8 corner X, Y*
0 $9 Rotation angle, in degrees counterclockwise*
0 create outline with 4 corners*
4,1,4,$1,$2,$3,$4,$5,$6,$7,$8,$1,$2,$9*%
G04 Aperture macros list end*
%ADD10C,0.300000*%
%TA.AperFunction,NonConductor*%
%ADD11C,0.300000*%
%TD*%
%TA.AperFunction,EtchedComponent*%
%ADD12C,1.000000*%
%TD*%
%TA.AperFunction,ComponentPad*%
%ADD13C,2.200000*%
%TD*%
%TA.AperFunction,ComponentPad*%
%ADD14C,1.700000*%
%TD*%
%TA.AperFunction,SMDPad,CuDef*%
%ADD15RoundRect,0.100000X0.100000X0.575000X-0.100000X0.575000X-0.100000X-0.575000X0.100000X-0.575000X0*%
%TD*%
%TA.AperFunction,ComponentPad*%
%ADD16O,0.900000X1.600000*%
%TD*%
%TA.AperFunction,SMDPad,CuDef*%
%ADD17RoundRect,0.250000X0.550000X0.450000X-0.550000X0.450000X-0.550000X-0.450000X0.550000X-0.450000X0*%
%TD*%
%TA.AperFunction,SMDPad,CuDef*%
%ADD18RoundRect,0.250000X0.700000X0.700000X-0.700000X0.700000X-0.700000X-0.700000X0.700000X-0.700000X0*%
%TD*%
%TA.AperFunction,SMDPad,CuDef*%
%ADD19RoundRect,0.218750X-0.256250X0.218750X-0.256250X-0.218750X0.256250X-0.218750X0.256250X0.218750X0*%
%TD*%
%TA.AperFunction,SMDPad,CuDef*%
%ADD20RoundRect,0.225000X-0.250000X0.225000X-0.250000X-0.225000X0.250000X-0.225000X0.250000X0.225000X0*%
%TD*%
%TA.AperFunction,SMDPad,CuDef*%
%ADD21RoundRect,0.225000X-0.225000X-0.250000X0.225000X-0.250000X0.225000X0.250000X-0.225000X0.250000X0*%
%TD*%
%TA.AperFunction,SMDPad,CuDef*%
%ADD22RoundRect,0.250000X-0.475000X0.250000X-0.475000X-0.250000X0.475000X-0.250000X0.475000X0.250000X0*%
%TD*%
%TA.AperFunction,SMDPad,CuDef*%
%ADD23RoundRect,0.200000X0.200000X0.275000X-0.200000X0.275000X-0.200000X-0.275000X0.200000X-0.275000X0*%
%TD*%
%TA.AperFunction,ComponentPad*%
%ADD24R,2.000000X2.000000*%
%TD*%
%TA.AperFunction,ComponentPad*%
%ADD25C,2.000000*%
%TD*%
%TA.AperFunction,ComponentPad*%
%ADD26R,1.700000X1.700000*%
%TD*%
%TA.AperFunction,ComponentPad*%
%ADD27O,1.700000X1.700000*%
%TD*%
%TA.AperFunction,SMDPad,CuDef*%
%ADD28RoundRect,0.225000X0.250000X-0.225000X0.250000X0.225000X-0.250000X0.225000X-0.250000X-0.225000X0*%
%TD*%
%TA.AperFunction,SMDPad,CuDef*%
%ADD29RoundRect,0.150000X-0.150000X0.587500X-0.150000X-0.587500X0.150000X-0.587500X0.150000X0.587500X0*%
%TD*%
%TA.AperFunction,SMDPad,CuDef*%
%ADD30RoundRect,0.200000X-0.275000X0.200000X-0.275000X-0.200000X0.275000X-0.200000X0.275000X0.200000X0*%
%TD*%
%TA.AperFunction,SMDPad,CuDef*%
%ADD31R,0.900000X1.500000*%
%TD*%
%TA.AperFunction,SMDPad,CuDef*%
%ADD32R,4.000000X4.000000*%
%TD*%
%TA.AperFunction,SMDPad,CuDef*%
%ADD33R,1.500000X2.000000*%
%TD*%
%TA.AperFunction,SMDPad,CuDef*%
%ADD34R,3.800000X2.000000*%
%TD*%
%TA.AperFunction,SMDPad,CuDef*%
%ADD35RoundRect,0.317500X0.317500X-1.157500X0.317500X1.157500X-0.317500X1.157500X-0.317500X-1.157500X0*%
%TD*%
%TA.AperFunction,SMDPad,CuDef*%
%ADD36RoundRect,0.200000X0.275000X-0.200000X0.275000X0.200000X-0.275000X0.200000X-0.275000X-0.200000X0*%
%TD*%
%TA.AperFunction,SMDPad,CuDef*%
%ADD37RoundRect,0.250000X0.475000X-0.250000X0.475000X0.250000X-0.475000X0.250000X-0.475000X-0.250000X0*%
%TD*%
%TA.AperFunction,SMDPad,CuDef*%
%ADD38R,0.700000X0.700000*%
%TD*%
%TA.AperFunction,SMDPad,CuDef*%
%ADD39RoundRect,0.225000X0.225000X0.250000X-0.225000X0.250000X-0.225000X-0.250000X0.225000X-0.250000X0*%
%TD*%
%TA.AperFunction,SMDPad,CuDef*%
%ADD40RoundRect,0.250000X-0.250000X-0.475000X0.250000X-0.475000X0.250000X0.475000X-0.250000X0.475000X0*%
%TD*%
%TA.AperFunction,SMDPad,CuDef*%
%ADD41RoundRect,0.218750X-0.218750X-0.256250X0.218750X-0.256250X0.218750X0.256250X-0.218750X0.256250X0*%
%TD*%
%TA.AperFunction,ComponentPad*%
%ADD42C,1.000000*%
%TD*%
%TA.AperFunction,SMDPad,CuDef*%
%ADD43Outline4P,-0.350000X-0.400000X0.350000X-0.400000X0.050000X0.400000X-0.050000X0.400000X90.000000*%
%TD*%
%TA.AperFunction,SMDPad,CuDef*%
%ADD44R,2.400000X0.740000*%
%TD*%
%TA.AperFunction,ViaPad*%
%ADD45C,0.800000*%
%TD*%
%TA.AperFunction,ViaPad*%
%ADD46C,4.201160*%
%TD*%
%TA.AperFunction,ViaPad*%
%ADD47C,7.620000*%
%TD*%
%TA.AperFunction,Conductor*%
%ADD48C,0.381000*%
%TD*%
%TA.AperFunction,Conductor*%
%ADD49C,0.800000*%
%TD*%
%TA.AperFunction,Conductor*%
%ADD50C,0.600000*%
%TD*%
%TA.AperFunction,Conductor*%
%ADD51C,1.000000*%
%TD*%
%TA.AperFunction,Conductor*%
%ADD52C,0.750000*%
%TD*%
%TA.AperFunction,Conductor*%
%ADD53C,0.500000*%
%TD*%
%ADD54C,0.350000*%
%ADD55O,0.500000X1.200000*%
G04 APERTURE END LIST*
D10*
D11*
X143272453Y-106635628D02*
X142772453Y-105921342D01*
X142415310Y-106635628D02*
X142415310Y-105135628D01*
X142415310Y-105135628D02*
X142986739Y-105135628D01*
X142986739Y-105135628D02*
X143129596Y-105207057D01*
X143129596Y-105207057D02*
X143201025Y-105278485D01*
X143201025Y-105278485D02*
X143272453Y-105421342D01*
X143272453Y-105421342D02*
X143272453Y-105635628D01*
X143272453Y-105635628D02*
X143201025Y-105778485D01*
X143201025Y-105778485D02*
X143129596Y-105849914D01*
X143129596Y-105849914D02*
X142986739Y-105921342D01*
X142986739Y-105921342D02*
X142415310Y-105921342D01*
X144343882Y-105135628D02*
X144343882Y-106207057D01*
X144343882Y-106207057D02*
X144272453Y-106421342D01*
X144272453Y-106421342D02*
X144129596Y-106564200D01*
X144129596Y-106564200D02*
X143915310Y-106635628D01*
X143915310Y-106635628D02*
X143772453Y-106635628D01*
X145058167Y-106635628D02*
X145058167Y-105135628D01*
X145058167Y-105849914D02*
X145915310Y-105849914D01*
X145915310Y-106635628D02*
X145915310Y-105135628D01*
X147201025Y-106564200D02*
X147058168Y-106635628D01*
X147058168Y-106635628D02*
X146772454Y-106635628D01*
X146772454Y-106635628D02*
X146629596Y-106564200D01*
X146629596Y-106564200D02*
X146558168Y-106421342D01*
X146558168Y-106421342D02*
X146558168Y-105849914D01*
X146558168Y-105849914D02*
X146629596Y-105707057D01*
X146629596Y-105707057D02*
X146772454Y-105635628D01*
X146772454Y-105635628D02*
X147058168Y-105635628D01*
X147058168Y-105635628D02*
X147201025Y-105707057D01*
X147201025Y-105707057D02*
X147272454Y-105849914D01*
X147272454Y-105849914D02*
X147272454Y-105992771D01*
X147272454Y-105992771D02*
X146558168Y-106135628D01*
X148558168Y-105635628D02*
X148558168Y-106849914D01*
X148558168Y-106849914D02*
X148486739Y-106992771D01*
X148486739Y-106992771D02*
X148415310Y-107064200D01*
X148415310Y-107064200D02*
X148272453Y-107135628D01*
X148272453Y-107135628D02*
X148058168Y-107135628D01*
X148058168Y-107135628D02*
X147915310Y-107064200D01*
X148558168Y-106564200D02*
X148415310Y-106635628D01*
X148415310Y-106635628D02*
X148129596Y-106635628D01*
X148129596Y-106635628D02*
X147986739Y-106564200D01*
X147986739Y-106564200D02*
X147915310Y-106492771D01*
X147915310Y-106492771D02*
X147843882Y-106349914D01*
X147843882Y-106349914D02*
X147843882Y-105921342D01*
X147843882Y-105921342D02*
X147915310Y-105778485D01*
X147915310Y-105778485D02*
X147986739Y-105707057D01*
X147986739Y-105707057D02*
X148129596Y-105635628D01*
X148129596Y-105635628D02*
X148415310Y-105635628D01*
X148415310Y-105635628D02*
X148558168Y-105707057D01*
X149486739Y-106635628D02*
X149343882Y-106564200D01*
X149343882Y-106564200D02*
X149272453Y-106421342D01*
X149272453Y-106421342D02*
X149272453Y-105135628D01*
X150629596Y-106564200D02*
X150486739Y-106635628D01*
X150486739Y-106635628D02*
X150201025Y-106635628D01*
X150201025Y-106635628D02*
X150058167Y-106564200D01*
X150058167Y-106564200D02*
X149986739Y-106421342D01*
X149986739Y-106421342D02*
X149986739Y-105849914D01*
X149986739Y-105849914D02*
X150058167Y-105707057D01*
X150058167Y-105707057D02*
X150201025Y-105635628D01*
X150201025Y-105635628D02*
X150486739Y-105635628D01*
X150486739Y-105635628D02*
X150629596Y-105707057D01*
X150629596Y-105707057D02*
X150701025Y-105849914D01*
X150701025Y-105849914D02*
X150701025Y-105992771D01*
X150701025Y-105992771D02*
X149986739Y-106135628D01*
X151343881Y-106635628D02*
X151343881Y-105635628D01*
X151343881Y-105921342D02*
X151415310Y-105778485D01*
X151415310Y-105778485D02*
X151486739Y-105707057D01*
X151486739Y-105707057D02*
X151629596Y-105635628D01*
X151629596Y-105635628D02*
X151772453Y-105635628D01*
X153201024Y-105135628D02*
X154058167Y-105135628D01*
X153629595Y-106635628D02*
X153629595Y-105135628D01*
X155129595Y-106564200D02*
X154986738Y-106635628D01*
X154986738Y-106635628D02*
X154701024Y-106635628D01*
X154701024Y-106635628D02*
X154558166Y-106564200D01*
X154558166Y-106564200D02*
X154486738Y-106421342D01*
X154486738Y-106421342D02*
X154486738Y-105849914D01*
X154486738Y-105849914D02*
X154558166Y-105707057D01*
X154558166Y-105707057D02*
X154701024Y-105635628D01*
X154701024Y-105635628D02*
X154986738Y-105635628D01*
X154986738Y-105635628D02*
X155129595Y-105707057D01*
X155129595Y-105707057D02*
X155201024Y-105849914D01*
X155201024Y-105849914D02*
X155201024Y-105992771D01*
X155201024Y-105992771D02*
X154486738Y-106135628D01*
X156486738Y-106564200D02*
X156343880Y-106635628D01*
X156343880Y-106635628D02*
X156058166Y-106635628D01*
X156058166Y-106635628D02*
X155915309Y-106564200D01*
X155915309Y-106564200D02*
X155843880Y-106492771D01*
X155843880Y-106492771D02*
X155772452Y-106349914D01*
X155772452Y-106349914D02*
X155772452Y-105921342D01*
X155772452Y-105921342D02*
X155843880Y-105778485D01*
X155843880Y-105778485D02*
X155915309Y-105707057D01*
X155915309Y-105707057D02*
X156058166Y-105635628D01*
X156058166Y-105635628D02*
X156343880Y-105635628D01*
X156343880Y-105635628D02*
X156486738Y-105707057D01*
X157129594Y-106635628D02*
X157129594Y-105135628D01*
X157772452Y-106635628D02*
X157772452Y-105849914D01*
X157772452Y-105849914D02*
X157701023Y-105707057D01*
X157701023Y-105707057D02*
X157558166Y-105635628D01*
X157558166Y-105635628D02*
X157343880Y-105635628D01*
X157343880Y-105635628D02*
X157201023Y-105707057D01*
X157201023Y-105707057D02*
X157129594Y-105778485D01*
X158558166Y-106564200D02*
X158558166Y-106635628D01*
X158558166Y-106635628D02*
X158486737Y-106778485D01*
X158486737Y-106778485D02*
X158415309Y-106849914D01*
X161058166Y-106635628D02*
X160343880Y-106635628D01*
X160343880Y-106635628D02*
X160343880Y-105135628D01*
X162272452Y-106635628D02*
X161558166Y-106635628D01*
X161558166Y-106635628D02*
X161558166Y-105135628D01*
X163629595Y-106492771D02*
X163558167Y-106564200D01*
X163558167Y-106564200D02*
X163343881Y-106635628D01*
X163343881Y-106635628D02*
X163201024Y-106635628D01*
X163201024Y-106635628D02*
X162986738Y-106564200D01*
X162986738Y-106564200D02*
X162843881Y-106421342D01*
X162843881Y-106421342D02*
X162772452Y-106278485D01*
X162772452Y-106278485D02*
X162701024Y-105992771D01*
X162701024Y-105992771D02*
X162701024Y-105778485D01*
X162701024Y-105778485D02*
X162772452Y-105492771D01*
X162772452Y-105492771D02*
X162843881Y-105349914D01*
X162843881Y-105349914D02*
X162986738Y-105207057D01*
X162986738Y-105207057D02*
X163201024Y-105135628D01*
X163201024Y-105135628D02*
X163343881Y-105135628D01*
X163343881Y-105135628D02*
X163558167Y-105207057D01*
X163558167Y-105207057D02*
X163629595Y-105278485D01*
X142415310Y-109050628D02*
X142415310Y-107550628D01*
X142415310Y-107550628D02*
X142986739Y-107550628D01*
X142986739Y-107550628D02*
X143129596Y-107622057D01*
X143129596Y-107622057D02*
X143201025Y-107693485D01*
X143201025Y-107693485D02*
X143272453Y-107836342D01*
X143272453Y-107836342D02*
X143272453Y-108050628D01*
X143272453Y-108050628D02*
X143201025Y-108193485D01*
X143201025Y-108193485D02*
X143129596Y-108264914D01*
X143129596Y-108264914D02*
X142986739Y-108336342D01*
X142986739Y-108336342D02*
X142415310Y-108336342D01*
X144772453Y-108907771D02*
X144701025Y-108979200D01*
X144701025Y-108979200D02*
X144486739Y-109050628D01*
X144486739Y-109050628D02*
X144343882Y-109050628D01*
X144343882Y-109050628D02*
X144129596Y-108979200D01*
X144129596Y-108979200D02*
X143986739Y-108836342D01*
X143986739Y-108836342D02*
X143915310Y-108693485D01*
X143915310Y-108693485D02*
X143843882Y-108407771D01*
X143843882Y-108407771D02*
X143843882Y-108193485D01*
X143843882Y-108193485D02*
X143915310Y-107907771D01*
X143915310Y-107907771D02*
X143986739Y-107764914D01*
X143986739Y-107764914D02*
X144129596Y-107622057D01*
X144129596Y-107622057D02*
X144343882Y-107550628D01*
X144343882Y-107550628D02*
X144486739Y-107550628D01*
X144486739Y-107550628D02*
X144701025Y-107622057D01*
X144701025Y-107622057D02*
X144772453Y-107693485D01*
X145915310Y-108264914D02*
X146129596Y-108336342D01*
X146129596Y-108336342D02*
X146201025Y-108407771D01*
X146201025Y-108407771D02*
X146272453Y-108550628D01*
X146272453Y-108550628D02*
X146272453Y-108764914D01*
X146272453Y-108764914D02*
X146201025Y-108907771D01*
X146201025Y-108907771D02*
X146129596Y-108979200D01*
X146129596Y-108979200D02*
X145986739Y-109050628D01*
X145986739Y-109050628D02*
X145415310Y-109050628D01*
X145415310Y-109050628D02*
X145415310Y-107550628D01*
X145415310Y-107550628D02*
X145915310Y-107550628D01*
X145915310Y-107550628D02*
X146058168Y-107622057D01*
X146058168Y-107622057D02*
X146129596Y-107693485D01*
X146129596Y-107693485D02*
X146201025Y-107836342D01*
X146201025Y-107836342D02*
X146201025Y-107979200D01*
X146201025Y-107979200D02*
X146129596Y-108122057D01*
X146129596Y-108122057D02*
X146058168Y-108193485D01*
X146058168Y-108193485D02*
X145915310Y-108264914D01*
X145915310Y-108264914D02*
X145415310Y-108264914D01*
X147201025Y-107550628D02*
X147343882Y-107550628D01*
X147343882Y-107550628D02*
X147486739Y-107622057D01*
X147486739Y-107622057D02*
X147558168Y-107693485D01*
X147558168Y-107693485D02*
X147629596Y-107836342D01*
X147629596Y-107836342D02*
X147701025Y-108122057D01*
X147701025Y-108122057D02*
X147701025Y-108479200D01*
X147701025Y-108479200D02*
X147629596Y-108764914D01*
X147629596Y-108764914D02*
X147558168Y-108907771D01*
X147558168Y-108907771D02*
X147486739Y-108979200D01*
X147486739Y-108979200D02*
X147343882Y-109050628D01*
X147343882Y-109050628D02*
X147201025Y-109050628D01*
X147201025Y-109050628D02*
X147058168Y-108979200D01*
X147058168Y-108979200D02*
X146986739Y-108907771D01*
X146986739Y-108907771D02*
X146915310Y-108764914D01*
X146915310Y-108764914D02*
X146843882Y-108479200D01*
X146843882Y-108479200D02*
X146843882Y-108122057D01*
X146843882Y-108122057D02*
X146915310Y-107836342D01*
X146915310Y-107836342D02*
X146986739Y-107693485D01*
X146986739Y-107693485D02*
X147058168Y-107622057D01*
X147058168Y-107622057D02*
X147201025Y-107550628D01*
X149129596Y-109050628D02*
X148272453Y-109050628D01*
X148701024Y-109050628D02*
X148701024Y-107550628D01*
X148701024Y-107550628D02*
X148558167Y-107764914D01*
X148558167Y-107764914D02*
X148415310Y-107907771D01*
X148415310Y-107907771D02*
X148272453Y-107979200D01*
X149701024Y-107693485D02*
X149772452Y-107622057D01*
X149772452Y-107622057D02*
X149915310Y-107550628D01*
X149915310Y-107550628D02*
X150272452Y-107550628D01*
X150272452Y-107550628D02*
X150415310Y-107622057D01*
X150415310Y-107622057D02*
X150486738Y-107693485D01*
X150486738Y-107693485D02*
X150558167Y-107836342D01*
X150558167Y-107836342D02*
X150558167Y-107979200D01*
X150558167Y-107979200D02*
X150486738Y-108193485D01*
X150486738Y-108193485D02*
X149629595Y-109050628D01*
X149629595Y-109050628D02*
X150558167Y-109050628D01*
X151486738Y-107550628D02*
X151629595Y-107550628D01*
X151629595Y-107550628D02*
X151772452Y-107622057D01*
X151772452Y-107622057D02*
X151843881Y-107693485D01*
X151843881Y-107693485D02*
X151915309Y-107836342D01*
X151915309Y-107836342D02*
X151986738Y-108122057D01*
X151986738Y-108122057D02*
X151986738Y-108479200D01*
X151986738Y-108479200D02*
X151915309Y-108764914D01*
X151915309Y-108764914D02*
X151843881Y-108907771D01*
X151843881Y-108907771D02*
X151772452Y-108979200D01*
X151772452Y-108979200D02*
X151629595Y-109050628D01*
X151629595Y-109050628D02*
X151486738Y-109050628D01*
X151486738Y-109050628D02*
X151343881Y-108979200D01*
X151343881Y-108979200D02*
X151272452Y-108907771D01*
X151272452Y-108907771D02*
X151201023Y-108764914D01*
X151201023Y-108764914D02*
X151129595Y-108479200D01*
X151129595Y-108479200D02*
X151129595Y-108122057D01*
X151129595Y-108122057D02*
X151201023Y-107836342D01*
X151201023Y-107836342D02*
X151272452Y-107693485D01*
X151272452Y-107693485D02*
X151343881Y-107622057D01*
X151343881Y-107622057D02*
X151486738Y-107550628D01*
X152558166Y-107693485D02*
X152629594Y-107622057D01*
X152629594Y-107622057D02*
X152772452Y-107550628D01*
X152772452Y-107550628D02*
X153129594Y-107550628D01*
X153129594Y-107550628D02*
X153272452Y-107622057D01*
X153272452Y-107622057D02*
X153343880Y-107693485D01*
X153343880Y-107693485D02*
X153415309Y-107836342D01*
X153415309Y-107836342D02*
X153415309Y-107979200D01*
X153415309Y-107979200D02*
X153343880Y-108193485D01*
X153343880Y-108193485D02*
X152486737Y-109050628D01*
X152486737Y-109050628D02*
X153415309Y-109050628D01*
X154701023Y-108050628D02*
X154701023Y-109050628D01*
X154343880Y-107479200D02*
X153986737Y-108550628D01*
X153986737Y-108550628D02*
X154915308Y-108550628D01*
X155772451Y-107550628D02*
X155915308Y-107550628D01*
X155915308Y-107550628D02*
X156058165Y-107622057D01*
X156058165Y-107622057D02*
X156129594Y-107693485D01*
X156129594Y-107693485D02*
X156201022Y-107836342D01*
X156201022Y-107836342D02*
X156272451Y-108122057D01*
X156272451Y-108122057D02*
X156272451Y-108479200D01*
X156272451Y-108479200D02*
X156201022Y-108764914D01*
X156201022Y-108764914D02*
X156129594Y-108907771D01*
X156129594Y-108907771D02*
X156058165Y-108979200D01*
X156058165Y-108979200D02*
X155915308Y-109050628D01*
X155915308Y-109050628D02*
X155772451Y-109050628D01*
X155772451Y-109050628D02*
X155629594Y-108979200D01*
X155629594Y-108979200D02*
X155558165Y-108907771D01*
X155558165Y-108907771D02*
X155486736Y-108764914D01*
X155486736Y-108764914D02*
X155415308Y-108479200D01*
X155415308Y-108479200D02*
X155415308Y-108122057D01*
X155415308Y-108122057D02*
X155486736Y-107836342D01*
X155486736Y-107836342D02*
X155558165Y-107693485D01*
X155558165Y-107693485D02*
X155629594Y-107622057D01*
X155629594Y-107622057D02*
X155772451Y-107550628D01*
X157701022Y-109050628D02*
X156843879Y-109050628D01*
X157272450Y-109050628D02*
X157272450Y-107550628D01*
X157272450Y-107550628D02*
X157129593Y-107764914D01*
X157129593Y-107764914D02*
X156986736Y-107907771D01*
X156986736Y-107907771D02*
X156843879Y-107979200D01*
D12*
%TO.C,AE2*%
X152853400Y-74370000D02*
X163853400Y-74370000D01*
X163853400Y-76370000D02*
X158853400Y-76370000D01*
X163853400Y-78370000D02*
X158853400Y-78370000D01*
X163853400Y-80370000D02*
X158853400Y-80370000D01*
X163853400Y-82370000D02*
X158853400Y-82370000D01*
X163853400Y-84370000D02*
X158853400Y-84370000D01*
X163853400Y-86370000D02*
X158853400Y-86370000D01*
X163853400Y-88370000D02*
X158853400Y-88370000D01*
X163853400Y-90370000D02*
X158853400Y-90370000D01*
X163853400Y-92370000D02*
X158853400Y-92370000D01*
%TD*%
D13*
%TO.P,SW2,*%
%TO.N,*%
X117979400Y-61153000D03*
X124979400Y-61153000D03*
D14*
%TO.P,SW2,1,1*%
%TO.N,/Pair*%
X119229400Y-58653000D03*
%TO.P,SW2,2,2*%
%TO.N,GND*%
X123729400Y-58653000D03*
%TD*%
D15*
%TO.P,J5,1,VBUS*%
%TO.N,Net-(J5-VBUS)*%
X135134400Y-60693000D03*
%TO.P,J5,2,D-*%
%TO.N,unconnected-(J5-D--Pad2)*%
X134484400Y-60693000D03*
%TO.P,J5,3,D+*%
%TO.N,unconnected-(J5-D+-Pad3)*%
X133834400Y-60693000D03*
%TO.P,J5,4,ID*%
%TO.N,unconnected-(J5-ID-Pad4)*%
X133184400Y-60693000D03*
%TO.P,J5,5,GND*%
%TO.N,GND*%
X132534400Y-60693000D03*
D16*
%TO.P,J5,6,Shield*%
X137134400Y-58018000D03*
D17*
X137034400Y-60468000D03*
D18*
X135034400Y-58018000D03*
X132634400Y-58018000D03*
D17*
X130634400Y-60468000D03*
D16*
X130534400Y-58018000D03*
%TD*%
D19*
%TO.P,D4,1,A1*%
%TO.N,/Config*%
X156059400Y-65739500D03*
%TO.P,D4,2,A2*%
%TO.N,GND*%
X156059400Y-67314500D03*
%TD*%
D20*
%TO.P,C9,1*%
%TO.N,+3.3V*%
X109526600Y-92218800D03*
%TO.P,C9,2*%
%TO.N,GND*%
X109526600Y-93768800D03*
%TD*%
D21*
%TO.P,C5,1*%
%TO.N,+3.3V*%
X141695400Y-65638000D03*
%TO.P,C5,2*%
%TO.N,GND*%
X143245400Y-65638000D03*
%TD*%
D22*
%TO.P,C2,1*%
%TO.N,Net-(J5-VBUS)*%
X135866400Y-67863000D03*
%TO.P,C2,2*%
%TO.N,GND*%
X135866400Y-69763000D03*
%TD*%
D23*
%TO.P,R8,1*%
%TO.N,/BEEP*%
X117006400Y-100690000D03*
%TO.P,R8,2*%
%TO.N,Net-(Q2-B)*%
X115356400Y-100690000D03*
%TD*%
D24*
%TO.P,BZ1,1,+*%
%TO.N,+3.3V*%
X113040000Y-110490000D03*
D25*
%TO.P,BZ1,2,-*%
%TO.N,Net-(BZ1--)*%
X120640000Y-110490000D03*
%TD*%
D26*
%TO.P,J1,1,Pin_1*%
%TO.N,GND*%
X137009400Y-97769000D03*
D27*
%TO.P,J1,2,Pin_2*%
%TO.N,+3.3V*%
X134469400Y-97769000D03*
%TO.P,J1,3,Pin_3*%
%TO.N,/SCL*%
X131929400Y-97769000D03*
%TO.P,J1,4,Pin_4*%
%TO.N,/SDA*%
X129389400Y-97769000D03*
%TD*%
D28*
%TO.P,C3,1*%
%TO.N,Net-(U2-ANT)*%
X146280400Y-74541000D03*
%TO.P,C3,2*%
%TO.N,GND*%
X146280400Y-72991000D03*
%TD*%
D13*
%TO.P,SW3,*%
%TO.N,*%
X141982400Y-61210000D03*
X148982400Y-61210000D03*
D14*
%TO.P,SW3,1,1*%
%TO.N,GND*%
X143232400Y-58710000D03*
%TO.P,SW3,2,2*%
%TO.N,/Config*%
X147732400Y-58710000D03*
%TD*%
D29*
%TO.P,Q2,1,B*%
%TO.N,Net-(Q2-B)*%
X107352400Y-103562500D03*
%TO.P,Q2,2,E*%
%TO.N,GND*%
X105452400Y-103562500D03*
%TO.P,Q2,3,C*%
%TO.N,Net-(BZ1--)*%
X106402400Y-105437500D03*
%TD*%
D30*
%TO.P,R4,1*%
%TO.N,+3.3V*%
X130024400Y-102354200D03*
%TO.P,R4,2*%
%TO.N,/RGB*%
X130024400Y-104004200D03*
%TD*%
D31*
%TO.P,U1,1,3V3*%
%TO.N,+3.3V*%
X108771000Y-88891400D03*
%TO.P,U1,2,EN*%
%TO.N,/ESP_EN*%
X110271000Y-88891400D03*
%TO.P,U1,3,IO4*%
%TO.N,unconnected-(U1-IO4-Pad3)*%
X111771000Y-88891400D03*
%TO.P,U1,4,IO5*%
%TO.N,/MISO*%
X113271000Y-88891400D03*
%TO.P,U1,5,IO6*%
%TO.N,/SCK*%
X114771000Y-88891400D03*
%TO.P,U1,6,IO7*%
%TO.N,/MOSI*%
X116271000Y-88891400D03*
%TO.P,U1,7,IO8*%
%TO.N,/RGB*%
X117771000Y-88891400D03*
%TO.P,U1,8,IO9*%
%TO.N,/RST*%
X119271000Y-88891400D03*
%TO.P,U1,9,GND*%
%TO.N,GND*%
X120771000Y-88891400D03*
%TO.P,U1,10,IO10*%
%TO.N,/NSS*%
X120771000Y-71391400D03*
%TO.P,U1,11,RXD*%
%TO.N,/ESP_RXD*%
X119271000Y-71391400D03*
%TO.P,U1,12,TXD*%
%TO.N,/ESP_TXD*%
X117771000Y-71391400D03*
%TO.P,U1,13,IO18*%
%TO.N,/GotMail*%
X116271000Y-71391400D03*
%TO.P,U1,14,IO19*%
%TO.N,/Pair*%
X114771000Y-71391400D03*
%TO.P,U1,15,IO3*%
%TO.N,/BEEP*%
X113271000Y-71391400D03*
%TO.P,U1,16,IO2*%
%TO.N,/Config*%
X111771000Y-71391400D03*
%TO.P,U1,17,IO1*%
%TO.N,/SCL*%
X110271000Y-71391400D03*
%TO.P,U1,18,IO0*%
%TO.N,/SDA*%
X108771000Y-71391400D03*
D32*
%TO.P,U1,19,GND*%
%TO.N,GND*%
X115381000Y-79041400D03*
%TD*%
D33*
%TO.P,U3,1,GND*%
%TO.N,GND*%
X143881400Y-68203000D03*
%TO.P,U3,2,VO*%
%TO.N,+3.3V*%
X141581400Y-68203000D03*
D34*
X141581400Y-74503000D03*
D33*
%TO.P,U3,3,VI*%
%TO.N,Net-(J5-VBUS)*%
X139281400Y-68203000D03*
%TD*%
D35*
%TO.P,U2,1,GND*%
%TO.N,GND*%
X130898400Y-93356000D03*
%TO.P,U2,2,MISO*%
%TO.N,/MISO*%
X132898400Y-93356000D03*
%TO.P,U2,3,MOSI*%
%TO.N,/MOSI*%
X134898400Y-93356000D03*
%TO.P,U2,4,SCK*%
%TO.N,/SCK*%
X136898400Y-93356000D03*
%TO.P,U2,5,NSS*%
%TO.N,/NSS*%
X138898400Y-93356000D03*
%TO.P,U2,6,RESET*%
%TO.N,/RST*%
X140898400Y-93356000D03*
%TO.P,U2,7,DIO5*%
%TO.N,unconnected-(U2-DIO5-Pad7)*%
X142898400Y-93356000D03*
%TO.P,U2,8,GND*%
%TO.N,GND*%
X144898400Y-93356000D03*
%TO.P,U2,9,ANT*%
%TO.N,Net-(U2-ANT)*%
X144898400Y-78306000D03*
%TO.P,U2,10,GND*%
%TO.N,GND*%
X142898400Y-78306000D03*
%TO.P,U2,11,DIO3*%
%TO.N,unconnected-(U2-DIO3-Pad11)*%
X140898400Y-78306000D03*
%TO.P,U2,12,DIO4*%
%TO.N,unconnected-(U2-DIO4-Pad12)*%
X138898400Y-78306000D03*
%TO.P,U2,13,3.3V*%
%TO.N,+3.3V*%
X136898400Y-78306000D03*
%TO.P,U2,14,DIO0*%
%TO.N,unconnected-(U2-DIO0-Pad14)*%
X134898400Y-78306000D03*
%TO.P,U2,15,DIO1*%
%TO.N,unconnected-(U2-DIO1-Pad15)*%
X132898400Y-78306000D03*
%TO.P,U2,16,DIO2*%
%TO.N,unconnected-(U2-DIO2-Pad16)*%
X130898400Y-78306000D03*
%TD*%
D36*
%TO.P,R7,1*%
%TO.N,+3.3V*%
X153773400Y-68749000D03*
%TO.P,R7,2*%
%TO.N,/Config*%
X153773400Y-67099000D03*
%TD*%
D37*
%TO.P,C6,1*%
%TO.N,+3.3V*%
X134723400Y-75417000D03*
%TO.P,C6,2*%
%TO.N,GND*%
X134723400Y-73517000D03*
%TD*%
D38*
%TO.P,D1,1,DOUT*%
%TO.N,unconnected-(D1-DOUT-Pad1)*%
X133952600Y-102315000D03*
%TO.P,D1,2,GND*%
%TO.N,GND*%
X132852600Y-102315000D03*
%TO.P,D1,3,DIN*%
%TO.N,/RGB*%
X132852600Y-104145000D03*
%TO.P,D1,4,VDD*%
%TO.N,+3.3V*%
X133952600Y-104145000D03*
%TD*%
D37*
%TO.P,C4,1*%
%TO.N,+3.3V*%
X150979400Y-70271000D03*
%TO.P,C4,2*%
%TO.N,GND*%
X150979400Y-68371000D03*
%TD*%
D39*
%TO.P,C13,1*%
%TO.N,+3.3V*%
X111241400Y-103357000D03*
%TO.P,C13,2*%
%TO.N,GND*%
X109691400Y-103357000D03*
%TD*%
D28*
%TO.P,C7,1*%
%TO.N,+3.3V*%
X136628400Y-75430000D03*
%TO.P,C7,2*%
%TO.N,GND*%
X136628400Y-73880000D03*
%TD*%
%TO.P,C17,1*%
%TO.N,GND*%
X158345400Y-67302000D03*
%TO.P,C17,2*%
%TO.N,/Config*%
X158345400Y-65752000D03*
%TD*%
D25*
%TO.P,SW1,1,1*%
%TO.N,GND*%
X135561600Y-106989200D03*
X135561600Y-113489200D03*
%TO.P,SW1,2,2*%
%TO.N,/GotMail*%
X131061600Y-106989200D03*
X131061600Y-113489200D03*
%TD*%
D30*
%TO.P,R5,1*%
%TO.N,+3.3V*%
X126112800Y-106164200D03*
%TO.P,R5,2*%
%TO.N,/GotMail*%
X126112800Y-107814200D03*
%TD*%
D36*
%TO.P,R3,1*%
%TO.N,+3.3V*%
X124436400Y-102912000D03*
%TO.P,R3,2*%
%TO.N,/SDA*%
X124436400Y-101262000D03*
%TD*%
D40*
%TO.P,C10,1*%
%TO.N,+3.3V*%
X136961400Y-104079500D03*
%TO.P,C10,2*%
%TO.N,GND*%
X138861400Y-104079500D03*
%TD*%
D36*
%TO.P,R2,1*%
%TO.N,+3.3V*%
X126722400Y-102785000D03*
%TO.P,R2,2*%
%TO.N,/SCL*%
X126722400Y-101135000D03*
%TD*%
D22*
%TO.P,C8,1*%
%TO.N,+3.3V*%
X111965000Y-92145400D03*
%TO.P,C8,2*%
%TO.N,GND*%
X111965000Y-94045400D03*
%TD*%
D19*
%TO.P,D2,1,A1*%
%TO.N,/GotMail*%
X128602000Y-107014500D03*
%TO.P,D2,2,A2*%
%TO.N,GND*%
X128602000Y-108589500D03*
%TD*%
D39*
%TO.P,C16,1*%
%TO.N,GND*%
X121020400Y-65866600D03*
%TO.P,C16,2*%
%TO.N,/Pair*%
X119470400Y-65866600D03*
%TD*%
D23*
%TO.P,R6,1*%
%TO.N,+3.3V*%
X121070400Y-67543000D03*
%TO.P,R6,2*%
%TO.N,/Pair*%
X119420400Y-67543000D03*
%TD*%
D21*
%TO.P,C12,1*%
%TO.N,+3.3V*%
X137123400Y-101909200D03*
%TO.P,C12,2*%
%TO.N,GND*%
X138673400Y-101909200D03*
%TD*%
D41*
%TO.P,L1,1,1*%
%TO.N,Net-(U2-ANT)*%
X147778900Y-74528000D03*
%TO.P,L1,2,2*%
%TO.N,Net-(AE2-A)*%
X149353900Y-74528000D03*
%TD*%
D20*
%TO.P,C11,1*%
%TO.N,/ESP_EN*%
X117959400Y-96105000D03*
%TO.P,C11,2*%
%TO.N,GND*%
X117959400Y-97655000D03*
%TD*%
D42*
%TO.P,AE2,*%
%TO.N,*%
X163853400Y-74370000D03*
X163853400Y-76370000D03*
X158853400Y-76370000D03*
X163853400Y-78370000D03*
X158853400Y-78370000D03*
X163853400Y-80370000D03*
X158853400Y-80370000D03*
X163853400Y-82370000D03*
X158853400Y-82370000D03*
X163853400Y-84370000D03*
X158853400Y-84370000D03*
X163853400Y-86370000D03*
X158853400Y-86370000D03*
X163853400Y-88370000D03*
X158853400Y-88370000D03*
X163853400Y-90370000D03*
X158853400Y-90370000D03*
X163853400Y-92370000D03*
X158853400Y-92370000D03*
D43*
%TO.P,AE2,1,A*%
%TO.N,Net-(AE2-A)*%
X152153400Y-74370000D03*
%TD*%
D41*
%TO.P,D3,1,A1*%
%TO.N,/Pair*%
X119457900Y-64063200D03*
%TO.P,D3,2,A2*%
%TO.N,GND*%
X121032900Y-64063200D03*
%TD*%
D28*
%TO.P,C19,1*%
%TO.N,Net-(AE2-A)*%
X150852400Y-74414000D03*
%TO.P,C19,2*%
%TO.N,GND*%
X150852400Y-72864000D03*
%TD*%
D20*
%TO.P,C15,1*%
%TO.N,GND*%
X127154200Y-111941600D03*
%TO.P,C15,2*%
%TO.N,/GotMail*%
X127154200Y-113491600D03*
%TD*%
D28*
%TO.P,C1,1*%
%TO.N,Net-(J5-VBUS)*%
X139168400Y-65778000D03*
%TO.P,C1,2*%
%TO.N,GND*%
X139168400Y-64228000D03*
%TD*%
D44*
%TO.P,J2,1,Pin_1*%
%TO.N,/ESP_EN*%
X125280400Y-69575000D03*
%TO.P,J2,2,Pin_2*%
%TO.N,+3.3V*%
X129180400Y-69575000D03*
%TO.P,J2,3,Pin_3*%
%TO.N,/ESP_TXD*%
X125280400Y-70845000D03*
%TO.P,J2,4,Pin_4*%
%TO.N,GND*%
X129180400Y-70845000D03*
%TO.P,J2,5,Pin_5*%
%TO.N,/ESP_RXD*%
X125280400Y-72115000D03*
%TO.P,J2,6,Pin_6*%
%TO.N,/RST*%
X129180400Y-72115000D03*
%TD*%
D36*
%TO.P,R1,1*%
%TO.N,+3.3V*%
X114403400Y-93260000D03*
%TO.P,R1,2*%
%TO.N,/ESP_EN*%
X114403400Y-91610000D03*
%TD*%
D45*
%TO.N,+3.3V*%
X127230400Y-86339000D03*
%TO.N,/BEEP*%
X113260400Y-73258000D03*
X119737400Y-98912000D03*
%TO.N,GND*%
X160885400Y-94721000D03*
X144629400Y-73004000D03*
X163806400Y-72115000D03*
D46*
X114640163Y-64200000D03*
D45*
X151614400Y-76814000D03*
X124817400Y-77068000D03*
X145264400Y-65511000D03*
X146788400Y-93324000D03*
X124817400Y-78719000D03*
X119508800Y-80319200D03*
D46*
X151868400Y-64114000D03*
D45*
X149074400Y-68178000D03*
X127230400Y-70845000D03*
X160377400Y-72115000D03*
X126976400Y-84434000D03*
X105513400Y-101960000D03*
X139168400Y-62844000D03*
X128881400Y-93578000D03*
D47*
X161290000Y-59690000D03*
D45*
X163425400Y-94721000D03*
X153519400Y-72115000D03*
X144883400Y-96118000D03*
X151614400Y-87609000D03*
X117959400Y-99166000D03*
X127205000Y-110837000D03*
X142978400Y-81132000D03*
X131675568Y-102290368D03*
X115521000Y-75874200D03*
X131548400Y-62336000D03*
D47*
X105410000Y-115570000D03*
D45*
X144883400Y-90530000D03*
X143740400Y-63860000D03*
X155297400Y-94721000D03*
X109704400Y-104627000D03*
X137517400Y-63987000D03*
X130786400Y-73639000D03*
X119610400Y-84307000D03*
D47*
X105410000Y-59690000D03*
D45*
X141708400Y-76179000D03*
X130913400Y-91038000D03*
X158218400Y-94721000D03*
X119585000Y-77169600D03*
D46*
X151868400Y-97134000D03*
D45*
X146534400Y-76052000D03*
X134723400Y-71988000D03*
X110644200Y-93959000D03*
D46*
X114530400Y-97261000D03*
D45*
X146026400Y-68178000D03*
X156948400Y-72115000D03*
D47*
X161290000Y-115570000D03*
D45*
X151614400Y-83672000D03*
X111939600Y-79074600D03*
X143867400Y-76052000D03*
X120829600Y-90403000D03*
X143867400Y-70210000D03*
X148439400Y-73004000D03*
X119559600Y-78820600D03*
X124817400Y-80370000D03*
X151614400Y-79989000D03*
X151487400Y-91800000D03*
X135993400Y-71226000D03*
X157329400Y-68940000D03*
X115444800Y-82144900D03*
%TO.N,/ESP_EN*%
X122559900Y-97007000D03*
X122785400Y-68686000D03*
%TO.N,/RGB*%
X121539000Y-93832000D03*
X120880400Y-98277000D03*
%TO.N,/GotMail*%
X120753400Y-74756600D03*
%TO.N,/SCL*%
X123547400Y-82148000D03*
%TO.N,/SDA*%
X124690400Y-83418000D03*
%TO.N,/MISO*%
X121134400Y-91546000D03*
X116625900Y-93387500D03*
%TO.N,/RST*%
X123039400Y-73258000D03*
X123445900Y-95610000D03*
%TO.N,/NSS*%
X126115900Y-87736000D03*
X123394900Y-75445500D03*
%TD*%
D48*
%TO.N,+3.3V*%
X152823400Y-70271000D02*
X150979400Y-70271000D01*
D49*
X108771000Y-91463200D02*
X109526600Y-92218800D01*
D50*
X136898400Y-78306000D02*
X136898400Y-75700000D01*
D48*
X153773400Y-68749000D02*
X153773400Y-69321000D01*
D51*
X122658400Y-85831000D02*
X110847400Y-85831000D01*
D49*
X108771000Y-88891400D02*
X108771000Y-91463200D01*
D51*
X136628400Y-75430000D02*
X140654400Y-75430000D01*
X141581400Y-68203000D02*
X141581400Y-65752000D01*
D48*
X129593600Y-102785000D02*
X130024400Y-102354200D01*
X113288800Y-92145400D02*
X114403400Y-93260000D01*
D51*
X110847400Y-85831000D02*
X108771000Y-87907400D01*
D49*
X109526600Y-92218800D02*
X111891600Y-92218800D01*
D48*
X121070400Y-67543000D02*
X121095800Y-67568400D01*
D51*
X128500400Y-76941000D02*
X130024400Y-75417000D01*
D48*
X131599200Y-101248800D02*
X130493800Y-102354200D01*
D52*
X136961400Y-104079500D02*
X136961400Y-102071200D01*
D48*
X136628400Y-75430000D02*
X136615400Y-75417000D01*
X139410000Y-75430000D02*
X136628400Y-75430000D01*
X137060200Y-101909200D02*
X137123400Y-101909200D01*
X130024400Y-102504600D02*
X130024400Y-102354200D01*
D51*
X127230400Y-86339000D02*
X123166400Y-86339000D01*
X128500400Y-85069000D02*
X128500400Y-76941000D01*
X141581400Y-74503000D02*
X141581400Y-68203000D01*
X140654400Y-75430000D02*
X141581400Y-74503000D01*
X146282900Y-70271000D02*
X150979400Y-70271000D01*
X127230400Y-86339000D02*
X128500400Y-85069000D01*
D48*
X153773400Y-69321000D02*
X152823400Y-70271000D01*
D50*
X133952600Y-104737400D02*
X133952600Y-104145000D01*
D48*
X121095800Y-67568400D02*
X127173800Y-67568400D01*
D50*
X133952600Y-104145000D02*
X136895900Y-104145000D01*
D51*
X141581400Y-71607000D02*
X144946900Y-71607000D01*
D50*
X115398400Y-110490000D02*
X119737400Y-106151000D01*
D53*
X113040000Y-104406600D02*
X113040000Y-110490000D01*
D48*
X111965000Y-92145400D02*
X113288800Y-92145400D01*
X126595400Y-102912000D02*
X126722400Y-102785000D01*
X136898400Y-75700000D02*
X136628400Y-75430000D01*
X129972600Y-102556400D02*
X130024400Y-102504600D01*
D52*
X134469400Y-97769000D02*
X134469400Y-99318400D01*
D48*
X134469400Y-97769000D02*
X134469400Y-99210600D01*
X111891600Y-92218800D02*
X111965000Y-92145400D01*
D50*
X119737400Y-106151000D02*
X126126000Y-106151000D01*
X133631200Y-105058800D02*
X133952600Y-104737400D01*
X126126000Y-106151000D02*
X127218200Y-105058800D01*
D51*
X132056400Y-75417000D02*
X134723400Y-75417000D01*
D50*
X113040000Y-110490000D02*
X115398400Y-110490000D01*
D53*
X111990400Y-103357000D02*
X113040000Y-104406600D01*
D51*
X130024400Y-75417000D02*
X132056400Y-75417000D01*
X136615400Y-75417000D02*
X134723400Y-75417000D01*
D48*
X132056400Y-75417000D02*
X131929400Y-75290000D01*
X124436400Y-102912000D02*
X126595400Y-102912000D01*
X136895900Y-104145000D02*
X136961400Y-104079500D01*
D53*
X111241400Y-103357000D02*
X111990400Y-103357000D01*
D48*
X134469400Y-99210600D02*
X132431200Y-101248800D01*
D50*
X127218200Y-105058800D02*
X133631200Y-105058800D01*
D51*
X123166400Y-86339000D02*
X122658400Y-85831000D01*
D48*
X130493800Y-102354200D02*
X130024400Y-102354200D01*
X132431200Y-101248800D02*
X131599200Y-101248800D01*
X127173800Y-67568400D02*
X129180400Y-69575000D01*
D51*
X144946900Y-71607000D02*
X146282900Y-70271000D01*
D48*
X131040400Y-69575000D02*
X129180400Y-69575000D01*
D52*
X134469400Y-99318400D02*
X137060200Y-101909200D01*
D51*
X108771000Y-87907400D02*
X108771000Y-88891400D01*
D48*
X126722400Y-102785000D02*
X129593600Y-102785000D01*
X139565400Y-75585400D02*
X139410000Y-75430000D01*
X131929400Y-75290000D02*
X131929400Y-70464000D01*
D51*
X141581400Y-65752000D02*
X141695400Y-65638000D01*
D48*
X131929400Y-70464000D02*
X131040400Y-69575000D01*
X136961400Y-102071200D02*
X137123400Y-101909200D01*
%TO.N,/BEEP*%
X113260400Y-73258000D02*
X113260400Y-71702000D01*
X117006400Y-100690000D02*
X117959400Y-100690000D01*
X113260400Y-71702000D02*
X113271000Y-71691400D01*
X117959400Y-100690000D02*
X119737400Y-98912000D01*
X113271000Y-71691400D02*
X113271000Y-71391400D01*
%TO.N,GND*%
X127154200Y-111941600D02*
X127154200Y-110887800D01*
X128602000Y-109440000D02*
X127205000Y-110837000D01*
X120771000Y-90344400D02*
X120829600Y-90403000D01*
X121020400Y-65866600D02*
X121020400Y-64075700D01*
X130941900Y-91038000D02*
X130913400Y-91066500D01*
X121020400Y-64075700D02*
X121032900Y-64063200D01*
X120771000Y-88891400D02*
X120771000Y-90344400D01*
X143881400Y-68203000D02*
X143881400Y-66274000D01*
D51*
X138673400Y-99306000D02*
X138673400Y-101909200D01*
D53*
X109691400Y-104614000D02*
X109691400Y-103357000D01*
D51*
X137136400Y-97769000D02*
X138673400Y-99306000D01*
D48*
X130913400Y-91038000D02*
X130941900Y-91038000D01*
X130898400Y-91081500D02*
X130913400Y-91066500D01*
D51*
X119610400Y-84307000D02*
X123039400Y-84307000D01*
D48*
X135073400Y-73867000D02*
X134723400Y-73517000D01*
X111939600Y-79074600D02*
X111989600Y-79024600D01*
D51*
X126638400Y-84772000D02*
X126976400Y-84434000D01*
D48*
X135993400Y-69890000D02*
X135866400Y-69763000D01*
X130913400Y-91066500D02*
X130913400Y-91038000D01*
D51*
X137009400Y-97769000D02*
X137136400Y-97769000D01*
D48*
X143881400Y-66274000D02*
X143245400Y-65638000D01*
X111965000Y-94045400D02*
X110730600Y-94045400D01*
X138673400Y-101552500D02*
X138673400Y-101909200D01*
X115381000Y-82081100D02*
X115381000Y-79041400D01*
X109526600Y-93768800D02*
X110454000Y-93768800D01*
X117959400Y-99166000D02*
X117959400Y-97655000D01*
X109704400Y-104627000D02*
X109691400Y-104614000D01*
X136615400Y-73867000D02*
X135073400Y-73867000D01*
X139168400Y-64228000D02*
X139168400Y-62844000D01*
X138673400Y-103891500D02*
X138861400Y-104079500D01*
X132827968Y-102290368D02*
X132852600Y-102315000D01*
X115364200Y-79024600D02*
X115381000Y-79041400D01*
X110454000Y-93768800D02*
X110644200Y-93959000D01*
X127154200Y-110887800D02*
X127205000Y-110837000D01*
X115381000Y-79041400D02*
X115521000Y-78901400D01*
X136628400Y-73880000D02*
X136615400Y-73867000D01*
X105452400Y-102021000D02*
X105513400Y-101960000D01*
X128602000Y-108589500D02*
X128602000Y-109440000D01*
X134723400Y-71988000D02*
X134723400Y-73517000D01*
X111989600Y-79024600D02*
X115364200Y-79024600D01*
D51*
X123504400Y-84772000D02*
X126638400Y-84772000D01*
D48*
X130898400Y-93356000D02*
X130898400Y-91081500D01*
X115444800Y-82144900D02*
X115381000Y-82081100D01*
X131675568Y-102290368D02*
X132827968Y-102290368D01*
X135993400Y-71226000D02*
X135993400Y-69890000D01*
D51*
X138673400Y-101909200D02*
X138673400Y-103891500D01*
D48*
X110730600Y-94045400D02*
X110644200Y-93959000D01*
X105452400Y-103562500D02*
X105452400Y-102021000D01*
D51*
X123039400Y-84307000D02*
X123504400Y-84772000D01*
D48*
X115521000Y-78901400D02*
X115521000Y-75874200D01*
X138804800Y-101421100D02*
X138673400Y-101552500D01*
%TO.N,/ESP_EN*%
X121642400Y-97007000D02*
X120740400Y-96105000D01*
X115546400Y-92753000D02*
X115546400Y-93679600D01*
X114403400Y-91610000D02*
X115546400Y-92753000D01*
X110930500Y-90031900D02*
X112076500Y-90031900D01*
X117197400Y-94721000D02*
X117959400Y-95483000D01*
X110271000Y-89372400D02*
X110930500Y-90031900D01*
X122559900Y-97007000D02*
X121642400Y-97007000D01*
X123674400Y-69575000D02*
X125280400Y-69575000D01*
X110271000Y-88891400D02*
X110271000Y-89372400D01*
X116194600Y-94327800D02*
X116587800Y-94721000D01*
X116587800Y-94721000D02*
X117197400Y-94721000D01*
X115546400Y-93679600D02*
X116257600Y-94390800D01*
X112076500Y-90031900D02*
X113654600Y-91610000D01*
X113654600Y-91610000D02*
X114403400Y-91610000D01*
X120740400Y-96105000D02*
X117959400Y-96105000D01*
X117959400Y-95483000D02*
X117959400Y-96105000D01*
X122785400Y-68686000D02*
X123674400Y-69575000D01*
%TO.N,/RGB*%
X132524600Y-104004200D02*
X132665400Y-104145000D01*
X121134400Y-93832000D02*
X117756200Y-90453800D01*
X117756200Y-88906200D02*
X117771000Y-88891400D01*
X122543600Y-104004200D02*
X130024400Y-104004200D01*
X120880400Y-102341000D02*
X122543600Y-104004200D01*
X121539000Y-93832000D02*
X121134400Y-93832000D01*
X117756200Y-90453800D02*
X117756200Y-88906200D01*
X132665400Y-104145000D02*
X132852600Y-104145000D01*
X130024400Y-104004200D02*
X132524600Y-104004200D01*
X120880400Y-98277000D02*
X120880400Y-102341000D01*
%TO.N,/GotMail*%
X130896000Y-107154800D02*
X131061600Y-106989200D01*
X119991400Y-73994600D02*
X117502200Y-73994600D01*
X131446700Y-113874300D02*
X131061600Y-113489200D01*
X127408300Y-107014500D02*
X128602000Y-107014500D01*
X126112800Y-107814200D02*
X126608600Y-107814200D01*
X120753400Y-74756600D02*
X119991400Y-73994600D01*
X128627300Y-106989200D02*
X128602000Y-107014500D01*
X127154200Y-113491600D02*
X131059200Y-113491600D01*
X131061600Y-106989200D02*
X128627300Y-106989200D01*
X131061600Y-106989200D02*
X131061600Y-113489200D01*
X131059200Y-113491600D02*
X131061600Y-113489200D01*
X130846000Y-107204800D02*
X131061600Y-106989200D01*
X117502200Y-73994600D02*
X116271000Y-72763400D01*
X126608600Y-107814200D02*
X127408300Y-107014500D01*
X116271000Y-72763400D02*
X116271000Y-71391400D01*
%TO.N,/Pair*%
X119457900Y-67505500D02*
X119420400Y-67543000D01*
X114771000Y-68750200D02*
X114771000Y-71391400D01*
X115978200Y-67543000D02*
X114771000Y-68750200D01*
X119229400Y-58653000D02*
X119737400Y-59161000D01*
X119420400Y-67543000D02*
X115978200Y-67543000D01*
X119457900Y-62869500D02*
X119457900Y-67505500D01*
X119737400Y-62590000D02*
X119457900Y-62869500D01*
X119737400Y-59161000D02*
X119737400Y-62590000D01*
%TO.N,/Config*%
X156059400Y-65739500D02*
X155132900Y-65739500D01*
X156059400Y-65739500D02*
X156059400Y-63479000D01*
X151290400Y-58710000D02*
X147732400Y-58710000D01*
X111771000Y-61838000D02*
X111771000Y-71391400D01*
X155132900Y-65739500D02*
X153773400Y-67099000D01*
X156059400Y-65739500D02*
X158332900Y-65739500D01*
X145550700Y-56528300D02*
X117080700Y-56528300D01*
X117080700Y-56528300D02*
X111771000Y-61838000D01*
X158332900Y-65739500D02*
X158345400Y-65752000D01*
X111771000Y-71391400D02*
X111863400Y-71299000D01*
X156059400Y-63479000D02*
X151290400Y-58710000D01*
X147732400Y-58710000D02*
X145550700Y-56528300D01*
%TO.N,/SCL*%
X123547400Y-82148000D02*
X123293400Y-82402000D01*
X111355400Y-82935400D02*
X110271000Y-81851000D01*
X126722400Y-101135000D02*
X128563400Y-101135000D01*
X116305636Y-82402000D02*
X115772236Y-82935400D01*
X128563400Y-101135000D02*
X131929400Y-97769000D01*
X123293400Y-82402000D02*
X116305636Y-82402000D01*
X110271000Y-81851000D02*
X110271000Y-71391400D01*
X115772236Y-82935400D02*
X111355400Y-82935400D01*
%TO.N,/SDA*%
X127929400Y-97769000D02*
X129389400Y-97769000D01*
X109701200Y-83516400D02*
X108771000Y-82586200D01*
X108771000Y-82586200D02*
X108771000Y-71391400D01*
X124690400Y-83418000D02*
X124309400Y-83037000D01*
X116492294Y-83037000D02*
X116012894Y-83516400D01*
X116012894Y-83516400D02*
X109701200Y-83516400D01*
X124436400Y-101262000D02*
X127929400Y-97769000D01*
X124309400Y-83037000D02*
X116492294Y-83037000D01*
%TO.N,/ESP_TXD*%
X121769400Y-69194000D02*
X118213400Y-69194000D01*
X118213400Y-69194000D02*
X117771000Y-69636400D01*
X123420400Y-70845000D02*
X121769400Y-69194000D01*
X117771000Y-69636400D02*
X117771000Y-71391400D01*
X125280400Y-70845000D02*
X123420400Y-70845000D01*
%TO.N,/ESP_RXD*%
X119271000Y-71091400D02*
X119271000Y-71391400D01*
X125280400Y-72115000D02*
X123420400Y-72115000D01*
X123420400Y-72115000D02*
X121388400Y-70083000D01*
X120279400Y-70083000D02*
X119271000Y-71091400D01*
X121388400Y-70083000D02*
X120279400Y-70083000D01*
%TO.N,/MISO*%
X132056400Y-90149000D02*
X132898400Y-90991000D01*
X115429300Y-90031900D02*
X113930500Y-90031900D01*
X132898400Y-90991000D02*
X132898400Y-93356000D01*
X122733136Y-90149000D02*
X132056400Y-90149000D01*
X116625900Y-93387500D02*
X116625900Y-91228500D01*
X113271000Y-89372400D02*
X113271000Y-88891400D01*
X121134400Y-91546000D02*
X121336136Y-91546000D01*
X116625900Y-91228500D02*
X115429300Y-90031900D01*
X113930500Y-90031900D02*
X113271000Y-89372400D01*
X121336136Y-91546000D02*
X122733136Y-90149000D01*
%TO.N,/SCK*%
X136898400Y-89911000D02*
X136898400Y-93356000D01*
X114771000Y-88891400D02*
X114771000Y-87495400D01*
X114771000Y-87495400D02*
X115419400Y-86847000D01*
X124193042Y-88625000D02*
X135612400Y-88625000D01*
X115419400Y-86847000D02*
X122415042Y-86847000D01*
X135612400Y-88625000D02*
X136898400Y-89911000D01*
X122415042Y-86847000D02*
X124193042Y-88625000D01*
%TO.N,/MOSI*%
X116271000Y-87900400D02*
X116687900Y-87483500D01*
X116687900Y-87483500D02*
X121908542Y-87483500D01*
X123829900Y-89415500D02*
X134370900Y-89415500D01*
X134898400Y-89943000D02*
X134898400Y-93356000D01*
X116271000Y-88891400D02*
X116271000Y-87900400D01*
X134370900Y-89415500D02*
X134898400Y-89943000D01*
X123431042Y-89016642D02*
X123829900Y-89415500D01*
X123431042Y-89006000D02*
X123431042Y-89016642D01*
X121908542Y-87483500D02*
X123431042Y-89006000D01*
%TO.N,/RST*%
X140898400Y-95023000D02*
X140898400Y-93356000D01*
X119271000Y-90800536D02*
X121405925Y-92935461D01*
X123699900Y-95864000D02*
X140057400Y-95864000D01*
X140057400Y-95864000D02*
X140898400Y-95023000D01*
X128164400Y-73131000D02*
X129180400Y-72115000D01*
X123166400Y-73131000D02*
X128164400Y-73131000D01*
X123039400Y-73258000D02*
X123166400Y-73131000D01*
X123445900Y-94619500D02*
X123445900Y-95610000D01*
X119271000Y-88891400D02*
X119271000Y-90800536D01*
X121405925Y-92935461D02*
X121761861Y-92935461D01*
X121761861Y-92935461D02*
X123445900Y-94619500D01*
X123445900Y-95610000D02*
X123699900Y-95864000D01*
%TO.N,/NSS*%
X120771000Y-72640600D02*
X120771000Y-71391400D01*
X126115900Y-87736000D02*
X136374400Y-87736000D01*
X123394900Y-75445500D02*
X123394900Y-75264500D01*
X123394900Y-75264500D02*
X120771000Y-72640600D01*
X136374400Y-87736000D02*
X138898400Y-90260000D01*
X138898400Y-90260000D02*
X138898400Y-93356000D01*
%TO.N,Net-(J5-VBUS)*%
X135134400Y-61798000D02*
X135104400Y-61828000D01*
D50*
X139168400Y-65778000D02*
X139396400Y-65778000D01*
X135866400Y-64688000D02*
X135866400Y-67863000D01*
X139168400Y-68090000D02*
X139281400Y-68203000D01*
X139168400Y-65778000D02*
X139168400Y-68090000D01*
X135866400Y-67863000D02*
X137583400Y-67863000D01*
X135104400Y-61828000D02*
X135104400Y-63926000D01*
X135104400Y-63926000D02*
X135866400Y-64688000D01*
D48*
X135134400Y-60693000D02*
X135134400Y-61798000D01*
D50*
X137923400Y-68203000D02*
X139281400Y-68203000D01*
X137583400Y-67863000D02*
X137923400Y-68203000D01*
D48*
%TO.N,Net-(AE2-A)*%
X150852400Y-74414000D02*
X150738400Y-74528000D01*
D50*
X150738400Y-74528000D02*
X149353900Y-74528000D01*
X150852400Y-74414000D02*
X151918900Y-74414000D01*
D48*
%TO.N,Net-(U2-ANT)*%
X146280400Y-74541000D02*
X147765900Y-74541000D01*
D50*
X144898400Y-75275000D02*
X145645400Y-74528000D01*
D48*
X147765900Y-74541000D02*
X147778900Y-74528000D01*
D50*
X145645400Y-74528000D02*
X147778900Y-74528000D01*
X144898400Y-78306000D02*
X144898400Y-75275000D01*
D48*
%TO.N,Net-(BZ1--)*%
X111609400Y-113771000D02*
X106402400Y-108564000D01*
X117359000Y-113771000D02*
X111609400Y-113771000D01*
X120640000Y-110490000D02*
X117359000Y-113771000D01*
X106402400Y-108564000D02*
X106402400Y-105437500D01*
%TO.N,Net-(Q2-B)*%
X107352400Y-103562500D02*
X107352400Y-102407000D01*
X115038400Y-101833000D02*
X115356400Y-101515000D01*
X115356400Y-101515000D02*
X115356400Y-100690000D01*
X107926400Y-101833000D02*
X115038400Y-101833000D01*
X107352400Y-102407000D02*
X107926400Y-101833000D01*
%TD*%
%TA.AperFunction,Conductor*%
%TO.N,GND*%
G36*
X164191686Y-56475021D02*
G01*
X164258694Y-56494807D01*
X164304369Y-56547680D01*
X164315492Y-56597917D01*
X164430782Y-69542882D01*
X164463678Y-73236607D01*
X164463886Y-73259896D01*
X164444799Y-73327108D01*
X164392405Y-73373331D01*
X164339891Y-73385000D01*
X152122400Y-73385000D01*
X152122400Y-73766500D01*
X152102715Y-73833539D01*
X152049911Y-73879294D01*
X151998400Y-73890500D01*
X151621220Y-73890500D01*
X151554181Y-73870815D01*
X151508426Y-73818011D01*
X151498482Y-73748853D01*
X151527507Y-73685297D01*
X151549734Y-73666394D01*
X151549465Y-73666054D01*
X151555132Y-73661572D01*
X151674972Y-73541732D01*
X151674975Y-73541728D01*
X151763942Y-73397492D01*
X151763947Y-73397481D01*
X151817255Y-73236606D01*
X151827399Y-73137322D01*
X151827400Y-73137309D01*
X151827400Y-73114000D01*
X149877401Y-73114000D01*
X149877401Y-73137322D01*
X149887544Y-73236607D01*
X149940852Y-73397481D01*
X149940857Y-73397492D01*
X150029824Y-73541728D01*
X150029827Y-73541732D01*
X150149668Y-73661573D01*
X150230522Y-73711445D01*
X150277246Y-73763393D01*
X150288467Y-73832356D01*
X150265195Y-73890615D01*
X150218319Y-73954132D01*
X150162673Y-73996384D01*
X150118548Y-74004500D01*
X149987662Y-74004500D01*
X149920623Y-73984815D01*
X149895904Y-73961643D01*
X149895474Y-73962074D01*
X149888902Y-73955503D01*
X149888900Y-73955500D01*
X149781634Y-73876334D01*
X149781632Y-73876333D01*
X149655805Y-73832303D01*
X149655793Y-73832301D01*
X149625921Y-73829500D01*
X149081886Y-73829500D01*
X149052006Y-73832301D01*
X149051996Y-73832303D01*
X148926167Y-73876333D01*
X148818900Y-73955500D01*
X148739733Y-74062767D01*
X148695703Y-74188594D01*
X148695701Y-74188606D01*
X148692900Y-74218478D01*
X148692900Y-74837513D01*
X148695701Y-74867393D01*
X148695703Y-74867403D01*
X148738697Y-74990270D01*
X148739734Y-74993234D01*
X148818900Y-75100500D01*
X148926166Y-75179666D01*
X148964478Y-75193072D01*
X149051994Y-75223696D01*
X149051998Y-75223696D01*
X149052002Y-75223698D01*
X149081883Y-75226500D01*
X149625916Y-75226499D01*
X149655798Y-75223698D01*
X149781634Y-75179666D01*
X149888900Y-75100500D01*
X149888905Y-75100492D01*
X149895474Y-75093926D01*
X149896715Y-75095167D01*
X149943538Y-75059616D01*
X149987662Y-75051500D01*
X150402244Y-75051500D01*
X150443198Y-75058457D01*
X150518077Y-75084659D01*
X150533225Y-75086079D01*
X150548370Y-75087500D01*
X150548374Y-75087500D01*
X151156430Y-75087500D01*
X151169891Y-75086237D01*
X151186723Y-75084659D01*
X151186727Y-75084657D01*
X151186730Y-75084657D01*
X151226295Y-75070811D01*
X151314337Y-75040005D01*
X151395552Y-74980066D01*
X151420397Y-74961730D01*
X151486025Y-74937759D01*
X151494030Y-74937500D01*
X151954712Y-74937500D01*
X151981515Y-74933816D01*
X152050611Y-74944189D01*
X152103130Y-74990270D01*
X152122400Y-75056661D01*
X152122400Y-93578000D01*
X164341000Y-93578000D01*
X164408039Y-93597685D01*
X164453794Y-93650489D01*
X164465000Y-93702000D01*
X164465000Y-97793575D01*
X164445315Y-97860614D01*
X164392511Y-97906369D01*
X164341578Y-97917574D01*
X141760100Y-98022759D01*
X141692969Y-98003387D01*
X141671841Y-97986441D01*
X140149361Y-96463961D01*
X140115876Y-96402638D01*
X140120860Y-96332946D01*
X140162732Y-96277013D01*
X140180744Y-96265797D01*
X140186928Y-96262646D01*
X140207629Y-96252097D01*
X140225598Y-96244654D01*
X140247695Y-96237475D01*
X140266491Y-96223817D01*
X140283073Y-96213656D01*
X140303777Y-96203108D01*
X140396508Y-96110377D01*
X140396508Y-96110375D01*
X140406712Y-96100172D01*
X140406716Y-96100167D01*
X141134567Y-95372316D01*
X141134572Y-95372312D01*
X141144775Y-95362108D01*
X141144777Y-95362108D01*
X141237508Y-95269377D01*
X141248054Y-95248677D01*
X141258220Y-95232088D01*
X141271876Y-95213295D01*
X141279055Y-95191196D01*
X141286498Y-95173226D01*
X141297046Y-95152528D01*
X141300679Y-95129582D01*
X141305221Y-95110668D01*
X141306105Y-95107947D01*
X141345540Y-95050270D01*
X141378545Y-95030907D01*
X141483542Y-94989502D01*
X141602041Y-94899641D01*
X141691902Y-94781142D01*
X141746459Y-94642794D01*
X141756900Y-94555851D01*
X141756900Y-94555843D01*
X142039900Y-94555843D01*
X142050340Y-94642792D01*
X142104898Y-94781142D01*
X142104899Y-94781144D01*
X142194758Y-94899641D01*
X142292901Y-94974065D01*
X142313258Y-94989502D01*
X142451606Y-95044059D01*
X142538549Y-95054500D01*
X143258250Y-95054499D01*
X143345194Y-95044059D01*
X143483542Y-94989502D01*
X143602041Y-94899641D01*
X143624183Y-94870443D01*
X143633666Y-94857938D01*
X143689858Y-94816414D01*
X143759579Y-94811862D01*
X143820693Y-94845726D01*
X143837464Y-94866890D01*
X143937708Y-95026428D01*
X144067971Y-95156691D01*
X144223956Y-95254703D01*
X144397840Y-95315547D01*
X144397846Y-95315548D01*
X144534981Y-95330999D01*
X144534985Y-95331000D01*
X144648400Y-95331000D01*
X144648400Y-93606000D01*
X145148400Y-93606000D01*
X145148400Y-95331000D01*
X145261815Y-95331000D01*
X145261818Y-95330999D01*
X145398953Y-95315548D01*
X145398959Y-95315547D01*
X145572843Y-95254703D01*
X145728828Y-95156691D01*
X145859091Y-95026428D01*
X145957103Y-94870443D01*
X146017947Y-94696559D01*
X146017948Y-94696553D01*
X146033399Y-94559418D01*
X146033400Y-94559414D01*
X146033400Y-93606000D01*
X145148400Y-93606000D01*
X144648400Y-93606000D01*
X144648400Y-91381000D01*
X145148400Y-91381000D01*
X145148400Y-93106000D01*
X146033400Y-93106000D01*
X146033400Y-92152585D01*
X146033399Y-92152581D01*
X146017948Y-92015446D01*
X146017947Y-92015440D01*
X145957103Y-91841556D01*
X145859091Y-91685571D01*
X145728828Y-91555308D01*
X145572843Y-91457296D01*
X145398959Y-91396452D01*
X145398953Y-91396451D01*
X145261818Y-91381000D01*
X145148400Y-91381000D01*
X144648400Y-91381000D01*
X144534981Y-91381000D01*
X144397846Y-91396451D01*
X144397840Y-91396452D01*
X144223956Y-91457296D01*
X144067971Y-91555308D01*
X143937708Y-91685571D01*
X143837464Y-91845109D01*
X143785129Y-91891400D01*
X143716075Y-91902048D01*
X143652227Y-91873673D01*
X143633666Y-91854062D01*
X143602041Y-91812358D01*
X143483544Y-91722499D01*
X143483542Y-91722498D01*
X143345194Y-91667941D01*
X143345193Y-91667940D01*
X143258251Y-91657500D01*
X142538556Y-91657500D01*
X142451607Y-91667940D01*
X142313257Y-91722498D01*
X142313255Y-91722499D01*
X142194758Y-91812358D01*
X142104899Y-91930855D01*
X142050340Y-92069207D01*
X142039900Y-92156148D01*
X142039900Y-94555843D01*
X141756900Y-94555843D01*
X141756899Y-92156150D01*
X141746459Y-92069206D01*
X141691902Y-91930858D01*
X141670055Y-91902048D01*
X141602041Y-91812358D01*
X141483544Y-91722499D01*
X141483542Y-91722498D01*
X141345194Y-91667941D01*
X141345193Y-91667940D01*
X141258251Y-91657500D01*
X140538556Y-91657500D01*
X140451607Y-91667940D01*
X140313257Y-91722498D01*
X140313255Y-91722499D01*
X140194758Y-91812358D01*
X140104899Y-91930855D01*
X140050340Y-92069207D01*
X140039900Y-92156148D01*
X140039900Y-94555843D01*
X140050340Y-94642792D01*
X140104898Y-94781142D01*
X140104899Y-94781144D01*
X140194758Y-94899641D01*
X140218801Y-94917873D01*
X140260324Y-94974065D01*
X140264876Y-95043787D01*
X140231557Y-95104358D01*
X139922235Y-95413681D01*
X139860912Y-95447166D01*
X139834554Y-95450000D01*
X131692445Y-95450000D01*
X131625406Y-95430315D01*
X131579651Y-95377511D01*
X131569707Y-95308353D01*
X131598732Y-95244797D01*
X131626473Y-95221006D01*
X131728828Y-95156691D01*
X131859094Y-95026425D01*
X131959335Y-94866891D01*
X132011669Y-94820599D01*
X132080723Y-94809950D01*
X132144571Y-94838325D01*
X132163132Y-94857936D01*
X132172617Y-94870443D01*
X132194759Y-94899641D01*
X132313258Y-94989502D01*
X132451606Y-95044059D01*
X132538549Y-95054500D01*
X133258250Y-95054499D01*
X133345194Y-95044059D01*
X133483542Y-94989502D01*
X133602041Y-94899641D01*
X133691902Y-94781142D01*
X133746459Y-94642794D01*
X133756900Y-94555851D01*
X133756899Y-92156150D01*
X133746459Y-92069206D01*
X133691902Y-91930858D01*
X133670055Y-91902048D01*
X133602041Y-91812358D01*
X133483544Y-91722499D01*
X133483538Y-91722496D01*
X133390910Y-91685968D01*
X133335766Y-91643062D01*
X133312573Y-91577155D01*
X133312400Y-91570614D01*
X133312400Y-91066573D01*
X133312401Y-91066560D01*
X133312401Y-90925430D01*
X133312400Y-90925427D01*
X133305221Y-90903332D01*
X133300679Y-90884415D01*
X133297046Y-90861472D01*
X133286499Y-90840775D01*
X133279055Y-90822803D01*
X133271876Y-90800705D01*
X133258219Y-90781909D01*
X133248052Y-90765316D01*
X133237511Y-90744628D01*
X133237509Y-90744626D01*
X133237508Y-90744623D01*
X133144777Y-90651892D01*
X133144776Y-90651891D01*
X133140446Y-90647561D01*
X133140435Y-90647551D01*
X132534065Y-90041181D01*
X132500580Y-89979858D01*
X132505564Y-89910166D01*
X132547436Y-89854233D01*
X132612900Y-89829816D01*
X132621746Y-89829500D01*
X134148054Y-89829500D01*
X134215093Y-89849185D01*
X134235735Y-89865819D01*
X134448081Y-90078165D01*
X134481566Y-90139488D01*
X134484400Y-90165846D01*
X134484400Y-91570614D01*
X134464715Y-91637653D01*
X134411911Y-91683408D01*
X134405890Y-91685968D01*
X134313261Y-91722496D01*
X134313255Y-91722499D01*
X134194758Y-91812358D01*
X134104899Y-91930855D01*
X134050340Y-92069207D01*
X134039900Y-92156148D01*
X134039900Y-94555843D01*
X134050340Y-94642792D01*
X134104898Y-94781142D01*
X134104899Y-94781144D01*
X134194758Y-94899641D01*
X134292901Y-94974065D01*
X134313258Y-94989502D01*
X134451606Y-95044059D01*
X134538549Y-95054500D01*
X135258250Y-95054499D01*
X135345194Y-95044059D01*
X135483542Y-94989502D01*
X135602041Y-94899641D01*
X135691902Y-94781142D01*
X135746459Y-94642794D01*
X135756900Y-94555851D01*
X135756899Y-92156150D01*
X135746459Y-92069206D01*
X135691902Y-91930858D01*
X135670055Y-91902048D01*
X135602041Y-91812358D01*
X135483544Y-91722499D01*
X135483538Y-91722496D01*
X135390910Y-91685968D01*
X135335766Y-91643062D01*
X135312573Y-91577155D01*
X135312400Y-91570614D01*
X135312400Y-90018573D01*
X135312401Y-90018560D01*
X135312401Y-89877431D01*
X135312400Y-89877425D01*
X135305223Y-89855338D01*
X135300679Y-89836414D01*
X135297046Y-89813472D01*
X135286500Y-89792776D01*
X135279054Y-89774799D01*
X135274500Y-89760782D01*
X135271876Y-89752705D01*
X135258219Y-89733909D01*
X135248052Y-89717316D01*
X135237511Y-89696628D01*
X135237509Y-89696626D01*
X135237508Y-89696623D01*
X135144777Y-89603892D01*
X135144776Y-89603891D01*
X135140446Y-89599561D01*
X135140435Y-89599551D01*
X134791565Y-89250681D01*
X134758080Y-89189358D01*
X134763064Y-89119666D01*
X134804936Y-89063733D01*
X134870400Y-89039316D01*
X134879246Y-89039000D01*
X135389554Y-89039000D01*
X135456593Y-89058685D01*
X135477235Y-89075319D01*
X136448081Y-90046165D01*
X136481566Y-90107488D01*
X136484400Y-90133846D01*
X136484400Y-91570614D01*
X136464715Y-91637653D01*
X136411911Y-91683408D01*
X136405890Y-91685968D01*
X136313261Y-91722496D01*
X136313255Y-91722499D01*
X136194758Y-91812358D01*
X136104899Y-91930855D01*
X136050340Y-92069207D01*
X136039900Y-92156148D01*
X136039900Y-94555843D01*
X136050340Y-94642792D01*
X136104898Y-94781142D01*
X136104899Y-94781144D01*
X136194758Y-94899641D01*
X136292901Y-94974065D01*
X136313258Y-94989502D01*
X136451606Y-95044059D01*
X136538549Y-95054500D01*
X137258250Y-95054499D01*
X137345194Y-95044059D01*
X137483542Y-94989502D01*
X137602041Y-94899641D01*
X137691902Y-94781142D01*
X137746459Y-94642794D01*
X137756900Y-94555851D01*
X137756899Y-92156150D01*
X137746459Y-92069206D01*
X137691902Y-91930858D01*
X137670055Y-91902048D01*
X137602041Y-91812358D01*
X137483544Y-91722499D01*
X137483538Y-91722496D01*
X137390910Y-91685968D01*
X137335766Y-91643062D01*
X137312573Y-91577155D01*
X137312400Y-91570614D01*
X137312400Y-89986573D01*
X137312401Y-89986560D01*
X137312401Y-89845431D01*
X137312400Y-89845425D01*
X137305223Y-89823338D01*
X137300679Y-89804414D01*
X137297046Y-89781472D01*
X137286500Y-89760776D01*
X137279054Y-89742799D01*
X137276166Y-89733910D01*
X137271876Y-89720705D01*
X137258219Y-89701909D01*
X137248052Y-89685316D01*
X137237511Y-89664628D01*
X137237509Y-89664626D01*
X137237508Y-89664623D01*
X137144777Y-89571892D01*
X137144776Y-89571891D01*
X137140446Y-89567561D01*
X137140435Y-89567551D01*
X135958578Y-88385694D01*
X135958576Y-88385691D01*
X135934566Y-88361681D01*
X135901081Y-88300358D01*
X135906065Y-88230666D01*
X135947937Y-88174733D01*
X136013401Y-88150316D01*
X136022247Y-88150000D01*
X136151554Y-88150000D01*
X136218593Y-88169685D01*
X136239235Y-88186319D01*
X138448081Y-90395165D01*
X138481566Y-90456488D01*
X138484400Y-90482846D01*
X138484400Y-91570614D01*
X138464715Y-91637653D01*
X138411911Y-91683408D01*
X138405890Y-91685968D01*
X138313261Y-91722496D01*
X138313255Y-91722499D01*
X138194758Y-91812358D01*
X138104899Y-91930855D01*
X138050340Y-92069207D01*
X138039900Y-92156148D01*
X138039900Y-94555843D01*
X138050340Y-94642792D01*
X138104898Y-94781142D01*
X138104899Y-94781144D01*
X138194758Y-94899641D01*
X138292901Y-94974065D01*
X138313258Y-94989502D01*
X138451606Y-95044059D01*
X138538549Y-95054500D01*
X139258250Y-95054499D01*
X139345194Y-95044059D01*
X139483542Y-94989502D01*
X139602041Y-94899641D01*
X139691902Y-94781142D01*
X139746459Y-94642794D01*
X139756900Y-94555851D01*
X139756899Y-92156150D01*
X139746459Y-92069206D01*
X139691902Y-91930858D01*
X139670055Y-91902048D01*
X139602041Y-91812358D01*
X139483544Y-91722499D01*
X139483538Y-91722496D01*
X139390910Y-91685968D01*
X139335766Y-91643062D01*
X139312573Y-91577155D01*
X139312400Y-91570614D01*
X139312400Y-90194430D01*
X139312399Y-90194427D01*
X139305222Y-90172338D01*
X139300681Y-90153423D01*
X139297046Y-90130472D01*
X139286493Y-90109761D01*
X139279051Y-90091792D01*
X139274623Y-90078165D01*
X139271875Y-90069705D01*
X139258217Y-90050907D01*
X139248059Y-90034330D01*
X139237508Y-90013623D01*
X139237506Y-90013621D01*
X139237503Y-90013617D01*
X139140458Y-89916572D01*
X139140435Y-89916551D01*
X136720578Y-87496694D01*
X136720575Y-87496690D01*
X136720575Y-87496691D01*
X136713508Y-87489624D01*
X136713508Y-87489623D01*
X136620777Y-87396892D01*
X136600074Y-87386342D01*
X136583490Y-87376180D01*
X136564695Y-87362525D01*
X136564689Y-87362522D01*
X136542604Y-87355346D01*
X136524634Y-87347903D01*
X136503932Y-87337356D01*
X136503931Y-87337355D01*
X136503928Y-87337354D01*
X136503925Y-87337353D01*
X136503921Y-87337352D01*
X136480974Y-87333717D01*
X136462065Y-87329178D01*
X136439973Y-87322000D01*
X136439971Y-87322000D01*
X136406986Y-87322000D01*
X126635865Y-87322000D01*
X126568826Y-87302315D01*
X126553643Y-87290820D01*
X126540655Y-87279313D01*
X126503531Y-87220127D01*
X126504298Y-87150261D01*
X126542715Y-87091901D01*
X126606585Y-87063576D01*
X126622884Y-87062500D01*
X127168660Y-87062500D01*
X127186629Y-87063809D01*
X127191560Y-87064531D01*
X127209214Y-87067117D01*
X127256590Y-87062971D01*
X127267399Y-87062500D01*
X127272530Y-87062500D01*
X127272536Y-87062500D01*
X127302181Y-87059034D01*
X127305709Y-87058674D01*
X127377700Y-87052376D01*
X127377708Y-87052373D01*
X127384769Y-87050916D01*
X127384789Y-87051015D01*
X127391374Y-87049556D01*
X127391351Y-87049458D01*
X127398378Y-87047792D01*
X127398382Y-87047790D01*
X127398386Y-87047790D01*
X127466289Y-87023074D01*
X127469607Y-87021921D01*
X127538246Y-86999178D01*
X127538255Y-86999171D01*
X127544791Y-86996125D01*
X127544834Y-86996218D01*
X127550905Y-86993279D01*
X127550859Y-86993187D01*
X127557313Y-86989945D01*
X127557317Y-86989944D01*
X127617672Y-86950246D01*
X127620659Y-86948343D01*
X127682195Y-86910388D01*
X127682201Y-86910381D01*
X127687864Y-86905905D01*
X127687927Y-86905985D01*
X127693149Y-86901730D01*
X127693085Y-86901653D01*
X127698614Y-86897011D01*
X127698623Y-86897006D01*
X127748239Y-86844414D01*
X127750684Y-86841897D01*
X128968338Y-85624243D01*
X128981964Y-85612468D01*
X129000276Y-85598837D01*
X129030864Y-85562382D01*
X129038155Y-85554427D01*
X129041786Y-85550797D01*
X129060276Y-85527412D01*
X129062541Y-85524632D01*
X129066586Y-85519810D01*
X129108990Y-85469276D01*
X129108992Y-85469271D01*
X129112961Y-85463239D01*
X129113045Y-85463294D01*
X129116664Y-85457614D01*
X129116578Y-85457561D01*
X129120367Y-85451413D01*
X129120374Y-85451406D01*
X129150895Y-85385953D01*
X129152450Y-85382737D01*
X129184896Y-85318136D01*
X129184897Y-85318128D01*
X129187365Y-85311350D01*
X129187460Y-85311384D01*
X129189677Y-85305007D01*
X129189581Y-85304976D01*
X129191853Y-85298119D01*
X129206461Y-85227371D01*
X129207242Y-85223847D01*
X129223899Y-85153570D01*
X129224738Y-85146392D01*
X129224837Y-85146403D01*
X129225524Y-85139688D01*
X129225424Y-85139680D01*
X129226053Y-85132490D01*
X129223952Y-85060277D01*
X129223900Y-85056671D01*
X129223900Y-79505843D01*
X130039900Y-79505843D01*
X130050340Y-79592792D01*
X130104898Y-79731142D01*
X130104899Y-79731144D01*
X130194758Y-79849641D01*
X130313255Y-79939500D01*
X130313258Y-79939502D01*
X130451606Y-79994059D01*
X130538549Y-80004500D01*
X131258250Y-80004499D01*
X131345194Y-79994059D01*
X131483542Y-79939502D01*
X131602041Y-79849641D01*
X131691902Y-79731142D01*
X131746459Y-79592794D01*
X131756900Y-79505851D01*
X131756900Y-79505843D01*
X132039900Y-79505843D01*
X132050340Y-79592792D01*
X132104898Y-79731142D01*
X132104899Y-79731144D01*
X132194758Y-79849641D01*
X132313255Y-79939500D01*
X132313258Y-79939502D01*
X132451606Y-79994059D01*
X132538549Y-80004500D01*
X133258250Y-80004499D01*
X133345194Y-79994059D01*
X133483542Y-79939502D01*
X133602041Y-79849641D01*
X133691902Y-79731142D01*
X133746459Y-79592794D01*
X133756900Y-79505851D01*
X133756900Y-79505843D01*
X134039900Y-79505843D01*
X134050340Y-79592792D01*
X134104898Y-79731142D01*
X134104899Y-79731144D01*
X134194758Y-79849641D01*
X134313255Y-79939500D01*
X134313258Y-79939502D01*
X134451606Y-79994059D01*
X134538549Y-80004500D01*
X135258250Y-80004499D01*
X135345194Y-79994059D01*
X135483542Y-79939502D01*
X135602041Y-79849641D01*
X135691902Y-79731142D01*
X135746459Y-79592794D01*
X135756900Y-79505851D01*
X135756899Y-77106150D01*
X135746459Y-77019206D01*
X135691902Y-76880858D01*
X135683913Y-76870323D01*
X135602041Y-76762358D01*
X135483544Y-76672499D01*
X135483542Y-76672498D01*
X135345194Y-76617941D01*
X135345193Y-76617940D01*
X135258251Y-76607500D01*
X134538556Y-76607500D01*
X134451607Y-76617940D01*
X134313257Y-76672498D01*
X134313255Y-76672499D01*
X134194758Y-76762358D01*
X134104899Y-76880855D01*
X134050340Y-77019207D01*
X134039900Y-77106148D01*
X134039900Y-79505843D01*
X133756900Y-79505843D01*
X133756899Y-77106150D01*
X133746459Y-77019206D01*
X133691902Y-76880858D01*
X133683913Y-76870323D01*
X133602041Y-76762358D01*
X133483544Y-76672499D01*
X133483542Y-76672498D01*
X133345194Y-76617941D01*
X133345193Y-76617940D01*
X133258251Y-76607500D01*
X132538556Y-76607500D01*
X132451607Y-76617940D01*
X132313257Y-76672498D01*
X132313255Y-76672499D01*
X132194758Y-76762358D01*
X132104899Y-76880855D01*
X132050340Y-77019207D01*
X132039900Y-77106148D01*
X132039900Y-79505843D01*
X131756900Y-79505843D01*
X131756899Y-77106150D01*
X131746459Y-77019206D01*
X131691902Y-76880858D01*
X131683913Y-76870323D01*
X131602041Y-76762358D01*
X131483544Y-76672499D01*
X131483542Y-76672498D01*
X131345194Y-76617941D01*
X131345193Y-76617940D01*
X131258251Y-76607500D01*
X130538556Y-76607500D01*
X130451607Y-76617940D01*
X130313257Y-76672498D01*
X130313255Y-76672499D01*
X130194758Y-76762358D01*
X130104899Y-76880855D01*
X130050340Y-77019207D01*
X130039900Y-77106148D01*
X130039900Y-79505843D01*
X129223900Y-79505843D01*
X129223900Y-77292045D01*
X129243585Y-77225006D01*
X129260219Y-77204364D01*
X130287764Y-76176819D01*
X130349087Y-76143334D01*
X130375445Y-76140500D01*
X131971835Y-76140500D01*
X134203111Y-76140500D01*
X134638835Y-76140500D01*
X136250900Y-76140500D01*
X136317939Y-76160185D01*
X136363694Y-76212989D01*
X136374900Y-76264500D01*
X136374900Y-76565302D01*
X136355215Y-76632341D01*
X136319199Y-76666296D01*
X136320016Y-76667373D01*
X136194758Y-76762358D01*
X136104899Y-76880855D01*
X136050340Y-77019207D01*
X136039900Y-77106148D01*
X136039900Y-79505843D01*
X136050340Y-79592792D01*
X136104898Y-79731142D01*
X136104899Y-79731144D01*
X136194758Y-79849641D01*
X136313255Y-79939500D01*
X136313258Y-79939502D01*
X136451606Y-79994059D01*
X136538549Y-80004500D01*
X137258250Y-80004499D01*
X137345194Y-79994059D01*
X137483542Y-79939502D01*
X137602041Y-79849641D01*
X137691902Y-79731142D01*
X137746459Y-79592794D01*
X137756900Y-79505851D01*
X137756900Y-79505843D01*
X138039900Y-79505843D01*
X138050340Y-79592792D01*
X138104898Y-79731142D01*
X138104899Y-79731144D01*
X138194758Y-79849641D01*
X138313255Y-79939500D01*
X138313258Y-79939502D01*
X138451606Y-79994059D01*
X138538549Y-80004500D01*
X139258250Y-80004499D01*
X139345194Y-79994059D01*
X139483542Y-79939502D01*
X139602041Y-79849641D01*
X139691902Y-79731142D01*
X139746459Y-79592794D01*
X139756900Y-79505851D01*
X139756900Y-79505843D01*
X140039900Y-79505843D01*
X140050340Y-79592792D01*
X140104898Y-79731142D01*
X140104899Y-79731144D01*
X140194758Y-79849641D01*
X140313255Y-79939500D01*
X140313258Y-79939502D01*
X140451606Y-79994059D01*
X140538549Y-80004500D01*
X141258250Y-80004499D01*
X141345194Y-79994059D01*
X141483542Y-79939502D01*
X141602041Y-79849641D01*
X141602042Y-79849640D01*
X141633666Y-79807938D01*
X141689858Y-79766414D01*
X141759579Y-79761862D01*
X141820693Y-79795726D01*
X141837464Y-79816890D01*
X141937708Y-79976428D01*
X142067971Y-80106691D01*
X142223956Y-80204703D01*
X142397840Y-80265547D01*
X142397846Y-80265548D01*
X142534981Y-80280999D01*
X142534985Y-80281000D01*
X142648400Y-80281000D01*
X143148400Y-80281000D01*
X143261815Y-80281000D01*
X143261818Y-80280999D01*
X143398953Y-80265548D01*
X143398959Y-80265547D01*
X143572843Y-80204703D01*
X143728828Y-80106691D01*
X143859094Y-79976425D01*
X143959335Y-79816891D01*
X144011669Y-79770599D01*
X144080723Y-79759950D01*
X144144571Y-79788325D01*
X144163132Y-79807936D01*
X144194758Y-79849640D01*
X144194759Y-79849641D01*
X144313258Y-79939502D01*
X144451606Y-79994059D01*
X144538549Y-80004500D01*
X145258250Y-80004499D01*
X145345194Y-79994059D01*
X145483542Y-79939502D01*
X145602041Y-79849641D01*
X145691902Y-79731142D01*
X145746459Y-79592794D01*
X145756900Y-79505851D01*
X145756899Y-77106150D01*
X145746459Y-77019206D01*
X145691902Y-76880858D01*
X145683913Y-76870323D01*
X145602041Y-76762358D01*
X145476784Y-76667373D01*
X145477865Y-76665947D01*
X145436333Y-76623362D01*
X145421900Y-76565302D01*
X145421900Y-75543202D01*
X145441585Y-75476163D01*
X145458215Y-75455525D01*
X145710235Y-75203504D01*
X145771556Y-75170021D01*
X145838869Y-75174146D01*
X145946069Y-75211657D01*
X145946073Y-75211657D01*
X145946077Y-75211659D01*
X145961225Y-75213079D01*
X145976370Y-75214500D01*
X145976374Y-75214500D01*
X146584430Y-75214500D01*
X146597891Y-75213237D01*
X146614723Y-75211659D01*
X146614727Y-75211657D01*
X146614730Y-75211657D01*
X146664629Y-75194196D01*
X146742337Y-75167005D01*
X146851120Y-75086720D01*
X146851120Y-75086718D01*
X146858596Y-75081202D01*
X146859613Y-75082580D01*
X146911344Y-75054334D01*
X146937702Y-75051500D01*
X147145138Y-75051500D01*
X147212177Y-75071185D01*
X147236895Y-75094356D01*
X147237326Y-75093926D01*
X147243897Y-75100496D01*
X147243900Y-75100500D01*
X147351166Y-75179666D01*
X147389478Y-75193072D01*
X147476994Y-75223696D01*
X147476998Y-75223696D01*
X147477002Y-75223698D01*
X147506883Y-75226500D01*
X148050916Y-75226499D01*
X148080798Y-75223698D01*
X148206634Y-75179666D01*
X148313900Y-75100500D01*
X148393066Y-74993234D01*
X148420745Y-74914133D01*
X148437096Y-74867405D01*
X148437096Y-74867402D01*
X148437098Y-74867398D01*
X148439900Y-74837517D01*
X148439899Y-74218484D01*
X148437098Y-74188602D01*
X148429652Y-74167324D01*
X148408526Y-74106948D01*
X148393066Y-74062766D01*
X148313900Y-73955500D01*
X148206634Y-73876334D01*
X148206632Y-73876333D01*
X148080805Y-73832303D01*
X148080793Y-73832301D01*
X148050921Y-73829500D01*
X147506886Y-73829500D01*
X147477006Y-73832301D01*
X147476996Y-73832303D01*
X147351167Y-73876333D01*
X147243900Y-73955500D01*
X147237326Y-73962074D01*
X147236084Y-73960832D01*
X147189262Y-73996384D01*
X147145138Y-74004500D01*
X147066567Y-74004500D01*
X146999528Y-73984815D01*
X146953773Y-73932011D01*
X146943829Y-73862853D01*
X146972854Y-73799297D01*
X146978886Y-73792819D01*
X147102972Y-73668732D01*
X147102975Y-73668728D01*
X147191942Y-73524492D01*
X147191947Y-73524481D01*
X147245255Y-73363606D01*
X147255399Y-73264322D01*
X147255400Y-73264309D01*
X147255400Y-73241000D01*
X145305401Y-73241000D01*
X145305401Y-73264322D01*
X145315544Y-73363607D01*
X145368852Y-73524481D01*
X145368857Y-73524492D01*
X145457824Y-73668728D01*
X145457827Y-73668732D01*
X145577667Y-73788572D01*
X145583335Y-73793054D01*
X145582170Y-73794526D01*
X145622479Y-73839341D01*
X145633700Y-73908304D01*
X145605856Y-73972386D01*
X145547787Y-74011241D01*
X145527544Y-74015776D01*
X145502831Y-74019173D01*
X145487648Y-74025767D01*
X145467620Y-74032502D01*
X145451548Y-74036419D01*
X145451541Y-74036422D01*
X145417756Y-74055418D01*
X145406389Y-74061064D01*
X145370839Y-74076506D01*
X145370837Y-74076507D01*
X145358002Y-74086949D01*
X145340532Y-74098839D01*
X145326110Y-74106948D01*
X145298701Y-74134357D01*
X145289279Y-74142859D01*
X145259211Y-74167321D01*
X145259209Y-74167323D01*
X145249666Y-74180843D01*
X145236046Y-74197011D01*
X144536071Y-74896986D01*
X144533029Y-74899927D01*
X144488496Y-74941519D01*
X144468352Y-74974642D01*
X144461215Y-74985128D01*
X144437796Y-75016012D01*
X144437792Y-75016020D01*
X144431726Y-75031403D01*
X144422323Y-75050334D01*
X144413727Y-75064469D01*
X144413724Y-75064476D01*
X144403267Y-75101798D01*
X144399223Y-75113823D01*
X144385002Y-75149889D01*
X144383308Y-75166354D01*
X144379363Y-75187113D01*
X144374901Y-75203040D01*
X144374900Y-75203049D01*
X144374900Y-75241800D01*
X144374250Y-75254479D01*
X144370286Y-75293038D01*
X144370286Y-75293041D01*
X144373097Y-75309342D01*
X144374900Y-75330412D01*
X144374900Y-76565302D01*
X144355215Y-76632341D01*
X144319199Y-76666296D01*
X144320016Y-76667373D01*
X144194759Y-76762358D01*
X144163132Y-76804064D01*
X144106939Y-76845586D01*
X144037217Y-76850137D01*
X143976104Y-76816271D01*
X143959335Y-76795109D01*
X143859091Y-76635571D01*
X143728828Y-76505308D01*
X143572843Y-76407296D01*
X143398959Y-76346452D01*
X143398953Y-76346451D01*
X143261818Y-76331000D01*
X143148400Y-76331000D01*
X143148400Y-80281000D01*
X142648400Y-80281000D01*
X142648400Y-76331000D01*
X142534981Y-76331000D01*
X142397846Y-76346451D01*
X142397840Y-76346452D01*
X142223956Y-76407296D01*
X142067971Y-76505308D01*
X141937708Y-76635571D01*
X141837464Y-76795109D01*
X141785129Y-76841400D01*
X141716075Y-76852048D01*
X141652227Y-76823673D01*
X141633666Y-76804062D01*
X141602041Y-76762358D01*
X141483544Y-76672499D01*
X141483542Y-76672498D01*
X141345194Y-76617941D01*
X141345193Y-76617940D01*
X141258251Y-76607500D01*
X140538556Y-76607500D01*
X140451607Y-76617940D01*
X140313257Y-76672498D01*
X140313255Y-76672499D01*
X140194758Y-76762358D01*
X140104899Y-76880855D01*
X140050340Y-77019207D01*
X140039900Y-77106148D01*
X140039900Y-79505843D01*
X139756900Y-79505843D01*
X139756899Y-77106150D01*
X139746459Y-77019206D01*
X139691902Y-76880858D01*
X139683913Y-76870323D01*
X139602041Y-76762358D01*
X139483544Y-76672499D01*
X139483542Y-76672498D01*
X139345194Y-76617941D01*
X139345193Y-76617940D01*
X139258251Y-76607500D01*
X138538556Y-76607500D01*
X138451607Y-76617940D01*
X138313257Y-76672498D01*
X138313255Y-76672499D01*
X138194758Y-76762358D01*
X138104899Y-76880855D01*
X138050340Y-77019207D01*
X138039900Y-77106148D01*
X138039900Y-79505843D01*
X137756900Y-79505843D01*
X137756899Y-77106150D01*
X137746459Y-77019206D01*
X137691902Y-76880858D01*
X137683913Y-76870323D01*
X137602041Y-76762358D01*
X137476784Y-76667373D01*
X137477865Y-76665947D01*
X137436333Y-76623362D01*
X137421900Y-76565302D01*
X137421900Y-76277500D01*
X137441585Y-76210461D01*
X137494389Y-76164706D01*
X137545900Y-76153500D01*
X140592660Y-76153500D01*
X140610629Y-76154809D01*
X140615560Y-76155531D01*
X140633214Y-76158117D01*
X140680590Y-76153971D01*
X140691399Y-76153500D01*
X140696530Y-76153500D01*
X140696536Y-76153500D01*
X140726181Y-76150034D01*
X140729709Y-76149674D01*
X140801700Y-76143376D01*
X140801708Y-76143373D01*
X140808769Y-76141916D01*
X140808789Y-76142015D01*
X140815374Y-76140556D01*
X140815351Y-76140458D01*
X140822378Y-76138792D01*
X140822382Y-76138790D01*
X140822386Y-76138790D01*
X140890289Y-76114074D01*
X140893607Y-76112921D01*
X140962246Y-76090178D01*
X140962255Y-76090171D01*
X140968791Y-76087125D01*
X140968834Y-76087218D01*
X140974905Y-76084279D01*
X140974859Y-76084187D01*
X140981313Y-76080945D01*
X140981317Y-76080944D01*
X141041672Y-76041246D01*
X141044659Y-76039343D01*
X141106195Y-76001388D01*
X141106201Y-76001381D01*
X141111864Y-75996905D01*
X141111927Y-75996985D01*
X141117149Y-75992730D01*
X141117085Y-75992653D01*
X141122614Y-75988011D01*
X141122623Y-75988006D01*
X141172239Y-75935414D01*
X141174684Y-75932897D01*
X141344764Y-75762818D01*
X141406087Y-75729333D01*
X141432445Y-75726499D01*
X143503412Y-75726499D01*
X143503414Y-75726499D01*
X143568606Y-75713533D01*
X143642535Y-75664135D01*
X143691933Y-75590206D01*
X143704900Y-75525015D01*
X143704899Y-73480986D01*
X143691933Y-73415794D01*
X143642535Y-73341865D01*
X143568606Y-73292467D01*
X143568605Y-73292466D01*
X143568604Y-73292466D01*
X143568603Y-73292465D01*
X143503419Y-73279500D01*
X143503415Y-73279500D01*
X142428900Y-73279500D01*
X142361861Y-73259815D01*
X142316106Y-73207011D01*
X142304900Y-73155500D01*
X142304900Y-72454500D01*
X142324585Y-72387461D01*
X142377389Y-72341706D01*
X142428900Y-72330500D01*
X144885160Y-72330500D01*
X144903129Y-72331809D01*
X144908060Y-72332531D01*
X144925714Y-72335117D01*
X144973090Y-72330971D01*
X144983899Y-72330500D01*
X144989030Y-72330500D01*
X144989036Y-72330500D01*
X145018681Y-72327034D01*
X145022209Y-72326674D01*
X145094200Y-72320376D01*
X145094208Y-72320373D01*
X145101269Y-72318916D01*
X145101289Y-72319015D01*
X145107874Y-72317556D01*
X145107851Y-72317458D01*
X145114878Y-72315792D01*
X145114882Y-72315790D01*
X145114886Y-72315790D01*
X145182788Y-72291075D01*
X145186128Y-72289914D01*
X145222336Y-72277916D01*
X145292164Y-72275517D01*
X145352205Y-72311250D01*
X145383396Y-72373771D01*
X145375834Y-72443230D01*
X145371878Y-72450954D01*
X145371907Y-72450968D01*
X145368852Y-72457518D01*
X145315544Y-72618393D01*
X145305400Y-72717677D01*
X145305400Y-72741000D01*
X146030400Y-72741000D01*
X146030400Y-72041000D01*
X146530400Y-72041000D01*
X146530400Y-72741000D01*
X147255399Y-72741000D01*
X147255399Y-72717692D01*
X147255398Y-72717677D01*
X147245255Y-72618392D01*
X147243800Y-72614000D01*
X149877400Y-72614000D01*
X150602400Y-72614000D01*
X150602400Y-71914000D01*
X151102400Y-71914000D01*
X151102400Y-72614000D01*
X151827399Y-72614000D01*
X151827399Y-72590692D01*
X151827398Y-72590677D01*
X151817255Y-72491392D01*
X151763947Y-72330518D01*
X151763942Y-72330507D01*
X151674975Y-72186271D01*
X151674972Y-72186267D01*
X151555132Y-72066427D01*
X151555128Y-72066424D01*
X151410892Y-71977457D01*
X151410881Y-71977452D01*
X151250006Y-71924144D01*
X151150722Y-71914000D01*
X151102400Y-71914000D01*
X150602400Y-71914000D01*
X150602399Y-71913999D01*
X150554093Y-71914000D01*
X150554075Y-71914001D01*
X150454792Y-71924144D01*
X150293918Y-71977452D01*
X150293907Y-71977457D01*
X150149671Y-72066424D01*
X150149667Y-72066427D01*
X150029827Y-72186267D01*
X150029824Y-72186271D01*
X149940857Y-72330507D01*
X149940852Y-72330518D01*
X149887544Y-72491393D01*
X149877400Y-72590677D01*
X149877400Y-72614000D01*
X147243800Y-72614000D01*
X147191947Y-72457518D01*
X147191942Y-72457507D01*
X147102975Y-72313271D01*
X147102972Y-72313267D01*
X146983132Y-72193427D01*
X146983128Y-72193424D01*
X146838892Y-72104457D01*
X146838881Y-72104452D01*
X146678006Y-72051144D01*
X146578722Y-72041000D01*
X146530400Y-72041000D01*
X146030400Y-72041000D01*
X146030399Y-72040999D01*
X145982093Y-72041000D01*
X145982075Y-72041001D01*
X145882792Y-72051144D01*
X145845728Y-72063426D01*
X145775899Y-72065828D01*
X145715857Y-72030096D01*
X145684665Y-71967575D01*
X145692226Y-71898116D01*
X145719043Y-71858039D01*
X146042616Y-71534467D01*
X146546264Y-71030819D01*
X146607587Y-70997334D01*
X146633945Y-70994500D01*
X151029132Y-70994500D01*
X151029148Y-70994499D01*
X151499685Y-70994499D01*
X151499688Y-70994499D01*
X151556085Y-70988437D01*
X151683658Y-70940854D01*
X151792658Y-70859258D01*
X151874254Y-70750258D01*
X151874255Y-70750254D01*
X151874626Y-70749577D01*
X151875174Y-70749028D01*
X151879569Y-70743158D01*
X151880412Y-70743789D01*
X151924029Y-70700170D01*
X151983460Y-70685000D01*
X152888970Y-70685000D01*
X152888971Y-70685000D01*
X152911058Y-70677823D01*
X152929974Y-70673281D01*
X152952928Y-70669646D01*
X152973629Y-70659097D01*
X152991598Y-70651654D01*
X153013695Y-70644475D01*
X153032491Y-70630817D01*
X153049073Y-70620656D01*
X153069777Y-70610108D01*
X153162508Y-70517377D01*
X153162508Y-70517375D01*
X153172712Y-70507172D01*
X153172716Y-70507167D01*
X154009567Y-69670316D01*
X154009572Y-69670312D01*
X154019775Y-69660108D01*
X154019777Y-69660108D01*
X154112508Y-69567377D01*
X154123056Y-69546673D01*
X154133217Y-69530091D01*
X154146875Y-69511295D01*
X154154054Y-69489198D01*
X154161497Y-69471229D01*
X154172046Y-69450528D01*
X154175681Y-69427574D01*
X154180222Y-69408661D01*
X154184414Y-69395759D01*
X154223854Y-69338086D01*
X154246044Y-69323600D01*
X154300430Y-69295889D01*
X154395289Y-69201030D01*
X154456193Y-69081500D01*
X154471900Y-68982330D01*
X154471900Y-68515670D01*
X154461974Y-68453000D01*
X154456194Y-68416503D01*
X154456193Y-68416501D01*
X154456193Y-68416500D01*
X154395289Y-68296970D01*
X154395285Y-68296966D01*
X154395284Y-68296964D01*
X154300435Y-68202115D01*
X154300432Y-68202113D01*
X154300430Y-68202111D01*
X154180900Y-68141207D01*
X154180899Y-68141206D01*
X154180896Y-68141205D01*
X154081730Y-68125500D01*
X153465070Y-68125500D01*
X153365903Y-68141205D01*
X153332365Y-68158294D01*
X153246370Y-68202111D01*
X153246369Y-68202112D01*
X153246364Y-68202115D01*
X153151515Y-68296964D01*
X153151512Y-68296969D01*
X153151511Y-68296970D01*
X153120455Y-68357920D01*
X153090605Y-68416503D01*
X153074900Y-68515669D01*
X153074900Y-68982330D01*
X153074899Y-68982330D01*
X153090605Y-69081496D01*
X153090606Y-69081499D01*
X153090607Y-69081500D01*
X153148105Y-69194346D01*
X153151514Y-69201035D01*
X153155066Y-69205924D01*
X153178544Y-69271731D01*
X153162717Y-69339784D01*
X153142427Y-69366487D01*
X152688235Y-69820681D01*
X152626912Y-69854166D01*
X152600554Y-69857000D01*
X151983460Y-69857000D01*
X151916421Y-69837315D01*
X151880177Y-69798386D01*
X151879569Y-69798842D01*
X151875329Y-69793178D01*
X151874626Y-69792423D01*
X151874254Y-69791742D01*
X151856593Y-69768150D01*
X151792658Y-69682742D01*
X151683658Y-69601146D01*
X151636013Y-69583375D01*
X151580080Y-69541503D01*
X151555664Y-69476039D01*
X151570516Y-69407766D01*
X151619922Y-69358361D01*
X151640344Y-69349488D01*
X151773519Y-69305358D01*
X151773524Y-69305356D01*
X151922745Y-69213315D01*
X152046715Y-69089345D01*
X152138756Y-68940124D01*
X152138758Y-68940119D01*
X152193905Y-68773697D01*
X152193906Y-68773690D01*
X152204399Y-68670986D01*
X152204400Y-68670973D01*
X152204400Y-68621000D01*
X149754401Y-68621000D01*
X149754401Y-68670986D01*
X149764894Y-68773697D01*
X149820041Y-68940119D01*
X149820043Y-68940124D01*
X149912084Y-69089345D01*
X150036054Y-69213315D01*
X150185275Y-69305356D01*
X150185278Y-69305357D01*
X150186596Y-69305794D01*
X150187381Y-69306338D01*
X150191821Y-69308408D01*
X150191467Y-69309166D01*
X150244040Y-69345567D01*
X150270863Y-69410083D01*
X150258548Y-69478859D01*
X150211004Y-69530059D01*
X150147591Y-69547500D01*
X146344639Y-69547500D01*
X146326670Y-69546191D01*
X146304082Y-69542882D01*
X146256709Y-69547028D01*
X146245900Y-69547500D01*
X146240752Y-69547500D01*
X146211139Y-69550961D01*
X146207557Y-69551327D01*
X146135602Y-69557623D01*
X146128534Y-69559083D01*
X146128514Y-69558986D01*
X146121919Y-69560448D01*
X146121942Y-69560544D01*
X146114918Y-69562208D01*
X146047036Y-69586915D01*
X146043633Y-69588097D01*
X145975057Y-69610821D01*
X145968506Y-69613876D01*
X145968464Y-69613787D01*
X145962391Y-69616727D01*
X145962435Y-69616815D01*
X145955983Y-69620055D01*
X145895629Y-69659749D01*
X145892593Y-69661684D01*
X145831105Y-69699612D01*
X145825438Y-69704093D01*
X145825376Y-69704015D01*
X145820146Y-69708275D01*
X145820210Y-69708351D01*
X145814674Y-69712996D01*
X145765076Y-69765565D01*
X145762565Y-69768150D01*
X144683536Y-70847181D01*
X144622213Y-70880666D01*
X144595855Y-70883500D01*
X142428900Y-70883500D01*
X142361861Y-70863815D01*
X142316106Y-70811011D01*
X142304900Y-70759500D01*
X142304900Y-69537914D01*
X142324585Y-69470875D01*
X142377389Y-69425120D01*
X142404709Y-69416296D01*
X142418606Y-69413533D01*
X142492535Y-69364135D01*
X142492537Y-69364131D01*
X142494563Y-69362778D01*
X142561240Y-69341899D01*
X142628621Y-69360382D01*
X142675312Y-69412360D01*
X142679637Y-69422544D01*
X142688044Y-69445083D01*
X142688049Y-69445093D01*
X142774209Y-69560187D01*
X142774212Y-69560190D01*
X142889306Y-69646350D01*
X142889313Y-69646354D01*
X143024020Y-69696596D01*
X143024027Y-69696598D01*
X143083555Y-69702999D01*
X143083572Y-69703000D01*
X143631400Y-69703000D01*
X143631400Y-68453000D01*
X144131400Y-68453000D01*
X144131400Y-69703000D01*
X144679228Y-69703000D01*
X144679244Y-69702999D01*
X144738772Y-69696598D01*
X144738779Y-69696596D01*
X144873486Y-69646354D01*
X144873493Y-69646350D01*
X144988587Y-69560190D01*
X144988590Y-69560187D01*
X145074750Y-69445093D01*
X145074754Y-69445086D01*
X145124996Y-69310379D01*
X145124998Y-69310372D01*
X145131399Y-69250844D01*
X145131400Y-69250827D01*
X145131400Y-68453000D01*
X144131400Y-68453000D01*
X143631400Y-68453000D01*
X143631400Y-68121000D01*
X149754400Y-68121000D01*
X150729400Y-68121000D01*
X150729400Y-67371000D01*
X151229400Y-67371000D01*
X151229400Y-68121000D01*
X152204399Y-68121000D01*
X152204399Y-68071028D01*
X152204398Y-68071013D01*
X152193905Y-67968302D01*
X152138758Y-67801880D01*
X152138756Y-67801875D01*
X152046715Y-67652654D01*
X151922745Y-67528684D01*
X151773524Y-67436643D01*
X151773519Y-67436641D01*
X151607097Y-67381494D01*
X151607090Y-67381493D01*
X151504386Y-67371000D01*
X151229400Y-67371000D01*
X150729400Y-67371000D01*
X150454429Y-67371000D01*
X150454412Y-67371001D01*
X150351702Y-67381494D01*
X150185280Y-67436641D01*
X150185275Y-67436643D01*
X150036054Y-67528684D01*
X149912084Y-67652654D01*
X149820043Y-67801875D01*
X149820041Y-67801880D01*
X149764894Y-67968302D01*
X149764893Y-67968309D01*
X149754400Y-68071013D01*
X149754400Y-68121000D01*
X143631400Y-68121000D01*
X143631400Y-66703000D01*
X144131400Y-66703000D01*
X144131400Y-67953000D01*
X145131400Y-67953000D01*
X145131400Y-67155172D01*
X145131399Y-67155155D01*
X145124998Y-67095627D01*
X145124996Y-67095620D01*
X145074754Y-66960913D01*
X145074750Y-66960906D01*
X144988590Y-66845812D01*
X144988587Y-66845809D01*
X144873493Y-66759649D01*
X144873486Y-66759645D01*
X144738779Y-66709403D01*
X144738772Y-66709401D01*
X144679244Y-66703000D01*
X144131400Y-66703000D01*
X143631400Y-66703000D01*
X143631400Y-66687959D01*
X143651085Y-66620920D01*
X143703889Y-66575165D01*
X143716396Y-66570253D01*
X143778881Y-66549547D01*
X143778892Y-66549542D01*
X143923128Y-66460575D01*
X143923132Y-66460572D01*
X144042972Y-66340732D01*
X144042975Y-66340728D01*
X144131942Y-66196492D01*
X144131947Y-66196481D01*
X144185255Y-66035606D01*
X144195399Y-65936322D01*
X144195400Y-65936309D01*
X144195400Y-65888000D01*
X143119400Y-65888000D01*
X143052361Y-65868315D01*
X143006606Y-65815511D01*
X142995400Y-65764000D01*
X142995400Y-64663000D01*
X143495400Y-64663000D01*
X143495400Y-65388000D01*
X144195399Y-65388000D01*
X144195399Y-65339692D01*
X144195398Y-65339677D01*
X144185255Y-65240392D01*
X144131947Y-65079518D01*
X144131942Y-65079507D01*
X144042975Y-64935271D01*
X144042972Y-64935267D01*
X143923132Y-64815427D01*
X143923128Y-64815424D01*
X143778892Y-64726457D01*
X143778881Y-64726452D01*
X143618006Y-64673144D01*
X143518722Y-64663000D01*
X143495400Y-64663000D01*
X142995400Y-64663000D01*
X142995400Y-64662999D01*
X142972093Y-64663000D01*
X142972074Y-64663001D01*
X142872792Y-64673144D01*
X142711918Y-64726452D01*
X142711907Y-64726457D01*
X142567671Y-64815424D01*
X142567667Y-64815427D01*
X142447828Y-64935266D01*
X142397954Y-65016123D01*
X142346005Y-65062846D01*
X142277042Y-65074067D01*
X142218783Y-65050794D01*
X142132337Y-64986995D01*
X142004730Y-64942342D01*
X142004718Y-64942340D01*
X141974430Y-64939500D01*
X141974426Y-64939500D01*
X141919305Y-64939500D01*
X141887215Y-64935276D01*
X141883932Y-64934396D01*
X141716578Y-64909882D01*
X141548101Y-64924623D01*
X141522201Y-64933206D01*
X141483197Y-64939500D01*
X141416370Y-64939500D01*
X141386081Y-64942340D01*
X141386069Y-64942342D01*
X141258464Y-64986994D01*
X141149680Y-65067280D01*
X141069394Y-65176063D01*
X141040533Y-65258542D01*
X141018484Y-65297288D01*
X140972808Y-65351725D01*
X140968840Y-65357759D01*
X140968758Y-65357705D01*
X140965133Y-65363396D01*
X140965217Y-65363448D01*
X140961427Y-65369592D01*
X140930903Y-65435047D01*
X140929333Y-65438288D01*
X140896906Y-65502857D01*
X140894436Y-65509645D01*
X140894342Y-65509611D01*
X140892125Y-65515989D01*
X140892220Y-65516021D01*
X140889948Y-65522877D01*
X140875345Y-65593595D01*
X140874565Y-65597110D01*
X140857899Y-65667435D01*
X140857061Y-65674610D01*
X140856962Y-65674598D01*
X140856276Y-65681314D01*
X140856376Y-65681323D01*
X140855746Y-65688511D01*
X140857848Y-65760721D01*
X140857900Y-65764327D01*
X140857900Y-66868085D01*
X140838215Y-66935124D01*
X140785411Y-66980879D01*
X140758093Y-66989702D01*
X140744195Y-66992466D01*
X140744193Y-66992467D01*
X140709019Y-67015970D01*
X140670267Y-67041864D01*
X140670264Y-67041866D01*
X140620866Y-67115795D01*
X140620865Y-67115796D01*
X140607900Y-67180980D01*
X140607900Y-69225012D01*
X140617497Y-69273264D01*
X140620867Y-69290206D01*
X140670265Y-69364135D01*
X140744194Y-69413533D01*
X140758088Y-69416296D01*
X140819999Y-69448679D01*
X140854576Y-69509394D01*
X140857900Y-69537914D01*
X140857900Y-71582342D01*
X140857690Y-71589552D01*
X140854206Y-71649352D01*
X140856016Y-71659612D01*
X140857900Y-71681145D01*
X140857900Y-73155500D01*
X140838215Y-73222539D01*
X140785411Y-73268294D01*
X140733900Y-73279500D01*
X139659386Y-73279500D01*
X139594193Y-73292467D01*
X139544795Y-73325474D01*
X139520267Y-73341864D01*
X139520264Y-73341866D01*
X139470866Y-73415795D01*
X139470865Y-73415796D01*
X139457900Y-73480980D01*
X139457900Y-73480983D01*
X139457900Y-73480985D01*
X139457900Y-74093643D01*
X139457901Y-74582500D01*
X139438216Y-74649539D01*
X139385413Y-74695294D01*
X139333901Y-74706500D01*
X137581387Y-74706500D01*
X137514348Y-74686815D01*
X137468593Y-74634011D01*
X137458649Y-74564853D01*
X137475849Y-74517403D01*
X137539942Y-74413492D01*
X137539947Y-74413481D01*
X137593255Y-74252606D01*
X137603399Y-74153322D01*
X137603400Y-74153309D01*
X137603400Y-74130000D01*
X136502400Y-74130000D01*
X136435361Y-74110315D01*
X136389606Y-74057511D01*
X136378400Y-74006000D01*
X136378400Y-72930000D01*
X136878400Y-72930000D01*
X136878400Y-73630000D01*
X137603399Y-73630000D01*
X137603399Y-73606692D01*
X137603398Y-73606677D01*
X137593255Y-73507392D01*
X137539947Y-73346518D01*
X137539942Y-73346507D01*
X137450975Y-73202271D01*
X137450972Y-73202267D01*
X137331132Y-73082427D01*
X137331128Y-73082424D01*
X137186892Y-72993457D01*
X137186881Y-72993452D01*
X137026006Y-72940144D01*
X136926722Y-72930000D01*
X136878400Y-72930000D01*
X136378400Y-72930000D01*
X136378399Y-72929999D01*
X136330093Y-72930000D01*
X136330075Y-72930001D01*
X136230792Y-72940144D01*
X136069918Y-72993452D01*
X136069908Y-72993457D01*
X136059657Y-72999780D01*
X135992264Y-73018218D01*
X135925601Y-72997293D01*
X135887833Y-72953232D01*
X135886549Y-72954025D01*
X135790715Y-72798654D01*
X135666745Y-72674684D01*
X135517524Y-72582643D01*
X135517519Y-72582641D01*
X135351097Y-72527494D01*
X135351090Y-72527493D01*
X135248386Y-72517000D01*
X134973400Y-72517000D01*
X134973400Y-73643000D01*
X134953715Y-73710039D01*
X134900911Y-73755794D01*
X134849400Y-73767000D01*
X133498401Y-73767000D01*
X133498401Y-73816986D01*
X133508894Y-73919697D01*
X133564041Y-74086119D01*
X133564043Y-74086124D01*
X133656084Y-74235345D01*
X133780054Y-74359315D01*
X133929275Y-74451356D01*
X133929278Y-74451357D01*
X133930596Y-74451794D01*
X133931381Y-74452338D01*
X133935821Y-74454408D01*
X133935467Y-74455166D01*
X133988040Y-74491567D01*
X134014863Y-74556083D01*
X134002548Y-74624859D01*
X133955004Y-74676059D01*
X133891591Y-74693500D01*
X132467400Y-74693500D01*
X132400361Y-74673815D01*
X132354606Y-74621011D01*
X132343400Y-74569500D01*
X132343400Y-73267000D01*
X133498400Y-73267000D01*
X134473400Y-73267000D01*
X134473400Y-72517000D01*
X134198429Y-72517000D01*
X134198412Y-72517001D01*
X134095702Y-72527494D01*
X133929280Y-72582641D01*
X133929275Y-72582643D01*
X133780054Y-72674684D01*
X133656084Y-72798654D01*
X133564043Y-72947875D01*
X133564041Y-72947880D01*
X133508894Y-73114302D01*
X133508893Y-73114309D01*
X133498400Y-73217013D01*
X133498400Y-73267000D01*
X132343400Y-73267000D01*
X132343400Y-70539573D01*
X132343401Y-70539560D01*
X132343401Y-70398430D01*
X132343400Y-70398427D01*
X132336221Y-70376332D01*
X132331679Y-70357415D01*
X132328046Y-70334472D01*
X132317499Y-70313775D01*
X132310055Y-70295803D01*
X132302876Y-70273705D01*
X132289219Y-70254909D01*
X132279052Y-70238316D01*
X132268511Y-70217628D01*
X132268509Y-70217626D01*
X132268508Y-70217623D01*
X132175777Y-70124892D01*
X132175776Y-70124891D01*
X132171446Y-70120561D01*
X132171435Y-70120551D01*
X132063884Y-70013000D01*
X134641401Y-70013000D01*
X134641401Y-70062986D01*
X134651894Y-70165697D01*
X134707041Y-70332119D01*
X134707043Y-70332124D01*
X134799084Y-70481345D01*
X134923054Y-70605315D01*
X135072275Y-70697356D01*
X135072280Y-70697358D01*
X135238702Y-70752505D01*
X135238709Y-70752506D01*
X135341419Y-70762999D01*
X135616399Y-70762999D01*
X135616400Y-70762998D01*
X135616400Y-70013000D01*
X136116400Y-70013000D01*
X136116400Y-70762999D01*
X136391372Y-70762999D01*
X136391386Y-70762998D01*
X136494097Y-70752505D01*
X136660519Y-70697358D01*
X136660524Y-70697356D01*
X136809745Y-70605315D01*
X136933715Y-70481345D01*
X137025756Y-70332124D01*
X137025758Y-70332119D01*
X137080905Y-70165697D01*
X137080906Y-70165690D01*
X137091399Y-70062986D01*
X137091400Y-70062973D01*
X137091400Y-70013000D01*
X136116400Y-70013000D01*
X135616400Y-70013000D01*
X134641401Y-70013000D01*
X132063884Y-70013000D01*
X131386578Y-69335694D01*
X131386575Y-69335690D01*
X131386575Y-69335691D01*
X131379508Y-69328624D01*
X131379508Y-69328623D01*
X131286777Y-69235892D01*
X131266074Y-69225342D01*
X131249490Y-69215180D01*
X131230695Y-69201525D01*
X131230689Y-69201522D01*
X131208604Y-69194346D01*
X131190634Y-69186903D01*
X131169932Y-69176356D01*
X131169931Y-69176355D01*
X131169928Y-69176354D01*
X131169925Y-69176353D01*
X131169921Y-69176352D01*
X131146974Y-69172717D01*
X131128065Y-69168178D01*
X131105973Y-69161000D01*
X131105971Y-69161000D01*
X131072986Y-69161000D01*
X130686082Y-69161000D01*
X130619043Y-69141315D01*
X130582980Y-69105892D01*
X130580709Y-69102493D01*
X130541535Y-69043865D01*
X130467606Y-68994467D01*
X130467605Y-68994466D01*
X130467604Y-68994466D01*
X130467603Y-68994465D01*
X130402419Y-68981500D01*
X130402415Y-68981500D01*
X129223746Y-68981500D01*
X129156707Y-68961815D01*
X129136065Y-68945181D01*
X127519978Y-67329094D01*
X127519975Y-67329090D01*
X127519975Y-67329091D01*
X127512908Y-67322024D01*
X127512908Y-67322023D01*
X127420177Y-67229292D01*
X127399474Y-67218742D01*
X127382890Y-67208580D01*
X127364095Y-67194925D01*
X127364089Y-67194922D01*
X127342004Y-67187746D01*
X127324034Y-67180303D01*
X127303332Y-67169756D01*
X127303331Y-67169755D01*
X127303328Y-67169754D01*
X127303325Y-67169753D01*
X127303321Y-67169752D01*
X127280374Y-67166117D01*
X127261465Y-67161578D01*
X127239373Y-67154400D01*
X127239371Y-67154400D01*
X127206386Y-67154400D01*
X125604343Y-67154400D01*
X125537304Y-67134715D01*
X125491549Y-67081911D01*
X125480357Y-67032259D01*
X125439184Y-64285815D01*
X122013400Y-64258590D01*
X122013397Y-64258592D01*
X120782900Y-64248814D01*
X120782900Y-63088200D01*
X121282900Y-63088200D01*
X121282900Y-63813200D01*
X121970399Y-63813200D01*
X121970399Y-63759064D01*
X121970398Y-63759047D01*
X121960343Y-63660616D01*
X121907493Y-63501127D01*
X121907491Y-63501122D01*
X121819285Y-63358119D01*
X121700480Y-63239314D01*
X121557477Y-63151108D01*
X121557472Y-63151106D01*
X121397983Y-63098257D01*
X121299550Y-63088200D01*
X121282900Y-63088200D01*
X120782900Y-63088200D01*
X120782900Y-63088199D01*
X120766256Y-63088200D01*
X120667815Y-63098257D01*
X120508327Y-63151106D01*
X120508322Y-63151108D01*
X120365319Y-63239314D01*
X120246512Y-63358121D01*
X120181509Y-63463507D01*
X120129561Y-63510231D01*
X120060598Y-63521452D01*
X120000897Y-63495511D01*
X120000376Y-63496218D01*
X119997302Y-63493949D01*
X119996516Y-63493608D01*
X119995158Y-63492367D01*
X119992900Y-63490701D01*
X119992900Y-63490700D01*
X119922265Y-63438569D01*
X119880016Y-63382922D01*
X119871900Y-63338800D01*
X119871900Y-63092346D01*
X119891585Y-63025307D01*
X119908215Y-63004668D01*
X119973567Y-62939315D01*
X119973571Y-62939313D01*
X119983775Y-62929108D01*
X119983777Y-62929108D01*
X120076508Y-62836377D01*
X120087056Y-62815673D01*
X120097216Y-62799093D01*
X120110876Y-62780295D01*
X120118056Y-62758194D01*
X120125498Y-62740227D01*
X120136046Y-62719528D01*
X120139679Y-62696583D01*
X120144223Y-62677662D01*
X120151400Y-62655573D01*
X120151401Y-62655571D01*
X120151401Y-62516834D01*
X120151400Y-62516816D01*
X120151400Y-59238901D01*
X120164400Y-59183629D01*
X120179652Y-59153000D01*
X120234697Y-59042454D01*
X120289142Y-58851100D01*
X120307499Y-58653001D01*
X122374243Y-58653001D01*
X122394830Y-58888315D01*
X122394832Y-58888326D01*
X122455966Y-59116483D01*
X122455970Y-59116492D01*
X122555800Y-59330579D01*
X122555802Y-59330583D01*
X122614472Y-59414373D01*
X122614473Y-59414373D01*
X123246323Y-58782523D01*
X123269907Y-58862844D01*
X123347639Y-58983798D01*
X123456300Y-59077952D01*
X123587085Y-59137680D01*
X123596866Y-59139086D01*
X122968025Y-59767925D01*
X123051821Y-59826599D01*
X123265907Y-59926429D01*
X123265916Y-59926433D01*
X123494073Y-59987567D01*
X123494084Y-59987569D01*
X123729398Y-60008157D01*
X123729401Y-60008157D01*
X123963296Y-59987693D01*
X124031796Y-60001459D01*
X124081979Y-60050075D01*
X124097913Y-60118103D01*
X124074538Y-60183947D01*
X124061786Y-60198902D01*
X123961663Y-60299025D01*
X123828839Y-60488717D01*
X123828837Y-60488721D01*
X123730967Y-60698605D01*
X123730963Y-60698614D01*
X123671029Y-60922293D01*
X123671027Y-60922303D01*
X123650844Y-61152999D01*
X123650844Y-61153000D01*
X123671027Y-61383696D01*
X123671029Y-61383706D01*
X123730963Y-61607385D01*
X123730965Y-61607389D01*
X123730966Y-61607393D01*
X123757542Y-61664385D01*
X123828837Y-61817278D01*
X123828839Y-61817282D01*
X123961663Y-62006974D01*
X123961668Y-62006980D01*
X124125419Y-62170731D01*
X124125425Y-62170736D01*
X124315117Y-62303560D01*
X124315119Y-62303561D01*
X124315122Y-62303563D01*
X124525007Y-62401434D01*
X124748699Y-62461372D01*
X124933259Y-62477519D01*
X124979399Y-62481556D01*
X124979400Y-62481556D01*
X124979401Y-62481556D01*
X125017850Y-62478192D01*
X125210101Y-62461372D01*
X125433793Y-62401434D01*
X125643678Y-62303563D01*
X125833379Y-62170733D01*
X125997133Y-62006979D01*
X126129963Y-61817278D01*
X126227834Y-61607393D01*
X126287772Y-61383701D01*
X126307956Y-61153000D01*
X126287772Y-60922299D01*
X126233030Y-60718000D01*
X129334401Y-60718000D01*
X129334401Y-60967986D01*
X129344894Y-61070697D01*
X129400041Y-61237119D01*
X129400043Y-61237124D01*
X129492084Y-61386345D01*
X129616054Y-61510315D01*
X129765275Y-61602356D01*
X129765280Y-61602358D01*
X129931702Y-61657505D01*
X129931709Y-61657506D01*
X130034419Y-61667999D01*
X130384399Y-61667999D01*
X130384400Y-61667998D01*
X130384400Y-60718000D01*
X129334401Y-60718000D01*
X126233030Y-60718000D01*
X126227834Y-60698607D01*
X126129963Y-60488722D01*
X126129961Y-60488719D01*
X126129960Y-60488717D01*
X125997136Y-60299025D01*
X125997131Y-60299019D01*
X125833380Y-60135268D01*
X125833374Y-60135263D01*
X125643682Y-60002439D01*
X125643678Y-60002437D01*
X125602915Y-59983429D01*
X125433793Y-59904566D01*
X125433789Y-59904565D01*
X125433785Y-59904563D01*
X125210106Y-59844629D01*
X125210096Y-59844627D01*
X124979401Y-59824444D01*
X124979399Y-59824444D01*
X124748703Y-59844627D01*
X124748690Y-59844630D01*
X124648764Y-59871404D01*
X124578914Y-59869741D01*
X124521052Y-59830577D01*
X124496808Y-59773960D01*
X123861933Y-59139086D01*
X123871715Y-59137680D01*
X124002500Y-59077952D01*
X124111161Y-58983798D01*
X124188893Y-58862844D01*
X124212476Y-58782524D01*
X124844325Y-59414373D01*
X124844326Y-59414373D01*
X124902998Y-59330582D01*
X124903000Y-59330578D01*
X125002829Y-59116492D01*
X125002833Y-59116483D01*
X125063967Y-58888326D01*
X125063969Y-58888315D01*
X125084557Y-58653001D01*
X125084557Y-58652998D01*
X125063969Y-58417684D01*
X125063967Y-58417673D01*
X125002833Y-58189516D01*
X125002829Y-58189507D01*
X124903000Y-57975423D01*
X124902999Y-57975421D01*
X124844325Y-57891626D01*
X124844325Y-57891625D01*
X124212476Y-58523475D01*
X124188893Y-58443156D01*
X124111161Y-58322202D01*
X124002500Y-58228048D01*
X123871715Y-58168320D01*
X123861933Y-58166913D01*
X124490773Y-57538073D01*
X124490773Y-57538072D01*
X124406983Y-57479402D01*
X124406979Y-57479400D01*
X124192892Y-57379570D01*
X124192883Y-57379566D01*
X123964726Y-57318432D01*
X123964715Y-57318430D01*
X123729402Y-57297843D01*
X123729398Y-57297843D01*
X123494084Y-57318430D01*
X123494073Y-57318432D01*
X123265916Y-57379566D01*
X123265907Y-57379570D01*
X123051819Y-57479401D01*
X122968025Y-57538072D01*
X123596866Y-58166913D01*
X123587085Y-58168320D01*
X123456300Y-58228048D01*
X123347639Y-58322202D01*
X123269907Y-58443156D01*
X123246323Y-58523476D01*
X122614472Y-57891625D01*
X122555801Y-57975419D01*
X122455970Y-58189507D01*
X122455966Y-58189516D01*
X122394832Y-58417673D01*
X122394830Y-58417684D01*
X122374243Y-58652998D01*
X122374243Y-58653001D01*
X120307499Y-58653001D01*
X120307499Y-58653000D01*
X120289142Y-58454900D01*
X120259347Y-58350180D01*
X120234699Y-58263550D01*
X120234696Y-58263544D01*
X120200147Y-58194160D01*
X120146018Y-58085454D01*
X120026125Y-57926689D01*
X120026122Y-57926686D01*
X120026118Y-57926682D01*
X119879100Y-57792658D01*
X119879098Y-57792656D01*
X119709955Y-57687928D01*
X119709948Y-57687924D01*
X119534157Y-57619823D01*
X119524436Y-57616057D01*
X119328874Y-57579500D01*
X119129926Y-57579500D01*
X118934364Y-57616057D01*
X118934361Y-57616057D01*
X118934361Y-57616058D01*
X118748851Y-57687924D01*
X118748844Y-57687928D01*
X118579701Y-57792656D01*
X118579699Y-57792658D01*
X118432681Y-57926682D01*
X118432677Y-57926686D01*
X118312782Y-58085453D01*
X118224103Y-58263544D01*
X118224100Y-58263550D01*
X118169658Y-58454897D01*
X118169658Y-58454899D01*
X118151301Y-58653000D01*
X118169658Y-58851100D01*
X118169658Y-58851102D01*
X118224100Y-59042449D01*
X118224103Y-59042455D01*
X118298931Y-59192729D01*
X118312782Y-59220546D01*
X118418847Y-59361000D01*
X118432677Y-59379313D01*
X118432681Y-59379317D01*
X118579699Y-59513341D01*
X118579701Y-59513343D01*
X118623542Y-59540488D01*
X118748850Y-59618075D01*
X118934364Y-59689943D01*
X119129926Y-59726500D01*
X119199400Y-59726500D01*
X119266439Y-59746185D01*
X119312194Y-59798989D01*
X119323400Y-59850500D01*
X119323400Y-60371700D01*
X119303715Y-60438739D01*
X119250911Y-60484494D01*
X119181753Y-60494438D01*
X119118197Y-60465413D01*
X119097825Y-60442824D01*
X119048023Y-60371700D01*
X118997133Y-60299021D01*
X118833379Y-60135267D01*
X118833377Y-60135266D01*
X118833374Y-60135263D01*
X118643682Y-60002439D01*
X118643678Y-60002437D01*
X118602915Y-59983429D01*
X118433793Y-59904566D01*
X118433789Y-59904565D01*
X118433785Y-59904563D01*
X118210106Y-59844629D01*
X118210096Y-59844627D01*
X117979401Y-59824444D01*
X117979399Y-59824444D01*
X117748703Y-59844627D01*
X117748693Y-59844629D01*
X117525014Y-59904563D01*
X117525005Y-59904567D01*
X117315121Y-60002437D01*
X117315117Y-60002439D01*
X117125425Y-60135263D01*
X117125419Y-60135268D01*
X116961668Y-60299019D01*
X116961663Y-60299025D01*
X116828839Y-60488717D01*
X116828837Y-60488721D01*
X116730967Y-60698605D01*
X116730963Y-60698614D01*
X116671029Y-60922293D01*
X116671027Y-60922303D01*
X116650844Y-61152999D01*
X116650844Y-61153000D01*
X116671027Y-61383696D01*
X116671029Y-61383706D01*
X116730963Y-61607385D01*
X116730965Y-61607389D01*
X116730966Y-61607393D01*
X116757542Y-61664385D01*
X116828837Y-61817278D01*
X116828839Y-61817282D01*
X116961663Y-62006974D01*
X116961668Y-62006980D01*
X117125419Y-62170731D01*
X117125425Y-62170736D01*
X117315117Y-62303560D01*
X117315119Y-62303561D01*
X117315122Y-62303563D01*
X117525007Y-62401434D01*
X117748699Y-62461372D01*
X117933259Y-62477519D01*
X117979399Y-62481556D01*
X117979400Y-62481556D01*
X117979401Y-62481556D01*
X118017850Y-62478192D01*
X118210101Y-62461372D01*
X118433793Y-62401434D01*
X118643678Y-62303563D01*
X118833379Y-62170733D01*
X118997133Y-62006979D01*
X119097825Y-61863176D01*
X119152402Y-61819551D01*
X119221900Y-61812357D01*
X119284255Y-61843880D01*
X119319669Y-61904110D01*
X119323400Y-61934299D01*
X119323400Y-62367153D01*
X119303715Y-62434192D01*
X119287081Y-62454834D01*
X119118792Y-62623122D01*
X119108242Y-62643826D01*
X119098082Y-62660405D01*
X119084426Y-62679202D01*
X119084425Y-62679205D01*
X119077245Y-62701300D01*
X119069802Y-62719267D01*
X119059255Y-62739968D01*
X119059253Y-62739974D01*
X119055617Y-62762926D01*
X119051078Y-62781834D01*
X119043900Y-62803929D01*
X119043900Y-63338800D01*
X119024215Y-63405839D01*
X118993534Y-63438568D01*
X118959745Y-63463507D01*
X118922900Y-63490700D01*
X118843733Y-63597967D01*
X118799703Y-63723794D01*
X118799701Y-63723806D01*
X118796900Y-63753678D01*
X118796900Y-64108041D01*
X118777215Y-64175080D01*
X118724411Y-64220835D01*
X118671915Y-64232037D01*
X114760987Y-64200960D01*
X114694106Y-64180743D01*
X114648772Y-64127578D01*
X114637992Y-64079192D01*
X114635755Y-63954692D01*
X114559101Y-59688987D01*
X114577578Y-59621609D01*
X114595392Y-59599091D01*
X117215865Y-56978619D01*
X117277188Y-56945134D01*
X117303546Y-56942300D01*
X129644658Y-56942300D01*
X129711697Y-56961985D01*
X129757452Y-57014789D01*
X129767396Y-57083947D01*
X129746433Y-57137137D01*
X129699486Y-57204586D01*
X129623293Y-57382137D01*
X129584400Y-57571393D01*
X129584400Y-57768000D01*
X130284400Y-57768000D01*
X130284400Y-58268000D01*
X129584400Y-58268000D01*
X129584400Y-58416176D01*
X129599047Y-58560221D01*
X129656884Y-58744561D01*
X129656889Y-58744571D01*
X129750651Y-58913498D01*
X129750656Y-58913505D01*
X129876507Y-59060105D01*
X129906489Y-59083313D01*
X129947453Y-59139914D01*
X129951314Y-59209677D01*
X129916844Y-59270452D01*
X129869593Y-59299075D01*
X129765278Y-59333642D01*
X129765275Y-59333643D01*
X129616054Y-59425684D01*
X129492084Y-59549654D01*
X129400043Y-59698875D01*
X129400041Y-59698880D01*
X129344894Y-59865302D01*
X129344893Y-59865309D01*
X129334400Y-59968013D01*
X129334400Y-60218000D01*
X130384400Y-60218000D01*
X130384400Y-59361000D01*
X130374423Y-59351023D01*
X130341361Y-59341315D01*
X130295606Y-59288511D01*
X130284400Y-59237000D01*
X130284400Y-58392624D01*
X130298905Y-58465545D01*
X130354160Y-58548240D01*
X130436855Y-58603495D01*
X130534400Y-58622898D01*
X130631945Y-58603495D01*
X130714640Y-58548240D01*
X130769895Y-58465545D01*
X130784400Y-58392624D01*
X130784400Y-59225000D01*
X130794376Y-59234976D01*
X130827439Y-59244685D01*
X130873194Y-59297489D01*
X130884400Y-59349000D01*
X130884400Y-61667999D01*
X131234372Y-61667999D01*
X131234386Y-61667998D01*
X131337097Y-61657505D01*
X131503519Y-61602358D01*
X131503524Y-61602356D01*
X131652744Y-61510315D01*
X131685986Y-61477074D01*
X131747308Y-61443588D01*
X131817000Y-61448572D01*
X131872934Y-61490442D01*
X131888229Y-61517302D01*
X131910299Y-61570586D01*
X132006475Y-61695924D01*
X132131814Y-61792100D01*
X132277766Y-61852555D01*
X132277772Y-61852557D01*
X132334398Y-61860011D01*
X132334400Y-61860010D01*
X132334400Y-59569361D01*
X132354085Y-59502322D01*
X132370719Y-59481680D01*
X132384400Y-59467999D01*
X132384400Y-58268000D01*
X130784400Y-58268000D01*
X130784400Y-57768000D01*
X136884400Y-57768000D01*
X136884400Y-58268000D01*
X135284400Y-58268000D01*
X135284400Y-59467999D01*
X135720275Y-59467999D01*
X135787314Y-59487684D01*
X135833069Y-59540488D01*
X135843013Y-59609646D01*
X135825814Y-59657096D01*
X135800043Y-59698875D01*
X135800041Y-59698880D01*
X135744894Y-59865302D01*
X135744893Y-59865308D01*
X135741823Y-59895359D01*
X135715425Y-59960050D01*
X135658244Y-60000200D01*
X135588433Y-60003062D01*
X135528157Y-59967727D01*
X135506083Y-59935159D01*
X135504814Y-59932438D01*
X135503484Y-59929585D01*
X135422815Y-59848916D01*
X135319420Y-59800702D01*
X135319418Y-59800701D01*
X135272311Y-59794500D01*
X134996487Y-59794500D01*
X134949383Y-59800701D01*
X134949375Y-59800703D01*
X134861804Y-59841539D01*
X134792726Y-59852031D01*
X134756996Y-59841539D01*
X134669420Y-59800702D01*
X134669418Y-59800701D01*
X134622311Y-59794500D01*
X134346487Y-59794500D01*
X134299383Y-59800701D01*
X134299375Y-59800703D01*
X134211804Y-59841539D01*
X134142726Y-59852031D01*
X134106996Y-59841539D01*
X134019420Y-59800702D01*
X134019418Y-59800701D01*
X133972311Y-59794500D01*
X133696487Y-59794500D01*
X133649383Y-59800701D01*
X133649375Y-59800703D01*
X133561804Y-59841539D01*
X133492726Y-59852031D01*
X133456996Y-59841539D01*
X133369420Y-59800702D01*
X133369418Y-59800701D01*
X133322321Y-59794501D01*
X133322316Y-59794500D01*
X133322311Y-59794500D01*
X133322304Y-59794500D01*
X133203603Y-59794500D01*
X133136564Y-59774815D01*
X133105227Y-59745987D01*
X133062320Y-59690070D01*
X133056578Y-59684328D01*
X133057573Y-59683332D01*
X133021511Y-59633943D01*
X133017359Y-59564197D01*
X133051573Y-59503278D01*
X133113291Y-59470527D01*
X133138202Y-59467999D01*
X133384372Y-59467999D01*
X133384386Y-59467998D01*
X133487097Y-59457505D01*
X133653519Y-59402358D01*
X133653524Y-59402356D01*
X133769303Y-59330943D01*
X133836695Y-59312503D01*
X133899497Y-59330943D01*
X134015275Y-59402356D01*
X134015280Y-59402358D01*
X134181702Y-59457505D01*
X134181709Y-59457506D01*
X134284419Y-59467999D01*
X134784399Y-59467999D01*
X134784400Y-59467998D01*
X134784400Y-58268000D01*
X132884400Y-58268000D01*
X132884400Y-59404341D01*
X132864715Y-59471380D01*
X132811911Y-59517135D01*
X132744214Y-59527280D01*
X132734400Y-59525987D01*
X132734400Y-61860010D01*
X132734401Y-61860011D01*
X132791027Y-61852557D01*
X132791033Y-61852555D01*
X132936987Y-61792100D01*
X132936989Y-61792098D01*
X133062325Y-61695924D01*
X133105228Y-61640013D01*
X133161655Y-61598810D01*
X133203601Y-61591499D01*
X133322310Y-61591499D01*
X133369420Y-61585298D01*
X133456998Y-61544459D01*
X133526071Y-61533968D01*
X133561799Y-61544458D01*
X133649380Y-61585298D01*
X133696489Y-61591500D01*
X133972310Y-61591499D01*
X133972312Y-61591499D01*
X133988013Y-61589432D01*
X134019420Y-61585298D01*
X134106998Y-61544459D01*
X134176071Y-61533968D01*
X134211799Y-61544458D01*
X134299380Y-61585298D01*
X134346489Y-61591500D01*
X134463485Y-61591499D01*
X134530524Y-61611183D01*
X134576279Y-61663987D01*
X134586223Y-61733145D01*
X134582889Y-61748947D01*
X134580900Y-61756046D01*
X134580900Y-63914916D01*
X134580828Y-63919148D01*
X134578748Y-63980042D01*
X134587924Y-64017693D01*
X134590295Y-64030167D01*
X134595573Y-64068567D01*
X134602164Y-64083742D01*
X134608901Y-64103775D01*
X134612820Y-64119854D01*
X134612822Y-64119859D01*
X134631813Y-64153635D01*
X134637459Y-64165002D01*
X134652903Y-64200554D01*
X134652906Y-64200560D01*
X134663345Y-64213391D01*
X134675241Y-64230869D01*
X134683351Y-64245292D01*
X134710761Y-64272702D01*
X134719260Y-64282120D01*
X134743722Y-64312188D01*
X134743726Y-64312192D01*
X134757241Y-64321732D01*
X134773413Y-64335354D01*
X135306581Y-64868522D01*
X135340066Y-64929845D01*
X135342900Y-64956203D01*
X135342900Y-67039631D01*
X135323215Y-67106670D01*
X135270411Y-67152425D01*
X135262235Y-67155812D01*
X135162141Y-67193146D01*
X135053142Y-67274742D01*
X134971547Y-67383739D01*
X134923962Y-67511318D01*
X134917900Y-67567694D01*
X134917900Y-68158285D01*
X134917901Y-68158294D01*
X134923962Y-68214685D01*
X134954654Y-68296970D01*
X134971546Y-68342258D01*
X135053142Y-68451258D01*
X135162142Y-68532854D01*
X135209788Y-68550625D01*
X135265718Y-68592495D01*
X135290135Y-68657959D01*
X135275283Y-68726232D01*
X135225878Y-68775637D01*
X135205456Y-68784511D01*
X135072278Y-68828642D01*
X135072275Y-68828643D01*
X134923054Y-68920684D01*
X134799084Y-69044654D01*
X134707043Y-69193875D01*
X134707041Y-69193880D01*
X134651894Y-69360302D01*
X134651893Y-69360309D01*
X134641400Y-69463013D01*
X134641400Y-69513000D01*
X137091399Y-69513000D01*
X137091399Y-69463028D01*
X137091398Y-69463013D01*
X137080905Y-69360302D01*
X137025758Y-69193880D01*
X137025756Y-69193875D01*
X136933715Y-69044654D01*
X136809745Y-68920684D01*
X136660524Y-68828643D01*
X136660519Y-68828641D01*
X136527344Y-68784511D01*
X136469899Y-68744738D01*
X136443076Y-68680222D01*
X136455391Y-68611446D01*
X136502934Y-68560247D01*
X136523003Y-68550628D01*
X136570658Y-68532854D01*
X136679658Y-68451258D01*
X136690939Y-68436188D01*
X136746872Y-68394318D01*
X136790205Y-68386500D01*
X137315197Y-68386500D01*
X137382236Y-68406185D01*
X137402878Y-68422819D01*
X137545385Y-68565326D01*
X137548326Y-68568369D01*
X137565259Y-68586499D01*
X137589919Y-68612903D01*
X137623044Y-68633047D01*
X137633534Y-68640187D01*
X137656969Y-68657959D01*
X137664415Y-68663605D01*
X137679803Y-68669673D01*
X137698742Y-68679080D01*
X137712877Y-68687676D01*
X137750190Y-68698130D01*
X137762225Y-68702177D01*
X137786314Y-68711675D01*
X137798289Y-68716398D01*
X137803163Y-68716899D01*
X137814746Y-68718090D01*
X137835520Y-68722037D01*
X137851447Y-68726500D01*
X137890201Y-68726500D01*
X137902880Y-68727149D01*
X137941441Y-68731114D01*
X137957745Y-68728303D01*
X137978813Y-68726500D01*
X138183901Y-68726500D01*
X138250940Y-68746185D01*
X138296695Y-68798989D01*
X138307901Y-68850500D01*
X138307901Y-69225014D01*
X138320867Y-69290206D01*
X138370265Y-69364135D01*
X138444194Y-69413533D01*
X138444195Y-69413533D01*
X138444196Y-69413534D01*
X138483236Y-69421298D01*
X138509385Y-69426500D01*
X140053414Y-69426499D01*
X140118606Y-69413533D01*
X140192535Y-69364135D01*
X140241933Y-69290206D01*
X140254900Y-69225015D01*
X140254899Y-67180986D01*
X140241933Y-67115794D01*
X140192535Y-67041865D01*
X140118606Y-66992467D01*
X140118605Y-66992466D01*
X140118604Y-66992466D01*
X140118603Y-66992465D01*
X140053419Y-66979500D01*
X140053415Y-66979500D01*
X139815900Y-66979500D01*
X139748861Y-66959815D01*
X139703106Y-66907011D01*
X139691900Y-66855500D01*
X139691900Y-66421168D01*
X139711585Y-66354129D01*
X139733262Y-66331005D01*
X139732549Y-66330292D01*
X139739116Y-66323724D01*
X139739117Y-66323721D01*
X139739120Y-66323720D01*
X139819405Y-66214937D01*
X139851820Y-66122300D01*
X139864057Y-66087330D01*
X139864057Y-66087327D01*
X139864059Y-66087323D01*
X139865637Y-66070491D01*
X139866900Y-66057030D01*
X139866900Y-66038768D01*
X139874060Y-65997242D01*
X139912885Y-65888000D01*
X139913770Y-65885511D01*
X139923590Y-65741939D01*
X139912488Y-65688514D01*
X139894313Y-65601048D01*
X139894311Y-65601044D01*
X139894311Y-65601042D01*
X139880800Y-65574967D01*
X139866900Y-65517923D01*
X139866900Y-65498969D01*
X139864059Y-65468681D01*
X139864059Y-65468677D01*
X139864057Y-65468673D01*
X139864057Y-65468669D01*
X139829388Y-65369594D01*
X139819405Y-65341063D01*
X139818393Y-65339692D01*
X139755605Y-65254616D01*
X139731634Y-65188988D01*
X139746950Y-65120817D01*
X139790278Y-65075445D01*
X139871128Y-65025575D01*
X139871132Y-65025572D01*
X139990972Y-64905732D01*
X139990975Y-64905728D01*
X140079942Y-64761492D01*
X140079947Y-64761481D01*
X140133255Y-64600606D01*
X140143399Y-64501322D01*
X140143400Y-64501309D01*
X140143400Y-64478000D01*
X138193401Y-64478000D01*
X138193401Y-64501322D01*
X138203544Y-64600607D01*
X138256852Y-64761481D01*
X138256857Y-64761492D01*
X138345824Y-64905728D01*
X138345827Y-64905732D01*
X138465668Y-65025573D01*
X138546522Y-65075445D01*
X138593246Y-65127393D01*
X138604467Y-65196356D01*
X138581195Y-65254616D01*
X138517394Y-65341064D01*
X138472742Y-65468669D01*
X138472740Y-65468681D01*
X138469900Y-65498969D01*
X138469900Y-66057030D01*
X138472740Y-66087318D01*
X138472742Y-66087330D01*
X138512491Y-66200923D01*
X138517395Y-66214937D01*
X138568242Y-66283832D01*
X138597683Y-66323724D01*
X138604251Y-66330292D01*
X138602564Y-66331978D01*
X138636780Y-66377034D01*
X138644900Y-66421168D01*
X138644900Y-66855500D01*
X138625215Y-66922539D01*
X138572411Y-66968294D01*
X138520907Y-66979500D01*
X138509387Y-66979500D01*
X138444193Y-66992467D01*
X138409019Y-67015970D01*
X138370267Y-67041864D01*
X138370264Y-67041866D01*
X138320866Y-67115795D01*
X138320865Y-67115796D01*
X138307900Y-67180980D01*
X138307900Y-67547797D01*
X138288215Y-67614836D01*
X138235411Y-67660591D01*
X138166253Y-67670535D01*
X138102697Y-67641510D01*
X138096219Y-67635478D01*
X137961413Y-67500672D01*
X137958471Y-67497628D01*
X137916881Y-67453096D01*
X137883768Y-67432960D01*
X137873271Y-67425816D01*
X137842387Y-67402396D01*
X137842385Y-67402395D01*
X137826987Y-67396322D01*
X137808058Y-67386920D01*
X137793925Y-67378325D01*
X137793920Y-67378323D01*
X137756602Y-67367867D01*
X137744572Y-67363822D01*
X137708508Y-67349601D01*
X137692044Y-67347908D01*
X137671280Y-67343962D01*
X137655355Y-67339500D01*
X137655353Y-67339500D01*
X137616599Y-67339500D01*
X137603919Y-67338850D01*
X137565360Y-67334886D01*
X137565356Y-67334886D01*
X137549056Y-67337697D01*
X137527987Y-67339500D01*
X136790205Y-67339500D01*
X136723166Y-67319815D01*
X136690938Y-67289811D01*
X136679658Y-67274742D01*
X136570658Y-67193146D01*
X136559317Y-67188916D01*
X136470565Y-67155812D01*
X136414632Y-67113940D01*
X136390216Y-67048476D01*
X136389900Y-67039631D01*
X136389900Y-64699083D01*
X136389972Y-64694850D01*
X136392052Y-64633962D01*
X136382872Y-64596292D01*
X136380504Y-64583829D01*
X136375227Y-64545433D01*
X136375226Y-64545430D01*
X136368637Y-64530262D01*
X136361895Y-64510215D01*
X136357980Y-64494146D01*
X136338978Y-64460352D01*
X136333333Y-64448985D01*
X136317895Y-64413443D01*
X136317894Y-64413440D01*
X136307451Y-64400604D01*
X136295553Y-64383122D01*
X136289702Y-64372716D01*
X136287449Y-64368708D01*
X136260045Y-64341304D01*
X136251547Y-64331889D01*
X136227076Y-64301810D01*
X136213557Y-64292267D01*
X136197385Y-64278644D01*
X135896741Y-63978000D01*
X138193400Y-63978000D01*
X138918400Y-63978000D01*
X138918400Y-63278000D01*
X139418400Y-63278000D01*
X139418400Y-63978000D01*
X140143399Y-63978000D01*
X140143399Y-63954692D01*
X140143398Y-63954677D01*
X140133255Y-63855392D01*
X140079947Y-63694518D01*
X140079942Y-63694507D01*
X139990975Y-63550271D01*
X139990972Y-63550267D01*
X139871132Y-63430427D01*
X139871128Y-63430424D01*
X139726892Y-63341457D01*
X139726881Y-63341452D01*
X139566006Y-63288144D01*
X139466722Y-63278000D01*
X139418400Y-63278000D01*
X138918400Y-63278000D01*
X138918399Y-63277999D01*
X138870093Y-63278000D01*
X138870075Y-63278001D01*
X138770792Y-63288144D01*
X138609918Y-63341452D01*
X138609907Y-63341457D01*
X138465671Y-63430424D01*
X138465667Y-63430427D01*
X138345827Y-63550267D01*
X138345824Y-63550271D01*
X138256857Y-63694507D01*
X138256852Y-63694518D01*
X138203544Y-63855393D01*
X138193400Y-63954677D01*
X138193400Y-63978000D01*
X135896741Y-63978000D01*
X135664219Y-63745478D01*
X135630734Y-63684155D01*
X135627900Y-63657797D01*
X135627900Y-61792188D01*
X135622932Y-61756046D01*
X135613227Y-61685433D01*
X135558666Y-61559821D01*
X135548400Y-61510419D01*
X135548400Y-61382039D01*
X135551186Y-61362522D01*
X135550460Y-61362427D01*
X135553419Y-61339947D01*
X135557900Y-61305911D01*
X135557899Y-61274808D01*
X135577582Y-61207772D01*
X135630384Y-61162015D01*
X135699543Y-61152070D01*
X135763099Y-61181093D01*
X135796327Y-61230888D01*
X135796992Y-61230579D01*
X135799011Y-61234910D01*
X135799602Y-61235795D01*
X135800039Y-61237114D01*
X135800043Y-61237124D01*
X135892084Y-61386345D01*
X136016054Y-61510315D01*
X136165275Y-61602356D01*
X136165280Y-61602358D01*
X136331702Y-61657505D01*
X136331709Y-61657506D01*
X136434419Y-61667999D01*
X136784399Y-61667999D01*
X136784400Y-61667998D01*
X136784400Y-60718000D01*
X137284400Y-60718000D01*
X137284400Y-61667999D01*
X137634372Y-61667999D01*
X137634386Y-61667998D01*
X137737097Y-61657505D01*
X137903519Y-61602358D01*
X137903524Y-61602356D01*
X138052745Y-61510315D01*
X138176715Y-61386345D01*
X138268756Y-61237124D01*
X138268758Y-61237119D01*
X138277744Y-61210000D01*
X140653844Y-61210000D01*
X140674027Y-61440696D01*
X140674029Y-61440706D01*
X140733963Y-61664385D01*
X140733965Y-61664389D01*
X140733966Y-61664393D01*
X140817662Y-61843880D01*
X140831837Y-61874278D01*
X140831839Y-61874282D01*
X140964663Y-62063974D01*
X140964668Y-62063980D01*
X141128419Y-62227731D01*
X141128425Y-62227736D01*
X141318117Y-62360560D01*
X141318119Y-62360561D01*
X141318122Y-62360563D01*
X141528007Y-62458434D01*
X141528013Y-62458435D01*
X141528014Y-62458436D01*
X141581852Y-62472861D01*
X141751699Y-62518372D01*
X141936259Y-62534519D01*
X141982399Y-62538556D01*
X141982400Y-62538556D01*
X141982401Y-62538556D01*
X142020850Y-62535192D01*
X142213101Y-62518372D01*
X142436793Y-62458434D01*
X142646678Y-62360563D01*
X142836379Y-62227733D01*
X143000133Y-62063979D01*
X143132963Y-61874278D01*
X143230834Y-61664393D01*
X143290772Y-61440701D01*
X143310956Y-61210000D01*
X147653844Y-61210000D01*
X147674027Y-61440696D01*
X147674029Y-61440706D01*
X147733963Y-61664385D01*
X147733965Y-61664389D01*
X147733966Y-61664393D01*
X147817662Y-61843880D01*
X147831837Y-61874278D01*
X147831839Y-61874282D01*
X147964663Y-62063974D01*
X147964668Y-62063980D01*
X148128419Y-62227731D01*
X148128425Y-62227736D01*
X148318117Y-62360560D01*
X148318119Y-62360561D01*
X148318122Y-62360563D01*
X148528007Y-62458434D01*
X148528013Y-62458435D01*
X148528014Y-62458436D01*
X148581852Y-62472861D01*
X148751699Y-62518372D01*
X148936259Y-62534519D01*
X148982399Y-62538556D01*
X148982400Y-62538556D01*
X148982401Y-62538556D01*
X149020850Y-62535192D01*
X149213101Y-62518372D01*
X149436793Y-62458434D01*
X149646678Y-62360563D01*
X149836379Y-62227733D01*
X150000133Y-62063979D01*
X150132963Y-61874278D01*
X150230834Y-61664393D01*
X150290772Y-61440701D01*
X150310956Y-61210000D01*
X150290772Y-60979299D01*
X150230834Y-60755607D01*
X150132963Y-60545722D01*
X150132961Y-60545719D01*
X150132960Y-60545717D01*
X150000136Y-60356025D01*
X150000131Y-60356019D01*
X149836380Y-60192268D01*
X149836374Y-60192263D01*
X149646682Y-60059439D01*
X149646678Y-60059437D01*
X149614725Y-60044537D01*
X149436793Y-59961566D01*
X149436789Y-59961565D01*
X149436785Y-59961563D01*
X149213106Y-59901629D01*
X149213096Y-59901627D01*
X148982401Y-59881444D01*
X148982399Y-59881444D01*
X148751703Y-59901627D01*
X148751693Y-59901629D01*
X148528014Y-59961563D01*
X148528005Y-59961567D01*
X148318121Y-60059437D01*
X148318117Y-60059439D01*
X148128425Y-60192263D01*
X148128419Y-60192268D01*
X147964668Y-60356019D01*
X147964663Y-60356025D01*
X147831839Y-60545717D01*
X147831837Y-60545721D01*
X147733967Y-60755605D01*
X147733963Y-60755614D01*
X147674029Y-60979293D01*
X147674027Y-60979303D01*
X147653844Y-61209999D01*
X147653844Y-61210000D01*
X143310956Y-61210000D01*
X143290772Y-60979299D01*
X143230834Y-60755607D01*
X143132963Y-60545722D01*
X143132961Y-60545719D01*
X143132960Y-60545717D01*
X143000136Y-60356025D01*
X143000131Y-60356019D01*
X142900014Y-60255902D01*
X142866529Y-60194579D01*
X142871513Y-60124887D01*
X142913385Y-60068954D01*
X142978849Y-60044537D01*
X142998503Y-60044693D01*
X143232399Y-60065157D01*
X143232402Y-60065157D01*
X143467715Y-60044569D01*
X143467726Y-60044567D01*
X143695883Y-59983433D01*
X143695892Y-59983429D01*
X143909978Y-59883600D01*
X143909982Y-59883598D01*
X143993773Y-59824926D01*
X143993773Y-59824925D01*
X143364933Y-59196086D01*
X143374715Y-59194680D01*
X143505500Y-59134952D01*
X143614161Y-59040798D01*
X143691893Y-58919844D01*
X143715476Y-58839524D01*
X144347325Y-59471373D01*
X144347326Y-59471373D01*
X144405998Y-59387582D01*
X144406000Y-59387578D01*
X144505829Y-59173492D01*
X144505833Y-59173483D01*
X144566967Y-58945326D01*
X144566969Y-58945315D01*
X144587557Y-58710001D01*
X144587557Y-58709998D01*
X144566969Y-58474684D01*
X144566967Y-58474673D01*
X144505833Y-58246516D01*
X144505829Y-58246507D01*
X144406000Y-58032423D01*
X144405999Y-58032421D01*
X144347325Y-57948626D01*
X144347325Y-57948625D01*
X143715476Y-58580475D01*
X143691893Y-58500156D01*
X143614161Y-58379202D01*
X143505500Y-58285048D01*
X143374715Y-58225320D01*
X143364933Y-58223913D01*
X143993773Y-57595073D01*
X143993773Y-57595072D01*
X143909983Y-57536402D01*
X143909979Y-57536400D01*
X143695892Y-57436570D01*
X143695883Y-57436566D01*
X143467726Y-57375432D01*
X143467715Y-57375430D01*
X143232402Y-57354843D01*
X143232398Y-57354843D01*
X142997084Y-57375430D01*
X142997073Y-57375432D01*
X142768916Y-57436566D01*
X142768907Y-57436570D01*
X142554819Y-57536401D01*
X142471025Y-57595072D01*
X143099866Y-58223913D01*
X143090085Y-58225320D01*
X142959300Y-58285048D01*
X142850639Y-58379202D01*
X142772907Y-58500156D01*
X142749323Y-58580476D01*
X142117472Y-57948625D01*
X142058801Y-58032419D01*
X141958970Y-58246507D01*
X141958966Y-58246516D01*
X141897832Y-58474673D01*
X141897830Y-58474684D01*
X141877243Y-58709998D01*
X141877243Y-58710001D01*
X141897830Y-58945315D01*
X141897832Y-58945326D01*
X141958966Y-59173483D01*
X141958970Y-59173492D01*
X142058800Y-59387579D01*
X142058802Y-59387583D01*
X142117472Y-59471373D01*
X142117473Y-59471373D01*
X142749323Y-58839523D01*
X142772907Y-58919844D01*
X142850639Y-59040798D01*
X142959300Y-59134952D01*
X143090085Y-59194680D01*
X143099866Y-59196086D01*
X142461240Y-59834710D01*
X142454887Y-59866322D01*
X142406271Y-59916505D01*
X142338242Y-59932438D01*
X142313033Y-59928404D01*
X142213106Y-59901629D01*
X142213096Y-59901627D01*
X141982401Y-59881444D01*
X141982399Y-59881444D01*
X141751703Y-59901627D01*
X141751693Y-59901629D01*
X141528014Y-59961563D01*
X141528005Y-59961567D01*
X141318121Y-60059437D01*
X141318117Y-60059439D01*
X141128425Y-60192263D01*
X141128419Y-60192268D01*
X140964668Y-60356019D01*
X140964663Y-60356025D01*
X140831839Y-60545717D01*
X140831837Y-60545721D01*
X140733967Y-60755605D01*
X140733963Y-60755614D01*
X140674029Y-60979293D01*
X140674027Y-60979303D01*
X140653844Y-61209999D01*
X140653844Y-61210000D01*
X138277744Y-61210000D01*
X138323905Y-61070697D01*
X138323906Y-61070690D01*
X138334399Y-60967986D01*
X138334400Y-60967973D01*
X138334400Y-60718000D01*
X137284400Y-60718000D01*
X136784400Y-60718000D01*
X136784400Y-59349000D01*
X136804085Y-59281961D01*
X136856889Y-59236206D01*
X136877727Y-59231672D01*
X136884400Y-59225000D01*
X136884400Y-58392624D01*
X136898905Y-58465545D01*
X136954160Y-58548240D01*
X137036855Y-58603495D01*
X137134400Y-58622898D01*
X137231945Y-58603495D01*
X137314640Y-58548240D01*
X137369895Y-58465545D01*
X137384400Y-58392624D01*
X137384400Y-59237000D01*
X137364715Y-59304039D01*
X137311911Y-59349794D01*
X137291072Y-59354327D01*
X137284400Y-59361000D01*
X137284400Y-60218000D01*
X138334399Y-60218000D01*
X138334399Y-59968028D01*
X138334398Y-59968013D01*
X138323905Y-59865302D01*
X138268758Y-59698880D01*
X138268756Y-59698875D01*
X138176715Y-59549654D01*
X138052745Y-59425684D01*
X137903524Y-59333643D01*
X137903519Y-59333641D01*
X137798746Y-59298923D01*
X137741301Y-59259150D01*
X137714478Y-59194634D01*
X137726793Y-59125859D01*
X137752319Y-59091342D01*
X137858935Y-58989997D01*
X137858935Y-58989996D01*
X137969313Y-58831413D01*
X138045506Y-58653862D01*
X138084400Y-58464606D01*
X138084400Y-58268000D01*
X137384400Y-58268000D01*
X137384400Y-57768000D01*
X138084400Y-57768000D01*
X138084400Y-57619823D01*
X138069752Y-57475778D01*
X138011915Y-57291438D01*
X138011910Y-57291428D01*
X137920355Y-57126478D01*
X137905032Y-57058309D01*
X137928995Y-56992678D01*
X137984638Y-56950421D01*
X138028774Y-56942300D01*
X145327854Y-56942300D01*
X145394893Y-56961985D01*
X145415535Y-56978619D01*
X146682300Y-58245384D01*
X146715785Y-58306707D01*
X146713886Y-58366998D01*
X146676000Y-58500156D01*
X146672657Y-58511904D01*
X146654301Y-58710000D01*
X146672658Y-58908100D01*
X146672658Y-58908102D01*
X146727100Y-59099449D01*
X146727103Y-59099455D01*
X146796539Y-59238901D01*
X146815782Y-59277546D01*
X146919108Y-59414373D01*
X146935677Y-59436313D01*
X146935681Y-59436317D01*
X147082699Y-59570341D01*
X147082701Y-59570343D01*
X147165499Y-59621609D01*
X147251850Y-59675075D01*
X147437364Y-59746943D01*
X147632926Y-59783500D01*
X147632928Y-59783500D01*
X147831872Y-59783500D01*
X147831874Y-59783500D01*
X148027436Y-59746943D01*
X148212950Y-59675075D01*
X148382100Y-59570342D01*
X148529125Y-59436311D01*
X148649018Y-59277546D01*
X148682813Y-59209677D01*
X148691252Y-59192729D01*
X148738754Y-59141492D01*
X148802252Y-59124000D01*
X151067554Y-59124000D01*
X151134593Y-59143685D01*
X151155235Y-59160319D01*
X155609081Y-63614165D01*
X155642566Y-63675488D01*
X155645400Y-63701846D01*
X155645400Y-65024923D01*
X155625715Y-65091962D01*
X155595034Y-65124693D01*
X155525431Y-65176063D01*
X155486900Y-65204500D01*
X155460411Y-65240392D01*
X155434770Y-65275134D01*
X155379122Y-65317384D01*
X155335000Y-65325500D01*
X155067329Y-65325500D01*
X155045234Y-65332678D01*
X155026326Y-65337217D01*
X155003374Y-65340853D01*
X155003369Y-65340854D01*
X154982668Y-65351402D01*
X154964700Y-65358845D01*
X154942603Y-65366025D01*
X154942602Y-65366026D01*
X154923805Y-65379682D01*
X154907224Y-65389843D01*
X154886523Y-65400391D01*
X154874862Y-65412053D01*
X154863199Y-65423716D01*
X154344890Y-65942026D01*
X153847735Y-66439181D01*
X153786412Y-66472666D01*
X153760054Y-66475500D01*
X153465070Y-66475500D01*
X153365903Y-66491205D01*
X153314091Y-66517605D01*
X153246370Y-66552111D01*
X153246369Y-66552112D01*
X153246364Y-66552115D01*
X153151515Y-66646964D01*
X153151512Y-66646969D01*
X153090605Y-66766503D01*
X153074900Y-66865669D01*
X153074900Y-67332330D01*
X153074899Y-67332330D01*
X153090605Y-67431496D01*
X153090606Y-67431499D01*
X153090607Y-67431500D01*
X153151511Y-67551030D01*
X153151513Y-67551032D01*
X153151515Y-67551035D01*
X153246364Y-67645884D01*
X153246366Y-67645885D01*
X153246370Y-67645889D01*
X153365900Y-67706793D01*
X153365901Y-67706793D01*
X153365903Y-67706794D01*
X153465069Y-67722500D01*
X153465070Y-67722500D01*
X154081730Y-67722500D01*
X154180896Y-67706794D01*
X154180897Y-67706793D01*
X154180900Y-67706793D01*
X154300430Y-67645889D01*
X154381819Y-67564500D01*
X155084401Y-67564500D01*
X155084401Y-67581152D01*
X155094456Y-67679583D01*
X155147306Y-67839072D01*
X155147308Y-67839077D01*
X155235514Y-67982080D01*
X155354319Y-68100885D01*
X155497322Y-68189091D01*
X155497327Y-68189093D01*
X155656816Y-68241942D01*
X155755255Y-68251999D01*
X155809399Y-68251998D01*
X155809400Y-68251998D01*
X155809400Y-67564500D01*
X156309400Y-67564500D01*
X156309400Y-68251999D01*
X156363536Y-68251999D01*
X156363552Y-68251998D01*
X156461983Y-68241943D01*
X156621472Y-68189093D01*
X156621477Y-68189091D01*
X156764480Y-68100885D01*
X156883285Y-67982080D01*
X156971491Y-67839077D01*
X156971493Y-67839072D01*
X157024342Y-67679583D01*
X157034399Y-67581150D01*
X157034400Y-67581137D01*
X157034400Y-67564500D01*
X156309400Y-67564500D01*
X155809400Y-67564500D01*
X155084401Y-67564500D01*
X154381819Y-67564500D01*
X154394319Y-67552000D01*
X157370401Y-67552000D01*
X157370401Y-67575322D01*
X157380544Y-67674607D01*
X157433852Y-67835481D01*
X157433857Y-67835492D01*
X157522824Y-67979728D01*
X157522827Y-67979732D01*
X157642667Y-68099572D01*
X157642671Y-68099575D01*
X157786907Y-68188542D01*
X157786918Y-68188547D01*
X157947793Y-68241855D01*
X158047083Y-68251999D01*
X158095399Y-68251998D01*
X158095400Y-68251998D01*
X158095400Y-67552000D01*
X158595400Y-67552000D01*
X158595400Y-68251999D01*
X158643708Y-68251999D01*
X158643722Y-68251998D01*
X158743007Y-68241855D01*
X158903881Y-68188547D01*
X158903892Y-68188542D01*
X159048128Y-68099575D01*
X159048132Y-68099572D01*
X159167972Y-67979732D01*
X159167975Y-67979728D01*
X159256942Y-67835492D01*
X159256947Y-67835481D01*
X159310255Y-67674606D01*
X159320399Y-67575322D01*
X159320400Y-67575309D01*
X159320400Y-67552000D01*
X158595400Y-67552000D01*
X158095400Y-67552000D01*
X157370401Y-67552000D01*
X154394319Y-67552000D01*
X154395289Y-67551030D01*
X154456193Y-67431500D01*
X154456486Y-67429655D01*
X154471900Y-67332330D01*
X154471900Y-67037346D01*
X154491585Y-66970307D01*
X154508219Y-66949665D01*
X154877810Y-66580074D01*
X155256132Y-66201752D01*
X155317451Y-66168270D01*
X155387142Y-66173254D01*
X155443076Y-66215126D01*
X155443579Y-66215802D01*
X155492418Y-66281976D01*
X155489903Y-66283832D01*
X155515775Y-66331213D01*
X155510791Y-66400905D01*
X155468919Y-66456838D01*
X155459707Y-66463109D01*
X155354321Y-66528112D01*
X155235514Y-66646919D01*
X155147308Y-66789922D01*
X155147306Y-66789927D01*
X155094457Y-66949416D01*
X155084400Y-67047849D01*
X155084400Y-67064500D01*
X157034399Y-67064500D01*
X157034399Y-67047864D01*
X157034398Y-67047847D01*
X157024343Y-66949416D01*
X156971493Y-66789927D01*
X156971491Y-66789922D01*
X156883285Y-66646919D01*
X156764479Y-66528113D01*
X156764475Y-66528110D01*
X156659093Y-66463109D01*
X156612368Y-66411161D01*
X156601147Y-66342199D01*
X156627087Y-66282496D01*
X156626382Y-66281976D01*
X156628646Y-66278907D01*
X156628990Y-66278117D01*
X156630236Y-66276753D01*
X156631897Y-66274501D01*
X156631900Y-66274500D01*
X156684030Y-66203865D01*
X156739678Y-66161616D01*
X156783800Y-66153500D01*
X157605643Y-66153500D01*
X157672682Y-66173185D01*
X157705413Y-66203866D01*
X157758194Y-66275382D01*
X157782165Y-66341011D01*
X157766849Y-66409182D01*
X157723523Y-66454554D01*
X157642666Y-66504428D01*
X157522827Y-66624267D01*
X157522824Y-66624271D01*
X157433857Y-66768507D01*
X157433852Y-66768518D01*
X157380544Y-66929393D01*
X157370400Y-67028677D01*
X157370400Y-67052000D01*
X159320399Y-67052000D01*
X159320399Y-67028692D01*
X159320398Y-67028677D01*
X159310255Y-66929392D01*
X159256947Y-66768518D01*
X159256942Y-66768507D01*
X159167975Y-66624271D01*
X159167972Y-66624267D01*
X159048131Y-66504426D01*
X158967277Y-66454554D01*
X158920553Y-66402606D01*
X158909332Y-66333643D01*
X158932603Y-66275385D01*
X158996405Y-66188937D01*
X159041059Y-66061323D01*
X159043900Y-66031026D01*
X159043900Y-65472974D01*
X159043497Y-65468681D01*
X159041059Y-65442681D01*
X159041059Y-65442677D01*
X159041057Y-65442673D01*
X159041057Y-65442669D01*
X158996405Y-65315064D01*
X158996405Y-65315063D01*
X158916120Y-65206280D01*
X158807337Y-65125995D01*
X158807335Y-65125994D01*
X158679730Y-65081342D01*
X158679718Y-65081340D01*
X158649430Y-65078500D01*
X158649426Y-65078500D01*
X158041374Y-65078500D01*
X158041370Y-65078500D01*
X158011081Y-65081340D01*
X158011069Y-65081342D01*
X157883464Y-65125994D01*
X157774680Y-65206280D01*
X157723864Y-65275134D01*
X157668217Y-65317384D01*
X157624094Y-65325500D01*
X156783800Y-65325500D01*
X156716761Y-65305815D01*
X156684030Y-65275134D01*
X156631900Y-65204500D01*
X156525530Y-65125995D01*
X156523766Y-65124693D01*
X156481515Y-65069045D01*
X156473400Y-65024923D01*
X156473400Y-63413431D01*
X156473400Y-63413429D01*
X156466221Y-63391335D01*
X156461681Y-63372425D01*
X156458046Y-63349472D01*
X156447500Y-63328776D01*
X156440052Y-63310795D01*
X156432875Y-63288704D01*
X156419216Y-63269903D01*
X156409057Y-63253326D01*
X156398508Y-63232623D01*
X156305777Y-63139892D01*
X156305776Y-63139891D01*
X151636577Y-58470693D01*
X151636575Y-58470690D01*
X151636575Y-58470691D01*
X151629508Y-58463624D01*
X151629508Y-58463623D01*
X151536777Y-58370892D01*
X151516074Y-58360342D01*
X151499490Y-58350180D01*
X151480695Y-58336525D01*
X151480689Y-58336522D01*
X151458604Y-58329346D01*
X151440634Y-58321903D01*
X151419932Y-58311356D01*
X151419931Y-58311355D01*
X151419928Y-58311354D01*
X151419925Y-58311353D01*
X151419921Y-58311352D01*
X151396974Y-58307717D01*
X151378065Y-58303178D01*
X151355973Y-58296000D01*
X151355971Y-58296000D01*
X151322986Y-58296000D01*
X148802252Y-58296000D01*
X148735213Y-58276315D01*
X148691252Y-58227271D01*
X148649019Y-58142455D01*
X148565924Y-58032419D01*
X148529125Y-57983689D01*
X148529122Y-57983686D01*
X148529118Y-57983682D01*
X148382100Y-57849658D01*
X148382098Y-57849656D01*
X148212955Y-57744928D01*
X148212948Y-57744924D01*
X148079968Y-57693408D01*
X148027436Y-57673057D01*
X147831874Y-57636500D01*
X147632926Y-57636500D01*
X147509347Y-57659601D01*
X147437358Y-57673058D01*
X147399959Y-57687547D01*
X147330336Y-57693408D01*
X147268596Y-57660698D01*
X147267485Y-57659601D01*
X146267657Y-56659773D01*
X146234172Y-56598450D01*
X146239156Y-56528758D01*
X146281028Y-56472825D01*
X146346492Y-56448408D01*
X146355478Y-56448093D01*
X164191686Y-56475021D01*
G37*
%TD.AperFunction*%
%TA.AperFunction,Conductor*%
G36*
X131900593Y-90582685D02*
G01*
X131921235Y-90599319D01*
X132448081Y-91126165D01*
X132481566Y-91187488D01*
X132484400Y-91213846D01*
X132484400Y-91570614D01*
X132464715Y-91637653D01*
X132411911Y-91683408D01*
X132405890Y-91685968D01*
X132313261Y-91722496D01*
X132313255Y-91722499D01*
X132194759Y-91812358D01*
X132163132Y-91854064D01*
X132106939Y-91895586D01*
X132037217Y-91900137D01*
X131976104Y-91866271D01*
X131959335Y-91845109D01*
X131859091Y-91685571D01*
X131728828Y-91555308D01*
X131572843Y-91457296D01*
X131398959Y-91396452D01*
X131398953Y-91396451D01*
X131261818Y-91381000D01*
X131148400Y-91381000D01*
X131148400Y-93482000D01*
X131128715Y-93549039D01*
X131075911Y-93594794D01*
X131024400Y-93606000D01*
X129763400Y-93606000D01*
X129763400Y-94559418D01*
X129778851Y-94696553D01*
X129778852Y-94696559D01*
X129839696Y-94870443D01*
X129937708Y-95026428D01*
X130067971Y-95156691D01*
X130170327Y-95221006D01*
X130216618Y-95273341D01*
X130227266Y-95342395D01*
X130198891Y-95406243D01*
X130140501Y-95444615D01*
X130104355Y-95450000D01*
X125826623Y-95450000D01*
X125759584Y-95430315D01*
X125713829Y-95377511D01*
X125702625Y-95326707D01*
X125690008Y-93106000D01*
X129763400Y-93106000D01*
X130648400Y-93106000D01*
X130648400Y-91381000D01*
X130534981Y-91381000D01*
X130397846Y-91396451D01*
X130397840Y-91396452D01*
X130223956Y-91457296D01*
X130067971Y-91555308D01*
X129937708Y-91685571D01*
X129839696Y-91841556D01*
X129778852Y-92015440D01*
X129778851Y-92015446D01*
X129763400Y-92152581D01*
X129763400Y-93106000D01*
X125690008Y-93106000D01*
X125683167Y-91902048D01*
X125676268Y-90687705D01*
X125695571Y-90620554D01*
X125748115Y-90574500D01*
X125800266Y-90563000D01*
X131833554Y-90563000D01*
X131900593Y-90582685D01*
G37*
%TD.AperFunction*%
%TA.AperFunction,Conductor*%
G36*
X127017993Y-68002085D02*
G01*
X127038635Y-68018719D01*
X127859001Y-68839085D01*
X127892486Y-68900408D01*
X127887502Y-68970100D01*
X127845630Y-69026033D01*
X127840214Y-69029866D01*
X127819265Y-69043864D01*
X127769866Y-69117795D01*
X127769865Y-69117796D01*
X127756900Y-69182981D01*
X127756900Y-69955661D01*
X127737215Y-70022700D01*
X127707212Y-70054927D01*
X127623209Y-70117812D01*
X127537049Y-70232906D01*
X127537045Y-70232913D01*
X127486803Y-70367620D01*
X127486801Y-70367627D01*
X127480400Y-70427155D01*
X127480400Y-70595000D01*
X130880400Y-70595000D01*
X130880400Y-70427172D01*
X130880399Y-70427155D01*
X130873998Y-70367627D01*
X130873997Y-70367623D01*
X130850998Y-70305960D01*
X130846014Y-70236268D01*
X130879498Y-70174945D01*
X130940821Y-70141460D01*
X131010513Y-70146444D01*
X131054861Y-70174945D01*
X131479081Y-70599165D01*
X131512566Y-70660488D01*
X131515400Y-70686846D01*
X131515400Y-74569500D01*
X131495715Y-74636539D01*
X131442911Y-74682294D01*
X131391400Y-74693500D01*
X130086139Y-74693500D01*
X130068170Y-74692191D01*
X130045582Y-74688882D01*
X129998209Y-74693028D01*
X129987400Y-74693500D01*
X129982259Y-74693500D01*
X129952640Y-74696962D01*
X129949054Y-74697328D01*
X129877099Y-74703623D01*
X129870031Y-74705083D01*
X129870011Y-74704987D01*
X129863421Y-74706447D01*
X129863444Y-74706543D01*
X129856421Y-74708208D01*
X129856416Y-74708209D01*
X129856414Y-74708210D01*
X129788544Y-74732911D01*
X129785158Y-74734088D01*
X129716559Y-74756820D01*
X129710016Y-74759872D01*
X129709974Y-74759783D01*
X129703891Y-74762728D01*
X129703935Y-74762815D01*
X129697482Y-74766055D01*
X129637115Y-74805758D01*
X129634077Y-74807694D01*
X129572607Y-74845609D01*
X129566942Y-74850089D01*
X129566880Y-74850011D01*
X129561641Y-74854279D01*
X129561705Y-74854355D01*
X129556173Y-74858996D01*
X129506593Y-74911547D01*
X129504081Y-74914133D01*
X128032468Y-76385747D01*
X128018839Y-76397526D01*
X128000529Y-76411158D01*
X128000525Y-76411161D01*
X127969942Y-76447608D01*
X127962642Y-76455574D01*
X127959017Y-76459198D01*
X127959011Y-76459206D01*
X127940537Y-76482569D01*
X127938265Y-76485358D01*
X127891805Y-76540730D01*
X127887840Y-76546759D01*
X127887758Y-76546705D01*
X127884133Y-76552396D01*
X127884217Y-76552448D01*
X127880427Y-76558592D01*
X127849903Y-76624047D01*
X127848333Y-76627288D01*
X127815906Y-76691857D01*
X127813436Y-76698645D01*
X127813342Y-76698611D01*
X127811125Y-76704989D01*
X127811220Y-76705021D01*
X127808948Y-76711877D01*
X127794345Y-76782595D01*
X127793565Y-76786110D01*
X127776899Y-76856435D01*
X127776061Y-76863610D01*
X127775962Y-76863598D01*
X127775276Y-76870314D01*
X127775376Y-76870323D01*
X127774746Y-76877511D01*
X127776848Y-76949721D01*
X127776900Y-76953327D01*
X127776900Y-84717955D01*
X127757215Y-84784994D01*
X127740581Y-84805636D01*
X126967036Y-85579181D01*
X126905713Y-85612666D01*
X126879355Y-85615500D01*
X125770745Y-85615500D01*
X125703706Y-85595815D01*
X125657951Y-85543011D01*
X125646747Y-85492208D01*
X125621262Y-81006713D01*
X126087400Y-81005000D01*
X126087400Y-76433000D01*
X125595275Y-76433000D01*
X125594695Y-76331000D01*
X125579575Y-73669705D01*
X125598878Y-73602554D01*
X125651422Y-73556500D01*
X125703573Y-73545000D01*
X128229970Y-73545000D01*
X128229971Y-73545000D01*
X128252058Y-73537823D01*
X128270974Y-73533281D01*
X128293928Y-73529646D01*
X128314629Y-73519097D01*
X128332598Y-73511654D01*
X128354695Y-73504475D01*
X128373491Y-73490817D01*
X128390073Y-73480656D01*
X128410777Y-73470108D01*
X128503508Y-73377377D01*
X128503508Y-73377375D01*
X128513712Y-73367172D01*
X128513716Y-73367167D01*
X129136065Y-72744818D01*
X129197388Y-72711333D01*
X129223746Y-72708499D01*
X130402412Y-72708499D01*
X130402414Y-72708499D01*
X130467606Y-72695533D01*
X130541535Y-72646135D01*
X130590933Y-72572206D01*
X130591609Y-72568811D01*
X130599527Y-72529000D01*
X130603900Y-72507015D01*
X130603899Y-71734337D01*
X130623583Y-71667299D01*
X130653588Y-71635071D01*
X130737591Y-71572186D01*
X130823750Y-71457093D01*
X130823754Y-71457086D01*
X130873996Y-71322379D01*
X130873998Y-71322372D01*
X130880399Y-71262844D01*
X130880400Y-71262827D01*
X130880400Y-71095000D01*
X127480400Y-71095000D01*
X127480400Y-71262844D01*
X127486801Y-71322372D01*
X127486803Y-71322379D01*
X127537045Y-71457086D01*
X127537049Y-71457093D01*
X127623209Y-71572186D01*
X127707211Y-71635071D01*
X127749082Y-71691005D01*
X127756900Y-71734338D01*
X127756900Y-72507013D01*
X127766453Y-72555043D01*
X127769191Y-72568809D01*
X127769192Y-72568811D01*
X127762963Y-72638403D01*
X127720099Y-72693579D01*
X127654208Y-72716822D01*
X127647574Y-72717000D01*
X126813226Y-72717000D01*
X126746187Y-72697315D01*
X126700432Y-72644511D01*
X126690488Y-72575353D01*
X126691609Y-72568809D01*
X126699527Y-72529000D01*
X126703900Y-72507015D01*
X126703899Y-71722986D01*
X126690933Y-71657794D01*
X126641535Y-71583865D01*
X126640393Y-71583102D01*
X126638466Y-71580796D01*
X126632899Y-71575229D01*
X126633397Y-71574730D01*
X126595588Y-71529493D01*
X126586879Y-71460168D01*
X126617032Y-71397140D01*
X126640391Y-71376899D01*
X126641535Y-71376135D01*
X126690933Y-71302206D01*
X126703900Y-71237015D01*
X126703899Y-70452986D01*
X126690933Y-70387794D01*
X126641535Y-70313865D01*
X126640393Y-70313102D01*
X126638466Y-70310796D01*
X126632899Y-70305229D01*
X126633397Y-70304730D01*
X126595588Y-70259493D01*
X126586879Y-70190168D01*
X126617032Y-70127140D01*
X126640391Y-70106899D01*
X126641535Y-70106135D01*
X126690933Y-70032206D01*
X126703900Y-69967015D01*
X126703899Y-69182986D01*
X126690933Y-69117794D01*
X126641535Y-69043865D01*
X126567606Y-68994467D01*
X126567605Y-68994466D01*
X126567604Y-68994466D01*
X126567603Y-68994465D01*
X126502419Y-68981500D01*
X125631733Y-68981500D01*
X125564694Y-68961815D01*
X125518939Y-68909011D01*
X125507747Y-68859359D01*
X125507287Y-68828642D01*
X125496487Y-68108258D01*
X125515164Y-68040932D01*
X125567277Y-67994390D01*
X125620473Y-67982400D01*
X126950954Y-67982400D01*
X127017993Y-68002085D01*
G37*
%TD.AperFunction*%
%TD*%
%TA.AperFunction,Conductor*%
%TO.N,GND*%
G36*
X126087400Y-81005000D02*
G01*
X125621262Y-81006713D01*
X125621261Y-81006712D01*
X119230229Y-81030210D01*
X119163118Y-81010772D01*
X119142092Y-80993892D01*
X118960919Y-80812719D01*
X118927434Y-80751396D01*
X118924600Y-80725038D01*
X118924600Y-76847118D01*
X118944285Y-76780079D01*
X118969770Y-76751400D01*
X119322059Y-76461281D01*
X119386323Y-76433858D01*
X119400887Y-76433000D01*
X125595274Y-76433000D01*
X125595275Y-76433000D01*
X126087400Y-76433000D01*
X126087400Y-81005000D01*
G37*
%TD.AperFunction*%
%TD*%
D54*
X127230400Y-86339000D03*
X113260400Y-73258000D03*
X119737400Y-98912000D03*
X160885400Y-94721000D03*
X144629400Y-73004000D03*
X163806400Y-72115000D03*
X114640163Y-64200000D03*
X151614400Y-76814000D03*
X124817400Y-77068000D03*
X145264400Y-65511000D03*
X146788400Y-93324000D03*
X124817400Y-78719000D03*
X119508800Y-80319200D03*
X151868400Y-64114000D03*
X149074400Y-68178000D03*
X127230400Y-70845000D03*
X160377400Y-72115000D03*
X126976400Y-84434000D03*
X105513400Y-101960000D03*
X139168400Y-62844000D03*
X128881400Y-93578000D03*
X161290000Y-59690000D03*
X163425400Y-94721000D03*
X153519400Y-72115000D03*
X144883400Y-96118000D03*
X151614400Y-87609000D03*
X117959400Y-99166000D03*
X127205000Y-110837000D03*
X142978400Y-81132000D03*
X131675568Y-102290368D03*
X115521000Y-75874200D03*
X131548400Y-62336000D03*
X105410000Y-115570000D03*
X144883400Y-90530000D03*
X143740400Y-63860000D03*
X155297400Y-94721000D03*
X109704400Y-104627000D03*
X137517400Y-63987000D03*
X130786400Y-73639000D03*
X119610400Y-84307000D03*
X105410000Y-59690000D03*
X141708400Y-76179000D03*
X130913400Y-91038000D03*
X158218400Y-94721000D03*
X119585000Y-77169600D03*
X151868400Y-97134000D03*
X146534400Y-76052000D03*
X134723400Y-71988000D03*
X110644200Y-93959000D03*
X114530400Y-97261000D03*
X146026400Y-68178000D03*
X156948400Y-72115000D03*
X161290000Y-115570000D03*
X151614400Y-83672000D03*
X111939600Y-79074600D03*
X143867400Y-76052000D03*
X120829600Y-90403000D03*
X143867400Y-70210000D03*
X148439400Y-73004000D03*
X119559600Y-78820600D03*
X124817400Y-80370000D03*
X151614400Y-79989000D03*
X151487400Y-91800000D03*
X135993400Y-71226000D03*
X157329400Y-68940000D03*
X115444800Y-82144900D03*
X122559900Y-97007000D03*
X122785400Y-68686000D03*
X121539000Y-93832000D03*
X120880400Y-98277000D03*
X120753400Y-74756600D03*
X123547400Y-82148000D03*
X124690400Y-83418000D03*
X121134400Y-91546000D03*
X116625900Y-93387500D03*
X123039400Y-73258000D03*
X123445900Y-95610000D03*
X126115900Y-87736000D03*
X123394900Y-75445500D03*
X117979400Y-61153000D03*
X124979400Y-61153000D03*
X119229400Y-58653000D03*
X123729400Y-58653000D03*
D55*
X137134400Y-58018000D03*
X130534400Y-58018000D03*
D54*
X113040000Y-110490000D03*
X120640000Y-110490000D03*
X137009400Y-97769000D03*
X134469400Y-97769000D03*
X131929400Y-97769000D03*
X129389400Y-97769000D03*
X141982400Y-61210000D03*
X148982400Y-61210000D03*
X143232400Y-58710000D03*
X147732400Y-58710000D03*
X135561600Y-106989200D03*
X135561600Y-113489200D03*
X131061600Y-106989200D03*
X131061600Y-113489200D03*
X163853400Y-74370000D03*
X163853400Y-76370000D03*
X158853400Y-76370000D03*
X163853400Y-78370000D03*
X158853400Y-78370000D03*
X163853400Y-80370000D03*
X158853400Y-80370000D03*
X163853400Y-82370000D03*
X158853400Y-82370000D03*
X163853400Y-84370000D03*
X158853400Y-84370000D03*
X163853400Y-86370000D03*
X158853400Y-86370000D03*
X163853400Y-88370000D03*
X158853400Y-88370000D03*
X163853400Y-90370000D03*
X158853400Y-90370000D03*
X163853400Y-92370000D03*
X158853400Y-92370000D03*
M02*
