%TF.GenerationSoftware,KiCad,Pcbnew,7.0.10*%
%TF.CreationDate,2025-01-08T07:23:32-05:00*%
%TF.ProjectId,PostAlertBaseStationV6,506f7374-416c-4657-9274-426173655374,5.0*%
%TF.SameCoordinates,Original*%
%TF.FileFunction,Paste,Top*%
%TF.FilePolarity,Positive*%
%FSLAX46Y46*%
G04 Gerber Fmt 4.6, Leading zero omitted, Abs format (unit mm)*
G04 Created by KiCad (PCBNEW 7.0.10) date 2025-01-08 07:23:32*
%MOMM*%
%LPD*%
G01*
G04 APERTURE LIST*
G04 Aperture macros list*
%AMRoundRect*
0 Rectangle with rounded corners*
0 $1 Rounding radius*
0 $2 $3 $4 $5 $6 $7 $8 $9 X,Y pos of 4 corners*
0 Add a 4 corners polygon primitive as box body*
4,1,4,$2,$3,$4,$5,$6,$7,$8,$9,$2,$3,0*
0 Add four circle primitives for the rounded corners*
1,1,$1+$1,$2,$3*
1,1,$1+$1,$4,$5*
1,1,$1+$1,$6,$7*
1,1,$1+$1,$8,$9*
0 Add four rect primitives between the rounded corners*
20,1,$1+$1,$2,$3,$4,$5,0*
20,1,$1+$1,$4,$5,$6,$7,0*
20,1,$1+$1,$6,$7,$8,$9,0*
20,1,$1+$1,$8,$9,$2,$3,0*%
G04 Aperture macros list end*
%ADD10RoundRect,0.100000X0.100000X0.575000X-0.100000X0.575000X-0.100000X-0.575000X0.100000X-0.575000X0*%
%ADD11O,0.900000X1.600000*%
%ADD12RoundRect,0.250000X0.550000X0.450000X-0.550000X0.450000X-0.550000X-0.450000X0.550000X-0.450000X0*%
%ADD13RoundRect,0.250000X0.700000X0.700000X-0.700000X0.700000X-0.700000X-0.700000X0.700000X-0.700000X0*%
%ADD14RoundRect,0.218750X-0.256250X0.218750X-0.256250X-0.218750X0.256250X-0.218750X0.256250X0.218750X0*%
%ADD15RoundRect,0.225000X-0.250000X0.225000X-0.250000X-0.225000X0.250000X-0.225000X0.250000X0.225000X0*%
%ADD16RoundRect,0.225000X-0.225000X-0.250000X0.225000X-0.250000X0.225000X0.250000X-0.225000X0.250000X0*%
%ADD17RoundRect,0.250000X-0.475000X0.250000X-0.475000X-0.250000X0.475000X-0.250000X0.475000X0.250000X0*%
%ADD18RoundRect,0.200000X0.200000X0.275000X-0.200000X0.275000X-0.200000X-0.275000X0.200000X-0.275000X0*%
%ADD19RoundRect,0.225000X0.250000X-0.225000X0.250000X0.225000X-0.250000X0.225000X-0.250000X-0.225000X0*%
%ADD20RoundRect,0.150000X-0.150000X0.587500X-0.150000X-0.587500X0.150000X-0.587500X0.150000X0.587500X0*%
%ADD21RoundRect,0.200000X-0.275000X0.200000X-0.275000X-0.200000X0.275000X-0.200000X0.275000X0.200000X0*%
%ADD22R,0.900000X1.500000*%
%ADD23R,4.000000X4.000000*%
%ADD24R,1.500000X2.000000*%
%ADD25R,3.800000X2.000000*%
%ADD26RoundRect,0.317500X0.317500X-1.157500X0.317500X1.157500X-0.317500X1.157500X-0.317500X-1.157500X0*%
%ADD27RoundRect,0.200000X0.275000X-0.200000X0.275000X0.200000X-0.275000X0.200000X-0.275000X-0.200000X0*%
%ADD28RoundRect,0.250000X0.475000X-0.250000X0.475000X0.250000X-0.475000X0.250000X-0.475000X-0.250000X0*%
%ADD29R,0.700000X0.700000*%
%ADD30RoundRect,0.225000X0.225000X0.250000X-0.225000X0.250000X-0.225000X-0.250000X0.225000X-0.250000X0*%
%ADD31RoundRect,0.250000X-0.250000X-0.475000X0.250000X-0.475000X0.250000X0.475000X-0.250000X0.475000X0*%
%ADD32RoundRect,0.218750X-0.218750X-0.256250X0.218750X-0.256250X0.218750X0.256250X-0.218750X0.256250X0*%
%ADD33R,2.400000X0.740000*%
G04 APERTURE END LIST*
D10*
%TO.C,J5*%
X135134400Y-60693000D03*
X134484400Y-60693000D03*
X133834400Y-60693000D03*
X133184400Y-60693000D03*
X132534400Y-60693000D03*
D11*
X137134400Y-58018000D03*
D12*
X137034400Y-60468000D03*
D13*
X135034400Y-58018000D03*
X132634400Y-58018000D03*
D12*
X130634400Y-60468000D03*
D11*
X130534400Y-58018000D03*
%TD*%
D14*
%TO.C,D4*%
X156059400Y-65739500D03*
X156059400Y-67314500D03*
%TD*%
D15*
%TO.C,C9*%
X109526600Y-92218800D03*
X109526600Y-93768800D03*
%TD*%
D16*
%TO.C,C5*%
X141695400Y-65638000D03*
X143245400Y-65638000D03*
%TD*%
D17*
%TO.C,C2*%
X135866400Y-67863000D03*
X135866400Y-69763000D03*
%TD*%
D18*
%TO.C,R8*%
X117006400Y-100690000D03*
X115356400Y-100690000D03*
%TD*%
D19*
%TO.C,C3*%
X146280400Y-74541000D03*
X146280400Y-72991000D03*
%TD*%
D20*
%TO.C,Q2*%
X107352400Y-103562500D03*
X105452400Y-103562500D03*
X106402400Y-105437500D03*
%TD*%
D21*
%TO.C,R4*%
X130024400Y-102354200D03*
X130024400Y-104004200D03*
%TD*%
D22*
%TO.C,U1*%
X108771000Y-88891400D03*
X110271000Y-88891400D03*
X111771000Y-88891400D03*
X113271000Y-88891400D03*
X114771000Y-88891400D03*
X116271000Y-88891400D03*
X117771000Y-88891400D03*
X119271000Y-88891400D03*
X120771000Y-88891400D03*
X120771000Y-71391400D03*
X119271000Y-71391400D03*
X117771000Y-71391400D03*
X116271000Y-71391400D03*
X114771000Y-71391400D03*
X113271000Y-71391400D03*
X111771000Y-71391400D03*
X110271000Y-71391400D03*
X108771000Y-71391400D03*
D23*
X115381000Y-79041400D03*
%TD*%
D24*
%TO.C,U3*%
X143881400Y-68203000D03*
X141581400Y-68203000D03*
D25*
X141581400Y-74503000D03*
D24*
X139281400Y-68203000D03*
%TD*%
D26*
%TO.C,U2*%
X130898400Y-93356000D03*
X132898400Y-93356000D03*
X134898400Y-93356000D03*
X136898400Y-93356000D03*
X138898400Y-93356000D03*
X140898400Y-93356000D03*
X142898400Y-93356000D03*
X144898400Y-93356000D03*
X144898400Y-78306000D03*
X142898400Y-78306000D03*
X140898400Y-78306000D03*
X138898400Y-78306000D03*
X136898400Y-78306000D03*
X134898400Y-78306000D03*
X132898400Y-78306000D03*
X130898400Y-78306000D03*
%TD*%
D27*
%TO.C,R7*%
X153773400Y-68749000D03*
X153773400Y-67099000D03*
%TD*%
D28*
%TO.C,C6*%
X134723400Y-75417000D03*
X134723400Y-73517000D03*
%TD*%
D29*
%TO.C,D1*%
X133952600Y-102315000D03*
X132852600Y-102315000D03*
X132852600Y-104145000D03*
X133952600Y-104145000D03*
%TD*%
D28*
%TO.C,C4*%
X150979400Y-70271000D03*
X150979400Y-68371000D03*
%TD*%
D30*
%TO.C,C13*%
X111241400Y-103357000D03*
X109691400Y-103357000D03*
%TD*%
D19*
%TO.C,C7*%
X136628400Y-75430000D03*
X136628400Y-73880000D03*
%TD*%
%TO.C,C17*%
X158345400Y-67302000D03*
X158345400Y-65752000D03*
%TD*%
D21*
%TO.C,R5*%
X126112800Y-106164200D03*
X126112800Y-107814200D03*
%TD*%
D27*
%TO.C,R3*%
X124436400Y-102912000D03*
X124436400Y-101262000D03*
%TD*%
D31*
%TO.C,C10*%
X136961400Y-104079500D03*
X138861400Y-104079500D03*
%TD*%
D27*
%TO.C,R2*%
X126722400Y-102785000D03*
X126722400Y-101135000D03*
%TD*%
D17*
%TO.C,C8*%
X111965000Y-92145400D03*
X111965000Y-94045400D03*
%TD*%
D14*
%TO.C,D2*%
X128602000Y-107014500D03*
X128602000Y-108589500D03*
%TD*%
D30*
%TO.C,C16*%
X121020400Y-65866600D03*
X119470400Y-65866600D03*
%TD*%
D18*
%TO.C,R6*%
X121070400Y-67543000D03*
X119420400Y-67543000D03*
%TD*%
D16*
%TO.C,C12*%
X137123400Y-101909200D03*
X138673400Y-101909200D03*
%TD*%
D32*
%TO.C,L1*%
X147778900Y-74528000D03*
X149353900Y-74528000D03*
%TD*%
D15*
%TO.C,C11*%
X117959400Y-96105000D03*
X117959400Y-97655000D03*
%TD*%
D32*
%TO.C,D3*%
X119457900Y-64063200D03*
X121032900Y-64063200D03*
%TD*%
D19*
%TO.C,C19*%
X150852400Y-74414000D03*
X150852400Y-72864000D03*
%TD*%
D15*
%TO.C,C15*%
X127154200Y-111941600D03*
X127154200Y-113491600D03*
%TD*%
D19*
%TO.C,C1*%
X139168400Y-65778000D03*
X139168400Y-64228000D03*
%TD*%
D33*
%TO.C,J2*%
X125280400Y-69575000D03*
X129180400Y-69575000D03*
X125280400Y-70845000D03*
X129180400Y-70845000D03*
X125280400Y-72115000D03*
X129180400Y-72115000D03*
%TD*%
D27*
%TO.C,R1*%
X114403400Y-93260000D03*
X114403400Y-91610000D03*
%TD*%
M02*
