%TF.GenerationSoftware,KiCad,Pcbnew,7.0.10*%
%TF.CreationDate,2025-01-08T07:23:32-05:00*%
%TF.ProjectId,PostAlertBaseStationV6,506f7374-416c-4657-9274-426173655374,5.0*%
%TF.SameCoordinates,Original*%
%TF.FileFunction,Legend,Bot*%
%TF.FilePolarity,Positive*%
%FSLAX46Y46*%
G04 Gerber Fmt 4.6, Leading zero omitted, Abs format (unit mm)*
G04 Created by KiCad (PCBNEW 7.0.10) date 2025-01-08 07:23:32*
%MOMM*%
%LPD*%
G01*
G04 APERTURE LIST*
%ADD10C,0.350000*%
%ADD11O,0.500000X1.200000*%
G04 APERTURE END LIST*
D10*
X127230400Y-86339000D03*
X113260400Y-73258000D03*
X119737400Y-98912000D03*
X160885400Y-94721000D03*
X144629400Y-73004000D03*
X163806400Y-72115000D03*
X114640163Y-64200000D03*
X151614400Y-76814000D03*
X124817400Y-77068000D03*
X145264400Y-65511000D03*
X146788400Y-93324000D03*
X124817400Y-78719000D03*
X119508800Y-80319200D03*
X151868400Y-64114000D03*
X149074400Y-68178000D03*
X127230400Y-70845000D03*
X160377400Y-72115000D03*
X126976400Y-84434000D03*
X105513400Y-101960000D03*
X139168400Y-62844000D03*
X128881400Y-93578000D03*
X161290000Y-59690000D03*
X163425400Y-94721000D03*
X153519400Y-72115000D03*
X144883400Y-96118000D03*
X151614400Y-87609000D03*
X117959400Y-99166000D03*
X127205000Y-110837000D03*
X142978400Y-81132000D03*
X131675568Y-102290368D03*
X115521000Y-75874200D03*
X131548400Y-62336000D03*
X105410000Y-115570000D03*
X144883400Y-90530000D03*
X143740400Y-63860000D03*
X155297400Y-94721000D03*
X109704400Y-104627000D03*
X137517400Y-63987000D03*
X130786400Y-73639000D03*
X119610400Y-84307000D03*
X105410000Y-59690000D03*
X141708400Y-76179000D03*
X130913400Y-91038000D03*
X158218400Y-94721000D03*
X119585000Y-77169600D03*
X151868400Y-97134000D03*
X146534400Y-76052000D03*
X134723400Y-71988000D03*
X110644200Y-93959000D03*
X114530400Y-97261000D03*
X146026400Y-68178000D03*
X156948400Y-72115000D03*
X161290000Y-115570000D03*
X151614400Y-83672000D03*
X111939600Y-79074600D03*
X143867400Y-76052000D03*
X120829600Y-90403000D03*
X143867400Y-70210000D03*
X148439400Y-73004000D03*
X119559600Y-78820600D03*
X124817400Y-80370000D03*
X151614400Y-79989000D03*
X151487400Y-91800000D03*
X135993400Y-71226000D03*
X157329400Y-68940000D03*
X115444800Y-82144900D03*
X122559900Y-97007000D03*
X122785400Y-68686000D03*
X121539000Y-93832000D03*
X120880400Y-98277000D03*
X120753400Y-74756600D03*
X123547400Y-82148000D03*
X124690400Y-83418000D03*
X121134400Y-91546000D03*
X116625900Y-93387500D03*
X123039400Y-73258000D03*
X123445900Y-95610000D03*
X126115900Y-87736000D03*
X123394900Y-75445500D03*
X117979400Y-61153000D03*
X124979400Y-61153000D03*
X119229400Y-58653000D03*
X123729400Y-58653000D03*
D11*
X137134400Y-58018000D03*
X130534400Y-58018000D03*
D10*
X113040000Y-110490000D03*
X120640000Y-110490000D03*
X137009400Y-97769000D03*
X134469400Y-97769000D03*
X131929400Y-97769000D03*
X129389400Y-97769000D03*
X141982400Y-61210000D03*
X148982400Y-61210000D03*
X143232400Y-58710000D03*
X147732400Y-58710000D03*
X135561600Y-106989200D03*
X135561600Y-113489200D03*
X131061600Y-106989200D03*
X131061600Y-113489200D03*
X163853400Y-74370000D03*
X163853400Y-76370000D03*
X158853400Y-76370000D03*
X163853400Y-78370000D03*
X158853400Y-78370000D03*
X163853400Y-80370000D03*
X158853400Y-80370000D03*
X163853400Y-82370000D03*
X158853400Y-82370000D03*
X163853400Y-84370000D03*
X158853400Y-84370000D03*
X163853400Y-86370000D03*
X158853400Y-86370000D03*
X163853400Y-88370000D03*
X158853400Y-88370000D03*
X163853400Y-90370000D03*
X158853400Y-90370000D03*
X163853400Y-92370000D03*
X158853400Y-92370000D03*
M02*
