M48
; DRILL file {KiCad 7.0.10} date Wed Jan  8 07:23:32 2025
; FORMAT={-:-/ absolute / metric / decimal}
; #@! TF.CreationDate,2025-01-08T07:23:32-05:00
; #@! TF.GenerationSoftware,Kicad,Pcbnew,7.0.10
; #@! TF.FileFunction,Plated,1,2,PTH
FMAT,2
METRIC
; #@! TA.AperFunction,Plated,PTH,ViaDrill
T1C0.400
; #@! TA.AperFunction,Plated,PTH,ComponentDrill
T2C0.400
; #@! TA.AperFunction,Plated,PTH,ComponentDrill
T3C0.500
; #@! TA.AperFunction,Plated,PTH,ComponentDrill
T4C1.000
; #@! TA.AperFunction,Plated,PTH,ComponentDrill
T5C1.100
; #@! TA.AperFunction,Plated,PTH,ComponentDrill
T6C1.300
; #@! TA.AperFunction,Plated,PTH,ViaDrill
T7C2.540
; #@! TA.AperFunction,Plated,PTH,ViaDrill
T8C5.080
%
G90
G05
T1
X105.513Y-101.96
X109.704Y-104.627
X110.644Y-93.959
X111.94Y-79.075
X113.26Y-73.258
X115.445Y-82.145
X115.521Y-75.874
X116.626Y-93.388
X117.959Y-99.166
X119.509Y-80.319
X119.56Y-78.821
X119.585Y-77.17
X119.61Y-84.307
X119.737Y-98.912
X120.753Y-74.757
X120.83Y-90.403
X120.88Y-98.277
X121.134Y-91.546
X121.539Y-93.832
X122.56Y-97.007
X122.785Y-68.686
X123.039Y-73.258
X123.395Y-75.445
X123.446Y-95.61
X123.547Y-82.148
X124.69Y-83.418
X124.817Y-77.068
X124.817Y-78.719
X124.817Y-80.37
X126.116Y-87.736
X126.976Y-84.434
X127.205Y-110.837
X127.23Y-70.845
X127.23Y-86.339
X128.881Y-93.578
X130.786Y-73.639
X130.913Y-91.038
X131.548Y-62.336
X131.676Y-102.29
X134.723Y-71.988
X135.993Y-71.226
X137.517Y-63.987
X139.168Y-62.844
X141.708Y-76.179
X142.978Y-81.132
X143.74Y-63.86
X143.867Y-70.21
X143.867Y-76.052
X144.629Y-73.004
X144.883Y-90.53
X144.883Y-96.118
X145.264Y-65.511
X146.026Y-68.178
X146.534Y-76.052
X146.788Y-93.324
X148.439Y-73.004
X149.074Y-68.178
X151.487Y-91.8
X151.614Y-76.814
X151.614Y-79.989
X151.614Y-83.672
X151.614Y-87.609
X153.519Y-72.115
X155.297Y-94.721
X156.948Y-72.115
X157.329Y-68.94
X158.218Y-94.721
X160.377Y-72.115
X160.885Y-94.721
X163.425Y-94.721
X163.806Y-72.115
T2
X158.853Y-76.37
X158.853Y-78.37
X158.853Y-80.37
X158.853Y-82.37
X158.853Y-84.37
X158.853Y-86.37
X158.853Y-88.37
X158.853Y-90.37
X158.853Y-92.37
X163.853Y-74.37
X163.853Y-76.37
X163.853Y-78.37
X163.853Y-80.37
X163.853Y-82.37
X163.853Y-84.37
X163.853Y-86.37
X163.853Y-88.37
X163.853Y-90.37
X163.853Y-92.37
T4
X113.04Y-110.49
X119.229Y-58.653
X120.64Y-110.49
X123.729Y-58.653
X129.389Y-97.769
X131.929Y-97.769
X134.469Y-97.769
X137.009Y-97.769
X143.232Y-58.71
X147.732Y-58.71
T5
X131.062Y-106.989
X131.062Y-113.489
X135.562Y-106.989
X135.562Y-113.489
T6
X117.979Y-61.153
X124.979Y-61.153
X141.982Y-61.21
X148.982Y-61.21
T7
X114.53Y-97.261
X114.64Y-64.2
X151.868Y-64.114
X151.868Y-97.134
T8
X105.41Y-59.69
X105.41Y-115.57
X161.29Y-59.69
X161.29Y-115.57
T3
G00X130.534Y-57.668
M15
G01X130.534Y-58.368
M16
G05
G00X137.134Y-57.668
M15
G01X137.134Y-58.368
M16
G05
M30
