M48
METRIC,TZ
T1C0.400
T2C0.400
T3C0.500
T4C1.000
T5C1.100
T6C1.300
T7C2.540
T8C5.080
%
G90
G05
T1
X3913Y17420
X8104Y14753
X9044Y25421
X10340Y40305
X11660Y46122
X13845Y37235
X13921Y43506
X15026Y25993
X16359Y20214
X17909Y39061
X17960Y40559
X17985Y42210
X18010Y35073
X18137Y20468
X19153Y44623
X19230Y28977
X19280Y21103
X19534Y27834
X19939Y25548
X20960Y22373
X21185Y50694
X21439Y46122
X21795Y43935
X21846Y23770
X21947Y37232
X23090Y35962
X23217Y42312
X23217Y40661
X23217Y39010
X24516Y31644
X25376Y34946
X25605Y8543
X25630Y48535
X25630Y33041
X27281Y25802
X29186Y45741
X29313Y28342
X29948Y57044
X30076Y17090
X33123Y47392
X34393Y48154
X35917Y55393
X37568Y56536
X40108Y43201
X41378Y38248
X42140Y55520
X42267Y49170
X42267Y43328
X43029Y46376
X43283Y28850
X43283Y23262
X43664Y53869
X44426Y51202
X44934Y43328
X45188Y26056
X46839Y46376
X47474Y51202
X49887Y27580
X50014Y42566
X50014Y39391
X50014Y35708
X50014Y31771
X51919Y47265
X53697Y24659
X55348Y47265
X55729Y50440
X56618Y24659
X58777Y47265
X59285Y24659
X61825Y24659
X62206Y47265
T2
X57253Y43010
X57253Y41010
X57253Y39010
X57253Y37010
X57253Y35010
X57253Y33010
X57253Y31010
X57253Y29010
X57253Y27010
X62253Y45010
X62253Y43010
X62253Y41010
X62253Y39010
X62253Y37010
X62253Y35010
X62253Y33010
X62253Y31010
X62253Y29010
X62253Y27010
T4
X11440Y8890
X17629Y60727
X19040Y8890
X22129Y60727
X27789Y21611
X30329Y21611
X32869Y21611
X35409Y21611
X41632Y60670
X46132Y60670
T5
X29462Y12391
X29462Y5891
X33962Y12391
X33962Y5891
T6
X16379Y58227
X23379Y58227
X40382Y58170
X47382Y58170
T7
X12930Y22119
X13040Y55180
X50268Y55266
X50268Y22246
T8
X3810Y59690
X3810Y3810
X59690Y59690
X59690Y3810
T3
G00X28934Y61712
M15
G01X28934Y61012
M16
G05
G00X35534Y61712
M15
G01X35534Y61012
M16
G05
M30
