%TF.GenerationSoftware,KiCad,Pcbnew,7.0.10*%
%TF.CreationDate,2025-01-08T07:23:31-05:00*%
%TF.ProjectId,PostAlertBaseStationV6,506f7374-416c-4657-9274-426173655374,5.0*%
%TF.SameCoordinates,Original*%
%TF.FileFunction,Legend,Top*%
%TF.FilePolarity,Positive*%
%FSLAX46Y46*%
G04 Gerber Fmt 4.6, Leading zero omitted, Abs format (unit mm)*
G04 Created by KiCad (PCBNEW 7.0.10) date 2025-01-08 07:23:31*
%MOMM*%
%LPD*%
G01*
G04 APERTURE LIST*
%ADD10C,0.525000*%
%ADD11C,0.475000*%
%ADD12C,0.250000*%
%ADD13C,0.150000*%
%ADD14C,0.120000*%
%ADD15C,0.350000*%
%ADD16O,0.500000X1.200000*%
G04 APERTURE END LIST*
D10*
X33918243Y17801000D02*
G75*
G03*
X33393243Y17801000I-262500J0D01*
G01*
X33393243Y17801000D02*
G75*
G03*
X33918243Y17801000I262500J0D01*
G01*
D11*
X48473900Y40788000D02*
G75*
G03*
X47998900Y40788000I-237500J0D01*
G01*
X47998900Y40788000D02*
G75*
G03*
X48473900Y40788000I237500J0D01*
G01*
D12*
X30659600Y17775600D02*
X32894800Y17775600D01*
D10*
X23225900Y51583000D02*
G75*
G03*
X22700900Y51583000I-262500J0D01*
G01*
X22700900Y51583000D02*
G75*
G03*
X23225900Y51583000I262500J0D01*
G01*
D13*
X36904988Y8850562D02*
X36809750Y8898181D01*
X36809750Y8898181D02*
X36666893Y8898181D01*
X36666893Y8898181D02*
X36524036Y8850562D01*
X36524036Y8850562D02*
X36428798Y8755324D01*
X36428798Y8755324D02*
X36381179Y8660086D01*
X36381179Y8660086D02*
X36333560Y8469610D01*
X36333560Y8469610D02*
X36333560Y8326753D01*
X36333560Y8326753D02*
X36381179Y8136277D01*
X36381179Y8136277D02*
X36428798Y8041039D01*
X36428798Y8041039D02*
X36524036Y7945800D01*
X36524036Y7945800D02*
X36666893Y7898181D01*
X36666893Y7898181D02*
X36762131Y7898181D01*
X36762131Y7898181D02*
X36904988Y7945800D01*
X36904988Y7945800D02*
X36952607Y7993420D01*
X36952607Y7993420D02*
X36952607Y8326753D01*
X36952607Y8326753D02*
X36762131Y8326753D01*
X37524036Y7898181D02*
X37428798Y7945800D01*
X37428798Y7945800D02*
X37381179Y7993420D01*
X37381179Y7993420D02*
X37333560Y8088658D01*
X37333560Y8088658D02*
X37333560Y8374372D01*
X37333560Y8374372D02*
X37381179Y8469610D01*
X37381179Y8469610D02*
X37428798Y8517229D01*
X37428798Y8517229D02*
X37524036Y8564848D01*
X37524036Y8564848D02*
X37666893Y8564848D01*
X37666893Y8564848D02*
X37762131Y8517229D01*
X37762131Y8517229D02*
X37809750Y8469610D01*
X37809750Y8469610D02*
X37857369Y8374372D01*
X37857369Y8374372D02*
X37857369Y8088658D01*
X37857369Y8088658D02*
X37809750Y7993420D01*
X37809750Y7993420D02*
X37762131Y7945800D01*
X37762131Y7945800D02*
X37666893Y7898181D01*
X37666893Y7898181D02*
X37524036Y7898181D01*
X38143084Y8564848D02*
X38524036Y8564848D01*
X38285941Y8898181D02*
X38285941Y8041039D01*
X38285941Y8041039D02*
X38333560Y7945800D01*
X38333560Y7945800D02*
X38428798Y7898181D01*
X38428798Y7898181D02*
X38524036Y7898181D01*
X38857370Y7898181D02*
X38857370Y8898181D01*
X38857370Y8898181D02*
X39190703Y8183896D01*
X39190703Y8183896D02*
X39524036Y8898181D01*
X39524036Y8898181D02*
X39524036Y7898181D01*
X40428798Y7898181D02*
X40428798Y8421991D01*
X40428798Y8421991D02*
X40381179Y8517229D01*
X40381179Y8517229D02*
X40285941Y8564848D01*
X40285941Y8564848D02*
X40095465Y8564848D01*
X40095465Y8564848D02*
X40000227Y8517229D01*
X40428798Y7945800D02*
X40333560Y7898181D01*
X40333560Y7898181D02*
X40095465Y7898181D01*
X40095465Y7898181D02*
X40000227Y7945800D01*
X40000227Y7945800D02*
X39952608Y8041039D01*
X39952608Y8041039D02*
X39952608Y8136277D01*
X39952608Y8136277D02*
X40000227Y8231515D01*
X40000227Y8231515D02*
X40095465Y8279134D01*
X40095465Y8279134D02*
X40333560Y8279134D01*
X40333560Y8279134D02*
X40428798Y8326753D01*
X40904989Y7898181D02*
X40904989Y8564848D01*
X40904989Y8898181D02*
X40857370Y8850562D01*
X40857370Y8850562D02*
X40904989Y8802943D01*
X40904989Y8802943D02*
X40952608Y8850562D01*
X40952608Y8850562D02*
X40904989Y8898181D01*
X40904989Y8898181D02*
X40904989Y8802943D01*
X41524036Y7898181D02*
X41428798Y7945800D01*
X41428798Y7945800D02*
X41381179Y8041039D01*
X41381179Y8041039D02*
X41381179Y8898181D01*
X26008219Y59920780D02*
X25008219Y59920780D01*
X25008219Y59920780D02*
X25008219Y60301732D01*
X25008219Y60301732D02*
X25055838Y60396970D01*
X25055838Y60396970D02*
X25103457Y60444589D01*
X25103457Y60444589D02*
X25198695Y60492208D01*
X25198695Y60492208D02*
X25341552Y60492208D01*
X25341552Y60492208D02*
X25436790Y60444589D01*
X25436790Y60444589D02*
X25484409Y60396970D01*
X25484409Y60396970D02*
X25532028Y60301732D01*
X25532028Y60301732D02*
X25532028Y59920780D01*
X26008219Y61349351D02*
X25484409Y61349351D01*
X25484409Y61349351D02*
X25389171Y61301732D01*
X25389171Y61301732D02*
X25341552Y61206494D01*
X25341552Y61206494D02*
X25341552Y61016018D01*
X25341552Y61016018D02*
X25389171Y60920780D01*
X25960600Y61349351D02*
X26008219Y61254113D01*
X26008219Y61254113D02*
X26008219Y61016018D01*
X26008219Y61016018D02*
X25960600Y60920780D01*
X25960600Y60920780D02*
X25865361Y60873161D01*
X25865361Y60873161D02*
X25770123Y60873161D01*
X25770123Y60873161D02*
X25674885Y60920780D01*
X25674885Y60920780D02*
X25627266Y61016018D01*
X25627266Y61016018D02*
X25627266Y61254113D01*
X25627266Y61254113D02*
X25579647Y61349351D01*
X26008219Y61825542D02*
X25341552Y61825542D01*
X25008219Y61825542D02*
X25055838Y61777923D01*
X25055838Y61777923D02*
X25103457Y61825542D01*
X25103457Y61825542D02*
X25055838Y61873161D01*
X25055838Y61873161D02*
X25008219Y61825542D01*
X25008219Y61825542D02*
X25103457Y61825542D01*
X26008219Y62301732D02*
X25341552Y62301732D01*
X25532028Y62301732D02*
X25436790Y62349351D01*
X25436790Y62349351D02*
X25389171Y62396970D01*
X25389171Y62396970D02*
X25341552Y62492208D01*
X25341552Y62492208D02*
X25341552Y62587446D01*
X49915980Y58460208D02*
X49963600Y58412589D01*
X49963600Y58412589D02*
X50011219Y58269732D01*
X50011219Y58269732D02*
X50011219Y58174494D01*
X50011219Y58174494D02*
X49963600Y58031637D01*
X49963600Y58031637D02*
X49868361Y57936399D01*
X49868361Y57936399D02*
X49773123Y57888780D01*
X49773123Y57888780D02*
X49582647Y57841161D01*
X49582647Y57841161D02*
X49439790Y57841161D01*
X49439790Y57841161D02*
X49249314Y57888780D01*
X49249314Y57888780D02*
X49154076Y57936399D01*
X49154076Y57936399D02*
X49058838Y58031637D01*
X49058838Y58031637D02*
X49011219Y58174494D01*
X49011219Y58174494D02*
X49011219Y58269732D01*
X49011219Y58269732D02*
X49058838Y58412589D01*
X49058838Y58412589D02*
X49106457Y58460208D01*
X50011219Y59031637D02*
X49963600Y58936399D01*
X49963600Y58936399D02*
X49915980Y58888780D01*
X49915980Y58888780D02*
X49820742Y58841161D01*
X49820742Y58841161D02*
X49535028Y58841161D01*
X49535028Y58841161D02*
X49439790Y58888780D01*
X49439790Y58888780D02*
X49392171Y58936399D01*
X49392171Y58936399D02*
X49344552Y59031637D01*
X49344552Y59031637D02*
X49344552Y59174494D01*
X49344552Y59174494D02*
X49392171Y59269732D01*
X49392171Y59269732D02*
X49439790Y59317351D01*
X49439790Y59317351D02*
X49535028Y59364970D01*
X49535028Y59364970D02*
X49820742Y59364970D01*
X49820742Y59364970D02*
X49915980Y59317351D01*
X49915980Y59317351D02*
X49963600Y59269732D01*
X49963600Y59269732D02*
X50011219Y59174494D01*
X50011219Y59174494D02*
X50011219Y59031637D01*
X49344552Y59793542D02*
X50011219Y59793542D01*
X49439790Y59793542D02*
X49392171Y59841161D01*
X49392171Y59841161D02*
X49344552Y59936399D01*
X49344552Y59936399D02*
X49344552Y60079256D01*
X49344552Y60079256D02*
X49392171Y60174494D01*
X49392171Y60174494D02*
X49487409Y60222113D01*
X49487409Y60222113D02*
X50011219Y60222113D01*
X49344552Y60555447D02*
X49344552Y60936399D01*
X50011219Y60698304D02*
X49154076Y60698304D01*
X49154076Y60698304D02*
X49058838Y60745923D01*
X49058838Y60745923D02*
X49011219Y60841161D01*
X49011219Y60841161D02*
X49011219Y60936399D01*
X50011219Y61269733D02*
X49344552Y61269733D01*
X49011219Y61269733D02*
X49058838Y61222114D01*
X49058838Y61222114D02*
X49106457Y61269733D01*
X49106457Y61269733D02*
X49058838Y61317352D01*
X49058838Y61317352D02*
X49011219Y61269733D01*
X49011219Y61269733D02*
X49106457Y61269733D01*
X49344552Y62174494D02*
X50154076Y62174494D01*
X50154076Y62174494D02*
X50249314Y62126875D01*
X50249314Y62126875D02*
X50296933Y62079256D01*
X50296933Y62079256D02*
X50344552Y61984018D01*
X50344552Y61984018D02*
X50344552Y61841161D01*
X50344552Y61841161D02*
X50296933Y61745923D01*
X49963600Y62174494D02*
X50011219Y62079256D01*
X50011219Y62079256D02*
X50011219Y61888780D01*
X50011219Y61888780D02*
X49963600Y61793542D01*
X49963600Y61793542D02*
X49915980Y61745923D01*
X49915980Y61745923D02*
X49820742Y61698304D01*
X49820742Y61698304D02*
X49535028Y61698304D01*
X49535028Y61698304D02*
X49439790Y61745923D01*
X49439790Y61745923D02*
X49392171Y61793542D01*
X49392171Y61793542D02*
X49344552Y61888780D01*
X49344552Y61888780D02*
X49344552Y62079256D01*
X49344552Y62079256D02*
X49392171Y62174494D01*
X7593388Y28167381D02*
X7021960Y28167381D01*
X7307674Y28167381D02*
X7307674Y29167381D01*
X7307674Y29167381D02*
X7212436Y29024524D01*
X7212436Y29024524D02*
X7117198Y28929286D01*
X7117198Y28929286D02*
X7021960Y28881667D01*
X30253369Y56269181D02*
X29777179Y56269181D01*
X29777179Y56269181D02*
X29729560Y55792991D01*
X29729560Y55792991D02*
X29777179Y55840610D01*
X29777179Y55840610D02*
X29872417Y55888229D01*
X29872417Y55888229D02*
X30110512Y55888229D01*
X30110512Y55888229D02*
X30205750Y55840610D01*
X30205750Y55840610D02*
X30253369Y55792991D01*
X30253369Y55792991D02*
X30300988Y55697753D01*
X30300988Y55697753D02*
X30300988Y55459658D01*
X30300988Y55459658D02*
X30253369Y55364420D01*
X30253369Y55364420D02*
X30205750Y55316800D01*
X30205750Y55316800D02*
X30110512Y55269181D01*
X30110512Y55269181D02*
X29872417Y55269181D01*
X29872417Y55269181D02*
X29777179Y55316800D01*
X29777179Y55316800D02*
X29729560Y55364420D01*
X30586703Y56269181D02*
X30920036Y55269181D01*
X30920036Y55269181D02*
X31253369Y56269181D01*
X31586703Y55269181D02*
X31586703Y56269181D01*
X31586703Y56269181D02*
X31824798Y56269181D01*
X31824798Y56269181D02*
X31967655Y56221562D01*
X31967655Y56221562D02*
X32062893Y56126324D01*
X32062893Y56126324D02*
X32110512Y56031086D01*
X32110512Y56031086D02*
X32158131Y55840610D01*
X32158131Y55840610D02*
X32158131Y55697753D01*
X32158131Y55697753D02*
X32110512Y55507277D01*
X32110512Y55507277D02*
X32062893Y55412039D01*
X32062893Y55412039D02*
X31967655Y55316800D01*
X31967655Y55316800D02*
X31824798Y55269181D01*
X31824798Y55269181D02*
X31586703Y55269181D01*
X33158131Y55364420D02*
X33110512Y55316800D01*
X33110512Y55316800D02*
X32967655Y55269181D01*
X32967655Y55269181D02*
X32872417Y55269181D01*
X32872417Y55269181D02*
X32729560Y55316800D01*
X32729560Y55316800D02*
X32634322Y55412039D01*
X32634322Y55412039D02*
X32586703Y55507277D01*
X32586703Y55507277D02*
X32539084Y55697753D01*
X32539084Y55697753D02*
X32539084Y55840610D01*
X32539084Y55840610D02*
X32586703Y56031086D01*
X32586703Y56031086D02*
X32634322Y56126324D01*
X32634322Y56126324D02*
X32729560Y56221562D01*
X32729560Y56221562D02*
X32872417Y56269181D01*
X32872417Y56269181D02*
X32967655Y56269181D01*
X32967655Y56269181D02*
X33110512Y56221562D01*
X33110512Y56221562D02*
X33158131Y56173943D01*
X24779693Y2421629D02*
X24732074Y2469248D01*
X24732074Y2469248D02*
X24636836Y2612105D01*
X24636836Y2612105D02*
X24589217Y2707343D01*
X24589217Y2707343D02*
X24541598Y2850200D01*
X24541598Y2850200D02*
X24493979Y3088296D01*
X24493979Y3088296D02*
X24493979Y3278772D01*
X24493979Y3278772D02*
X24541598Y3516867D01*
X24541598Y3516867D02*
X24589217Y3659724D01*
X24589217Y3659724D02*
X24636836Y3754962D01*
X24636836Y3754962D02*
X24732074Y3897820D01*
X24732074Y3897820D02*
X24779693Y3945439D01*
X25732074Y2897820D02*
X25684455Y2850200D01*
X25684455Y2850200D02*
X25541598Y2802581D01*
X25541598Y2802581D02*
X25446360Y2802581D01*
X25446360Y2802581D02*
X25303503Y2850200D01*
X25303503Y2850200D02*
X25208265Y2945439D01*
X25208265Y2945439D02*
X25160646Y3040677D01*
X25160646Y3040677D02*
X25113027Y3231153D01*
X25113027Y3231153D02*
X25113027Y3374010D01*
X25113027Y3374010D02*
X25160646Y3564486D01*
X25160646Y3564486D02*
X25208265Y3659724D01*
X25208265Y3659724D02*
X25303503Y3754962D01*
X25303503Y3754962D02*
X25446360Y3802581D01*
X25446360Y3802581D02*
X25541598Y3802581D01*
X25541598Y3802581D02*
X25684455Y3754962D01*
X25684455Y3754962D02*
X25732074Y3707343D01*
X26065408Y2421629D02*
X26113027Y2469248D01*
X26113027Y2469248D02*
X26208265Y2612105D01*
X26208265Y2612105D02*
X26255884Y2707343D01*
X26255884Y2707343D02*
X26303503Y2850200D01*
X26303503Y2850200D02*
X26351122Y3088296D01*
X26351122Y3088296D02*
X26351122Y3278772D01*
X26351122Y3278772D02*
X26303503Y3516867D01*
X26303503Y3516867D02*
X26255884Y3659724D01*
X26255884Y3659724D02*
X26208265Y3754962D01*
X26208265Y3754962D02*
X26113027Y3897820D01*
X26113027Y3897820D02*
X26065408Y3945439D01*
X27541599Y3707343D02*
X27589218Y3754962D01*
X27589218Y3754962D02*
X27684456Y3802581D01*
X27684456Y3802581D02*
X27922551Y3802581D01*
X27922551Y3802581D02*
X28017789Y3754962D01*
X28017789Y3754962D02*
X28065408Y3707343D01*
X28065408Y3707343D02*
X28113027Y3612105D01*
X28113027Y3612105D02*
X28113027Y3516867D01*
X28113027Y3516867D02*
X28065408Y3374010D01*
X28065408Y3374010D02*
X27493980Y2802581D01*
X27493980Y2802581D02*
X28113027Y2802581D01*
X28732075Y3802581D02*
X28827313Y3802581D01*
X28827313Y3802581D02*
X28922551Y3754962D01*
X28922551Y3754962D02*
X28970170Y3707343D01*
X28970170Y3707343D02*
X29017789Y3612105D01*
X29017789Y3612105D02*
X29065408Y3421629D01*
X29065408Y3421629D02*
X29065408Y3183534D01*
X29065408Y3183534D02*
X29017789Y2993058D01*
X29017789Y2993058D02*
X28970170Y2897820D01*
X28970170Y2897820D02*
X28922551Y2850200D01*
X28922551Y2850200D02*
X28827313Y2802581D01*
X28827313Y2802581D02*
X28732075Y2802581D01*
X28732075Y2802581D02*
X28636837Y2850200D01*
X28636837Y2850200D02*
X28589218Y2897820D01*
X28589218Y2897820D02*
X28541599Y2993058D01*
X28541599Y2993058D02*
X28493980Y3183534D01*
X28493980Y3183534D02*
X28493980Y3421629D01*
X28493980Y3421629D02*
X28541599Y3612105D01*
X28541599Y3612105D02*
X28589218Y3707343D01*
X28589218Y3707343D02*
X28636837Y3754962D01*
X28636837Y3754962D02*
X28732075Y3802581D01*
X29446361Y3707343D02*
X29493980Y3754962D01*
X29493980Y3754962D02*
X29589218Y3802581D01*
X29589218Y3802581D02*
X29827313Y3802581D01*
X29827313Y3802581D02*
X29922551Y3754962D01*
X29922551Y3754962D02*
X29970170Y3707343D01*
X29970170Y3707343D02*
X30017789Y3612105D01*
X30017789Y3612105D02*
X30017789Y3516867D01*
X30017789Y3516867D02*
X29970170Y3374010D01*
X29970170Y3374010D02*
X29398742Y2802581D01*
X29398742Y2802581D02*
X30017789Y2802581D01*
X30874932Y3469248D02*
X30874932Y2802581D01*
X30636837Y3850200D02*
X30398742Y3135915D01*
X30398742Y3135915D02*
X31017789Y3135915D01*
X32732075Y2802581D02*
X32398742Y3278772D01*
X32160647Y2802581D02*
X32160647Y3802581D01*
X32160647Y3802581D02*
X32541599Y3802581D01*
X32541599Y3802581D02*
X32636837Y3754962D01*
X32636837Y3754962D02*
X32684456Y3707343D01*
X32684456Y3707343D02*
X32732075Y3612105D01*
X32732075Y3612105D02*
X32732075Y3469248D01*
X32732075Y3469248D02*
X32684456Y3374010D01*
X32684456Y3374010D02*
X32636837Y3326391D01*
X32636837Y3326391D02*
X32541599Y3278772D01*
X32541599Y3278772D02*
X32160647Y3278772D01*
X33446361Y3802581D02*
X33446361Y3088296D01*
X33446361Y3088296D02*
X33398742Y2945439D01*
X33398742Y2945439D02*
X33303504Y2850200D01*
X33303504Y2850200D02*
X33160647Y2802581D01*
X33160647Y2802581D02*
X33065409Y2802581D01*
X33922552Y2802581D02*
X33922552Y3802581D01*
X33922552Y3326391D02*
X34493980Y3326391D01*
X34493980Y2802581D02*
X34493980Y3802581D01*
X35351123Y2850200D02*
X35255885Y2802581D01*
X35255885Y2802581D02*
X35065409Y2802581D01*
X35065409Y2802581D02*
X34970171Y2850200D01*
X34970171Y2850200D02*
X34922552Y2945439D01*
X34922552Y2945439D02*
X34922552Y3326391D01*
X34922552Y3326391D02*
X34970171Y3421629D01*
X34970171Y3421629D02*
X35065409Y3469248D01*
X35065409Y3469248D02*
X35255885Y3469248D01*
X35255885Y3469248D02*
X35351123Y3421629D01*
X35351123Y3421629D02*
X35398742Y3326391D01*
X35398742Y3326391D02*
X35398742Y3231153D01*
X35398742Y3231153D02*
X34922552Y3135915D01*
X36255885Y3469248D02*
X36255885Y2659724D01*
X36255885Y2659724D02*
X36208266Y2564486D01*
X36208266Y2564486D02*
X36160647Y2516867D01*
X36160647Y2516867D02*
X36065409Y2469248D01*
X36065409Y2469248D02*
X35922552Y2469248D01*
X35922552Y2469248D02*
X35827314Y2516867D01*
X36255885Y2850200D02*
X36160647Y2802581D01*
X36160647Y2802581D02*
X35970171Y2802581D01*
X35970171Y2802581D02*
X35874933Y2850200D01*
X35874933Y2850200D02*
X35827314Y2897820D01*
X35827314Y2897820D02*
X35779695Y2993058D01*
X35779695Y2993058D02*
X35779695Y3278772D01*
X35779695Y3278772D02*
X35827314Y3374010D01*
X35827314Y3374010D02*
X35874933Y3421629D01*
X35874933Y3421629D02*
X35970171Y3469248D01*
X35970171Y3469248D02*
X36160647Y3469248D01*
X36160647Y3469248D02*
X36255885Y3421629D01*
X36874933Y2802581D02*
X36779695Y2850200D01*
X36779695Y2850200D02*
X36732076Y2945439D01*
X36732076Y2945439D02*
X36732076Y3802581D01*
X37636838Y2850200D02*
X37541600Y2802581D01*
X37541600Y2802581D02*
X37351124Y2802581D01*
X37351124Y2802581D02*
X37255886Y2850200D01*
X37255886Y2850200D02*
X37208267Y2945439D01*
X37208267Y2945439D02*
X37208267Y3326391D01*
X37208267Y3326391D02*
X37255886Y3421629D01*
X37255886Y3421629D02*
X37351124Y3469248D01*
X37351124Y3469248D02*
X37541600Y3469248D01*
X37541600Y3469248D02*
X37636838Y3421629D01*
X37636838Y3421629D02*
X37684457Y3326391D01*
X37684457Y3326391D02*
X37684457Y3231153D01*
X37684457Y3231153D02*
X37208267Y3135915D01*
X38113029Y2802581D02*
X38113029Y3469248D01*
X38113029Y3278772D02*
X38160648Y3374010D01*
X38160648Y3374010D02*
X38208267Y3421629D01*
X38208267Y3421629D02*
X38303505Y3469248D01*
X38303505Y3469248D02*
X38398743Y3469248D01*
X39351125Y3802581D02*
X39922553Y3802581D01*
X39636839Y2802581D02*
X39636839Y3802581D01*
X40636839Y2850200D02*
X40541601Y2802581D01*
X40541601Y2802581D02*
X40351125Y2802581D01*
X40351125Y2802581D02*
X40255887Y2850200D01*
X40255887Y2850200D02*
X40208268Y2945439D01*
X40208268Y2945439D02*
X40208268Y3326391D01*
X40208268Y3326391D02*
X40255887Y3421629D01*
X40255887Y3421629D02*
X40351125Y3469248D01*
X40351125Y3469248D02*
X40541601Y3469248D01*
X40541601Y3469248D02*
X40636839Y3421629D01*
X40636839Y3421629D02*
X40684458Y3326391D01*
X40684458Y3326391D02*
X40684458Y3231153D01*
X40684458Y3231153D02*
X40208268Y3135915D01*
X41541601Y2850200D02*
X41446363Y2802581D01*
X41446363Y2802581D02*
X41255887Y2802581D01*
X41255887Y2802581D02*
X41160649Y2850200D01*
X41160649Y2850200D02*
X41113030Y2897820D01*
X41113030Y2897820D02*
X41065411Y2993058D01*
X41065411Y2993058D02*
X41065411Y3278772D01*
X41065411Y3278772D02*
X41113030Y3374010D01*
X41113030Y3374010D02*
X41160649Y3421629D01*
X41160649Y3421629D02*
X41255887Y3469248D01*
X41255887Y3469248D02*
X41446363Y3469248D01*
X41446363Y3469248D02*
X41541601Y3421629D01*
X41970173Y2802581D02*
X41970173Y3802581D01*
X42398744Y2802581D02*
X42398744Y3326391D01*
X42398744Y3326391D02*
X42351125Y3421629D01*
X42351125Y3421629D02*
X42255887Y3469248D01*
X42255887Y3469248D02*
X42113030Y3469248D01*
X42113030Y3469248D02*
X42017792Y3421629D01*
X42017792Y3421629D02*
X41970173Y3374010D01*
X42874935Y3469248D02*
X42874935Y2802581D01*
X42874935Y3374010D02*
X42922554Y3421629D01*
X42922554Y3421629D02*
X43017792Y3469248D01*
X43017792Y3469248D02*
X43160649Y3469248D01*
X43160649Y3469248D02*
X43255887Y3421629D01*
X43255887Y3421629D02*
X43303506Y3326391D01*
X43303506Y3326391D02*
X43303506Y2802581D01*
X43922554Y2802581D02*
X43827316Y2850200D01*
X43827316Y2850200D02*
X43779697Y2897820D01*
X43779697Y2897820D02*
X43732078Y2993058D01*
X43732078Y2993058D02*
X43732078Y3278772D01*
X43732078Y3278772D02*
X43779697Y3374010D01*
X43779697Y3374010D02*
X43827316Y3421629D01*
X43827316Y3421629D02*
X43922554Y3469248D01*
X43922554Y3469248D02*
X44065411Y3469248D01*
X44065411Y3469248D02*
X44160649Y3421629D01*
X44160649Y3421629D02*
X44208268Y3374010D01*
X44208268Y3374010D02*
X44255887Y3278772D01*
X44255887Y3278772D02*
X44255887Y2993058D01*
X44255887Y2993058D02*
X44208268Y2897820D01*
X44208268Y2897820D02*
X44160649Y2850200D01*
X44160649Y2850200D02*
X44065411Y2802581D01*
X44065411Y2802581D02*
X43922554Y2802581D01*
X44827316Y2802581D02*
X44732078Y2850200D01*
X44732078Y2850200D02*
X44684459Y2945439D01*
X44684459Y2945439D02*
X44684459Y3802581D01*
X45351126Y2802581D02*
X45255888Y2850200D01*
X45255888Y2850200D02*
X45208269Y2897820D01*
X45208269Y2897820D02*
X45160650Y2993058D01*
X45160650Y2993058D02*
X45160650Y3278772D01*
X45160650Y3278772D02*
X45208269Y3374010D01*
X45208269Y3374010D02*
X45255888Y3421629D01*
X45255888Y3421629D02*
X45351126Y3469248D01*
X45351126Y3469248D02*
X45493983Y3469248D01*
X45493983Y3469248D02*
X45589221Y3421629D01*
X45589221Y3421629D02*
X45636840Y3374010D01*
X45636840Y3374010D02*
X45684459Y3278772D01*
X45684459Y3278772D02*
X45684459Y2993058D01*
X45684459Y2993058D02*
X45636840Y2897820D01*
X45636840Y2897820D02*
X45589221Y2850200D01*
X45589221Y2850200D02*
X45493983Y2802581D01*
X45493983Y2802581D02*
X45351126Y2802581D01*
X46541602Y3469248D02*
X46541602Y2659724D01*
X46541602Y2659724D02*
X46493983Y2564486D01*
X46493983Y2564486D02*
X46446364Y2516867D01*
X46446364Y2516867D02*
X46351126Y2469248D01*
X46351126Y2469248D02*
X46208269Y2469248D01*
X46208269Y2469248D02*
X46113031Y2516867D01*
X46541602Y2850200D02*
X46446364Y2802581D01*
X46446364Y2802581D02*
X46255888Y2802581D01*
X46255888Y2802581D02*
X46160650Y2850200D01*
X46160650Y2850200D02*
X46113031Y2897820D01*
X46113031Y2897820D02*
X46065412Y2993058D01*
X46065412Y2993058D02*
X46065412Y3278772D01*
X46065412Y3278772D02*
X46113031Y3374010D01*
X46113031Y3374010D02*
X46160650Y3421629D01*
X46160650Y3421629D02*
X46255888Y3469248D01*
X46255888Y3469248D02*
X46446364Y3469248D01*
X46446364Y3469248D02*
X46541602Y3421629D01*
X47017793Y2802581D02*
X47017793Y3469248D01*
X47017793Y3802581D02*
X46970174Y3754962D01*
X46970174Y3754962D02*
X47017793Y3707343D01*
X47017793Y3707343D02*
X47065412Y3754962D01*
X47065412Y3754962D02*
X47017793Y3802581D01*
X47017793Y3802581D02*
X47017793Y3707343D01*
X47874935Y2850200D02*
X47779697Y2802581D01*
X47779697Y2802581D02*
X47589221Y2802581D01*
X47589221Y2802581D02*
X47493983Y2850200D01*
X47493983Y2850200D02*
X47446364Y2945439D01*
X47446364Y2945439D02*
X47446364Y3326391D01*
X47446364Y3326391D02*
X47493983Y3421629D01*
X47493983Y3421629D02*
X47589221Y3469248D01*
X47589221Y3469248D02*
X47779697Y3469248D01*
X47779697Y3469248D02*
X47874935Y3421629D01*
X47874935Y3421629D02*
X47922554Y3326391D01*
X47922554Y3326391D02*
X47922554Y3231153D01*
X47922554Y3231153D02*
X47446364Y3135915D01*
X48303507Y2850200D02*
X48398745Y2802581D01*
X48398745Y2802581D02*
X48589221Y2802581D01*
X48589221Y2802581D02*
X48684459Y2850200D01*
X48684459Y2850200D02*
X48732078Y2945439D01*
X48732078Y2945439D02*
X48732078Y2993058D01*
X48732078Y2993058D02*
X48684459Y3088296D01*
X48684459Y3088296D02*
X48589221Y3135915D01*
X48589221Y3135915D02*
X48446364Y3135915D01*
X48446364Y3135915D02*
X48351126Y3183534D01*
X48351126Y3183534D02*
X48303507Y3278772D01*
X48303507Y3278772D02*
X48303507Y3326391D01*
X48303507Y3326391D02*
X48351126Y3421629D01*
X48351126Y3421629D02*
X48446364Y3469248D01*
X48446364Y3469248D02*
X48589221Y3469248D01*
X48589221Y3469248D02*
X48684459Y3421629D01*
X49208269Y2850200D02*
X49208269Y2802581D01*
X49208269Y2802581D02*
X49160650Y2707343D01*
X49160650Y2707343D02*
X49113031Y2659724D01*
X50874935Y2802581D02*
X50398745Y2802581D01*
X50398745Y2802581D02*
X50398745Y3802581D01*
X51684459Y2802581D02*
X51208269Y2802581D01*
X51208269Y2802581D02*
X51208269Y3802581D01*
X52589221Y2897820D02*
X52541602Y2850200D01*
X52541602Y2850200D02*
X52398745Y2802581D01*
X52398745Y2802581D02*
X52303507Y2802581D01*
X52303507Y2802581D02*
X52160650Y2850200D01*
X52160650Y2850200D02*
X52065412Y2945439D01*
X52065412Y2945439D02*
X52017793Y3040677D01*
X52017793Y3040677D02*
X51970174Y3231153D01*
X51970174Y3231153D02*
X51970174Y3374010D01*
X51970174Y3374010D02*
X52017793Y3564486D01*
X52017793Y3564486D02*
X52065412Y3659724D01*
X52065412Y3659724D02*
X52160650Y3754962D01*
X52160650Y3754962D02*
X52303507Y3802581D01*
X52303507Y3802581D02*
X52398745Y3802581D01*
X52398745Y3802581D02*
X52541602Y3754962D01*
X52541602Y3754962D02*
X52589221Y3707343D01*
X24493979Y1192581D02*
X24493979Y2192581D01*
X24493979Y2192581D02*
X24874931Y2192581D01*
X24874931Y2192581D02*
X24970169Y2144962D01*
X24970169Y2144962D02*
X25017788Y2097343D01*
X25017788Y2097343D02*
X25065407Y2002105D01*
X25065407Y2002105D02*
X25065407Y1859248D01*
X25065407Y1859248D02*
X25017788Y1764010D01*
X25017788Y1764010D02*
X24970169Y1716391D01*
X24970169Y1716391D02*
X24874931Y1668772D01*
X24874931Y1668772D02*
X24493979Y1668772D01*
X25636836Y1192581D02*
X25541598Y1240200D01*
X25541598Y1240200D02*
X25493979Y1287820D01*
X25493979Y1287820D02*
X25446360Y1383058D01*
X25446360Y1383058D02*
X25446360Y1668772D01*
X25446360Y1668772D02*
X25493979Y1764010D01*
X25493979Y1764010D02*
X25541598Y1811629D01*
X25541598Y1811629D02*
X25636836Y1859248D01*
X25636836Y1859248D02*
X25779693Y1859248D01*
X25779693Y1859248D02*
X25874931Y1811629D01*
X25874931Y1811629D02*
X25922550Y1764010D01*
X25922550Y1764010D02*
X25970169Y1668772D01*
X25970169Y1668772D02*
X25970169Y1383058D01*
X25970169Y1383058D02*
X25922550Y1287820D01*
X25922550Y1287820D02*
X25874931Y1240200D01*
X25874931Y1240200D02*
X25779693Y1192581D01*
X25779693Y1192581D02*
X25636836Y1192581D01*
X26351122Y1240200D02*
X26446360Y1192581D01*
X26446360Y1192581D02*
X26636836Y1192581D01*
X26636836Y1192581D02*
X26732074Y1240200D01*
X26732074Y1240200D02*
X26779693Y1335439D01*
X26779693Y1335439D02*
X26779693Y1383058D01*
X26779693Y1383058D02*
X26732074Y1478296D01*
X26732074Y1478296D02*
X26636836Y1525915D01*
X26636836Y1525915D02*
X26493979Y1525915D01*
X26493979Y1525915D02*
X26398741Y1573534D01*
X26398741Y1573534D02*
X26351122Y1668772D01*
X26351122Y1668772D02*
X26351122Y1716391D01*
X26351122Y1716391D02*
X26398741Y1811629D01*
X26398741Y1811629D02*
X26493979Y1859248D01*
X26493979Y1859248D02*
X26636836Y1859248D01*
X26636836Y1859248D02*
X26732074Y1811629D01*
X27065408Y1859248D02*
X27446360Y1859248D01*
X27208265Y2192581D02*
X27208265Y1335439D01*
X27208265Y1335439D02*
X27255884Y1240200D01*
X27255884Y1240200D02*
X27351122Y1192581D01*
X27351122Y1192581D02*
X27446360Y1192581D01*
X27732075Y1478296D02*
X28208265Y1478296D01*
X27636837Y1192581D02*
X27970170Y2192581D01*
X27970170Y2192581D02*
X28303503Y1192581D01*
X28779694Y1192581D02*
X28684456Y1240200D01*
X28684456Y1240200D02*
X28636837Y1335439D01*
X28636837Y1335439D02*
X28636837Y2192581D01*
X29541599Y1240200D02*
X29446361Y1192581D01*
X29446361Y1192581D02*
X29255885Y1192581D01*
X29255885Y1192581D02*
X29160647Y1240200D01*
X29160647Y1240200D02*
X29113028Y1335439D01*
X29113028Y1335439D02*
X29113028Y1716391D01*
X29113028Y1716391D02*
X29160647Y1811629D01*
X29160647Y1811629D02*
X29255885Y1859248D01*
X29255885Y1859248D02*
X29446361Y1859248D01*
X29446361Y1859248D02*
X29541599Y1811629D01*
X29541599Y1811629D02*
X29589218Y1716391D01*
X29589218Y1716391D02*
X29589218Y1621153D01*
X29589218Y1621153D02*
X29113028Y1525915D01*
X30017790Y1192581D02*
X30017790Y1859248D01*
X30017790Y1668772D02*
X30065409Y1764010D01*
X30065409Y1764010D02*
X30113028Y1811629D01*
X30113028Y1811629D02*
X30208266Y1859248D01*
X30208266Y1859248D02*
X30303504Y1859248D01*
X30493981Y1859248D02*
X30874933Y1859248D01*
X30636838Y2192581D02*
X30636838Y1335439D01*
X30636838Y1335439D02*
X30684457Y1240200D01*
X30684457Y1240200D02*
X30779695Y1192581D01*
X30779695Y1192581D02*
X30874933Y1192581D01*
X31970172Y1192581D02*
X31970172Y2192581D01*
X32589219Y1192581D02*
X32493981Y1240200D01*
X32493981Y1240200D02*
X32446362Y1287820D01*
X32446362Y1287820D02*
X32398743Y1383058D01*
X32398743Y1383058D02*
X32398743Y1668772D01*
X32398743Y1668772D02*
X32446362Y1764010D01*
X32446362Y1764010D02*
X32493981Y1811629D01*
X32493981Y1811629D02*
X32589219Y1859248D01*
X32589219Y1859248D02*
X32732076Y1859248D01*
X32732076Y1859248D02*
X32827314Y1811629D01*
X32827314Y1811629D02*
X32874933Y1764010D01*
X32874933Y1764010D02*
X32922552Y1668772D01*
X32922552Y1668772D02*
X32922552Y1383058D01*
X32922552Y1383058D02*
X32874933Y1287820D01*
X32874933Y1287820D02*
X32827314Y1240200D01*
X32827314Y1240200D02*
X32732076Y1192581D01*
X32732076Y1192581D02*
X32589219Y1192581D01*
X33208267Y2192581D02*
X33779695Y2192581D01*
X33493981Y1192581D02*
X33493981Y2192581D01*
X35208267Y1716391D02*
X35351124Y1668772D01*
X35351124Y1668772D02*
X35398743Y1621153D01*
X35398743Y1621153D02*
X35446362Y1525915D01*
X35446362Y1525915D02*
X35446362Y1383058D01*
X35446362Y1383058D02*
X35398743Y1287820D01*
X35398743Y1287820D02*
X35351124Y1240200D01*
X35351124Y1240200D02*
X35255886Y1192581D01*
X35255886Y1192581D02*
X34874934Y1192581D01*
X34874934Y1192581D02*
X34874934Y2192581D01*
X34874934Y2192581D02*
X35208267Y2192581D01*
X35208267Y2192581D02*
X35303505Y2144962D01*
X35303505Y2144962D02*
X35351124Y2097343D01*
X35351124Y2097343D02*
X35398743Y2002105D01*
X35398743Y2002105D02*
X35398743Y1906867D01*
X35398743Y1906867D02*
X35351124Y1811629D01*
X35351124Y1811629D02*
X35303505Y1764010D01*
X35303505Y1764010D02*
X35208267Y1716391D01*
X35208267Y1716391D02*
X34874934Y1716391D01*
X36303505Y1192581D02*
X36303505Y1716391D01*
X36303505Y1716391D02*
X36255886Y1811629D01*
X36255886Y1811629D02*
X36160648Y1859248D01*
X36160648Y1859248D02*
X35970172Y1859248D01*
X35970172Y1859248D02*
X35874934Y1811629D01*
X36303505Y1240200D02*
X36208267Y1192581D01*
X36208267Y1192581D02*
X35970172Y1192581D01*
X35970172Y1192581D02*
X35874934Y1240200D01*
X35874934Y1240200D02*
X35827315Y1335439D01*
X35827315Y1335439D02*
X35827315Y1430677D01*
X35827315Y1430677D02*
X35874934Y1525915D01*
X35874934Y1525915D02*
X35970172Y1573534D01*
X35970172Y1573534D02*
X36208267Y1573534D01*
X36208267Y1573534D02*
X36303505Y1621153D01*
X36732077Y1240200D02*
X36827315Y1192581D01*
X36827315Y1192581D02*
X37017791Y1192581D01*
X37017791Y1192581D02*
X37113029Y1240200D01*
X37113029Y1240200D02*
X37160648Y1335439D01*
X37160648Y1335439D02*
X37160648Y1383058D01*
X37160648Y1383058D02*
X37113029Y1478296D01*
X37113029Y1478296D02*
X37017791Y1525915D01*
X37017791Y1525915D02*
X36874934Y1525915D01*
X36874934Y1525915D02*
X36779696Y1573534D01*
X36779696Y1573534D02*
X36732077Y1668772D01*
X36732077Y1668772D02*
X36732077Y1716391D01*
X36732077Y1716391D02*
X36779696Y1811629D01*
X36779696Y1811629D02*
X36874934Y1859248D01*
X36874934Y1859248D02*
X37017791Y1859248D01*
X37017791Y1859248D02*
X37113029Y1811629D01*
X37970172Y1240200D02*
X37874934Y1192581D01*
X37874934Y1192581D02*
X37684458Y1192581D01*
X37684458Y1192581D02*
X37589220Y1240200D01*
X37589220Y1240200D02*
X37541601Y1335439D01*
X37541601Y1335439D02*
X37541601Y1716391D01*
X37541601Y1716391D02*
X37589220Y1811629D01*
X37589220Y1811629D02*
X37684458Y1859248D01*
X37684458Y1859248D02*
X37874934Y1859248D01*
X37874934Y1859248D02*
X37970172Y1811629D01*
X37970172Y1811629D02*
X38017791Y1716391D01*
X38017791Y1716391D02*
X38017791Y1621153D01*
X38017791Y1621153D02*
X37541601Y1525915D01*
X39160649Y1240200D02*
X39303506Y1192581D01*
X39303506Y1192581D02*
X39541601Y1192581D01*
X39541601Y1192581D02*
X39636839Y1240200D01*
X39636839Y1240200D02*
X39684458Y1287820D01*
X39684458Y1287820D02*
X39732077Y1383058D01*
X39732077Y1383058D02*
X39732077Y1478296D01*
X39732077Y1478296D02*
X39684458Y1573534D01*
X39684458Y1573534D02*
X39636839Y1621153D01*
X39636839Y1621153D02*
X39541601Y1668772D01*
X39541601Y1668772D02*
X39351125Y1716391D01*
X39351125Y1716391D02*
X39255887Y1764010D01*
X39255887Y1764010D02*
X39208268Y1811629D01*
X39208268Y1811629D02*
X39160649Y1906867D01*
X39160649Y1906867D02*
X39160649Y2002105D01*
X39160649Y2002105D02*
X39208268Y2097343D01*
X39208268Y2097343D02*
X39255887Y2144962D01*
X39255887Y2144962D02*
X39351125Y2192581D01*
X39351125Y2192581D02*
X39589220Y2192581D01*
X39589220Y2192581D02*
X39732077Y2144962D01*
X40017792Y1859248D02*
X40398744Y1859248D01*
X40160649Y2192581D02*
X40160649Y1335439D01*
X40160649Y1335439D02*
X40208268Y1240200D01*
X40208268Y1240200D02*
X40303506Y1192581D01*
X40303506Y1192581D02*
X40398744Y1192581D01*
X41160649Y1192581D02*
X41160649Y1716391D01*
X41160649Y1716391D02*
X41113030Y1811629D01*
X41113030Y1811629D02*
X41017792Y1859248D01*
X41017792Y1859248D02*
X40827316Y1859248D01*
X40827316Y1859248D02*
X40732078Y1811629D01*
X41160649Y1240200D02*
X41065411Y1192581D01*
X41065411Y1192581D02*
X40827316Y1192581D01*
X40827316Y1192581D02*
X40732078Y1240200D01*
X40732078Y1240200D02*
X40684459Y1335439D01*
X40684459Y1335439D02*
X40684459Y1430677D01*
X40684459Y1430677D02*
X40732078Y1525915D01*
X40732078Y1525915D02*
X40827316Y1573534D01*
X40827316Y1573534D02*
X41065411Y1573534D01*
X41065411Y1573534D02*
X41160649Y1621153D01*
X41493983Y1859248D02*
X41874935Y1859248D01*
X41636840Y2192581D02*
X41636840Y1335439D01*
X41636840Y1335439D02*
X41684459Y1240200D01*
X41684459Y1240200D02*
X41779697Y1192581D01*
X41779697Y1192581D02*
X41874935Y1192581D01*
X42208269Y1192581D02*
X42208269Y1859248D01*
X42208269Y2192581D02*
X42160650Y2144962D01*
X42160650Y2144962D02*
X42208269Y2097343D01*
X42208269Y2097343D02*
X42255888Y2144962D01*
X42255888Y2144962D02*
X42208269Y2192581D01*
X42208269Y2192581D02*
X42208269Y2097343D01*
X42827316Y1192581D02*
X42732078Y1240200D01*
X42732078Y1240200D02*
X42684459Y1287820D01*
X42684459Y1287820D02*
X42636840Y1383058D01*
X42636840Y1383058D02*
X42636840Y1668772D01*
X42636840Y1668772D02*
X42684459Y1764010D01*
X42684459Y1764010D02*
X42732078Y1811629D01*
X42732078Y1811629D02*
X42827316Y1859248D01*
X42827316Y1859248D02*
X42970173Y1859248D01*
X42970173Y1859248D02*
X43065411Y1811629D01*
X43065411Y1811629D02*
X43113030Y1764010D01*
X43113030Y1764010D02*
X43160649Y1668772D01*
X43160649Y1668772D02*
X43160649Y1383058D01*
X43160649Y1383058D02*
X43113030Y1287820D01*
X43113030Y1287820D02*
X43065411Y1240200D01*
X43065411Y1240200D02*
X42970173Y1192581D01*
X42970173Y1192581D02*
X42827316Y1192581D01*
X43589221Y1859248D02*
X43589221Y1192581D01*
X43589221Y1764010D02*
X43636840Y1811629D01*
X43636840Y1811629D02*
X43732078Y1859248D01*
X43732078Y1859248D02*
X43874935Y1859248D01*
X43874935Y1859248D02*
X43970173Y1811629D01*
X43970173Y1811629D02*
X44017792Y1716391D01*
X44017792Y1716391D02*
X44017792Y1192581D01*
X45113031Y2192581D02*
X45446364Y1192581D01*
X45446364Y1192581D02*
X45779697Y2192581D01*
X46541602Y2192581D02*
X46351126Y2192581D01*
X46351126Y2192581D02*
X46255888Y2144962D01*
X46255888Y2144962D02*
X46208269Y2097343D01*
X46208269Y2097343D02*
X46113031Y1954486D01*
X46113031Y1954486D02*
X46065412Y1764010D01*
X46065412Y1764010D02*
X46065412Y1383058D01*
X46065412Y1383058D02*
X46113031Y1287820D01*
X46113031Y1287820D02*
X46160650Y1240200D01*
X46160650Y1240200D02*
X46255888Y1192581D01*
X46255888Y1192581D02*
X46446364Y1192581D01*
X46446364Y1192581D02*
X46541602Y1240200D01*
X46541602Y1240200D02*
X46589221Y1287820D01*
X46589221Y1287820D02*
X46636840Y1383058D01*
X46636840Y1383058D02*
X46636840Y1621153D01*
X46636840Y1621153D02*
X46589221Y1716391D01*
X46589221Y1716391D02*
X46541602Y1764010D01*
X46541602Y1764010D02*
X46446364Y1811629D01*
X46446364Y1811629D02*
X46255888Y1811629D01*
X46255888Y1811629D02*
X46160650Y1764010D01*
X46160650Y1764010D02*
X46113031Y1716391D01*
X46113031Y1716391D02*
X46065412Y1621153D01*
X47065412Y1287820D02*
X47113031Y1240200D01*
X47113031Y1240200D02*
X47065412Y1192581D01*
X47065412Y1192581D02*
X47017793Y1240200D01*
X47017793Y1240200D02*
X47065412Y1287820D01*
X47065412Y1287820D02*
X47065412Y1192581D01*
X47732078Y2192581D02*
X47827316Y2192581D01*
X47827316Y2192581D02*
X47922554Y2144962D01*
X47922554Y2144962D02*
X47970173Y2097343D01*
X47970173Y2097343D02*
X48017792Y2002105D01*
X48017792Y2002105D02*
X48065411Y1811629D01*
X48065411Y1811629D02*
X48065411Y1573534D01*
X48065411Y1573534D02*
X48017792Y1383058D01*
X48017792Y1383058D02*
X47970173Y1287820D01*
X47970173Y1287820D02*
X47922554Y1240200D01*
X47922554Y1240200D02*
X47827316Y1192581D01*
X47827316Y1192581D02*
X47732078Y1192581D01*
X47732078Y1192581D02*
X47636840Y1240200D01*
X47636840Y1240200D02*
X47589221Y1287820D01*
X47589221Y1287820D02*
X47541602Y1383058D01*
X47541602Y1383058D02*
X47493983Y1573534D01*
X47493983Y1573534D02*
X47493983Y1811629D01*
X47493983Y1811629D02*
X47541602Y2002105D01*
X47541602Y2002105D02*
X47589221Y2097343D01*
X47589221Y2097343D02*
X47636840Y2144962D01*
X47636840Y2144962D02*
X47732078Y2192581D01*
X27760988Y24027181D02*
X27189560Y24027181D01*
X27475274Y24027181D02*
X27475274Y25027181D01*
X27475274Y25027181D02*
X27380036Y24884324D01*
X27380036Y24884324D02*
X27284798Y24789086D01*
X27284798Y24789086D02*
X27189560Y24741467D01*
X18546067Y57819800D02*
X18688924Y57772181D01*
X18688924Y57772181D02*
X18927019Y57772181D01*
X18927019Y57772181D02*
X19022257Y57819800D01*
X19022257Y57819800D02*
X19069876Y57867420D01*
X19069876Y57867420D02*
X19117495Y57962658D01*
X19117495Y57962658D02*
X19117495Y58057896D01*
X19117495Y58057896D02*
X19069876Y58153134D01*
X19069876Y58153134D02*
X19022257Y58200753D01*
X19022257Y58200753D02*
X18927019Y58248372D01*
X18927019Y58248372D02*
X18736543Y58295991D01*
X18736543Y58295991D02*
X18641305Y58343610D01*
X18641305Y58343610D02*
X18593686Y58391229D01*
X18593686Y58391229D02*
X18546067Y58486467D01*
X18546067Y58486467D02*
X18546067Y58581705D01*
X18546067Y58581705D02*
X18593686Y58676943D01*
X18593686Y58676943D02*
X18641305Y58724562D01*
X18641305Y58724562D02*
X18736543Y58772181D01*
X18736543Y58772181D02*
X18974638Y58772181D01*
X18974638Y58772181D02*
X19117495Y58724562D01*
X19450829Y58772181D02*
X19688924Y57772181D01*
X19688924Y57772181D02*
X19879400Y58486467D01*
X19879400Y58486467D02*
X20069876Y57772181D01*
X20069876Y57772181D02*
X20307972Y58772181D01*
X20641305Y58676943D02*
X20688924Y58724562D01*
X20688924Y58724562D02*
X20784162Y58772181D01*
X20784162Y58772181D02*
X21022257Y58772181D01*
X21022257Y58772181D02*
X21117495Y58724562D01*
X21117495Y58724562D02*
X21165114Y58676943D01*
X21165114Y58676943D02*
X21212733Y58581705D01*
X21212733Y58581705D02*
X21212733Y58486467D01*
X21212733Y58486467D02*
X21165114Y58343610D01*
X21165114Y58343610D02*
X20593686Y57772181D01*
X20593686Y57772181D02*
X21212733Y57772181D01*
X34891066Y57462181D02*
X34891066Y56747896D01*
X34891066Y56747896D02*
X34843447Y56605039D01*
X34843447Y56605039D02*
X34748209Y56509800D01*
X34748209Y56509800D02*
X34605352Y56462181D01*
X34605352Y56462181D02*
X34510114Y56462181D01*
X35843447Y57462181D02*
X35367257Y57462181D01*
X35367257Y57462181D02*
X35319638Y56985991D01*
X35319638Y56985991D02*
X35367257Y57033610D01*
X35367257Y57033610D02*
X35462495Y57081229D01*
X35462495Y57081229D02*
X35700590Y57081229D01*
X35700590Y57081229D02*
X35795828Y57033610D01*
X35795828Y57033610D02*
X35843447Y56985991D01*
X35843447Y56985991D02*
X35891066Y56890753D01*
X35891066Y56890753D02*
X35891066Y56652658D01*
X35891066Y56652658D02*
X35843447Y56557420D01*
X35843447Y56557420D02*
X35795828Y56509800D01*
X35795828Y56509800D02*
X35700590Y56462181D01*
X35700590Y56462181D02*
X35462495Y56462181D01*
X35462495Y56462181D02*
X35367257Y56509800D01*
X35367257Y56509800D02*
X35319638Y56557420D01*
X54787219Y49193906D02*
X53787219Y49193906D01*
X53787219Y49193906D02*
X53787219Y49432001D01*
X53787219Y49432001D02*
X53834838Y49574858D01*
X53834838Y49574858D02*
X53930076Y49670096D01*
X53930076Y49670096D02*
X54025314Y49717715D01*
X54025314Y49717715D02*
X54215790Y49765334D01*
X54215790Y49765334D02*
X54358647Y49765334D01*
X54358647Y49765334D02*
X54549123Y49717715D01*
X54549123Y49717715D02*
X54644361Y49670096D01*
X54644361Y49670096D02*
X54739600Y49574858D01*
X54739600Y49574858D02*
X54787219Y49432001D01*
X54787219Y49432001D02*
X54787219Y49193906D01*
X54120552Y50622477D02*
X54787219Y50622477D01*
X53739600Y50384382D02*
X54453885Y50146287D01*
X54453885Y50146287D02*
X54453885Y50765334D01*
X8209980Y23349334D02*
X8257600Y23301715D01*
X8257600Y23301715D02*
X8305219Y23158858D01*
X8305219Y23158858D02*
X8305219Y23063620D01*
X8305219Y23063620D02*
X8257600Y22920763D01*
X8257600Y22920763D02*
X8162361Y22825525D01*
X8162361Y22825525D02*
X8067123Y22777906D01*
X8067123Y22777906D02*
X7876647Y22730287D01*
X7876647Y22730287D02*
X7733790Y22730287D01*
X7733790Y22730287D02*
X7543314Y22777906D01*
X7543314Y22777906D02*
X7448076Y22825525D01*
X7448076Y22825525D02*
X7352838Y22920763D01*
X7352838Y22920763D02*
X7305219Y23063620D01*
X7305219Y23063620D02*
X7305219Y23158858D01*
X7305219Y23158858D02*
X7352838Y23301715D01*
X7352838Y23301715D02*
X7400457Y23349334D01*
X8305219Y23825525D02*
X8305219Y24016001D01*
X8305219Y24016001D02*
X8257600Y24111239D01*
X8257600Y24111239D02*
X8209980Y24158858D01*
X8209980Y24158858D02*
X8067123Y24254096D01*
X8067123Y24254096D02*
X7876647Y24301715D01*
X7876647Y24301715D02*
X7495695Y24301715D01*
X7495695Y24301715D02*
X7400457Y24254096D01*
X7400457Y24254096D02*
X7352838Y24206477D01*
X7352838Y24206477D02*
X7305219Y24111239D01*
X7305219Y24111239D02*
X7305219Y23920763D01*
X7305219Y23920763D02*
X7352838Y23825525D01*
X7352838Y23825525D02*
X7400457Y23777906D01*
X7400457Y23777906D02*
X7495695Y23730287D01*
X7495695Y23730287D02*
X7733790Y23730287D01*
X7733790Y23730287D02*
X7829028Y23777906D01*
X7829028Y23777906D02*
X7876647Y23825525D01*
X7876647Y23825525D02*
X7924266Y23920763D01*
X7924266Y23920763D02*
X7924266Y24111239D01*
X7924266Y24111239D02*
X7876647Y24206477D01*
X7876647Y24206477D02*
X7829028Y24254096D01*
X7829028Y24254096D02*
X7733790Y24301715D01*
X40576733Y55160420D02*
X40529114Y55112800D01*
X40529114Y55112800D02*
X40386257Y55065181D01*
X40386257Y55065181D02*
X40291019Y55065181D01*
X40291019Y55065181D02*
X40148162Y55112800D01*
X40148162Y55112800D02*
X40052924Y55208039D01*
X40052924Y55208039D02*
X40005305Y55303277D01*
X40005305Y55303277D02*
X39957686Y55493753D01*
X39957686Y55493753D02*
X39957686Y55636610D01*
X39957686Y55636610D02*
X40005305Y55827086D01*
X40005305Y55827086D02*
X40052924Y55922324D01*
X40052924Y55922324D02*
X40148162Y56017562D01*
X40148162Y56017562D02*
X40291019Y56065181D01*
X40291019Y56065181D02*
X40386257Y56065181D01*
X40386257Y56065181D02*
X40529114Y56017562D01*
X40529114Y56017562D02*
X40576733Y55969943D01*
X41481495Y56065181D02*
X41005305Y56065181D01*
X41005305Y56065181D02*
X40957686Y55588991D01*
X40957686Y55588991D02*
X41005305Y55636610D01*
X41005305Y55636610D02*
X41100543Y55684229D01*
X41100543Y55684229D02*
X41338638Y55684229D01*
X41338638Y55684229D02*
X41433876Y55636610D01*
X41433876Y55636610D02*
X41481495Y55588991D01*
X41481495Y55588991D02*
X41529114Y55493753D01*
X41529114Y55493753D02*
X41529114Y55255658D01*
X41529114Y55255658D02*
X41481495Y55160420D01*
X41481495Y55160420D02*
X41433876Y55112800D01*
X41433876Y55112800D02*
X41338638Y55065181D01*
X41338638Y55065181D02*
X41100543Y55065181D01*
X41100543Y55065181D02*
X41005305Y55112800D01*
X41005305Y55112800D02*
X40957686Y55160420D01*
X32720980Y50527334D02*
X32768600Y50479715D01*
X32768600Y50479715D02*
X32816219Y50336858D01*
X32816219Y50336858D02*
X32816219Y50241620D01*
X32816219Y50241620D02*
X32768600Y50098763D01*
X32768600Y50098763D02*
X32673361Y50003525D01*
X32673361Y50003525D02*
X32578123Y49955906D01*
X32578123Y49955906D02*
X32387647Y49908287D01*
X32387647Y49908287D02*
X32244790Y49908287D01*
X32244790Y49908287D02*
X32054314Y49955906D01*
X32054314Y49955906D02*
X31959076Y50003525D01*
X31959076Y50003525D02*
X31863838Y50098763D01*
X31863838Y50098763D02*
X31816219Y50241620D01*
X31816219Y50241620D02*
X31816219Y50336858D01*
X31816219Y50336858D02*
X31863838Y50479715D01*
X31863838Y50479715D02*
X31911457Y50527334D01*
X31911457Y50908287D02*
X31863838Y50955906D01*
X31863838Y50955906D02*
X31816219Y51051144D01*
X31816219Y51051144D02*
X31816219Y51289239D01*
X31816219Y51289239D02*
X31863838Y51384477D01*
X31863838Y51384477D02*
X31911457Y51432096D01*
X31911457Y51432096D02*
X32006695Y51479715D01*
X32006695Y51479715D02*
X32101933Y51479715D01*
X32101933Y51479715D02*
X32244790Y51432096D01*
X32244790Y51432096D02*
X32816219Y50860668D01*
X32816219Y50860668D02*
X32816219Y51479715D01*
X17081733Y18235181D02*
X16748400Y18711372D01*
X16510305Y18235181D02*
X16510305Y19235181D01*
X16510305Y19235181D02*
X16891257Y19235181D01*
X16891257Y19235181D02*
X16986495Y19187562D01*
X16986495Y19187562D02*
X17034114Y19139943D01*
X17034114Y19139943D02*
X17081733Y19044705D01*
X17081733Y19044705D02*
X17081733Y18901848D01*
X17081733Y18901848D02*
X17034114Y18806610D01*
X17034114Y18806610D02*
X16986495Y18758991D01*
X16986495Y18758991D02*
X16891257Y18711372D01*
X16891257Y18711372D02*
X16510305Y18711372D01*
X17653162Y18806610D02*
X17557924Y18854229D01*
X17557924Y18854229D02*
X17510305Y18901848D01*
X17510305Y18901848D02*
X17462686Y18997086D01*
X17462686Y18997086D02*
X17462686Y19044705D01*
X17462686Y19044705D02*
X17510305Y19139943D01*
X17510305Y19139943D02*
X17557924Y19187562D01*
X17557924Y19187562D02*
X17653162Y19235181D01*
X17653162Y19235181D02*
X17843638Y19235181D01*
X17843638Y19235181D02*
X17938876Y19187562D01*
X17938876Y19187562D02*
X17986495Y19139943D01*
X17986495Y19139943D02*
X18034114Y19044705D01*
X18034114Y19044705D02*
X18034114Y18997086D01*
X18034114Y18997086D02*
X17986495Y18901848D01*
X17986495Y18901848D02*
X17938876Y18854229D01*
X17938876Y18854229D02*
X17843638Y18806610D01*
X17843638Y18806610D02*
X17653162Y18806610D01*
X17653162Y18806610D02*
X17557924Y18758991D01*
X17557924Y18758991D02*
X17510305Y18711372D01*
X17510305Y18711372D02*
X17462686Y18616134D01*
X17462686Y18616134D02*
X17462686Y18425658D01*
X17462686Y18425658D02*
X17510305Y18330420D01*
X17510305Y18330420D02*
X17557924Y18282800D01*
X17557924Y18282800D02*
X17653162Y18235181D01*
X17653162Y18235181D02*
X17843638Y18235181D01*
X17843638Y18235181D02*
X17938876Y18282800D01*
X17938876Y18282800D02*
X17986495Y18330420D01*
X17986495Y18330420D02*
X18034114Y18425658D01*
X18034114Y18425658D02*
X18034114Y18616134D01*
X18034114Y18616134D02*
X17986495Y18711372D01*
X17986495Y18711372D02*
X17938876Y18758991D01*
X17938876Y18758991D02*
X17843638Y18806610D01*
X8874447Y1867991D02*
X9017304Y1820372D01*
X9017304Y1820372D02*
X9064923Y1772753D01*
X9064923Y1772753D02*
X9112542Y1677515D01*
X9112542Y1677515D02*
X9112542Y1534658D01*
X9112542Y1534658D02*
X9064923Y1439420D01*
X9064923Y1439420D02*
X9017304Y1391800D01*
X9017304Y1391800D02*
X8922066Y1344181D01*
X8922066Y1344181D02*
X8541114Y1344181D01*
X8541114Y1344181D02*
X8541114Y2344181D01*
X8541114Y2344181D02*
X8874447Y2344181D01*
X8874447Y2344181D02*
X8969685Y2296562D01*
X8969685Y2296562D02*
X9017304Y2248943D01*
X9017304Y2248943D02*
X9064923Y2153705D01*
X9064923Y2153705D02*
X9064923Y2058467D01*
X9064923Y2058467D02*
X9017304Y1963229D01*
X9017304Y1963229D02*
X8969685Y1915610D01*
X8969685Y1915610D02*
X8874447Y1867991D01*
X8874447Y1867991D02*
X8541114Y1867991D01*
X9445876Y2344181D02*
X10112542Y2344181D01*
X10112542Y2344181D02*
X9445876Y1344181D01*
X9445876Y1344181D02*
X10112542Y1344181D01*
X11017304Y1344181D02*
X10445876Y1344181D01*
X10731590Y1344181D02*
X10731590Y2344181D01*
X10731590Y2344181D02*
X10636352Y2201324D01*
X10636352Y2201324D02*
X10541114Y2106086D01*
X10541114Y2106086D02*
X10445876Y2058467D01*
X11049048Y11356134D02*
X11810953Y11356134D01*
X11430000Y10975181D02*
X11430000Y11737086D01*
X37616066Y22156181D02*
X37616066Y21441896D01*
X37616066Y21441896D02*
X37568447Y21299039D01*
X37568447Y21299039D02*
X37473209Y21203800D01*
X37473209Y21203800D02*
X37330352Y21156181D01*
X37330352Y21156181D02*
X37235114Y21156181D01*
X38616066Y21156181D02*
X38044638Y21156181D01*
X38330352Y21156181D02*
X38330352Y22156181D01*
X38330352Y22156181D02*
X38235114Y22013324D01*
X38235114Y22013324D02*
X38139876Y21918086D01*
X38139876Y21918086D02*
X38044638Y21870467D01*
X45039980Y48114334D02*
X45087600Y48066715D01*
X45087600Y48066715D02*
X45135219Y47923858D01*
X45135219Y47923858D02*
X45135219Y47828620D01*
X45135219Y47828620D02*
X45087600Y47685763D01*
X45087600Y47685763D02*
X44992361Y47590525D01*
X44992361Y47590525D02*
X44897123Y47542906D01*
X44897123Y47542906D02*
X44706647Y47495287D01*
X44706647Y47495287D02*
X44563790Y47495287D01*
X44563790Y47495287D02*
X44373314Y47542906D01*
X44373314Y47542906D02*
X44278076Y47590525D01*
X44278076Y47590525D02*
X44182838Y47685763D01*
X44182838Y47685763D02*
X44135219Y47828620D01*
X44135219Y47828620D02*
X44135219Y47923858D01*
X44135219Y47923858D02*
X44182838Y48066715D01*
X44182838Y48066715D02*
X44230457Y48114334D01*
X44135219Y48447668D02*
X44135219Y49066715D01*
X44135219Y49066715D02*
X44516171Y48733382D01*
X44516171Y48733382D02*
X44516171Y48876239D01*
X44516171Y48876239D02*
X44563790Y48971477D01*
X44563790Y48971477D02*
X44611409Y49019096D01*
X44611409Y49019096D02*
X44706647Y49066715D01*
X44706647Y49066715D02*
X44944742Y49066715D01*
X44944742Y49066715D02*
X45039980Y49019096D01*
X45039980Y49019096D02*
X45087600Y48971477D01*
X45087600Y48971477D02*
X45135219Y48876239D01*
X45135219Y48876239D02*
X45135219Y48590525D01*
X45135219Y48590525D02*
X45087600Y48495287D01*
X45087600Y48495287D02*
X45039980Y48447668D01*
X42549067Y57762800D02*
X42691924Y57715181D01*
X42691924Y57715181D02*
X42930019Y57715181D01*
X42930019Y57715181D02*
X43025257Y57762800D01*
X43025257Y57762800D02*
X43072876Y57810420D01*
X43072876Y57810420D02*
X43120495Y57905658D01*
X43120495Y57905658D02*
X43120495Y58000896D01*
X43120495Y58000896D02*
X43072876Y58096134D01*
X43072876Y58096134D02*
X43025257Y58143753D01*
X43025257Y58143753D02*
X42930019Y58191372D01*
X42930019Y58191372D02*
X42739543Y58238991D01*
X42739543Y58238991D02*
X42644305Y58286610D01*
X42644305Y58286610D02*
X42596686Y58334229D01*
X42596686Y58334229D02*
X42549067Y58429467D01*
X42549067Y58429467D02*
X42549067Y58524705D01*
X42549067Y58524705D02*
X42596686Y58619943D01*
X42596686Y58619943D02*
X42644305Y58667562D01*
X42644305Y58667562D02*
X42739543Y58715181D01*
X42739543Y58715181D02*
X42977638Y58715181D01*
X42977638Y58715181D02*
X43120495Y58667562D01*
X43453829Y58715181D02*
X43691924Y57715181D01*
X43691924Y57715181D02*
X43882400Y58429467D01*
X43882400Y58429467D02*
X44072876Y57715181D01*
X44072876Y57715181D02*
X44310972Y58715181D01*
X44596686Y58715181D02*
X45215733Y58715181D01*
X45215733Y58715181D02*
X44882400Y58334229D01*
X44882400Y58334229D02*
X45025257Y58334229D01*
X45025257Y58334229D02*
X45120495Y58286610D01*
X45120495Y58286610D02*
X45168114Y58238991D01*
X45168114Y58238991D02*
X45215733Y58143753D01*
X45215733Y58143753D02*
X45215733Y57905658D01*
X45215733Y57905658D02*
X45168114Y57810420D01*
X45168114Y57810420D02*
X45120495Y57762800D01*
X45120495Y57762800D02*
X45025257Y57715181D01*
X45025257Y57715181D02*
X44739543Y57715181D01*
X44739543Y57715181D02*
X44644305Y57762800D01*
X44644305Y57762800D02*
X44596686Y57810420D01*
X4961161Y11408943D02*
X4865923Y11456562D01*
X4865923Y11456562D02*
X4770685Y11551800D01*
X4770685Y11551800D02*
X4627828Y11694658D01*
X4627828Y11694658D02*
X4532590Y11742277D01*
X4532590Y11742277D02*
X4437352Y11742277D01*
X4484971Y11504181D02*
X4389733Y11551800D01*
X4389733Y11551800D02*
X4294495Y11647039D01*
X4294495Y11647039D02*
X4246876Y11837515D01*
X4246876Y11837515D02*
X4246876Y12170848D01*
X4246876Y12170848D02*
X4294495Y12361324D01*
X4294495Y12361324D02*
X4389733Y12456562D01*
X4389733Y12456562D02*
X4484971Y12504181D01*
X4484971Y12504181D02*
X4675447Y12504181D01*
X4675447Y12504181D02*
X4770685Y12456562D01*
X4770685Y12456562D02*
X4865923Y12361324D01*
X4865923Y12361324D02*
X4913542Y12170848D01*
X4913542Y12170848D02*
X4913542Y11837515D01*
X4913542Y11837515D02*
X4865923Y11647039D01*
X4865923Y11647039D02*
X4770685Y11551800D01*
X4770685Y11551800D02*
X4675447Y11504181D01*
X4675447Y11504181D02*
X4484971Y11504181D01*
X5294495Y12408943D02*
X5342114Y12456562D01*
X5342114Y12456562D02*
X5437352Y12504181D01*
X5437352Y12504181D02*
X5675447Y12504181D01*
X5675447Y12504181D02*
X5770685Y12456562D01*
X5770685Y12456562D02*
X5818304Y12408943D01*
X5818304Y12408943D02*
X5865923Y12313705D01*
X5865923Y12313705D02*
X5865923Y12218467D01*
X5865923Y12218467D02*
X5818304Y12075610D01*
X5818304Y12075610D02*
X5246876Y11504181D01*
X5246876Y11504181D02*
X5865923Y11504181D01*
X27380619Y16034134D02*
X26904428Y15700801D01*
X27380619Y15462706D02*
X26380619Y15462706D01*
X26380619Y15462706D02*
X26380619Y15843658D01*
X26380619Y15843658D02*
X26428238Y15938896D01*
X26428238Y15938896D02*
X26475857Y15986515D01*
X26475857Y15986515D02*
X26571095Y16034134D01*
X26571095Y16034134D02*
X26713952Y16034134D01*
X26713952Y16034134D02*
X26809190Y15986515D01*
X26809190Y15986515D02*
X26856809Y15938896D01*
X26856809Y15938896D02*
X26904428Y15843658D01*
X26904428Y15843658D02*
X26904428Y15462706D01*
X26713952Y16891277D02*
X27380619Y16891277D01*
X26333000Y16653182D02*
X27047285Y16415087D01*
X27047285Y16415087D02*
X27047285Y17034134D01*
X15978495Y28252181D02*
X15978495Y27442658D01*
X15978495Y27442658D02*
X16026114Y27347420D01*
X16026114Y27347420D02*
X16073733Y27299800D01*
X16073733Y27299800D02*
X16168971Y27252181D01*
X16168971Y27252181D02*
X16359447Y27252181D01*
X16359447Y27252181D02*
X16454685Y27299800D01*
X16454685Y27299800D02*
X16502304Y27347420D01*
X16502304Y27347420D02*
X16549923Y27442658D01*
X16549923Y27442658D02*
X16549923Y28252181D01*
X17549923Y27252181D02*
X16978495Y27252181D01*
X17264209Y27252181D02*
X17264209Y28252181D01*
X17264209Y28252181D02*
X17168971Y28109324D01*
X17168971Y28109324D02*
X17073733Y28014086D01*
X17073733Y28014086D02*
X16978495Y27966467D01*
X35245219Y46757096D02*
X36054742Y46757096D01*
X36054742Y46757096D02*
X36149980Y46804715D01*
X36149980Y46804715D02*
X36197600Y46852334D01*
X36197600Y46852334D02*
X36245219Y46947572D01*
X36245219Y46947572D02*
X36245219Y47138048D01*
X36245219Y47138048D02*
X36197600Y47233286D01*
X36197600Y47233286D02*
X36149980Y47280905D01*
X36149980Y47280905D02*
X36054742Y47328524D01*
X36054742Y47328524D02*
X35245219Y47328524D01*
X35245219Y47709477D02*
X35245219Y48328524D01*
X35245219Y48328524D02*
X35626171Y47995191D01*
X35626171Y47995191D02*
X35626171Y48138048D01*
X35626171Y48138048D02*
X35673790Y48233286D01*
X35673790Y48233286D02*
X35721409Y48280905D01*
X35721409Y48280905D02*
X35816647Y48328524D01*
X35816647Y48328524D02*
X36054742Y48328524D01*
X36054742Y48328524D02*
X36149980Y48280905D01*
X36149980Y48280905D02*
X36197600Y48233286D01*
X36197600Y48233286D02*
X36245219Y48138048D01*
X36245219Y48138048D02*
X36245219Y47852334D01*
X36245219Y47852334D02*
X36197600Y47757096D01*
X36197600Y47757096D02*
X36149980Y47709477D01*
X26553219Y32787096D02*
X27362742Y32787096D01*
X27362742Y32787096D02*
X27457980Y32834715D01*
X27457980Y32834715D02*
X27505600Y32882334D01*
X27505600Y32882334D02*
X27553219Y32977572D01*
X27553219Y32977572D02*
X27553219Y33168048D01*
X27553219Y33168048D02*
X27505600Y33263286D01*
X27505600Y33263286D02*
X27457980Y33310905D01*
X27457980Y33310905D02*
X27362742Y33358524D01*
X27362742Y33358524D02*
X26553219Y33358524D01*
X26648457Y33787096D02*
X26600838Y33834715D01*
X26600838Y33834715D02*
X26553219Y33929953D01*
X26553219Y33929953D02*
X26553219Y34168048D01*
X26553219Y34168048D02*
X26600838Y34263286D01*
X26600838Y34263286D02*
X26648457Y34310905D01*
X26648457Y34310905D02*
X26743695Y34358524D01*
X26743695Y34358524D02*
X26838933Y34358524D01*
X26838933Y34358524D02*
X26981790Y34310905D01*
X26981790Y34310905D02*
X27553219Y33739477D01*
X27553219Y33739477D02*
X27553219Y34358524D01*
X53263219Y48495334D02*
X52787028Y48162001D01*
X53263219Y47923906D02*
X52263219Y47923906D01*
X52263219Y47923906D02*
X52263219Y48304858D01*
X52263219Y48304858D02*
X52310838Y48400096D01*
X52310838Y48400096D02*
X52358457Y48447715D01*
X52358457Y48447715D02*
X52453695Y48495334D01*
X52453695Y48495334D02*
X52596552Y48495334D01*
X52596552Y48495334D02*
X52691790Y48447715D01*
X52691790Y48447715D02*
X52739409Y48400096D01*
X52739409Y48400096D02*
X52787028Y48304858D01*
X52787028Y48304858D02*
X52787028Y47923906D01*
X52263219Y48828668D02*
X52263219Y49495334D01*
X52263219Y49495334D02*
X53263219Y49066763D01*
X31704980Y44685334D02*
X31752600Y44637715D01*
X31752600Y44637715D02*
X31800219Y44494858D01*
X31800219Y44494858D02*
X31800219Y44399620D01*
X31800219Y44399620D02*
X31752600Y44256763D01*
X31752600Y44256763D02*
X31657361Y44161525D01*
X31657361Y44161525D02*
X31562123Y44113906D01*
X31562123Y44113906D02*
X31371647Y44066287D01*
X31371647Y44066287D02*
X31228790Y44066287D01*
X31228790Y44066287D02*
X31038314Y44113906D01*
X31038314Y44113906D02*
X30943076Y44161525D01*
X30943076Y44161525D02*
X30847838Y44256763D01*
X30847838Y44256763D02*
X30800219Y44399620D01*
X30800219Y44399620D02*
X30800219Y44494858D01*
X30800219Y44494858D02*
X30847838Y44637715D01*
X30847838Y44637715D02*
X30895457Y44685334D01*
X30800219Y45542477D02*
X30800219Y45352001D01*
X30800219Y45352001D02*
X30847838Y45256763D01*
X30847838Y45256763D02*
X30895457Y45209144D01*
X30895457Y45209144D02*
X31038314Y45113906D01*
X31038314Y45113906D02*
X31228790Y45066287D01*
X31228790Y45066287D02*
X31609742Y45066287D01*
X31609742Y45066287D02*
X31704980Y45113906D01*
X31704980Y45113906D02*
X31752600Y45161525D01*
X31752600Y45161525D02*
X31800219Y45256763D01*
X31800219Y45256763D02*
X31800219Y45447239D01*
X31800219Y45447239D02*
X31752600Y45542477D01*
X31752600Y45542477D02*
X31704980Y45590096D01*
X31704980Y45590096D02*
X31609742Y45637715D01*
X31609742Y45637715D02*
X31371647Y45637715D01*
X31371647Y45637715D02*
X31276409Y45590096D01*
X31276409Y45590096D02*
X31228790Y45542477D01*
X31228790Y45542477D02*
X31181171Y45447239D01*
X31181171Y45447239D02*
X31181171Y45256763D01*
X31181171Y45256763D02*
X31228790Y45161525D01*
X31228790Y45161525D02*
X31276409Y45113906D01*
X31276409Y45113906D02*
X31371647Y45066287D01*
X34257419Y15411906D02*
X33257419Y15411906D01*
X33257419Y15411906D02*
X33257419Y15650001D01*
X33257419Y15650001D02*
X33305038Y15792858D01*
X33305038Y15792858D02*
X33400276Y15888096D01*
X33400276Y15888096D02*
X33495514Y15935715D01*
X33495514Y15935715D02*
X33685990Y15983334D01*
X33685990Y15983334D02*
X33828847Y15983334D01*
X33828847Y15983334D02*
X34019323Y15935715D01*
X34019323Y15935715D02*
X34114561Y15888096D01*
X34114561Y15888096D02*
X34209800Y15792858D01*
X34209800Y15792858D02*
X34257419Y15650001D01*
X34257419Y15650001D02*
X34257419Y15411906D01*
X34257419Y16935715D02*
X34257419Y16364287D01*
X34257419Y16650001D02*
X33257419Y16650001D01*
X33257419Y16650001D02*
X33400276Y16554763D01*
X33400276Y16554763D02*
X33495514Y16459525D01*
X33495514Y16459525D02*
X33543133Y16364287D01*
X47960980Y49638334D02*
X48008600Y49590715D01*
X48008600Y49590715D02*
X48056219Y49447858D01*
X48056219Y49447858D02*
X48056219Y49352620D01*
X48056219Y49352620D02*
X48008600Y49209763D01*
X48008600Y49209763D02*
X47913361Y49114525D01*
X47913361Y49114525D02*
X47818123Y49066906D01*
X47818123Y49066906D02*
X47627647Y49019287D01*
X47627647Y49019287D02*
X47484790Y49019287D01*
X47484790Y49019287D02*
X47294314Y49066906D01*
X47294314Y49066906D02*
X47199076Y49114525D01*
X47199076Y49114525D02*
X47103838Y49209763D01*
X47103838Y49209763D02*
X47056219Y49352620D01*
X47056219Y49352620D02*
X47056219Y49447858D01*
X47056219Y49447858D02*
X47103838Y49590715D01*
X47103838Y49590715D02*
X47151457Y49638334D01*
X47389552Y50495477D02*
X48056219Y50495477D01*
X47008600Y50257382D02*
X47722885Y50019287D01*
X47722885Y50019287D02*
X47722885Y50638334D01*
X8096542Y17187420D02*
X8048923Y17139800D01*
X8048923Y17139800D02*
X7906066Y17092181D01*
X7906066Y17092181D02*
X7810828Y17092181D01*
X7810828Y17092181D02*
X7667971Y17139800D01*
X7667971Y17139800D02*
X7572733Y17235039D01*
X7572733Y17235039D02*
X7525114Y17330277D01*
X7525114Y17330277D02*
X7477495Y17520753D01*
X7477495Y17520753D02*
X7477495Y17663610D01*
X7477495Y17663610D02*
X7525114Y17854086D01*
X7525114Y17854086D02*
X7572733Y17949324D01*
X7572733Y17949324D02*
X7667971Y18044562D01*
X7667971Y18044562D02*
X7810828Y18092181D01*
X7810828Y18092181D02*
X7906066Y18092181D01*
X7906066Y18092181D02*
X8048923Y18044562D01*
X8048923Y18044562D02*
X8096542Y17996943D01*
X9048923Y17092181D02*
X8477495Y17092181D01*
X8763209Y17092181D02*
X8763209Y18092181D01*
X8763209Y18092181D02*
X8667971Y17949324D01*
X8667971Y17949324D02*
X8572733Y17854086D01*
X8572733Y17854086D02*
X8477495Y17806467D01*
X9382257Y18092181D02*
X10001304Y18092181D01*
X10001304Y18092181D02*
X9667971Y17711229D01*
X9667971Y17711229D02*
X9810828Y17711229D01*
X9810828Y17711229D02*
X9906066Y17663610D01*
X9906066Y17663610D02*
X9953685Y17615991D01*
X9953685Y17615991D02*
X10001304Y17520753D01*
X10001304Y17520753D02*
X10001304Y17282658D01*
X10001304Y17282658D02*
X9953685Y17187420D01*
X9953685Y17187420D02*
X9906066Y17139800D01*
X9906066Y17139800D02*
X9810828Y17092181D01*
X9810828Y17092181D02*
X9525114Y17092181D01*
X9525114Y17092181D02*
X9429876Y17139800D01*
X9429876Y17139800D02*
X9382257Y17187420D01*
X37292980Y44431334D02*
X37340600Y44383715D01*
X37340600Y44383715D02*
X37388219Y44240858D01*
X37388219Y44240858D02*
X37388219Y44145620D01*
X37388219Y44145620D02*
X37340600Y44002763D01*
X37340600Y44002763D02*
X37245361Y43907525D01*
X37245361Y43907525D02*
X37150123Y43859906D01*
X37150123Y43859906D02*
X36959647Y43812287D01*
X36959647Y43812287D02*
X36816790Y43812287D01*
X36816790Y43812287D02*
X36626314Y43859906D01*
X36626314Y43859906D02*
X36531076Y43907525D01*
X36531076Y43907525D02*
X36435838Y44002763D01*
X36435838Y44002763D02*
X36388219Y44145620D01*
X36388219Y44145620D02*
X36388219Y44240858D01*
X36388219Y44240858D02*
X36435838Y44383715D01*
X36435838Y44383715D02*
X36483457Y44431334D01*
X36388219Y44764668D02*
X36388219Y45431334D01*
X36388219Y45431334D02*
X37388219Y45002763D01*
X58882980Y52210143D02*
X58930600Y52162524D01*
X58930600Y52162524D02*
X58978219Y52019667D01*
X58978219Y52019667D02*
X58978219Y51924429D01*
X58978219Y51924429D02*
X58930600Y51781572D01*
X58930600Y51781572D02*
X58835361Y51686334D01*
X58835361Y51686334D02*
X58740123Y51638715D01*
X58740123Y51638715D02*
X58549647Y51591096D01*
X58549647Y51591096D02*
X58406790Y51591096D01*
X58406790Y51591096D02*
X58216314Y51638715D01*
X58216314Y51638715D02*
X58121076Y51686334D01*
X58121076Y51686334D02*
X58025838Y51781572D01*
X58025838Y51781572D02*
X57978219Y51924429D01*
X57978219Y51924429D02*
X57978219Y52019667D01*
X57978219Y52019667D02*
X58025838Y52162524D01*
X58025838Y52162524D02*
X58073457Y52210143D01*
X58978219Y53162524D02*
X58978219Y52591096D01*
X58978219Y52876810D02*
X57978219Y52876810D01*
X57978219Y52876810D02*
X58121076Y52781572D01*
X58121076Y52781572D02*
X58216314Y52686334D01*
X58216314Y52686334D02*
X58263933Y52591096D01*
X57978219Y53495858D02*
X57978219Y54162524D01*
X57978219Y54162524D02*
X58978219Y53733953D01*
X36006467Y9469000D02*
X36149324Y9421381D01*
X36149324Y9421381D02*
X36387419Y9421381D01*
X36387419Y9421381D02*
X36482657Y9469000D01*
X36482657Y9469000D02*
X36530276Y9516620D01*
X36530276Y9516620D02*
X36577895Y9611858D01*
X36577895Y9611858D02*
X36577895Y9707096D01*
X36577895Y9707096D02*
X36530276Y9802334D01*
X36530276Y9802334D02*
X36482657Y9849953D01*
X36482657Y9849953D02*
X36387419Y9897572D01*
X36387419Y9897572D02*
X36196943Y9945191D01*
X36196943Y9945191D02*
X36101705Y9992810D01*
X36101705Y9992810D02*
X36054086Y10040429D01*
X36054086Y10040429D02*
X36006467Y10135667D01*
X36006467Y10135667D02*
X36006467Y10230905D01*
X36006467Y10230905D02*
X36054086Y10326143D01*
X36054086Y10326143D02*
X36101705Y10373762D01*
X36101705Y10373762D02*
X36196943Y10421381D01*
X36196943Y10421381D02*
X36435038Y10421381D01*
X36435038Y10421381D02*
X36577895Y10373762D01*
X36911229Y10421381D02*
X37149324Y9421381D01*
X37149324Y9421381D02*
X37339800Y10135667D01*
X37339800Y10135667D02*
X37530276Y9421381D01*
X37530276Y9421381D02*
X37768372Y10421381D01*
X38673133Y9421381D02*
X38101705Y9421381D01*
X38387419Y9421381D02*
X38387419Y10421381D01*
X38387419Y10421381D02*
X38292181Y10278524D01*
X38292181Y10278524D02*
X38196943Y10183286D01*
X38196943Y10183286D02*
X38101705Y10135667D01*
X24942219Y9480934D02*
X24466028Y9147601D01*
X24942219Y8909506D02*
X23942219Y8909506D01*
X23942219Y8909506D02*
X23942219Y9290458D01*
X23942219Y9290458D02*
X23989838Y9385696D01*
X23989838Y9385696D02*
X24037457Y9433315D01*
X24037457Y9433315D02*
X24132695Y9480934D01*
X24132695Y9480934D02*
X24275552Y9480934D01*
X24275552Y9480934D02*
X24370790Y9433315D01*
X24370790Y9433315D02*
X24418409Y9385696D01*
X24418409Y9385696D02*
X24466028Y9290458D01*
X24466028Y9290458D02*
X24466028Y8909506D01*
X23942219Y10385696D02*
X23942219Y9909506D01*
X23942219Y9909506D02*
X24418409Y9861887D01*
X24418409Y9861887D02*
X24370790Y9909506D01*
X24370790Y9909506D02*
X24323171Y10004744D01*
X24323171Y10004744D02*
X24323171Y10242839D01*
X24323171Y10242839D02*
X24370790Y10338077D01*
X24370790Y10338077D02*
X24418409Y10385696D01*
X24418409Y10385696D02*
X24513647Y10433315D01*
X24513647Y10433315D02*
X24751742Y10433315D01*
X24751742Y10433315D02*
X24846980Y10385696D01*
X24846980Y10385696D02*
X24894600Y10338077D01*
X24894600Y10338077D02*
X24942219Y10242839D01*
X24942219Y10242839D02*
X24942219Y10004744D01*
X24942219Y10004744D02*
X24894600Y9909506D01*
X24894600Y9909506D02*
X24846980Y9861887D01*
X21818019Y16897734D02*
X21341828Y16564401D01*
X21818019Y16326306D02*
X20818019Y16326306D01*
X20818019Y16326306D02*
X20818019Y16707258D01*
X20818019Y16707258D02*
X20865638Y16802496D01*
X20865638Y16802496D02*
X20913257Y16850115D01*
X20913257Y16850115D02*
X21008495Y16897734D01*
X21008495Y16897734D02*
X21151352Y16897734D01*
X21151352Y16897734D02*
X21246590Y16850115D01*
X21246590Y16850115D02*
X21294209Y16802496D01*
X21294209Y16802496D02*
X21341828Y16707258D01*
X21341828Y16707258D02*
X21341828Y16326306D01*
X20818019Y17231068D02*
X20818019Y17850115D01*
X20818019Y17850115D02*
X21198971Y17516782D01*
X21198971Y17516782D02*
X21198971Y17659639D01*
X21198971Y17659639D02*
X21246590Y17754877D01*
X21246590Y17754877D02*
X21294209Y17802496D01*
X21294209Y17802496D02*
X21389447Y17850115D01*
X21389447Y17850115D02*
X21627542Y17850115D01*
X21627542Y17850115D02*
X21722780Y17802496D01*
X21722780Y17802496D02*
X21770400Y17754877D01*
X21770400Y17754877D02*
X21818019Y17659639D01*
X21818019Y17659639D02*
X21818019Y17373925D01*
X21818019Y17373925D02*
X21770400Y17278687D01*
X21770400Y17278687D02*
X21722780Y17231068D01*
X39059142Y14799820D02*
X39011523Y14752200D01*
X39011523Y14752200D02*
X38868666Y14704581D01*
X38868666Y14704581D02*
X38773428Y14704581D01*
X38773428Y14704581D02*
X38630571Y14752200D01*
X38630571Y14752200D02*
X38535333Y14847439D01*
X38535333Y14847439D02*
X38487714Y14942677D01*
X38487714Y14942677D02*
X38440095Y15133153D01*
X38440095Y15133153D02*
X38440095Y15276010D01*
X38440095Y15276010D02*
X38487714Y15466486D01*
X38487714Y15466486D02*
X38535333Y15561724D01*
X38535333Y15561724D02*
X38630571Y15656962D01*
X38630571Y15656962D02*
X38773428Y15704581D01*
X38773428Y15704581D02*
X38868666Y15704581D01*
X38868666Y15704581D02*
X39011523Y15656962D01*
X39011523Y15656962D02*
X39059142Y15609343D01*
X40011523Y14704581D02*
X39440095Y14704581D01*
X39725809Y14704581D02*
X39725809Y15704581D01*
X39725809Y15704581D02*
X39630571Y15561724D01*
X39630571Y15561724D02*
X39535333Y15466486D01*
X39535333Y15466486D02*
X39440095Y15418867D01*
X40630571Y15704581D02*
X40725809Y15704581D01*
X40725809Y15704581D02*
X40821047Y15656962D01*
X40821047Y15656962D02*
X40868666Y15609343D01*
X40868666Y15609343D02*
X40916285Y15514105D01*
X40916285Y15514105D02*
X40963904Y15323629D01*
X40963904Y15323629D02*
X40963904Y15085534D01*
X40963904Y15085534D02*
X40916285Y14895058D01*
X40916285Y14895058D02*
X40868666Y14799820D01*
X40868666Y14799820D02*
X40821047Y14752200D01*
X40821047Y14752200D02*
X40725809Y14704581D01*
X40725809Y14704581D02*
X40630571Y14704581D01*
X40630571Y14704581D02*
X40535333Y14752200D01*
X40535333Y14752200D02*
X40487714Y14799820D01*
X40487714Y14799820D02*
X40440095Y14895058D01*
X40440095Y14895058D02*
X40392476Y15085534D01*
X40392476Y15085534D02*
X40392476Y15323629D01*
X40392476Y15323629D02*
X40440095Y15514105D01*
X40440095Y15514105D02*
X40487714Y15609343D01*
X40487714Y15609343D02*
X40535333Y15656962D01*
X40535333Y15656962D02*
X40630571Y15704581D01*
X25704219Y14713334D02*
X25228028Y14380001D01*
X25704219Y14141906D02*
X24704219Y14141906D01*
X24704219Y14141906D02*
X24704219Y14522858D01*
X24704219Y14522858D02*
X24751838Y14618096D01*
X24751838Y14618096D02*
X24799457Y14665715D01*
X24799457Y14665715D02*
X24894695Y14713334D01*
X24894695Y14713334D02*
X25037552Y14713334D01*
X25037552Y14713334D02*
X25132790Y14665715D01*
X25132790Y14665715D02*
X25180409Y14618096D01*
X25180409Y14618096D02*
X25228028Y14522858D01*
X25228028Y14522858D02*
X25228028Y14141906D01*
X24799457Y15094287D02*
X24751838Y15141906D01*
X24751838Y15141906D02*
X24704219Y15237144D01*
X24704219Y15237144D02*
X24704219Y15475239D01*
X24704219Y15475239D02*
X24751838Y15570477D01*
X24751838Y15570477D02*
X24799457Y15618096D01*
X24799457Y15618096D02*
X24894695Y15665715D01*
X24894695Y15665715D02*
X24989933Y15665715D01*
X24989933Y15665715D02*
X25132790Y15618096D01*
X25132790Y15618096D02*
X25704219Y15046668D01*
X25704219Y15046668D02*
X25704219Y15665715D01*
X10622980Y23222334D02*
X10670600Y23174715D01*
X10670600Y23174715D02*
X10718219Y23031858D01*
X10718219Y23031858D02*
X10718219Y22936620D01*
X10718219Y22936620D02*
X10670600Y22793763D01*
X10670600Y22793763D02*
X10575361Y22698525D01*
X10575361Y22698525D02*
X10480123Y22650906D01*
X10480123Y22650906D02*
X10289647Y22603287D01*
X10289647Y22603287D02*
X10146790Y22603287D01*
X10146790Y22603287D02*
X9956314Y22650906D01*
X9956314Y22650906D02*
X9861076Y22698525D01*
X9861076Y22698525D02*
X9765838Y22793763D01*
X9765838Y22793763D02*
X9718219Y22936620D01*
X9718219Y22936620D02*
X9718219Y23031858D01*
X9718219Y23031858D02*
X9765838Y23174715D01*
X9765838Y23174715D02*
X9813457Y23222334D01*
X10146790Y23793763D02*
X10099171Y23698525D01*
X10099171Y23698525D02*
X10051552Y23650906D01*
X10051552Y23650906D02*
X9956314Y23603287D01*
X9956314Y23603287D02*
X9908695Y23603287D01*
X9908695Y23603287D02*
X9813457Y23650906D01*
X9813457Y23650906D02*
X9765838Y23698525D01*
X9765838Y23698525D02*
X9718219Y23793763D01*
X9718219Y23793763D02*
X9718219Y23984239D01*
X9718219Y23984239D02*
X9765838Y24079477D01*
X9765838Y24079477D02*
X9813457Y24127096D01*
X9813457Y24127096D02*
X9908695Y24174715D01*
X9908695Y24174715D02*
X9956314Y24174715D01*
X9956314Y24174715D02*
X10051552Y24127096D01*
X10051552Y24127096D02*
X10099171Y24079477D01*
X10099171Y24079477D02*
X10146790Y23984239D01*
X10146790Y23984239D02*
X10146790Y23793763D01*
X10146790Y23793763D02*
X10194409Y23698525D01*
X10194409Y23698525D02*
X10242028Y23650906D01*
X10242028Y23650906D02*
X10337266Y23603287D01*
X10337266Y23603287D02*
X10527742Y23603287D01*
X10527742Y23603287D02*
X10622980Y23650906D01*
X10622980Y23650906D02*
X10670600Y23698525D01*
X10670600Y23698525D02*
X10718219Y23793763D01*
X10718219Y23793763D02*
X10718219Y23984239D01*
X10718219Y23984239D02*
X10670600Y24079477D01*
X10670600Y24079477D02*
X10622980Y24127096D01*
X10622980Y24127096D02*
X10527742Y24174715D01*
X10527742Y24174715D02*
X10337266Y24174715D01*
X10337266Y24174715D02*
X10242028Y24127096D01*
X10242028Y24127096D02*
X10194409Y24079477D01*
X10194409Y24079477D02*
X10146790Y23984239D01*
X27710819Y7969706D02*
X26710819Y7969706D01*
X26710819Y7969706D02*
X26710819Y8207801D01*
X26710819Y8207801D02*
X26758438Y8350658D01*
X26758438Y8350658D02*
X26853676Y8445896D01*
X26853676Y8445896D02*
X26948914Y8493515D01*
X26948914Y8493515D02*
X27139390Y8541134D01*
X27139390Y8541134D02*
X27282247Y8541134D01*
X27282247Y8541134D02*
X27472723Y8493515D01*
X27472723Y8493515D02*
X27567961Y8445896D01*
X27567961Y8445896D02*
X27663200Y8350658D01*
X27663200Y8350658D02*
X27710819Y8207801D01*
X27710819Y8207801D02*
X27710819Y7969706D01*
X26806057Y8922087D02*
X26758438Y8969706D01*
X26758438Y8969706D02*
X26710819Y9064944D01*
X26710819Y9064944D02*
X26710819Y9303039D01*
X26710819Y9303039D02*
X26758438Y9398277D01*
X26758438Y9398277D02*
X26806057Y9445896D01*
X26806057Y9445896D02*
X26901295Y9493515D01*
X26901295Y9493515D02*
X26996533Y9493515D01*
X26996533Y9493515D02*
X27139390Y9445896D01*
X27139390Y9445896D02*
X27710819Y8874468D01*
X27710819Y8874468D02*
X27710819Y9493515D01*
X21050542Y53052220D02*
X21002923Y53004600D01*
X21002923Y53004600D02*
X20860066Y52956981D01*
X20860066Y52956981D02*
X20764828Y52956981D01*
X20764828Y52956981D02*
X20621971Y53004600D01*
X20621971Y53004600D02*
X20526733Y53099839D01*
X20526733Y53099839D02*
X20479114Y53195077D01*
X20479114Y53195077D02*
X20431495Y53385553D01*
X20431495Y53385553D02*
X20431495Y53528410D01*
X20431495Y53528410D02*
X20479114Y53718886D01*
X20479114Y53718886D02*
X20526733Y53814124D01*
X20526733Y53814124D02*
X20621971Y53909362D01*
X20621971Y53909362D02*
X20764828Y53956981D01*
X20764828Y53956981D02*
X20860066Y53956981D01*
X20860066Y53956981D02*
X21002923Y53909362D01*
X21002923Y53909362D02*
X21050542Y53861743D01*
X22002923Y52956981D02*
X21431495Y52956981D01*
X21717209Y52956981D02*
X21717209Y53956981D01*
X21717209Y53956981D02*
X21621971Y53814124D01*
X21621971Y53814124D02*
X21526733Y53718886D01*
X21526733Y53718886D02*
X21431495Y53671267D01*
X22860066Y53956981D02*
X22669590Y53956981D01*
X22669590Y53956981D02*
X22574352Y53909362D01*
X22574352Y53909362D02*
X22526733Y53861743D01*
X22526733Y53861743D02*
X22431495Y53718886D01*
X22431495Y53718886D02*
X22383876Y53528410D01*
X22383876Y53528410D02*
X22383876Y53147458D01*
X22383876Y53147458D02*
X22431495Y53052220D01*
X22431495Y53052220D02*
X22479114Y53004600D01*
X22479114Y53004600D02*
X22574352Y52956981D01*
X22574352Y52956981D02*
X22764828Y52956981D01*
X22764828Y52956981D02*
X22860066Y53004600D01*
X22860066Y53004600D02*
X22907685Y53052220D01*
X22907685Y53052220D02*
X22955304Y53147458D01*
X22955304Y53147458D02*
X22955304Y53385553D01*
X22955304Y53385553D02*
X22907685Y53480791D01*
X22907685Y53480791D02*
X22860066Y53528410D01*
X22860066Y53528410D02*
X22764828Y53576029D01*
X22764828Y53576029D02*
X22574352Y53576029D01*
X22574352Y53576029D02*
X22479114Y53528410D01*
X22479114Y53528410D02*
X22431495Y53480791D01*
X22431495Y53480791D02*
X22383876Y53385553D01*
X18478733Y49952181D02*
X18145400Y50428372D01*
X17907305Y49952181D02*
X17907305Y50952181D01*
X17907305Y50952181D02*
X18288257Y50952181D01*
X18288257Y50952181D02*
X18383495Y50904562D01*
X18383495Y50904562D02*
X18431114Y50856943D01*
X18431114Y50856943D02*
X18478733Y50761705D01*
X18478733Y50761705D02*
X18478733Y50618848D01*
X18478733Y50618848D02*
X18431114Y50523610D01*
X18431114Y50523610D02*
X18383495Y50475991D01*
X18383495Y50475991D02*
X18288257Y50428372D01*
X18288257Y50428372D02*
X17907305Y50428372D01*
X19335876Y50952181D02*
X19145400Y50952181D01*
X19145400Y50952181D02*
X19050162Y50904562D01*
X19050162Y50904562D02*
X19002543Y50856943D01*
X19002543Y50856943D02*
X18907305Y50714086D01*
X18907305Y50714086D02*
X18859686Y50523610D01*
X18859686Y50523610D02*
X18859686Y50142658D01*
X18859686Y50142658D02*
X18907305Y50047420D01*
X18907305Y50047420D02*
X18954924Y49999800D01*
X18954924Y49999800D02*
X19050162Y49952181D01*
X19050162Y49952181D02*
X19240638Y49952181D01*
X19240638Y49952181D02*
X19335876Y49999800D01*
X19335876Y49999800D02*
X19383495Y50047420D01*
X19383495Y50047420D02*
X19431114Y50142658D01*
X19431114Y50142658D02*
X19431114Y50380753D01*
X19431114Y50380753D02*
X19383495Y50475991D01*
X19383495Y50475991D02*
X19335876Y50523610D01*
X19335876Y50523610D02*
X19240638Y50571229D01*
X19240638Y50571229D02*
X19050162Y50571229D01*
X19050162Y50571229D02*
X18954924Y50523610D01*
X18954924Y50523610D02*
X18907305Y50475991D01*
X18907305Y50475991D02*
X18859686Y50380753D01*
X38855942Y17009620D02*
X38808323Y16962000D01*
X38808323Y16962000D02*
X38665466Y16914381D01*
X38665466Y16914381D02*
X38570228Y16914381D01*
X38570228Y16914381D02*
X38427371Y16962000D01*
X38427371Y16962000D02*
X38332133Y17057239D01*
X38332133Y17057239D02*
X38284514Y17152477D01*
X38284514Y17152477D02*
X38236895Y17342953D01*
X38236895Y17342953D02*
X38236895Y17485810D01*
X38236895Y17485810D02*
X38284514Y17676286D01*
X38284514Y17676286D02*
X38332133Y17771524D01*
X38332133Y17771524D02*
X38427371Y17866762D01*
X38427371Y17866762D02*
X38570228Y17914381D01*
X38570228Y17914381D02*
X38665466Y17914381D01*
X38665466Y17914381D02*
X38808323Y17866762D01*
X38808323Y17866762D02*
X38855942Y17819143D01*
X39808323Y16914381D02*
X39236895Y16914381D01*
X39522609Y16914381D02*
X39522609Y17914381D01*
X39522609Y17914381D02*
X39427371Y17771524D01*
X39427371Y17771524D02*
X39332133Y17676286D01*
X39332133Y17676286D02*
X39236895Y17628667D01*
X40189276Y17819143D02*
X40236895Y17866762D01*
X40236895Y17866762D02*
X40332133Y17914381D01*
X40332133Y17914381D02*
X40570228Y17914381D01*
X40570228Y17914381D02*
X40665466Y17866762D01*
X40665466Y17866762D02*
X40713085Y17819143D01*
X40713085Y17819143D02*
X40760704Y17723905D01*
X40760704Y17723905D02*
X40760704Y17628667D01*
X40760704Y17628667D02*
X40713085Y17485810D01*
X40713085Y17485810D02*
X40141657Y16914381D01*
X40141657Y16914381D02*
X40760704Y16914381D01*
X46926733Y43000181D02*
X46450543Y43000181D01*
X46450543Y43000181D02*
X46450543Y44000181D01*
X47783876Y43000181D02*
X47212448Y43000181D01*
X47498162Y43000181D02*
X47498162Y44000181D01*
X47498162Y44000181D02*
X47402924Y43857324D01*
X47402924Y43857324D02*
X47307686Y43762086D01*
X47307686Y43762086D02*
X47212448Y43714467D01*
X18447980Y21857143D02*
X18495600Y21809524D01*
X18495600Y21809524D02*
X18543219Y21666667D01*
X18543219Y21666667D02*
X18543219Y21571429D01*
X18543219Y21571429D02*
X18495600Y21428572D01*
X18495600Y21428572D02*
X18400361Y21333334D01*
X18400361Y21333334D02*
X18305123Y21285715D01*
X18305123Y21285715D02*
X18114647Y21238096D01*
X18114647Y21238096D02*
X17971790Y21238096D01*
X17971790Y21238096D02*
X17781314Y21285715D01*
X17781314Y21285715D02*
X17686076Y21333334D01*
X17686076Y21333334D02*
X17590838Y21428572D01*
X17590838Y21428572D02*
X17543219Y21571429D01*
X17543219Y21571429D02*
X17543219Y21666667D01*
X17543219Y21666667D02*
X17590838Y21809524D01*
X17590838Y21809524D02*
X17638457Y21857143D01*
X18543219Y22809524D02*
X18543219Y22238096D01*
X18543219Y22523810D02*
X17543219Y22523810D01*
X17543219Y22523810D02*
X17686076Y22428572D01*
X17686076Y22428572D02*
X17781314Y22333334D01*
X17781314Y22333334D02*
X17828933Y22238096D01*
X18543219Y23761905D02*
X18543219Y23190477D01*
X18543219Y23476191D02*
X17543219Y23476191D01*
X17543219Y23476191D02*
X17686076Y23380953D01*
X17686076Y23380953D02*
X17781314Y23285715D01*
X17781314Y23285715D02*
X17828933Y23190477D01*
X60597504Y46606334D02*
X60597504Y47082524D01*
X60883219Y46511096D02*
X59883219Y46844429D01*
X59883219Y46844429D02*
X60883219Y47177762D01*
X60359409Y47511096D02*
X60359409Y47844429D01*
X60883219Y47987286D02*
X60883219Y47511096D01*
X60883219Y47511096D02*
X59883219Y47511096D01*
X59883219Y47511096D02*
X59883219Y47987286D01*
X59978457Y48368239D02*
X59930838Y48415858D01*
X59930838Y48415858D02*
X59883219Y48511096D01*
X59883219Y48511096D02*
X59883219Y48749191D01*
X59883219Y48749191D02*
X59930838Y48844429D01*
X59930838Y48844429D02*
X59978457Y48892048D01*
X59978457Y48892048D02*
X60073695Y48939667D01*
X60073695Y48939667D02*
X60168933Y48939667D01*
X60168933Y48939667D02*
X60311790Y48892048D01*
X60311790Y48892048D02*
X60883219Y48320620D01*
X60883219Y48320620D02*
X60883219Y48939667D01*
X20701305Y54684181D02*
X20701305Y55684181D01*
X20701305Y55684181D02*
X20939400Y55684181D01*
X20939400Y55684181D02*
X21082257Y55636562D01*
X21082257Y55636562D02*
X21177495Y55541324D01*
X21177495Y55541324D02*
X21225114Y55446086D01*
X21225114Y55446086D02*
X21272733Y55255610D01*
X21272733Y55255610D02*
X21272733Y55112753D01*
X21272733Y55112753D02*
X21225114Y54922277D01*
X21225114Y54922277D02*
X21177495Y54827039D01*
X21177495Y54827039D02*
X21082257Y54731800D01*
X21082257Y54731800D02*
X20939400Y54684181D01*
X20939400Y54684181D02*
X20701305Y54684181D01*
X21606067Y55684181D02*
X22225114Y55684181D01*
X22225114Y55684181D02*
X21891781Y55303229D01*
X21891781Y55303229D02*
X22034638Y55303229D01*
X22034638Y55303229D02*
X22129876Y55255610D01*
X22129876Y55255610D02*
X22177495Y55207991D01*
X22177495Y55207991D02*
X22225114Y55112753D01*
X22225114Y55112753D02*
X22225114Y54874658D01*
X22225114Y54874658D02*
X22177495Y54779420D01*
X22177495Y54779420D02*
X22129876Y54731800D01*
X22129876Y54731800D02*
X22034638Y54684181D01*
X22034638Y54684181D02*
X21748924Y54684181D01*
X21748924Y54684181D02*
X21653686Y54731800D01*
X21653686Y54731800D02*
X21606067Y54779420D01*
X51135980Y46368143D02*
X51183600Y46320524D01*
X51183600Y46320524D02*
X51231219Y46177667D01*
X51231219Y46177667D02*
X51231219Y46082429D01*
X51231219Y46082429D02*
X51183600Y45939572D01*
X51183600Y45939572D02*
X51088361Y45844334D01*
X51088361Y45844334D02*
X50993123Y45796715D01*
X50993123Y45796715D02*
X50802647Y45749096D01*
X50802647Y45749096D02*
X50659790Y45749096D01*
X50659790Y45749096D02*
X50469314Y45796715D01*
X50469314Y45796715D02*
X50374076Y45844334D01*
X50374076Y45844334D02*
X50278838Y45939572D01*
X50278838Y45939572D02*
X50231219Y46082429D01*
X50231219Y46082429D02*
X50231219Y46177667D01*
X50231219Y46177667D02*
X50278838Y46320524D01*
X50278838Y46320524D02*
X50326457Y46368143D01*
X51231219Y47320524D02*
X51231219Y46749096D01*
X51231219Y47034810D02*
X50231219Y47034810D01*
X50231219Y47034810D02*
X50374076Y46939572D01*
X50374076Y46939572D02*
X50469314Y46844334D01*
X50469314Y46844334D02*
X50516933Y46749096D01*
X51231219Y47796715D02*
X51231219Y47987191D01*
X51231219Y47987191D02*
X51183600Y48082429D01*
X51183600Y48082429D02*
X51135980Y48130048D01*
X51135980Y48130048D02*
X50993123Y48225286D01*
X50993123Y48225286D02*
X50802647Y48272905D01*
X50802647Y48272905D02*
X50421695Y48272905D01*
X50421695Y48272905D02*
X50326457Y48225286D01*
X50326457Y48225286D02*
X50278838Y48177667D01*
X50278838Y48177667D02*
X50231219Y48082429D01*
X50231219Y48082429D02*
X50231219Y47891953D01*
X50231219Y47891953D02*
X50278838Y47796715D01*
X50278838Y47796715D02*
X50326457Y47749096D01*
X50326457Y47749096D02*
X50421695Y47701477D01*
X50421695Y47701477D02*
X50659790Y47701477D01*
X50659790Y47701477D02*
X50755028Y47749096D01*
X50755028Y47749096D02*
X50802647Y47796715D01*
X50802647Y47796715D02*
X50850266Y47891953D01*
X50850266Y47891953D02*
X50850266Y48082429D01*
X50850266Y48082429D02*
X50802647Y48177667D01*
X50802647Y48177667D02*
X50755028Y48225286D01*
X50755028Y48225286D02*
X50659790Y48272905D01*
X24364380Y6032943D02*
X24412000Y5985324D01*
X24412000Y5985324D02*
X24459619Y5842467D01*
X24459619Y5842467D02*
X24459619Y5747229D01*
X24459619Y5747229D02*
X24412000Y5604372D01*
X24412000Y5604372D02*
X24316761Y5509134D01*
X24316761Y5509134D02*
X24221523Y5461515D01*
X24221523Y5461515D02*
X24031047Y5413896D01*
X24031047Y5413896D02*
X23888190Y5413896D01*
X23888190Y5413896D02*
X23697714Y5461515D01*
X23697714Y5461515D02*
X23602476Y5509134D01*
X23602476Y5509134D02*
X23507238Y5604372D01*
X23507238Y5604372D02*
X23459619Y5747229D01*
X23459619Y5747229D02*
X23459619Y5842467D01*
X23459619Y5842467D02*
X23507238Y5985324D01*
X23507238Y5985324D02*
X23554857Y6032943D01*
X24459619Y6985324D02*
X24459619Y6413896D01*
X24459619Y6699610D02*
X23459619Y6699610D01*
X23459619Y6699610D02*
X23602476Y6604372D01*
X23602476Y6604372D02*
X23697714Y6509134D01*
X23697714Y6509134D02*
X23745333Y6413896D01*
X23459619Y7890086D02*
X23459619Y7413896D01*
X23459619Y7413896D02*
X23935809Y7366277D01*
X23935809Y7366277D02*
X23888190Y7413896D01*
X23888190Y7413896D02*
X23840571Y7509134D01*
X23840571Y7509134D02*
X23840571Y7747229D01*
X23840571Y7747229D02*
X23888190Y7842467D01*
X23888190Y7842467D02*
X23935809Y7890086D01*
X23935809Y7890086D02*
X24031047Y7937705D01*
X24031047Y7937705D02*
X24269142Y7937705D01*
X24269142Y7937705D02*
X24364380Y7890086D01*
X24364380Y7890086D02*
X24412000Y7842467D01*
X24412000Y7842467D02*
X24459619Y7747229D01*
X24459619Y7747229D02*
X24459619Y7509134D01*
X24459619Y7509134D02*
X24412000Y7413896D01*
X24412000Y7413896D02*
X24364380Y7366277D01*
X36403980Y54083334D02*
X36451600Y54035715D01*
X36451600Y54035715D02*
X36499219Y53892858D01*
X36499219Y53892858D02*
X36499219Y53797620D01*
X36499219Y53797620D02*
X36451600Y53654763D01*
X36451600Y53654763D02*
X36356361Y53559525D01*
X36356361Y53559525D02*
X36261123Y53511906D01*
X36261123Y53511906D02*
X36070647Y53464287D01*
X36070647Y53464287D02*
X35927790Y53464287D01*
X35927790Y53464287D02*
X35737314Y53511906D01*
X35737314Y53511906D02*
X35642076Y53559525D01*
X35642076Y53559525D02*
X35546838Y53654763D01*
X35546838Y53654763D02*
X35499219Y53797620D01*
X35499219Y53797620D02*
X35499219Y53892858D01*
X35499219Y53892858D02*
X35546838Y54035715D01*
X35546838Y54035715D02*
X35594457Y54083334D01*
X36499219Y55035715D02*
X36499219Y54464287D01*
X36499219Y54750001D02*
X35499219Y54750001D01*
X35499219Y54750001D02*
X35642076Y54654763D01*
X35642076Y54654763D02*
X35737314Y54559525D01*
X35737314Y54559525D02*
X35784933Y54464287D01*
X25297066Y52045181D02*
X25297066Y51330896D01*
X25297066Y51330896D02*
X25249447Y51188039D01*
X25249447Y51188039D02*
X25154209Y51092800D01*
X25154209Y51092800D02*
X25011352Y51045181D01*
X25011352Y51045181D02*
X24916114Y51045181D01*
X25725638Y51949943D02*
X25773257Y51997562D01*
X25773257Y51997562D02*
X25868495Y52045181D01*
X25868495Y52045181D02*
X26106590Y52045181D01*
X26106590Y52045181D02*
X26201828Y51997562D01*
X26201828Y51997562D02*
X26249447Y51949943D01*
X26249447Y51949943D02*
X26297066Y51854705D01*
X26297066Y51854705D02*
X26297066Y51759467D01*
X26297066Y51759467D02*
X26249447Y51616610D01*
X26249447Y51616610D02*
X25678019Y51045181D01*
X25678019Y51045181D02*
X26297066Y51045181D01*
X14782219Y27286334D02*
X14306028Y26953001D01*
X14782219Y26714906D02*
X13782219Y26714906D01*
X13782219Y26714906D02*
X13782219Y27095858D01*
X13782219Y27095858D02*
X13829838Y27191096D01*
X13829838Y27191096D02*
X13877457Y27238715D01*
X13877457Y27238715D02*
X13972695Y27286334D01*
X13972695Y27286334D02*
X14115552Y27286334D01*
X14115552Y27286334D02*
X14210790Y27238715D01*
X14210790Y27238715D02*
X14258409Y27191096D01*
X14258409Y27191096D02*
X14306028Y27095858D01*
X14306028Y27095858D02*
X14306028Y26714906D01*
X14782219Y28238715D02*
X14782219Y27667287D01*
X14782219Y27953001D02*
X13782219Y27953001D01*
X13782219Y27953001D02*
X13925076Y27857763D01*
X13925076Y27857763D02*
X14020314Y27762525D01*
X14020314Y27762525D02*
X14067933Y27667287D01*
D14*
%TO.C,SW2*%
X16009400Y63397000D02*
X16009400Y59547000D01*
X16009400Y56907000D02*
X16009400Y56607000D01*
X16899400Y56607000D02*
X16009400Y56607000D01*
X16899400Y56607000D02*
X16899400Y56957000D01*
X17389400Y59157000D02*
X22369400Y59157000D01*
X22859400Y56607000D02*
X22859400Y56957000D01*
X23749400Y63397000D02*
X16009400Y63397000D01*
X23749400Y59547000D02*
X23749400Y63397000D01*
X23749400Y56907000D02*
X23749400Y56607000D01*
X23749400Y56607000D02*
X22859400Y56607000D01*
%TO.C,J5*%
X36494400Y57952000D02*
X36494400Y62312000D01*
X36494400Y57952000D02*
X33994400Y57952000D01*
X33994400Y57952000D02*
X33994400Y57752000D01*
X33334400Y57752000D02*
X33994400Y57752000D01*
X30474400Y57952000D02*
X27974400Y57952000D01*
X27974400Y57952000D02*
X27974400Y62312000D01*
%TO.C,D4*%
X55194400Y54338000D02*
X53724400Y54338000D01*
X53724400Y54338000D02*
X53724400Y52053000D01*
X55194400Y52053000D02*
X55194400Y54338000D01*
%TO.C,C9*%
X8436600Y26526780D02*
X8436600Y26245620D01*
X7416600Y26526780D02*
X7416600Y26245620D01*
%TO.C,C5*%
X40729820Y54252000D02*
X41010980Y54252000D01*
X40729820Y53232000D02*
X41010980Y53232000D01*
%TO.C,C2*%
X35001400Y50828252D02*
X35001400Y50305748D01*
X33531400Y50828252D02*
X33531400Y50305748D01*
%TO.C,R8*%
X14818658Y18167500D02*
X14344142Y18167500D01*
X14818658Y19212500D02*
X14344142Y19212500D01*
%TO.C,BZ1*%
X22840000Y8890000D02*
G75*
G03*
X7640000Y8890000I-7600000J0D01*
G01*
X7640000Y8890000D02*
G75*
G03*
X22840000Y8890000I7600000J0D01*
G01*
%TO.C,J1*%
X34139400Y22941000D02*
X26459400Y22941000D01*
X34139400Y22941000D02*
X34139400Y20281000D01*
X26459400Y22941000D02*
X26459400Y20281000D01*
X36739400Y21611000D02*
X36739400Y20281000D01*
X36739400Y20281000D02*
X35409400Y20281000D01*
X34139400Y20281000D02*
X26459400Y20281000D01*
%TO.C,C3*%
X44170400Y45473420D02*
X44170400Y45754580D01*
X45190400Y45473420D02*
X45190400Y45754580D01*
%TO.C,SW3*%
X40012400Y63340000D02*
X40012400Y59490000D01*
X40012400Y56850000D02*
X40012400Y56550000D01*
X40902400Y56550000D02*
X40012400Y56550000D01*
X40902400Y56550000D02*
X40902400Y56900000D01*
X41392400Y59100000D02*
X46372400Y59100000D01*
X46862400Y56550000D02*
X46862400Y56900000D01*
X47752400Y63340000D02*
X40012400Y63340000D01*
X47752400Y59490000D02*
X47752400Y63340000D01*
X47752400Y56850000D02*
X47752400Y56550000D01*
X47752400Y56550000D02*
X46862400Y56550000D01*
%TO.C,Q2*%
X6362400Y14880000D02*
X6362400Y16555000D01*
X6362400Y14880000D02*
X6362400Y14230000D01*
X3242400Y14880000D02*
X3242400Y15530000D01*
X3242400Y14880000D02*
X3242400Y14230000D01*
%TO.C,R4*%
X28946900Y16438058D02*
X28946900Y15963542D01*
X27901900Y16438058D02*
X27901900Y15963542D01*
%TO.C,U1*%
X-49000Y30118600D02*
X5971000Y30118600D01*
X-49000Y30118600D02*
X-49000Y48358600D01*
X5971000Y30118600D02*
X5971000Y28238600D01*
X19871000Y30118600D02*
X20191000Y30118600D01*
X20191000Y30118600D02*
X20191000Y31138600D01*
X20191000Y47238600D02*
X20191000Y48358600D01*
X-49000Y48358600D02*
X6471000Y48358600D01*
X19871000Y48358600D02*
X20171000Y48358600D01*
%TO.C,U3*%
X43391400Y52127000D02*
X43391400Y46117000D01*
X36571400Y49877000D02*
X36571400Y46117000D01*
X43391400Y46117000D02*
X42131400Y46117000D01*
X36571400Y46117000D02*
X37831400Y46117000D01*
%TO.C,U2*%
X28198400Y25449000D02*
X28548400Y25449000D01*
X28198400Y25449000D02*
X28198400Y41649000D01*
X28548400Y25449000D02*
X28548400Y24549000D01*
X43998400Y25449000D02*
X44398400Y25449000D01*
X44398400Y25449000D02*
X44398400Y41649000D01*
X28198400Y41649000D02*
X28598400Y41649000D01*
X44398400Y41649000D02*
X43998400Y41649000D01*
%TO.C,R7*%
X51650900Y51218742D02*
X51650900Y51693258D01*
X52695900Y51218742D02*
X52695900Y51693258D01*
%TO.C,C6*%
X32388400Y44651748D02*
X32388400Y45174252D01*
X33858400Y44651748D02*
X33858400Y45174252D01*
%TO.C,D1*%
X32952600Y17570000D02*
X32302600Y17570000D01*
X32952600Y17570000D02*
X32952600Y14730000D01*
X30652600Y17570000D02*
X30652600Y14730000D01*
%TO.C,C4*%
X48644400Y49797748D02*
X48644400Y50320252D01*
X50114400Y49797748D02*
X50114400Y50320252D01*
%TO.C,C13*%
X9006980Y15513000D02*
X8725820Y15513000D01*
X9006980Y16533000D02*
X8725820Y16533000D01*
%TO.C,C7*%
X34518400Y44584420D02*
X34518400Y44865580D01*
X35538400Y44584420D02*
X35538400Y44865580D01*
%TO.C,C17*%
X56235400Y52712420D02*
X56235400Y52993580D01*
X57255400Y52712420D02*
X57255400Y52993580D01*
%TO.C,SW1*%
X32461600Y12640800D02*
X30961600Y12640800D01*
X28461600Y11390800D02*
X28461600Y6890800D01*
X34961600Y6890800D02*
X34961600Y11390800D01*
X30961600Y5640800D02*
X32461600Y5640800D01*
%TO.C,R5*%
X25035300Y12628058D02*
X25035300Y12153542D01*
X23990300Y12628058D02*
X23990300Y12153542D01*
%TO.C,R3*%
X22313900Y17055742D02*
X22313900Y17530258D01*
X23358900Y17055742D02*
X23358900Y17530258D01*
%TO.C,C10*%
X36050148Y16035500D02*
X36572652Y16035500D01*
X36050148Y14565500D02*
X36572652Y14565500D01*
%TO.C,R2*%
X24599900Y17182742D02*
X24599900Y17657258D01*
X25644900Y17182742D02*
X25644900Y17657258D01*
%TO.C,C8*%
X11100000Y26545852D02*
X11100000Y26023348D01*
X9630000Y26545852D02*
X9630000Y26023348D01*
%TO.C,D2*%
X27737000Y13063000D02*
X26267000Y13063000D01*
X26267000Y13063000D02*
X26267000Y10778000D01*
X27737000Y10778000D02*
X27737000Y13063000D01*
%TO.C,C16*%
X18785980Y53003400D02*
X18504820Y53003400D01*
X18785980Y54023400D02*
X18504820Y54023400D01*
%TO.C,R6*%
X18882658Y51314500D02*
X18408142Y51314500D01*
X18882658Y52359500D02*
X18408142Y52359500D01*
%TO.C,C12*%
X36157820Y17980800D02*
X36438980Y17980800D01*
X36157820Y16960800D02*
X36438980Y16960800D01*
%TO.C,L1*%
X46803621Y45362000D02*
X47129179Y45362000D01*
X46803621Y44342000D02*
X47129179Y44342000D01*
%TO.C,C11*%
X16869400Y22640580D02*
X16869400Y22359420D01*
X15849400Y22640580D02*
X15849400Y22359420D01*
%TO.C,D3*%
X17160400Y56051800D02*
X17160400Y54581800D01*
X17160400Y54581800D02*
X19445400Y54581800D01*
X19445400Y56051800D02*
X17160400Y56051800D01*
%TO.C,C19*%
X48742400Y45600420D02*
X48742400Y45881580D01*
X49762400Y45600420D02*
X49762400Y45881580D01*
%TO.C,C15*%
X26064200Y6803980D02*
X26064200Y6522820D01*
X25044200Y6803980D02*
X25044200Y6522820D01*
%TO.C,C1*%
X37058400Y54236420D02*
X37058400Y54517580D01*
X38078400Y54236420D02*
X38078400Y54517580D01*
%TO.C,J2*%
X22540400Y50435000D02*
X23865400Y50435000D01*
X23865400Y50500000D02*
X23865400Y50435000D01*
X23865400Y50500000D02*
X27395400Y50500000D01*
X23865400Y46635000D02*
X23865400Y46570000D01*
X23865400Y46570000D02*
X27395400Y46570000D01*
X27395400Y50500000D02*
X27395400Y50435000D01*
X27395400Y46635000D02*
X27395400Y46570000D01*
%TO.C,R1*%
X12280900Y26707742D02*
X12280900Y27182258D01*
X13325900Y26707742D02*
X13325900Y27182258D01*
%TD*%
D15*
X25630400Y33041000D03*
X11660400Y46122000D03*
X18137400Y20468000D03*
X59285400Y24659000D03*
X43029400Y46376000D03*
X62206400Y47265000D03*
X13040163Y55180000D03*
X50014400Y42566000D03*
X23217400Y42312000D03*
X43664400Y53869000D03*
X45188400Y26056000D03*
X23217400Y40661000D03*
X17908800Y39060800D03*
X50268400Y55266000D03*
X47474400Y51202000D03*
X25630400Y48535000D03*
X58777400Y47265000D03*
X25376400Y34946000D03*
X3913400Y17420000D03*
X37568400Y56536000D03*
X27281400Y25802000D03*
X59690000Y59690000D03*
X61825400Y24659000D03*
X51919400Y47265000D03*
X43283400Y23262000D03*
X50014400Y31771000D03*
X16359400Y20214000D03*
X25605000Y8543000D03*
X41378400Y38248000D03*
X30075568Y17089632D03*
X13921000Y43505800D03*
X29948400Y57044000D03*
X3810000Y3810000D03*
X43283400Y28850000D03*
X42140400Y55520000D03*
X53697400Y24659000D03*
X8104400Y14753000D03*
X35917400Y55393000D03*
X29186400Y45741000D03*
X18010400Y35073000D03*
X3810000Y59690000D03*
X40108400Y43201000D03*
X29313400Y28342000D03*
X56618400Y24659000D03*
X17985000Y42210400D03*
X50268400Y22246000D03*
X44934400Y43328000D03*
X33123400Y47392000D03*
X9044200Y25421000D03*
X12930400Y22119000D03*
X44426400Y51202000D03*
X55348400Y47265000D03*
X59690000Y3810000D03*
X50014400Y35708000D03*
X10339600Y40305400D03*
X42267400Y43328000D03*
X19229600Y28977000D03*
X42267400Y49170000D03*
X46839400Y46376000D03*
X17959600Y40559400D03*
X23217400Y39010000D03*
X50014400Y39391000D03*
X49887400Y27580000D03*
X34393400Y48154000D03*
X55729400Y50440000D03*
X13844800Y37235100D03*
X20959900Y22373000D03*
X21185400Y50694000D03*
X19939000Y25548000D03*
X19280400Y21103000D03*
X19153400Y44623400D03*
X21947400Y37232000D03*
X23090400Y35962000D03*
X19534400Y27834000D03*
X15025900Y25992500D03*
X21439400Y46122000D03*
X21845900Y23770000D03*
X24515900Y31644000D03*
X21794900Y43934500D03*
X16379400Y58227000D03*
X23379400Y58227000D03*
X17629400Y60727000D03*
X22129400Y60727000D03*
D16*
X35534400Y61362000D03*
X28934400Y61362000D03*
D15*
X11440000Y8890000D03*
X19040000Y8890000D03*
X35409400Y21611000D03*
X32869400Y21611000D03*
X30329400Y21611000D03*
X27789400Y21611000D03*
X40382400Y58170000D03*
X47382400Y58170000D03*
X41632400Y60670000D03*
X46132400Y60670000D03*
X33961600Y12390800D03*
X33961600Y5890800D03*
X29461600Y12390800D03*
X29461600Y5890800D03*
X62253400Y45010000D03*
X62253400Y43010000D03*
X57253400Y43010000D03*
X62253400Y41010000D03*
X57253400Y41010000D03*
X62253400Y39010000D03*
X57253400Y39010000D03*
X62253400Y37010000D03*
X57253400Y37010000D03*
X62253400Y35010000D03*
X57253400Y35010000D03*
X62253400Y33010000D03*
X57253400Y33010000D03*
X62253400Y31010000D03*
X57253400Y31010000D03*
X62253400Y29010000D03*
X57253400Y29010000D03*
X62253400Y27010000D03*
X57253400Y27010000D03*
M02*
