%TF.GenerationSoftware,KiCad,Pcbnew,7.0.10*%
%TF.CreationDate,2025-01-08T07:23:31-05:00*%
%TF.ProjectId,PostAlertBaseStationV6,506f7374-416c-4657-9274-426173655374,5.0*%
%TF.SameCoordinates,Original*%
%TF.FileFunction,Legend,Bot*%
%TF.FilePolarity,Positive*%
%FSLAX46Y46*%
G04 Gerber Fmt 4.6, Leading zero omitted, Abs format (unit mm)*
G04 Created by KiCad (PCBNEW 7.0.10) date 2025-01-08 07:23:31*
%MOMM*%
%LPD*%
G01*
G04 APERTURE LIST*
%ADD10C,0.350000*%
%ADD11O,0.500000X1.200000*%
G04 APERTURE END LIST*
D10*
X25630400Y33041000D03*
X11660400Y46122000D03*
X18137400Y20468000D03*
X59285400Y24659000D03*
X43029400Y46376000D03*
X62206400Y47265000D03*
X13040163Y55180000D03*
X50014400Y42566000D03*
X23217400Y42312000D03*
X43664400Y53869000D03*
X45188400Y26056000D03*
X23217400Y40661000D03*
X17908800Y39060800D03*
X50268400Y55266000D03*
X47474400Y51202000D03*
X25630400Y48535000D03*
X58777400Y47265000D03*
X25376400Y34946000D03*
X3913400Y17420000D03*
X37568400Y56536000D03*
X27281400Y25802000D03*
X59690000Y59690000D03*
X61825400Y24659000D03*
X51919400Y47265000D03*
X43283400Y23262000D03*
X50014400Y31771000D03*
X16359400Y20214000D03*
X25605000Y8543000D03*
X41378400Y38248000D03*
X30075568Y17089632D03*
X13921000Y43505800D03*
X29948400Y57044000D03*
X3810000Y3810000D03*
X43283400Y28850000D03*
X42140400Y55520000D03*
X53697400Y24659000D03*
X8104400Y14753000D03*
X35917400Y55393000D03*
X29186400Y45741000D03*
X18010400Y35073000D03*
X3810000Y59690000D03*
X40108400Y43201000D03*
X29313400Y28342000D03*
X56618400Y24659000D03*
X17985000Y42210400D03*
X50268400Y22246000D03*
X44934400Y43328000D03*
X33123400Y47392000D03*
X9044200Y25421000D03*
X12930400Y22119000D03*
X44426400Y51202000D03*
X55348400Y47265000D03*
X59690000Y3810000D03*
X50014400Y35708000D03*
X10339600Y40305400D03*
X42267400Y43328000D03*
X19229600Y28977000D03*
X42267400Y49170000D03*
X46839400Y46376000D03*
X17959600Y40559400D03*
X23217400Y39010000D03*
X50014400Y39391000D03*
X49887400Y27580000D03*
X34393400Y48154000D03*
X55729400Y50440000D03*
X13844800Y37235100D03*
X20959900Y22373000D03*
X21185400Y50694000D03*
X19939000Y25548000D03*
X19280400Y21103000D03*
X19153400Y44623400D03*
X21947400Y37232000D03*
X23090400Y35962000D03*
X19534400Y27834000D03*
X15025900Y25992500D03*
X21439400Y46122000D03*
X21845900Y23770000D03*
X24515900Y31644000D03*
X21794900Y43934500D03*
X16379400Y58227000D03*
X23379400Y58227000D03*
X17629400Y60727000D03*
X22129400Y60727000D03*
D11*
X35534400Y61362000D03*
X28934400Y61362000D03*
D10*
X11440000Y8890000D03*
X19040000Y8890000D03*
X35409400Y21611000D03*
X32869400Y21611000D03*
X30329400Y21611000D03*
X27789400Y21611000D03*
X40382400Y58170000D03*
X47382400Y58170000D03*
X41632400Y60670000D03*
X46132400Y60670000D03*
X33961600Y12390800D03*
X33961600Y5890800D03*
X29461600Y12390800D03*
X29461600Y5890800D03*
X62253400Y45010000D03*
X62253400Y43010000D03*
X57253400Y43010000D03*
X62253400Y41010000D03*
X57253400Y41010000D03*
X62253400Y39010000D03*
X57253400Y39010000D03*
X62253400Y37010000D03*
X57253400Y37010000D03*
X62253400Y35010000D03*
X57253400Y35010000D03*
X62253400Y33010000D03*
X57253400Y33010000D03*
X62253400Y31010000D03*
X57253400Y31010000D03*
X62253400Y29010000D03*
X57253400Y29010000D03*
X62253400Y27010000D03*
X57253400Y27010000D03*
M02*
